G04 #@! TF.GenerationSoftware,KiCad,Pcbnew,(5.0.0)*
G04 #@! TF.CreationDate,2019-09-04T21:05:25+09:00*
G04 #@! TF.ProjectId,ir_send_mod,69725F73656E645F6D6F642E6B696361,rev?*
G04 #@! TF.SameCoordinates,Original*
G04 #@! TF.FileFunction,Copper,L1,Top,Signal*
G04 #@! TF.FilePolarity,Positive*
%FSLAX46Y46*%
G04 Gerber Fmt 4.6, Leading zero omitted, Abs format (unit mm)*
G04 Created by KiCad (PCBNEW (5.0.0)) date 09/04/19 21:05:25*
%MOMM*%
%LPD*%
G01*
G04 APERTURE LIST*
G04 #@! TA.AperFunction,ComponentPad*
%ADD10C,1.800000*%
G04 #@! TD*
G04 #@! TA.AperFunction,ComponentPad*
%ADD11R,1.800000X1.800000*%
G04 #@! TD*
G04 #@! TA.AperFunction,ComponentPad*
%ADD12O,1.050000X1.500000*%
G04 #@! TD*
G04 #@! TA.AperFunction,ComponentPad*
%ADD13R,1.050000X1.500000*%
G04 #@! TD*
G04 #@! TA.AperFunction,ComponentPad*
%ADD14R,2.000000X1.905000*%
G04 #@! TD*
G04 #@! TA.AperFunction,ComponentPad*
%ADD15O,2.000000X1.905000*%
G04 #@! TD*
G04 #@! TA.AperFunction,ComponentPad*
%ADD16C,1.600000*%
G04 #@! TD*
G04 #@! TA.AperFunction,ComponentPad*
%ADD17O,1.600000X1.600000*%
G04 #@! TD*
G04 #@! TA.AperFunction,ComponentPad*
%ADD18C,1.524000*%
G04 #@! TD*
G04 #@! TA.AperFunction,ComponentPad*
%ADD19R,1.524000X1.524000*%
G04 #@! TD*
G04 #@! TA.AperFunction,ComponentPad*
%ADD20R,1.600000X1.600000*%
G04 #@! TD*
G04 #@! TA.AperFunction,ComponentPad*
%ADD21R,1.700000X1.700000*%
G04 #@! TD*
G04 #@! TA.AperFunction,ComponentPad*
%ADD22O,1.700000X1.700000*%
G04 #@! TD*
G04 #@! TA.AperFunction,ViaPad*
%ADD23C,0.800000*%
G04 #@! TD*
G04 #@! TA.AperFunction,Conductor*
%ADD24C,0.400000*%
G04 #@! TD*
G04 #@! TA.AperFunction,Conductor*
%ADD25C,0.250000*%
G04 #@! TD*
G04 #@! TA.AperFunction,Conductor*
%ADD26C,0.254000*%
G04 #@! TD*
G04 APERTURE END LIST*
D10*
G04 #@! TO.P,D1,2*
G04 #@! TO.N,Net-(D1-Pad2)*
X36740000Y-131800000D03*
D11*
G04 #@! TO.P,D1,1*
G04 #@! TO.N,GND*
X34200000Y-131800000D03*
G04 #@! TD*
G04 #@! TO.P,D2,1*
G04 #@! TO.N,GND*
X40700000Y-131800000D03*
D10*
G04 #@! TO.P,D2,2*
G04 #@! TO.N,Net-(D2-Pad2)*
X43240000Y-131800000D03*
G04 #@! TD*
G04 #@! TO.P,D3,2*
G04 #@! TO.N,Net-(D3-Pad2)*
X49740000Y-131800000D03*
D11*
G04 #@! TO.P,D3,1*
G04 #@! TO.N,GND*
X47200000Y-131800000D03*
G04 #@! TD*
G04 #@! TO.P,D4,1*
G04 #@! TO.N,GND*
X53700000Y-131800000D03*
D10*
G04 #@! TO.P,D4,2*
G04 #@! TO.N,Net-(D4-Pad2)*
X56240000Y-131800000D03*
G04 #@! TD*
D11*
G04 #@! TO.P,D5,1*
G04 #@! TO.N,GND*
X55450000Y-100050000D03*
D10*
G04 #@! TO.P,D5,2*
G04 #@! TO.N,Net-(D5-Pad2)*
X57990000Y-100050000D03*
G04 #@! TD*
D12*
G04 #@! TO.P,Q1,2*
G04 #@! TO.N,Net-(Q1-Pad2)*
X55370000Y-110550000D03*
G04 #@! TO.P,Q1,3*
G04 #@! TO.N,Net-(Q1-Pad3)*
X56640000Y-110550000D03*
D13*
G04 #@! TO.P,Q1,1*
G04 #@! TO.N,GND*
X54100000Y-110550000D03*
G04 #@! TD*
D14*
G04 #@! TO.P,Q2,1*
G04 #@! TO.N,Net-(Q1-Pad3)*
X54400000Y-116750000D03*
D15*
G04 #@! TO.P,Q2,2*
G04 #@! TO.N,Net-(D5-Pad2)*
X54400000Y-119290000D03*
G04 #@! TO.P,Q2,3*
G04 #@! TO.N,5V*
X54400000Y-121830000D03*
G04 #@! TD*
D16*
G04 #@! TO.P,R1,1*
G04 #@! TO.N,Net-(R1-Pad1)*
X33650000Y-83250000D03*
D17*
G04 #@! TO.P,R1,2*
G04 #@! TO.N,GND*
X33650000Y-90870000D03*
G04 #@! TD*
G04 #@! TO.P,R2,2*
G04 #@! TO.N,GND*
X36850000Y-90870000D03*
D16*
G04 #@! TO.P,R2,1*
G04 #@! TO.N,Net-(J1-Pad5)*
X36850000Y-83250000D03*
G04 #@! TD*
D17*
G04 #@! TO.P,R3,2*
G04 #@! TO.N,GND*
X40050000Y-90870000D03*
D16*
G04 #@! TO.P,R3,1*
G04 #@! TO.N,Net-(J1-Pad4)*
X40050000Y-83250000D03*
G04 #@! TD*
G04 #@! TO.P,R4,1*
G04 #@! TO.N,Net-(R4-Pad1)*
X38200000Y-103820000D03*
D17*
G04 #@! TO.P,R4,2*
G04 #@! TO.N,Net-(J1-Pad1)*
X38200000Y-96200000D03*
G04 #@! TD*
D16*
G04 #@! TO.P,R5,1*
G04 #@! TO.N,Net-(Q1-Pad2)*
X49650000Y-118100000D03*
D17*
G04 #@! TO.P,R5,2*
G04 #@! TO.N,Net-(R5-Pad2)*
X49650000Y-125720000D03*
G04 #@! TD*
G04 #@! TO.P,R6,2*
G04 #@! TO.N,Net-(J1-Pad1)*
X43250000Y-90870000D03*
D16*
G04 #@! TO.P,R6,1*
G04 #@! TO.N,GND*
X43250000Y-83250000D03*
G04 #@! TD*
G04 #@! TO.P,R7,1*
G04 #@! TO.N,5V*
X46500000Y-118100000D03*
D17*
G04 #@! TO.P,R7,2*
G04 #@! TO.N,Net-(Q1-Pad3)*
X46500000Y-125720000D03*
G04 #@! TD*
G04 #@! TO.P,R8,2*
G04 #@! TO.N,Net-(D1-Pad2)*
X32400000Y-125670000D03*
D16*
G04 #@! TO.P,R8,1*
G04 #@! TO.N,Net-(R8-Pad1)*
X32400000Y-118050000D03*
G04 #@! TD*
G04 #@! TO.P,R10,1*
G04 #@! TO.N,Net-(R10-Pad1)*
X38650000Y-118050000D03*
D17*
G04 #@! TO.P,R10,2*
G04 #@! TO.N,Net-(D3-Pad2)*
X38650000Y-125670000D03*
G04 #@! TD*
D18*
G04 #@! TO.P,SW1,2*
G04 #@! TO.N,Net-(J1-Pad5)*
X57290000Y-84460000D03*
D19*
G04 #@! TO.P,SW1,1*
G04 #@! TO.N,Net-(J1-Pad4)*
X57290000Y-89540000D03*
D18*
G04 #@! TO.P,SW1,8*
G04 #@! TO.N,Net-(J1-Pad1)*
X49670000Y-84460000D03*
G04 #@! TO.P,SW1,4*
G04 #@! TO.N,Net-(R1-Pad1)*
X49670000Y-89540000D03*
G04 #@! TO.P,SW1,C*
G04 #@! TO.N,5V*
X49670000Y-87000000D03*
G04 #@! TD*
D20*
G04 #@! TO.P,U1,1*
G04 #@! TO.N,5V*
X42950000Y-95750000D03*
D17*
G04 #@! TO.P,U1,5*
G04 #@! TO.N,Net-(R1-Pad1)*
X50570000Y-103370000D03*
G04 #@! TO.P,U1,2*
G04 #@! TO.N,Net-(R5-Pad2)*
X42950000Y-98290000D03*
G04 #@! TO.P,U1,6*
G04 #@! TO.N,Net-(J1-Pad5)*
X50570000Y-100830000D03*
G04 #@! TO.P,U1,3*
G04 #@! TO.N,Net-(J2-Pad3)*
X42950000Y-100830000D03*
G04 #@! TO.P,U1,7*
G04 #@! TO.N,Net-(J1-Pad4)*
X50570000Y-98290000D03*
G04 #@! TO.P,U1,4*
G04 #@! TO.N,Net-(J1-Pad1)*
X42950000Y-103370000D03*
G04 #@! TO.P,U1,8*
G04 #@! TO.N,GND*
X50570000Y-95750000D03*
G04 #@! TD*
D16*
G04 #@! TO.P,R9,1*
G04 #@! TO.N,Net-(R9-Pad1)*
X35550000Y-118050000D03*
D17*
G04 #@! TO.P,R9,2*
G04 #@! TO.N,Net-(D2-Pad2)*
X35550000Y-125670000D03*
G04 #@! TD*
D16*
G04 #@! TO.P,R11,1*
G04 #@! TO.N,Net-(R11-Pad1)*
X41750000Y-118050000D03*
D17*
G04 #@! TO.P,R11,2*
G04 #@! TO.N,Net-(D4-Pad2)*
X41750000Y-125670000D03*
G04 #@! TD*
D21*
G04 #@! TO.P,SW3,1*
G04 #@! TO.N,N/C*
X33150000Y-102450000D03*
D22*
G04 #@! TO.P,SW3,2*
G04 #@! TO.N,5V*
X33150000Y-99910000D03*
G04 #@! TO.P,SW3,3*
G04 #@! TO.N,Net-(R4-Pad1)*
X33150000Y-97370000D03*
G04 #@! TD*
D21*
G04 #@! TO.P,J1,1*
G04 #@! TO.N,Net-(J1-Pad1)*
X50300000Y-68550000D03*
D22*
G04 #@! TO.P,J1,2*
G04 #@! TO.N,5V*
X47760000Y-68550000D03*
G04 #@! TO.P,J1,3*
G04 #@! TO.N,GND*
X45220000Y-68550000D03*
G04 #@! TO.P,J1,4*
G04 #@! TO.N,Net-(J1-Pad4)*
X42680000Y-68550000D03*
G04 #@! TO.P,J1,5*
G04 #@! TO.N,Net-(J1-Pad5)*
X40140000Y-68550000D03*
G04 #@! TD*
D21*
G04 #@! TO.P,J2,1*
G04 #@! TO.N,5V*
X47750000Y-49750000D03*
D22*
G04 #@! TO.P,J2,2*
G04 #@! TO.N,GND*
X45210000Y-49750000D03*
G04 #@! TO.P,J2,3*
G04 #@! TO.N,Net-(J2-Pad3)*
X42670000Y-49750000D03*
G04 #@! TD*
G04 #@! TO.P,SW2,3*
G04 #@! TO.N,5V*
X47730000Y-76700000D03*
G04 #@! TO.P,SW2,2*
G04 #@! TO.N,Net-(R5-Pad2)*
X45190000Y-76700000D03*
D21*
G04 #@! TO.P,SW2,1*
G04 #@! TO.N,N/C*
X42650000Y-76700000D03*
G04 #@! TD*
D20*
G04 #@! TO.P,SW4,1*
G04 #@! TO.N,Net-(D5-Pad2)*
X45000000Y-107150000D03*
D17*
G04 #@! TO.P,SW4,5*
G04 #@! TO.N,Net-(R8-Pad1)*
X37380000Y-114770000D03*
G04 #@! TO.P,SW4,2*
G04 #@! TO.N,Net-(D5-Pad2)*
X42460000Y-107150000D03*
G04 #@! TO.P,SW4,6*
G04 #@! TO.N,Net-(R9-Pad1)*
X39920000Y-114770000D03*
G04 #@! TO.P,SW4,3*
G04 #@! TO.N,Net-(D5-Pad2)*
X39920000Y-107150000D03*
G04 #@! TO.P,SW4,7*
G04 #@! TO.N,Net-(R10-Pad1)*
X42460000Y-114770000D03*
G04 #@! TO.P,SW4,4*
G04 #@! TO.N,Net-(D5-Pad2)*
X37380000Y-107150000D03*
G04 #@! TO.P,SW4,8*
G04 #@! TO.N,Net-(R11-Pad1)*
X45000000Y-114770000D03*
G04 #@! TD*
D23*
G04 #@! TO.N,5V*
X47578100Y-91986600D03*
G04 #@! TD*
D24*
G04 #@! TO.N,GND*
X53700000Y-131800000D02*
X53700000Y-130499700D01*
X54100000Y-110550000D02*
X54100000Y-111700300D01*
X54100000Y-111700300D02*
X55818400Y-113418700D01*
X55818400Y-113418700D02*
X55818400Y-128381300D01*
X55818400Y-128381300D02*
X53700000Y-130499700D01*
X50570000Y-95750000D02*
X50570000Y-96950300D01*
X55450000Y-100050000D02*
X54149700Y-100050000D01*
X54149700Y-100050000D02*
X51050000Y-96950300D01*
X51050000Y-96950300D02*
X50570000Y-96950300D01*
X45220000Y-68550000D02*
X45220000Y-69800300D01*
X45220000Y-69800300D02*
X43900400Y-71119900D01*
X43900400Y-71119900D02*
X43900400Y-82599600D01*
X43900400Y-82599600D02*
X43250000Y-83250000D01*
D25*
G04 #@! TO.N,Net-(D5-Pad2)*
X50890000Y-107150000D02*
X57990000Y-100050000D01*
X45000000Y-107150000D02*
X50890000Y-107150000D01*
X54400000Y-119290000D02*
X50890000Y-115780000D01*
X50890000Y-115780000D02*
X50890000Y-107150000D01*
D24*
G04 #@! TO.N,5V*
X49670000Y-87000000D02*
X47578100Y-89091900D01*
X47578100Y-89091900D02*
X47578100Y-91986600D01*
X46500000Y-118100000D02*
X50230000Y-121830000D01*
X50230000Y-121830000D02*
X54400000Y-121830000D01*
X40424900Y-99910000D02*
X40424900Y-102569700D01*
X40424900Y-102569700D02*
X43717300Y-105862100D01*
X43717300Y-105862100D02*
X43717300Y-115317300D01*
X43717300Y-115317300D02*
X46500000Y-118100000D01*
X41749700Y-95750000D02*
X40424900Y-97074800D01*
X40424900Y-97074800D02*
X40424900Y-99910000D01*
X40424900Y-99910000D02*
X33150000Y-99910000D01*
X42950000Y-95750000D02*
X41749700Y-95750000D01*
X47750000Y-49750000D02*
X47750000Y-51000300D01*
X47750000Y-51000300D02*
X47760000Y-51010300D01*
X47760000Y-51010300D02*
X47760000Y-68550000D01*
X47730000Y-76700000D02*
X47730000Y-75449700D01*
X47730000Y-75449700D02*
X47760000Y-75419700D01*
X47760000Y-75419700D02*
X47760000Y-68550000D01*
D25*
G04 #@! TO.N,Net-(J1-Pad1)*
X49670000Y-84460000D02*
X50757400Y-85547400D01*
X50757400Y-85547400D02*
X50757400Y-93947500D01*
X50757400Y-93947500D02*
X44075300Y-100629600D01*
X44075300Y-100629600D02*
X44075300Y-101400800D01*
X44075300Y-101400800D02*
X43231400Y-102244700D01*
X43231400Y-102244700D02*
X42950000Y-102244700D01*
X42950000Y-103370000D02*
X42950000Y-102244700D01*
X50300000Y-68550000D02*
X50300000Y-83830000D01*
X50300000Y-83830000D02*
X49670000Y-84460000D01*
X43250000Y-90870000D02*
X42124700Y-90870000D01*
X38200000Y-96200000D02*
X38200000Y-95074700D01*
X38200000Y-95074700D02*
X42124700Y-91150000D01*
X42124700Y-91150000D02*
X42124700Y-90870000D01*
G04 #@! TO.N,Net-(J1-Pad4)*
X42680000Y-68550000D02*
X42680000Y-69725300D01*
X42680000Y-69725300D02*
X40050000Y-72355300D01*
X40050000Y-72355300D02*
X40050000Y-83250000D01*
G04 #@! TO.N,Net-(J2-Pad3)*
X42950000Y-100830000D02*
X42950000Y-99704700D01*
X42670000Y-49750000D02*
X42670000Y-50925300D01*
X42670000Y-50925300D02*
X46396300Y-54651600D01*
X46396300Y-54651600D02*
X46396300Y-96539700D01*
X46396300Y-96539700D02*
X43231300Y-99704700D01*
X43231300Y-99704700D02*
X42950000Y-99704700D01*
G04 #@! TO.N,Net-(R5-Pad2)*
X45190000Y-76700000D02*
X45190000Y-95628000D01*
X45190000Y-95628000D02*
X43653300Y-97164700D01*
X43653300Y-97164700D02*
X42950000Y-97164700D01*
X42950000Y-98290000D02*
X42950000Y-97164700D01*
G04 #@! TD*
D26*
G04 #@! TO.N,GND*
G36*
X61090000Y-143990000D02*
X29310000Y-143990000D01*
X29310000Y-139255431D01*
X31365000Y-139255431D01*
X31365000Y-140144569D01*
X31705259Y-140966026D01*
X32333974Y-141594741D01*
X33155431Y-141935000D01*
X34044569Y-141935000D01*
X34866026Y-141594741D01*
X35494741Y-140966026D01*
X35835000Y-140144569D01*
X35835000Y-139255431D01*
X54565000Y-139255431D01*
X54565000Y-140144569D01*
X54905259Y-140966026D01*
X55533974Y-141594741D01*
X56355431Y-141935000D01*
X57244569Y-141935000D01*
X58066026Y-141594741D01*
X58694741Y-140966026D01*
X59035000Y-140144569D01*
X59035000Y-139255431D01*
X58694741Y-138433974D01*
X58066026Y-137805259D01*
X57244569Y-137465000D01*
X56355431Y-137465000D01*
X55533974Y-137805259D01*
X54905259Y-138433974D01*
X54565000Y-139255431D01*
X35835000Y-139255431D01*
X35494741Y-138433974D01*
X34866026Y-137805259D01*
X34044569Y-137465000D01*
X33155431Y-137465000D01*
X32333974Y-137805259D01*
X31705259Y-138433974D01*
X31365000Y-139255431D01*
X29310000Y-139255431D01*
X29310000Y-132085750D01*
X32665000Y-132085750D01*
X32665000Y-132826310D01*
X32761673Y-133059699D01*
X32940302Y-133238327D01*
X33173691Y-133335000D01*
X33914250Y-133335000D01*
X34073000Y-133176250D01*
X34073000Y-131927000D01*
X32823750Y-131927000D01*
X32665000Y-132085750D01*
X29310000Y-132085750D01*
X29310000Y-130773690D01*
X32665000Y-130773690D01*
X32665000Y-131514250D01*
X32823750Y-131673000D01*
X34073000Y-131673000D01*
X34073000Y-130423750D01*
X34327000Y-130423750D01*
X34327000Y-131673000D01*
X34347000Y-131673000D01*
X34347000Y-131927000D01*
X34327000Y-131927000D01*
X34327000Y-133176250D01*
X34485750Y-133335000D01*
X35226309Y-133335000D01*
X35459698Y-133238327D01*
X35638327Y-133059699D01*
X35694139Y-132924956D01*
X35870493Y-133101310D01*
X36434670Y-133335000D01*
X37045330Y-133335000D01*
X37609507Y-133101310D01*
X38041310Y-132669507D01*
X38275000Y-132105330D01*
X38275000Y-132085750D01*
X39165000Y-132085750D01*
X39165000Y-132826310D01*
X39261673Y-133059699D01*
X39440302Y-133238327D01*
X39673691Y-133335000D01*
X40414250Y-133335000D01*
X40573000Y-133176250D01*
X40573000Y-131927000D01*
X39323750Y-131927000D01*
X39165000Y-132085750D01*
X38275000Y-132085750D01*
X38275000Y-131494670D01*
X38041310Y-130930493D01*
X37884507Y-130773690D01*
X39165000Y-130773690D01*
X39165000Y-131514250D01*
X39323750Y-131673000D01*
X40573000Y-131673000D01*
X40573000Y-130423750D01*
X40827000Y-130423750D01*
X40827000Y-131673000D01*
X40847000Y-131673000D01*
X40847000Y-131927000D01*
X40827000Y-131927000D01*
X40827000Y-133176250D01*
X40985750Y-133335000D01*
X41726309Y-133335000D01*
X41959698Y-133238327D01*
X42138327Y-133059699D01*
X42194139Y-132924956D01*
X42370493Y-133101310D01*
X42934670Y-133335000D01*
X43545330Y-133335000D01*
X44109507Y-133101310D01*
X44541310Y-132669507D01*
X44775000Y-132105330D01*
X44775000Y-132085750D01*
X45665000Y-132085750D01*
X45665000Y-132826310D01*
X45761673Y-133059699D01*
X45940302Y-133238327D01*
X46173691Y-133335000D01*
X46914250Y-133335000D01*
X47073000Y-133176250D01*
X47073000Y-131927000D01*
X45823750Y-131927000D01*
X45665000Y-132085750D01*
X44775000Y-132085750D01*
X44775000Y-131494670D01*
X44541310Y-130930493D01*
X44384507Y-130773690D01*
X45665000Y-130773690D01*
X45665000Y-131514250D01*
X45823750Y-131673000D01*
X47073000Y-131673000D01*
X47073000Y-130423750D01*
X47327000Y-130423750D01*
X47327000Y-131673000D01*
X47347000Y-131673000D01*
X47347000Y-131927000D01*
X47327000Y-131927000D01*
X47327000Y-133176250D01*
X47485750Y-133335000D01*
X48226309Y-133335000D01*
X48459698Y-133238327D01*
X48638327Y-133059699D01*
X48694139Y-132924956D01*
X48870493Y-133101310D01*
X49434670Y-133335000D01*
X50045330Y-133335000D01*
X50609507Y-133101310D01*
X51041310Y-132669507D01*
X51275000Y-132105330D01*
X51275000Y-132085750D01*
X52165000Y-132085750D01*
X52165000Y-132826310D01*
X52261673Y-133059699D01*
X52440302Y-133238327D01*
X52673691Y-133335000D01*
X53414250Y-133335000D01*
X53573000Y-133176250D01*
X53573000Y-131927000D01*
X52323750Y-131927000D01*
X52165000Y-132085750D01*
X51275000Y-132085750D01*
X51275000Y-131494670D01*
X51041310Y-130930493D01*
X50884507Y-130773690D01*
X52165000Y-130773690D01*
X52165000Y-131514250D01*
X52323750Y-131673000D01*
X53573000Y-131673000D01*
X53573000Y-130423750D01*
X53827000Y-130423750D01*
X53827000Y-131673000D01*
X53847000Y-131673000D01*
X53847000Y-131927000D01*
X53827000Y-131927000D01*
X53827000Y-133176250D01*
X53985750Y-133335000D01*
X54726309Y-133335000D01*
X54959698Y-133238327D01*
X55138327Y-133059699D01*
X55194139Y-132924956D01*
X55370493Y-133101310D01*
X55934670Y-133335000D01*
X56545330Y-133335000D01*
X57109507Y-133101310D01*
X57541310Y-132669507D01*
X57775000Y-132105330D01*
X57775000Y-131494670D01*
X57541310Y-130930493D01*
X57109507Y-130498690D01*
X56545330Y-130265000D01*
X55934670Y-130265000D01*
X55370493Y-130498690D01*
X55194139Y-130675044D01*
X55138327Y-130540301D01*
X54959698Y-130361673D01*
X54726309Y-130265000D01*
X53985750Y-130265000D01*
X53827000Y-130423750D01*
X53573000Y-130423750D01*
X53414250Y-130265000D01*
X52673691Y-130265000D01*
X52440302Y-130361673D01*
X52261673Y-130540301D01*
X52165000Y-130773690D01*
X50884507Y-130773690D01*
X50609507Y-130498690D01*
X50045330Y-130265000D01*
X49434670Y-130265000D01*
X48870493Y-130498690D01*
X48694139Y-130675044D01*
X48638327Y-130540301D01*
X48459698Y-130361673D01*
X48226309Y-130265000D01*
X47485750Y-130265000D01*
X47327000Y-130423750D01*
X47073000Y-130423750D01*
X46914250Y-130265000D01*
X46173691Y-130265000D01*
X45940302Y-130361673D01*
X45761673Y-130540301D01*
X45665000Y-130773690D01*
X44384507Y-130773690D01*
X44109507Y-130498690D01*
X43545330Y-130265000D01*
X42934670Y-130265000D01*
X42370493Y-130498690D01*
X42194139Y-130675044D01*
X42138327Y-130540301D01*
X41959698Y-130361673D01*
X41726309Y-130265000D01*
X40985750Y-130265000D01*
X40827000Y-130423750D01*
X40573000Y-130423750D01*
X40414250Y-130265000D01*
X39673691Y-130265000D01*
X39440302Y-130361673D01*
X39261673Y-130540301D01*
X39165000Y-130773690D01*
X37884507Y-130773690D01*
X37609507Y-130498690D01*
X37045330Y-130265000D01*
X36434670Y-130265000D01*
X35870493Y-130498690D01*
X35694139Y-130675044D01*
X35638327Y-130540301D01*
X35459698Y-130361673D01*
X35226309Y-130265000D01*
X34485750Y-130265000D01*
X34327000Y-130423750D01*
X34073000Y-130423750D01*
X33914250Y-130265000D01*
X33173691Y-130265000D01*
X32940302Y-130361673D01*
X32761673Y-130540301D01*
X32665000Y-130773690D01*
X29310000Y-130773690D01*
X29310000Y-125670000D01*
X30936887Y-125670000D01*
X31048260Y-126229909D01*
X31365423Y-126704577D01*
X31840091Y-127021740D01*
X32258667Y-127105000D01*
X32541333Y-127105000D01*
X32959909Y-127021740D01*
X33434577Y-126704577D01*
X33751740Y-126229909D01*
X33863113Y-125670000D01*
X34086887Y-125670000D01*
X34198260Y-126229909D01*
X34515423Y-126704577D01*
X34990091Y-127021740D01*
X35408667Y-127105000D01*
X35691333Y-127105000D01*
X36109909Y-127021740D01*
X36584577Y-126704577D01*
X36901740Y-126229909D01*
X37013113Y-125670000D01*
X37186887Y-125670000D01*
X37298260Y-126229909D01*
X37615423Y-126704577D01*
X38090091Y-127021740D01*
X38508667Y-127105000D01*
X38791333Y-127105000D01*
X39209909Y-127021740D01*
X39684577Y-126704577D01*
X40001740Y-126229909D01*
X40113113Y-125670000D01*
X40286887Y-125670000D01*
X40398260Y-126229909D01*
X40715423Y-126704577D01*
X41190091Y-127021740D01*
X41608667Y-127105000D01*
X41891333Y-127105000D01*
X42309909Y-127021740D01*
X42784577Y-126704577D01*
X43101740Y-126229909D01*
X43203167Y-125720000D01*
X45036887Y-125720000D01*
X45148260Y-126279909D01*
X45465423Y-126754577D01*
X45940091Y-127071740D01*
X46358667Y-127155000D01*
X46641333Y-127155000D01*
X47059909Y-127071740D01*
X47534577Y-126754577D01*
X47851740Y-126279909D01*
X47963113Y-125720000D01*
X48186887Y-125720000D01*
X48298260Y-126279909D01*
X48615423Y-126754577D01*
X49090091Y-127071740D01*
X49508667Y-127155000D01*
X49791333Y-127155000D01*
X50209909Y-127071740D01*
X50684577Y-126754577D01*
X51001740Y-126279909D01*
X51113113Y-125720000D01*
X51001740Y-125160091D01*
X50684577Y-124685423D01*
X50209909Y-124368260D01*
X49791333Y-124285000D01*
X49508667Y-124285000D01*
X49090091Y-124368260D01*
X48615423Y-124685423D01*
X48298260Y-125160091D01*
X48186887Y-125720000D01*
X47963113Y-125720000D01*
X47851740Y-125160091D01*
X47534577Y-124685423D01*
X47059909Y-124368260D01*
X46641333Y-124285000D01*
X46358667Y-124285000D01*
X45940091Y-124368260D01*
X45465423Y-124685423D01*
X45148260Y-125160091D01*
X45036887Y-125720000D01*
X43203167Y-125720000D01*
X43213113Y-125670000D01*
X43101740Y-125110091D01*
X42784577Y-124635423D01*
X42309909Y-124318260D01*
X41891333Y-124235000D01*
X41608667Y-124235000D01*
X41190091Y-124318260D01*
X40715423Y-124635423D01*
X40398260Y-125110091D01*
X40286887Y-125670000D01*
X40113113Y-125670000D01*
X40001740Y-125110091D01*
X39684577Y-124635423D01*
X39209909Y-124318260D01*
X38791333Y-124235000D01*
X38508667Y-124235000D01*
X38090091Y-124318260D01*
X37615423Y-124635423D01*
X37298260Y-125110091D01*
X37186887Y-125670000D01*
X37013113Y-125670000D01*
X36901740Y-125110091D01*
X36584577Y-124635423D01*
X36109909Y-124318260D01*
X35691333Y-124235000D01*
X35408667Y-124235000D01*
X34990091Y-124318260D01*
X34515423Y-124635423D01*
X34198260Y-125110091D01*
X34086887Y-125670000D01*
X33863113Y-125670000D01*
X33751740Y-125110091D01*
X33434577Y-124635423D01*
X32959909Y-124318260D01*
X32541333Y-124235000D01*
X32258667Y-124235000D01*
X31840091Y-124318260D01*
X31365423Y-124635423D01*
X31048260Y-125110091D01*
X30936887Y-125670000D01*
X29310000Y-125670000D01*
X29310000Y-117764561D01*
X30965000Y-117764561D01*
X30965000Y-118335439D01*
X31183466Y-118862862D01*
X31587138Y-119266534D01*
X32114561Y-119485000D01*
X32685439Y-119485000D01*
X33212862Y-119266534D01*
X33616534Y-118862862D01*
X33835000Y-118335439D01*
X33835000Y-117764561D01*
X34115000Y-117764561D01*
X34115000Y-118335439D01*
X34333466Y-118862862D01*
X34737138Y-119266534D01*
X35264561Y-119485000D01*
X35835439Y-119485000D01*
X36362862Y-119266534D01*
X36766534Y-118862862D01*
X36985000Y-118335439D01*
X36985000Y-117764561D01*
X37215000Y-117764561D01*
X37215000Y-118335439D01*
X37433466Y-118862862D01*
X37837138Y-119266534D01*
X38364561Y-119485000D01*
X38935439Y-119485000D01*
X39462862Y-119266534D01*
X39866534Y-118862862D01*
X40085000Y-118335439D01*
X40085000Y-117764561D01*
X40315000Y-117764561D01*
X40315000Y-118335439D01*
X40533466Y-118862862D01*
X40937138Y-119266534D01*
X41464561Y-119485000D01*
X42035439Y-119485000D01*
X42562862Y-119266534D01*
X42966534Y-118862862D01*
X43185000Y-118335439D01*
X43185000Y-117764561D01*
X42966534Y-117237138D01*
X42562862Y-116833466D01*
X42035439Y-116615000D01*
X41464561Y-116615000D01*
X40937138Y-116833466D01*
X40533466Y-117237138D01*
X40315000Y-117764561D01*
X40085000Y-117764561D01*
X39866534Y-117237138D01*
X39462862Y-116833466D01*
X38935439Y-116615000D01*
X38364561Y-116615000D01*
X37837138Y-116833466D01*
X37433466Y-117237138D01*
X37215000Y-117764561D01*
X36985000Y-117764561D01*
X36766534Y-117237138D01*
X36362862Y-116833466D01*
X35835439Y-116615000D01*
X35264561Y-116615000D01*
X34737138Y-116833466D01*
X34333466Y-117237138D01*
X34115000Y-117764561D01*
X33835000Y-117764561D01*
X33616534Y-117237138D01*
X33212862Y-116833466D01*
X32685439Y-116615000D01*
X32114561Y-116615000D01*
X31587138Y-116833466D01*
X31183466Y-117237138D01*
X30965000Y-117764561D01*
X29310000Y-117764561D01*
X29310000Y-97370000D01*
X31635908Y-97370000D01*
X31751161Y-97949418D01*
X32079375Y-98440625D01*
X32377761Y-98640000D01*
X32079375Y-98839375D01*
X31751161Y-99330582D01*
X31635908Y-99910000D01*
X31751161Y-100489418D01*
X32079375Y-100980625D01*
X32097619Y-100992816D01*
X32052235Y-101001843D01*
X31842191Y-101142191D01*
X31701843Y-101352235D01*
X31652560Y-101600000D01*
X31652560Y-103300000D01*
X31701843Y-103547765D01*
X31842191Y-103757809D01*
X32052235Y-103898157D01*
X32300000Y-103947440D01*
X34000000Y-103947440D01*
X34247765Y-103898157D01*
X34457809Y-103757809D01*
X34598157Y-103547765D01*
X34600783Y-103534561D01*
X36765000Y-103534561D01*
X36765000Y-104105439D01*
X36983466Y-104632862D01*
X37387138Y-105036534D01*
X37914561Y-105255000D01*
X38485439Y-105255000D01*
X39012862Y-105036534D01*
X39416534Y-104632862D01*
X39635000Y-104105439D01*
X39635000Y-103534561D01*
X39416534Y-103007138D01*
X39012862Y-102603466D01*
X38485439Y-102385000D01*
X37914561Y-102385000D01*
X37387138Y-102603466D01*
X36983466Y-103007138D01*
X36765000Y-103534561D01*
X34600783Y-103534561D01*
X34647440Y-103300000D01*
X34647440Y-101600000D01*
X34598157Y-101352235D01*
X34457809Y-101142191D01*
X34247765Y-101001843D01*
X34202381Y-100992816D01*
X34220625Y-100980625D01*
X34378065Y-100745000D01*
X39589900Y-100745000D01*
X39589901Y-102487462D01*
X39573543Y-102569700D01*
X39638348Y-102895500D01*
X39638349Y-102895501D01*
X39822900Y-103171701D01*
X39892618Y-103218285D01*
X42389332Y-105715000D01*
X42318667Y-105715000D01*
X41900091Y-105798260D01*
X41425423Y-106115423D01*
X41190000Y-106467758D01*
X40954577Y-106115423D01*
X40479909Y-105798260D01*
X40061333Y-105715000D01*
X39778667Y-105715000D01*
X39360091Y-105798260D01*
X38885423Y-106115423D01*
X38650000Y-106467758D01*
X38414577Y-106115423D01*
X37939909Y-105798260D01*
X37521333Y-105715000D01*
X37238667Y-105715000D01*
X36820091Y-105798260D01*
X36345423Y-106115423D01*
X36028260Y-106590091D01*
X35916887Y-107150000D01*
X36028260Y-107709909D01*
X36345423Y-108184577D01*
X36820091Y-108501740D01*
X37238667Y-108585000D01*
X37521333Y-108585000D01*
X37939909Y-108501740D01*
X38414577Y-108184577D01*
X38650000Y-107832242D01*
X38885423Y-108184577D01*
X39360091Y-108501740D01*
X39778667Y-108585000D01*
X40061333Y-108585000D01*
X40479909Y-108501740D01*
X40954577Y-108184577D01*
X41190000Y-107832242D01*
X41425423Y-108184577D01*
X41900091Y-108501740D01*
X42318667Y-108585000D01*
X42601333Y-108585000D01*
X42882300Y-108529112D01*
X42882301Y-113390888D01*
X42601333Y-113335000D01*
X42318667Y-113335000D01*
X41900091Y-113418260D01*
X41425423Y-113735423D01*
X41190000Y-114087758D01*
X40954577Y-113735423D01*
X40479909Y-113418260D01*
X40061333Y-113335000D01*
X39778667Y-113335000D01*
X39360091Y-113418260D01*
X38885423Y-113735423D01*
X38650000Y-114087758D01*
X38414577Y-113735423D01*
X37939909Y-113418260D01*
X37521333Y-113335000D01*
X37238667Y-113335000D01*
X36820091Y-113418260D01*
X36345423Y-113735423D01*
X36028260Y-114210091D01*
X35916887Y-114770000D01*
X36028260Y-115329909D01*
X36345423Y-115804577D01*
X36820091Y-116121740D01*
X37238667Y-116205000D01*
X37521333Y-116205000D01*
X37939909Y-116121740D01*
X38414577Y-115804577D01*
X38650000Y-115452242D01*
X38885423Y-115804577D01*
X39360091Y-116121740D01*
X39778667Y-116205000D01*
X40061333Y-116205000D01*
X40479909Y-116121740D01*
X40954577Y-115804577D01*
X41190000Y-115452242D01*
X41425423Y-115804577D01*
X41900091Y-116121740D01*
X42318667Y-116205000D01*
X42601333Y-116205000D01*
X43019909Y-116121740D01*
X43212313Y-115993180D01*
X45065000Y-117845868D01*
X45065000Y-118385439D01*
X45283466Y-118912862D01*
X45687138Y-119316534D01*
X46214561Y-119535000D01*
X46754133Y-119535000D01*
X49581415Y-122362283D01*
X49627999Y-122432001D01*
X49904199Y-122616552D01*
X50147763Y-122665000D01*
X50230000Y-122681358D01*
X50312237Y-122665000D01*
X53001161Y-122665000D01*
X53207977Y-122974523D01*
X53733089Y-123325391D01*
X54196150Y-123417500D01*
X54603850Y-123417500D01*
X55066911Y-123325391D01*
X55592023Y-122974523D01*
X55942891Y-122449411D01*
X56066100Y-121830000D01*
X55942891Y-121210589D01*
X55592023Y-120685477D01*
X55404233Y-120560000D01*
X55592023Y-120434523D01*
X55942891Y-119909411D01*
X56066100Y-119290000D01*
X55942891Y-118670589D01*
X55680912Y-118278509D01*
X55857809Y-118160309D01*
X55998157Y-117950265D01*
X56047440Y-117702500D01*
X56047440Y-115797500D01*
X55998157Y-115549735D01*
X55857809Y-115339691D01*
X55647765Y-115199343D01*
X55400000Y-115150060D01*
X53400000Y-115150060D01*
X53152235Y-115199343D01*
X52942191Y-115339691D01*
X52801843Y-115549735D01*
X52752560Y-115797500D01*
X52752560Y-116567759D01*
X51650000Y-115465199D01*
X51650000Y-110835750D01*
X52940000Y-110835750D01*
X52940000Y-111426310D01*
X53036673Y-111659699D01*
X53215302Y-111838327D01*
X53448691Y-111935000D01*
X53814250Y-111935000D01*
X53973000Y-111776250D01*
X53973000Y-110677000D01*
X53098750Y-110677000D01*
X52940000Y-110835750D01*
X51650000Y-110835750D01*
X51650000Y-109673690D01*
X52940000Y-109673690D01*
X52940000Y-110264250D01*
X53098750Y-110423000D01*
X53973000Y-110423000D01*
X53973000Y-110210755D01*
X54210000Y-110210755D01*
X54210000Y-110889246D01*
X54227000Y-110974710D01*
X54227000Y-111776250D01*
X54385750Y-111935000D01*
X54751309Y-111935000D01*
X54916016Y-111866776D01*
X54917392Y-111867695D01*
X55370000Y-111957725D01*
X55822609Y-111867695D01*
X56005001Y-111745825D01*
X56187392Y-111867695D01*
X56640000Y-111957725D01*
X57092609Y-111867695D01*
X57476313Y-111611313D01*
X57732695Y-111227608D01*
X57800000Y-110889245D01*
X57800000Y-110210754D01*
X57732695Y-109872391D01*
X57476313Y-109488687D01*
X57092608Y-109232305D01*
X56640000Y-109142275D01*
X56187391Y-109232305D01*
X56005000Y-109354175D01*
X55822608Y-109232305D01*
X55370000Y-109142275D01*
X54917391Y-109232305D01*
X54916016Y-109233224D01*
X54751309Y-109165000D01*
X54385750Y-109165000D01*
X54227000Y-109323750D01*
X54227000Y-110125291D01*
X54210000Y-110210755D01*
X53973000Y-110210755D01*
X53973000Y-109323750D01*
X53814250Y-109165000D01*
X53448691Y-109165000D01*
X53215302Y-109261673D01*
X53036673Y-109440301D01*
X52940000Y-109673690D01*
X51650000Y-109673690D01*
X51650000Y-107464801D01*
X57575162Y-101539640D01*
X57684670Y-101585000D01*
X58295330Y-101585000D01*
X58859507Y-101351310D01*
X59291310Y-100919507D01*
X59525000Y-100355330D01*
X59525000Y-99744670D01*
X59291310Y-99180493D01*
X58859507Y-98748690D01*
X58295330Y-98515000D01*
X57684670Y-98515000D01*
X57120493Y-98748690D01*
X56944139Y-98925044D01*
X56888327Y-98790301D01*
X56709698Y-98611673D01*
X56476309Y-98515000D01*
X55735750Y-98515000D01*
X55577000Y-98673750D01*
X55577000Y-99923000D01*
X55597000Y-99923000D01*
X55597000Y-100177000D01*
X55577000Y-100177000D01*
X55577000Y-100197000D01*
X55323000Y-100197000D01*
X55323000Y-100177000D01*
X54073750Y-100177000D01*
X53915000Y-100335750D01*
X53915000Y-101076310D01*
X54011673Y-101309699D01*
X54190302Y-101488327D01*
X54423691Y-101585000D01*
X55164250Y-101585000D01*
X55322998Y-101426252D01*
X55322998Y-101585000D01*
X55380198Y-101585000D01*
X50575199Y-106390000D01*
X46447440Y-106390000D01*
X46447440Y-106350000D01*
X46398157Y-106102235D01*
X46257809Y-105892191D01*
X46047765Y-105751843D01*
X45800000Y-105702560D01*
X44536923Y-105702560D01*
X44503852Y-105536300D01*
X44503852Y-105536299D01*
X44319301Y-105260099D01*
X44249583Y-105213515D01*
X43658513Y-104622446D01*
X43984577Y-104404577D01*
X44301740Y-103929909D01*
X44413113Y-103370000D01*
X44301740Y-102810091D01*
X44077063Y-102473838D01*
X44559773Y-101991129D01*
X44623229Y-101948729D01*
X44749182Y-101760228D01*
X44791204Y-101697338D01*
X44809593Y-101604889D01*
X44835300Y-101475652D01*
X44835300Y-101475648D01*
X44850188Y-101400800D01*
X44835300Y-101325952D01*
X44835300Y-100944401D01*
X49325288Y-96454415D01*
X49338959Y-96487423D01*
X49714866Y-96902389D01*
X49919108Y-96999053D01*
X49535423Y-97255423D01*
X49218260Y-97730091D01*
X49106887Y-98290000D01*
X49218260Y-98849909D01*
X49535423Y-99324577D01*
X49887758Y-99560000D01*
X49535423Y-99795423D01*
X49218260Y-100270091D01*
X49106887Y-100830000D01*
X49218260Y-101389909D01*
X49535423Y-101864577D01*
X49887758Y-102100000D01*
X49535423Y-102335423D01*
X49218260Y-102810091D01*
X49106887Y-103370000D01*
X49218260Y-103929909D01*
X49535423Y-104404577D01*
X50010091Y-104721740D01*
X50428667Y-104805000D01*
X50711333Y-104805000D01*
X51129909Y-104721740D01*
X51604577Y-104404577D01*
X51921740Y-103929909D01*
X52033113Y-103370000D01*
X51921740Y-102810091D01*
X51604577Y-102335423D01*
X51252242Y-102100000D01*
X51604577Y-101864577D01*
X51921740Y-101389909D01*
X52033113Y-100830000D01*
X51921740Y-100270091D01*
X51604577Y-99795423D01*
X51252242Y-99560000D01*
X51604577Y-99324577D01*
X51805623Y-99023690D01*
X53915000Y-99023690D01*
X53915000Y-99764250D01*
X54073750Y-99923000D01*
X55323000Y-99923000D01*
X55323000Y-98673750D01*
X55164250Y-98515000D01*
X54423691Y-98515000D01*
X54190302Y-98611673D01*
X54011673Y-98790301D01*
X53915000Y-99023690D01*
X51805623Y-99023690D01*
X51921740Y-98849909D01*
X52033113Y-98290000D01*
X51921740Y-97730091D01*
X51604577Y-97255423D01*
X51220892Y-96999053D01*
X51425134Y-96902389D01*
X51801041Y-96487423D01*
X51961904Y-96099039D01*
X51839915Y-95877000D01*
X50697000Y-95877000D01*
X50697000Y-95897000D01*
X50443000Y-95897000D01*
X50443000Y-95877000D01*
X50423000Y-95877000D01*
X50423000Y-95623000D01*
X50443000Y-95623000D01*
X50443000Y-95603000D01*
X50697000Y-95603000D01*
X50697000Y-95623000D01*
X51839915Y-95623000D01*
X51961904Y-95400961D01*
X51801041Y-95012577D01*
X51425134Y-94597611D01*
X51265485Y-94522052D01*
X51305329Y-94495429D01*
X51347727Y-94431976D01*
X51347729Y-94431974D01*
X51473303Y-94244038D01*
X51473304Y-94244037D01*
X51517400Y-94022352D01*
X51517400Y-94022348D01*
X51532288Y-93947501D01*
X51517400Y-93872654D01*
X51517400Y-88778000D01*
X55880560Y-88778000D01*
X55880560Y-90302000D01*
X55929843Y-90549765D01*
X56070191Y-90759809D01*
X56280235Y-90900157D01*
X56528000Y-90949440D01*
X58052000Y-90949440D01*
X58299765Y-90900157D01*
X58509809Y-90759809D01*
X58650157Y-90549765D01*
X58699440Y-90302000D01*
X58699440Y-88778000D01*
X58650157Y-88530235D01*
X58509809Y-88320191D01*
X58299765Y-88179843D01*
X58052000Y-88130560D01*
X56528000Y-88130560D01*
X56280235Y-88179843D01*
X56070191Y-88320191D01*
X55929843Y-88530235D01*
X55880560Y-88778000D01*
X51517400Y-88778000D01*
X51517400Y-85622248D01*
X51532288Y-85547400D01*
X51517400Y-85472552D01*
X51517400Y-85472548D01*
X51473304Y-85250863D01*
X51473304Y-85250862D01*
X51347729Y-85062927D01*
X51305329Y-84999471D01*
X51241873Y-84957071D01*
X51054020Y-84769218D01*
X51067000Y-84737881D01*
X51067000Y-84182119D01*
X55893000Y-84182119D01*
X55893000Y-84737881D01*
X56105680Y-85251337D01*
X56498663Y-85644320D01*
X57012119Y-85857000D01*
X57567881Y-85857000D01*
X58081337Y-85644320D01*
X58474320Y-85251337D01*
X58687000Y-84737881D01*
X58687000Y-84182119D01*
X58474320Y-83668663D01*
X58081337Y-83275680D01*
X57567881Y-83063000D01*
X57012119Y-83063000D01*
X56498663Y-83275680D01*
X56105680Y-83668663D01*
X55893000Y-84182119D01*
X51067000Y-84182119D01*
X51025012Y-84080750D01*
X51060000Y-83904852D01*
X51060000Y-83904848D01*
X51074888Y-83830000D01*
X51060000Y-83755152D01*
X51060000Y-70047440D01*
X51150000Y-70047440D01*
X51397765Y-69998157D01*
X51607809Y-69857809D01*
X51748157Y-69647765D01*
X51797440Y-69400000D01*
X51797440Y-67700000D01*
X51748157Y-67452235D01*
X51607809Y-67242191D01*
X51397765Y-67101843D01*
X51150000Y-67052560D01*
X49450000Y-67052560D01*
X49202235Y-67101843D01*
X48992191Y-67242191D01*
X48851843Y-67452235D01*
X48842816Y-67497619D01*
X48830625Y-67479375D01*
X48595000Y-67321935D01*
X48595000Y-51247440D01*
X48600000Y-51247440D01*
X48847765Y-51198157D01*
X49057809Y-51057809D01*
X49198157Y-50847765D01*
X49247440Y-50600000D01*
X49247440Y-49255431D01*
X54565000Y-49255431D01*
X54565000Y-50144569D01*
X54905259Y-50966026D01*
X55533974Y-51594741D01*
X56355431Y-51935000D01*
X57244569Y-51935000D01*
X58066026Y-51594741D01*
X58694741Y-50966026D01*
X59035000Y-50144569D01*
X59035000Y-49255431D01*
X58694741Y-48433974D01*
X58066026Y-47805259D01*
X57244569Y-47465000D01*
X56355431Y-47465000D01*
X55533974Y-47805259D01*
X54905259Y-48433974D01*
X54565000Y-49255431D01*
X49247440Y-49255431D01*
X49247440Y-48900000D01*
X49198157Y-48652235D01*
X49057809Y-48442191D01*
X48847765Y-48301843D01*
X48600000Y-48252560D01*
X46900000Y-48252560D01*
X46652235Y-48301843D01*
X46442191Y-48442191D01*
X46301843Y-48652235D01*
X46281261Y-48755708D01*
X45976924Y-48478355D01*
X45566890Y-48308524D01*
X45337000Y-48429845D01*
X45337000Y-49623000D01*
X45357000Y-49623000D01*
X45357000Y-49877000D01*
X45337000Y-49877000D01*
X45337000Y-51070155D01*
X45566890Y-51191476D01*
X45976924Y-51021645D01*
X46281261Y-50744292D01*
X46301843Y-50847765D01*
X46442191Y-51057809D01*
X46652235Y-51198157D01*
X46900000Y-51247440D01*
X46925000Y-51247440D01*
X46925000Y-54090823D01*
X46880773Y-54061271D01*
X43680380Y-50860879D01*
X43740625Y-50820625D01*
X43953843Y-50501522D01*
X44014817Y-50631358D01*
X44443076Y-51021645D01*
X44853110Y-51191476D01*
X45083000Y-51070155D01*
X45083000Y-49877000D01*
X45063000Y-49877000D01*
X45063000Y-49623000D01*
X45083000Y-49623000D01*
X45083000Y-48429845D01*
X44853110Y-48308524D01*
X44443076Y-48478355D01*
X44014817Y-48868642D01*
X43953843Y-48998478D01*
X43740625Y-48679375D01*
X43249418Y-48351161D01*
X42816256Y-48265000D01*
X42523744Y-48265000D01*
X42090582Y-48351161D01*
X41599375Y-48679375D01*
X41271161Y-49170582D01*
X41155908Y-49750000D01*
X41271161Y-50329418D01*
X41599375Y-50820625D01*
X41916430Y-51032475D01*
X41954097Y-51221837D01*
X42122072Y-51473229D01*
X42185528Y-51515629D01*
X45636300Y-54966402D01*
X45636300Y-67133131D01*
X45576890Y-67108524D01*
X45347000Y-67229845D01*
X45347000Y-68423000D01*
X45367000Y-68423000D01*
X45367000Y-68677000D01*
X45347000Y-68677000D01*
X45347000Y-69870155D01*
X45576890Y-69991476D01*
X45636300Y-69966869D01*
X45636300Y-75274682D01*
X45336256Y-75215000D01*
X45043744Y-75215000D01*
X44610582Y-75301161D01*
X44119375Y-75629375D01*
X44107184Y-75647619D01*
X44098157Y-75602235D01*
X43957809Y-75392191D01*
X43747765Y-75251843D01*
X43500000Y-75202560D01*
X41800000Y-75202560D01*
X41552235Y-75251843D01*
X41342191Y-75392191D01*
X41201843Y-75602235D01*
X41152560Y-75850000D01*
X41152560Y-77550000D01*
X41201843Y-77797765D01*
X41342191Y-78007809D01*
X41552235Y-78148157D01*
X41800000Y-78197440D01*
X43500000Y-78197440D01*
X43747765Y-78148157D01*
X43957809Y-78007809D01*
X44098157Y-77797765D01*
X44107184Y-77752381D01*
X44119375Y-77770625D01*
X44430000Y-77978178D01*
X44430000Y-82473746D01*
X44257745Y-82421861D01*
X43429605Y-83250000D01*
X44257745Y-84078139D01*
X44430000Y-84026254D01*
X44430001Y-90053065D01*
X44284577Y-89835423D01*
X43809909Y-89518260D01*
X43391333Y-89435000D01*
X43108667Y-89435000D01*
X42690091Y-89518260D01*
X42215423Y-89835423D01*
X42029214Y-90114104D01*
X41828163Y-90154096D01*
X41576771Y-90322071D01*
X41433117Y-90537065D01*
X41441914Y-90520959D01*
X41202389Y-90014866D01*
X40787423Y-89638959D01*
X40399039Y-89478096D01*
X40177000Y-89600085D01*
X40177000Y-90743000D01*
X40197000Y-90743000D01*
X40197000Y-90997000D01*
X40177000Y-90997000D01*
X40177000Y-91017000D01*
X39923000Y-91017000D01*
X39923000Y-90997000D01*
X38779371Y-90997000D01*
X38658086Y-91219041D01*
X38897611Y-91725134D01*
X39312577Y-92101041D01*
X39700961Y-92261904D01*
X39922998Y-92139916D01*
X39922998Y-92276900D01*
X37715528Y-94484371D01*
X37652072Y-94526771D01*
X37609672Y-94590227D01*
X37609671Y-94590228D01*
X37484097Y-94778163D01*
X37444106Y-94979213D01*
X37165423Y-95165423D01*
X36848260Y-95640091D01*
X36736887Y-96200000D01*
X36848260Y-96759909D01*
X37165423Y-97234577D01*
X37640091Y-97551740D01*
X38058667Y-97635000D01*
X38341333Y-97635000D01*
X38759909Y-97551740D01*
X39234577Y-97234577D01*
X39551740Y-96759909D01*
X39663113Y-96200000D01*
X39551740Y-95640091D01*
X39234577Y-95165423D01*
X39204305Y-95145196D01*
X42352999Y-91996503D01*
X42690091Y-92221740D01*
X43108667Y-92305000D01*
X43391333Y-92305000D01*
X43809909Y-92221740D01*
X44284577Y-91904577D01*
X44430001Y-91686935D01*
X44430001Y-95313197D01*
X44397440Y-95345758D01*
X44397440Y-94950000D01*
X44348157Y-94702235D01*
X44207809Y-94492191D01*
X43997765Y-94351843D01*
X43750000Y-94302560D01*
X42150000Y-94302560D01*
X41902235Y-94351843D01*
X41692191Y-94492191D01*
X41551843Y-94702235D01*
X41503015Y-94947711D01*
X41423899Y-94963448D01*
X41147699Y-95147999D01*
X41101115Y-95217718D01*
X39892620Y-96426213D01*
X39822899Y-96472799D01*
X39638348Y-96749000D01*
X39589900Y-96992564D01*
X39589900Y-96992567D01*
X39573543Y-97074800D01*
X39589900Y-97157033D01*
X39589901Y-99075000D01*
X34378065Y-99075000D01*
X34220625Y-98839375D01*
X33922239Y-98640000D01*
X34220625Y-98440625D01*
X34548839Y-97949418D01*
X34664092Y-97370000D01*
X34548839Y-96790582D01*
X34220625Y-96299375D01*
X33729418Y-95971161D01*
X33296256Y-95885000D01*
X33003744Y-95885000D01*
X32570582Y-95971161D01*
X32079375Y-96299375D01*
X31751161Y-96790582D01*
X31635908Y-97370000D01*
X29310000Y-97370000D01*
X29310000Y-91219041D01*
X32258086Y-91219041D01*
X32497611Y-91725134D01*
X32912577Y-92101041D01*
X33300961Y-92261904D01*
X33523000Y-92139915D01*
X33523000Y-90997000D01*
X33777000Y-90997000D01*
X33777000Y-92139915D01*
X33999039Y-92261904D01*
X34387423Y-92101041D01*
X34802389Y-91725134D01*
X35041914Y-91219041D01*
X35458086Y-91219041D01*
X35697611Y-91725134D01*
X36112577Y-92101041D01*
X36500961Y-92261904D01*
X36723000Y-92139915D01*
X36723000Y-90997000D01*
X36977000Y-90997000D01*
X36977000Y-92139915D01*
X37199039Y-92261904D01*
X37587423Y-92101041D01*
X38002389Y-91725134D01*
X38241914Y-91219041D01*
X38120629Y-90997000D01*
X36977000Y-90997000D01*
X36723000Y-90997000D01*
X35579371Y-90997000D01*
X35458086Y-91219041D01*
X35041914Y-91219041D01*
X34920629Y-90997000D01*
X33777000Y-90997000D01*
X33523000Y-90997000D01*
X32379371Y-90997000D01*
X32258086Y-91219041D01*
X29310000Y-91219041D01*
X29310000Y-90520959D01*
X32258086Y-90520959D01*
X32379371Y-90743000D01*
X33523000Y-90743000D01*
X33523000Y-89600085D01*
X33777000Y-89600085D01*
X33777000Y-90743000D01*
X34920629Y-90743000D01*
X35041914Y-90520959D01*
X35458086Y-90520959D01*
X35579371Y-90743000D01*
X36723000Y-90743000D01*
X36723000Y-89600085D01*
X36977000Y-89600085D01*
X36977000Y-90743000D01*
X38120629Y-90743000D01*
X38241914Y-90520959D01*
X38658086Y-90520959D01*
X38779371Y-90743000D01*
X39923000Y-90743000D01*
X39923000Y-89600085D01*
X39700961Y-89478096D01*
X39312577Y-89638959D01*
X38897611Y-90014866D01*
X38658086Y-90520959D01*
X38241914Y-90520959D01*
X38002389Y-90014866D01*
X37587423Y-89638959D01*
X37199039Y-89478096D01*
X36977000Y-89600085D01*
X36723000Y-89600085D01*
X36500961Y-89478096D01*
X36112577Y-89638959D01*
X35697611Y-90014866D01*
X35458086Y-90520959D01*
X35041914Y-90520959D01*
X34802389Y-90014866D01*
X34387423Y-89638959D01*
X33999039Y-89478096D01*
X33777000Y-89600085D01*
X33523000Y-89600085D01*
X33300961Y-89478096D01*
X32912577Y-89638959D01*
X32497611Y-90014866D01*
X32258086Y-90520959D01*
X29310000Y-90520959D01*
X29310000Y-82964561D01*
X32215000Y-82964561D01*
X32215000Y-83535439D01*
X32433466Y-84062862D01*
X32837138Y-84466534D01*
X33364561Y-84685000D01*
X33935439Y-84685000D01*
X34462862Y-84466534D01*
X34866534Y-84062862D01*
X35085000Y-83535439D01*
X35085000Y-82964561D01*
X35415000Y-82964561D01*
X35415000Y-83535439D01*
X35633466Y-84062862D01*
X36037138Y-84466534D01*
X36564561Y-84685000D01*
X37135439Y-84685000D01*
X37662862Y-84466534D01*
X38066534Y-84062862D01*
X38285000Y-83535439D01*
X38285000Y-82964561D01*
X38615000Y-82964561D01*
X38615000Y-83535439D01*
X38833466Y-84062862D01*
X39237138Y-84466534D01*
X39764561Y-84685000D01*
X40335439Y-84685000D01*
X40862862Y-84466534D01*
X41071651Y-84257745D01*
X42421861Y-84257745D01*
X42495995Y-84503864D01*
X43033223Y-84696965D01*
X43603454Y-84669778D01*
X44004005Y-84503864D01*
X44078139Y-84257745D01*
X43250000Y-83429605D01*
X42421861Y-84257745D01*
X41071651Y-84257745D01*
X41266534Y-84062862D01*
X41485000Y-83535439D01*
X41485000Y-83033223D01*
X41803035Y-83033223D01*
X41830222Y-83603454D01*
X41996136Y-84004005D01*
X42242255Y-84078139D01*
X43070395Y-83250000D01*
X42242255Y-82421861D01*
X41996136Y-82495995D01*
X41803035Y-83033223D01*
X41485000Y-83033223D01*
X41485000Y-82964561D01*
X41266534Y-82437138D01*
X41071651Y-82242255D01*
X42421861Y-82242255D01*
X43250000Y-83070395D01*
X44078139Y-82242255D01*
X44004005Y-81996136D01*
X43466777Y-81803035D01*
X42896546Y-81830222D01*
X42495995Y-81996136D01*
X42421861Y-82242255D01*
X41071651Y-82242255D01*
X40862862Y-82033466D01*
X40810000Y-82011570D01*
X40810000Y-72670101D01*
X43164473Y-70315629D01*
X43227929Y-70273229D01*
X43387109Y-70035000D01*
X43395904Y-70021838D01*
X43410424Y-69948839D01*
X43433571Y-69832474D01*
X43750625Y-69620625D01*
X43963843Y-69301522D01*
X44024817Y-69431358D01*
X44453076Y-69821645D01*
X44863110Y-69991476D01*
X45093000Y-69870155D01*
X45093000Y-68677000D01*
X45073000Y-68677000D01*
X45073000Y-68423000D01*
X45093000Y-68423000D01*
X45093000Y-67229845D01*
X44863110Y-67108524D01*
X44453076Y-67278355D01*
X44024817Y-67668642D01*
X43963843Y-67798478D01*
X43750625Y-67479375D01*
X43259418Y-67151161D01*
X42826256Y-67065000D01*
X42533744Y-67065000D01*
X42100582Y-67151161D01*
X41609375Y-67479375D01*
X41410000Y-67777761D01*
X41210625Y-67479375D01*
X40719418Y-67151161D01*
X40286256Y-67065000D01*
X39993744Y-67065000D01*
X39560582Y-67151161D01*
X39069375Y-67479375D01*
X38741161Y-67970582D01*
X38625908Y-68550000D01*
X38741161Y-69129418D01*
X39069375Y-69620625D01*
X39560582Y-69948839D01*
X39993744Y-70035000D01*
X40286256Y-70035000D01*
X40719418Y-69948839D01*
X41210625Y-69620625D01*
X41410000Y-69322239D01*
X41609375Y-69620625D01*
X41669619Y-69660879D01*
X39565530Y-71764969D01*
X39502071Y-71807371D01*
X39334096Y-72058764D01*
X39290000Y-72280449D01*
X39290000Y-72280453D01*
X39275112Y-72355300D01*
X39290000Y-72430147D01*
X39290001Y-82011569D01*
X39237138Y-82033466D01*
X38833466Y-82437138D01*
X38615000Y-82964561D01*
X38285000Y-82964561D01*
X38066534Y-82437138D01*
X37662862Y-82033466D01*
X37135439Y-81815000D01*
X36564561Y-81815000D01*
X36037138Y-82033466D01*
X35633466Y-82437138D01*
X35415000Y-82964561D01*
X35085000Y-82964561D01*
X34866534Y-82437138D01*
X34462862Y-82033466D01*
X33935439Y-81815000D01*
X33364561Y-81815000D01*
X32837138Y-82033466D01*
X32433466Y-82437138D01*
X32215000Y-82964561D01*
X29310000Y-82964561D01*
X29310000Y-49255431D01*
X31365000Y-49255431D01*
X31365000Y-50144569D01*
X31705259Y-50966026D01*
X32333974Y-51594741D01*
X33155431Y-51935000D01*
X34044569Y-51935000D01*
X34866026Y-51594741D01*
X35494741Y-50966026D01*
X35835000Y-50144569D01*
X35835000Y-49255431D01*
X35494741Y-48433974D01*
X34866026Y-47805259D01*
X34044569Y-47465000D01*
X33155431Y-47465000D01*
X32333974Y-47805259D01*
X31705259Y-48433974D01*
X31365000Y-49255431D01*
X29310000Y-49255431D01*
X29310000Y-45410000D01*
X61090001Y-45410000D01*
X61090000Y-143990000D01*
X61090000Y-143990000D01*
G37*
X61090000Y-143990000D02*
X29310000Y-143990000D01*
X29310000Y-139255431D01*
X31365000Y-139255431D01*
X31365000Y-140144569D01*
X31705259Y-140966026D01*
X32333974Y-141594741D01*
X33155431Y-141935000D01*
X34044569Y-141935000D01*
X34866026Y-141594741D01*
X35494741Y-140966026D01*
X35835000Y-140144569D01*
X35835000Y-139255431D01*
X54565000Y-139255431D01*
X54565000Y-140144569D01*
X54905259Y-140966026D01*
X55533974Y-141594741D01*
X56355431Y-141935000D01*
X57244569Y-141935000D01*
X58066026Y-141594741D01*
X58694741Y-140966026D01*
X59035000Y-140144569D01*
X59035000Y-139255431D01*
X58694741Y-138433974D01*
X58066026Y-137805259D01*
X57244569Y-137465000D01*
X56355431Y-137465000D01*
X55533974Y-137805259D01*
X54905259Y-138433974D01*
X54565000Y-139255431D01*
X35835000Y-139255431D01*
X35494741Y-138433974D01*
X34866026Y-137805259D01*
X34044569Y-137465000D01*
X33155431Y-137465000D01*
X32333974Y-137805259D01*
X31705259Y-138433974D01*
X31365000Y-139255431D01*
X29310000Y-139255431D01*
X29310000Y-132085750D01*
X32665000Y-132085750D01*
X32665000Y-132826310D01*
X32761673Y-133059699D01*
X32940302Y-133238327D01*
X33173691Y-133335000D01*
X33914250Y-133335000D01*
X34073000Y-133176250D01*
X34073000Y-131927000D01*
X32823750Y-131927000D01*
X32665000Y-132085750D01*
X29310000Y-132085750D01*
X29310000Y-130773690D01*
X32665000Y-130773690D01*
X32665000Y-131514250D01*
X32823750Y-131673000D01*
X34073000Y-131673000D01*
X34073000Y-130423750D01*
X34327000Y-130423750D01*
X34327000Y-131673000D01*
X34347000Y-131673000D01*
X34347000Y-131927000D01*
X34327000Y-131927000D01*
X34327000Y-133176250D01*
X34485750Y-133335000D01*
X35226309Y-133335000D01*
X35459698Y-133238327D01*
X35638327Y-133059699D01*
X35694139Y-132924956D01*
X35870493Y-133101310D01*
X36434670Y-133335000D01*
X37045330Y-133335000D01*
X37609507Y-133101310D01*
X38041310Y-132669507D01*
X38275000Y-132105330D01*
X38275000Y-132085750D01*
X39165000Y-132085750D01*
X39165000Y-132826310D01*
X39261673Y-133059699D01*
X39440302Y-133238327D01*
X39673691Y-133335000D01*
X40414250Y-133335000D01*
X40573000Y-133176250D01*
X40573000Y-131927000D01*
X39323750Y-131927000D01*
X39165000Y-132085750D01*
X38275000Y-132085750D01*
X38275000Y-131494670D01*
X38041310Y-130930493D01*
X37884507Y-130773690D01*
X39165000Y-130773690D01*
X39165000Y-131514250D01*
X39323750Y-131673000D01*
X40573000Y-131673000D01*
X40573000Y-130423750D01*
X40827000Y-130423750D01*
X40827000Y-131673000D01*
X40847000Y-131673000D01*
X40847000Y-131927000D01*
X40827000Y-131927000D01*
X40827000Y-133176250D01*
X40985750Y-133335000D01*
X41726309Y-133335000D01*
X41959698Y-133238327D01*
X42138327Y-133059699D01*
X42194139Y-132924956D01*
X42370493Y-133101310D01*
X42934670Y-133335000D01*
X43545330Y-133335000D01*
X44109507Y-133101310D01*
X44541310Y-132669507D01*
X44775000Y-132105330D01*
X44775000Y-132085750D01*
X45665000Y-132085750D01*
X45665000Y-132826310D01*
X45761673Y-133059699D01*
X45940302Y-133238327D01*
X46173691Y-133335000D01*
X46914250Y-133335000D01*
X47073000Y-133176250D01*
X47073000Y-131927000D01*
X45823750Y-131927000D01*
X45665000Y-132085750D01*
X44775000Y-132085750D01*
X44775000Y-131494670D01*
X44541310Y-130930493D01*
X44384507Y-130773690D01*
X45665000Y-130773690D01*
X45665000Y-131514250D01*
X45823750Y-131673000D01*
X47073000Y-131673000D01*
X47073000Y-130423750D01*
X47327000Y-130423750D01*
X47327000Y-131673000D01*
X47347000Y-131673000D01*
X47347000Y-131927000D01*
X47327000Y-131927000D01*
X47327000Y-133176250D01*
X47485750Y-133335000D01*
X48226309Y-133335000D01*
X48459698Y-133238327D01*
X48638327Y-133059699D01*
X48694139Y-132924956D01*
X48870493Y-133101310D01*
X49434670Y-133335000D01*
X50045330Y-133335000D01*
X50609507Y-133101310D01*
X51041310Y-132669507D01*
X51275000Y-132105330D01*
X51275000Y-132085750D01*
X52165000Y-132085750D01*
X52165000Y-132826310D01*
X52261673Y-133059699D01*
X52440302Y-133238327D01*
X52673691Y-133335000D01*
X53414250Y-133335000D01*
X53573000Y-133176250D01*
X53573000Y-131927000D01*
X52323750Y-131927000D01*
X52165000Y-132085750D01*
X51275000Y-132085750D01*
X51275000Y-131494670D01*
X51041310Y-130930493D01*
X50884507Y-130773690D01*
X52165000Y-130773690D01*
X52165000Y-131514250D01*
X52323750Y-131673000D01*
X53573000Y-131673000D01*
X53573000Y-130423750D01*
X53827000Y-130423750D01*
X53827000Y-131673000D01*
X53847000Y-131673000D01*
X53847000Y-131927000D01*
X53827000Y-131927000D01*
X53827000Y-133176250D01*
X53985750Y-133335000D01*
X54726309Y-133335000D01*
X54959698Y-133238327D01*
X55138327Y-133059699D01*
X55194139Y-132924956D01*
X55370493Y-133101310D01*
X55934670Y-133335000D01*
X56545330Y-133335000D01*
X57109507Y-133101310D01*
X57541310Y-132669507D01*
X57775000Y-132105330D01*
X57775000Y-131494670D01*
X57541310Y-130930493D01*
X57109507Y-130498690D01*
X56545330Y-130265000D01*
X55934670Y-130265000D01*
X55370493Y-130498690D01*
X55194139Y-130675044D01*
X55138327Y-130540301D01*
X54959698Y-130361673D01*
X54726309Y-130265000D01*
X53985750Y-130265000D01*
X53827000Y-130423750D01*
X53573000Y-130423750D01*
X53414250Y-130265000D01*
X52673691Y-130265000D01*
X52440302Y-130361673D01*
X52261673Y-130540301D01*
X52165000Y-130773690D01*
X50884507Y-130773690D01*
X50609507Y-130498690D01*
X50045330Y-130265000D01*
X49434670Y-130265000D01*
X48870493Y-130498690D01*
X48694139Y-130675044D01*
X48638327Y-130540301D01*
X48459698Y-130361673D01*
X48226309Y-130265000D01*
X47485750Y-130265000D01*
X47327000Y-130423750D01*
X47073000Y-130423750D01*
X46914250Y-130265000D01*
X46173691Y-130265000D01*
X45940302Y-130361673D01*
X45761673Y-130540301D01*
X45665000Y-130773690D01*
X44384507Y-130773690D01*
X44109507Y-130498690D01*
X43545330Y-130265000D01*
X42934670Y-130265000D01*
X42370493Y-130498690D01*
X42194139Y-130675044D01*
X42138327Y-130540301D01*
X41959698Y-130361673D01*
X41726309Y-130265000D01*
X40985750Y-130265000D01*
X40827000Y-130423750D01*
X40573000Y-130423750D01*
X40414250Y-130265000D01*
X39673691Y-130265000D01*
X39440302Y-130361673D01*
X39261673Y-130540301D01*
X39165000Y-130773690D01*
X37884507Y-130773690D01*
X37609507Y-130498690D01*
X37045330Y-130265000D01*
X36434670Y-130265000D01*
X35870493Y-130498690D01*
X35694139Y-130675044D01*
X35638327Y-130540301D01*
X35459698Y-130361673D01*
X35226309Y-130265000D01*
X34485750Y-130265000D01*
X34327000Y-130423750D01*
X34073000Y-130423750D01*
X33914250Y-130265000D01*
X33173691Y-130265000D01*
X32940302Y-130361673D01*
X32761673Y-130540301D01*
X32665000Y-130773690D01*
X29310000Y-130773690D01*
X29310000Y-125670000D01*
X30936887Y-125670000D01*
X31048260Y-126229909D01*
X31365423Y-126704577D01*
X31840091Y-127021740D01*
X32258667Y-127105000D01*
X32541333Y-127105000D01*
X32959909Y-127021740D01*
X33434577Y-126704577D01*
X33751740Y-126229909D01*
X33863113Y-125670000D01*
X34086887Y-125670000D01*
X34198260Y-126229909D01*
X34515423Y-126704577D01*
X34990091Y-127021740D01*
X35408667Y-127105000D01*
X35691333Y-127105000D01*
X36109909Y-127021740D01*
X36584577Y-126704577D01*
X36901740Y-126229909D01*
X37013113Y-125670000D01*
X37186887Y-125670000D01*
X37298260Y-126229909D01*
X37615423Y-126704577D01*
X38090091Y-127021740D01*
X38508667Y-127105000D01*
X38791333Y-127105000D01*
X39209909Y-127021740D01*
X39684577Y-126704577D01*
X40001740Y-126229909D01*
X40113113Y-125670000D01*
X40286887Y-125670000D01*
X40398260Y-126229909D01*
X40715423Y-126704577D01*
X41190091Y-127021740D01*
X41608667Y-127105000D01*
X41891333Y-127105000D01*
X42309909Y-127021740D01*
X42784577Y-126704577D01*
X43101740Y-126229909D01*
X43203167Y-125720000D01*
X45036887Y-125720000D01*
X45148260Y-126279909D01*
X45465423Y-126754577D01*
X45940091Y-127071740D01*
X46358667Y-127155000D01*
X46641333Y-127155000D01*
X47059909Y-127071740D01*
X47534577Y-126754577D01*
X47851740Y-126279909D01*
X47963113Y-125720000D01*
X48186887Y-125720000D01*
X48298260Y-126279909D01*
X48615423Y-126754577D01*
X49090091Y-127071740D01*
X49508667Y-127155000D01*
X49791333Y-127155000D01*
X50209909Y-127071740D01*
X50684577Y-126754577D01*
X51001740Y-126279909D01*
X51113113Y-125720000D01*
X51001740Y-125160091D01*
X50684577Y-124685423D01*
X50209909Y-124368260D01*
X49791333Y-124285000D01*
X49508667Y-124285000D01*
X49090091Y-124368260D01*
X48615423Y-124685423D01*
X48298260Y-125160091D01*
X48186887Y-125720000D01*
X47963113Y-125720000D01*
X47851740Y-125160091D01*
X47534577Y-124685423D01*
X47059909Y-124368260D01*
X46641333Y-124285000D01*
X46358667Y-124285000D01*
X45940091Y-124368260D01*
X45465423Y-124685423D01*
X45148260Y-125160091D01*
X45036887Y-125720000D01*
X43203167Y-125720000D01*
X43213113Y-125670000D01*
X43101740Y-125110091D01*
X42784577Y-124635423D01*
X42309909Y-124318260D01*
X41891333Y-124235000D01*
X41608667Y-124235000D01*
X41190091Y-124318260D01*
X40715423Y-124635423D01*
X40398260Y-125110091D01*
X40286887Y-125670000D01*
X40113113Y-125670000D01*
X40001740Y-125110091D01*
X39684577Y-124635423D01*
X39209909Y-124318260D01*
X38791333Y-124235000D01*
X38508667Y-124235000D01*
X38090091Y-124318260D01*
X37615423Y-124635423D01*
X37298260Y-125110091D01*
X37186887Y-125670000D01*
X37013113Y-125670000D01*
X36901740Y-125110091D01*
X36584577Y-124635423D01*
X36109909Y-124318260D01*
X35691333Y-124235000D01*
X35408667Y-124235000D01*
X34990091Y-124318260D01*
X34515423Y-124635423D01*
X34198260Y-125110091D01*
X34086887Y-125670000D01*
X33863113Y-125670000D01*
X33751740Y-125110091D01*
X33434577Y-124635423D01*
X32959909Y-124318260D01*
X32541333Y-124235000D01*
X32258667Y-124235000D01*
X31840091Y-124318260D01*
X31365423Y-124635423D01*
X31048260Y-125110091D01*
X30936887Y-125670000D01*
X29310000Y-125670000D01*
X29310000Y-117764561D01*
X30965000Y-117764561D01*
X30965000Y-118335439D01*
X31183466Y-118862862D01*
X31587138Y-119266534D01*
X32114561Y-119485000D01*
X32685439Y-119485000D01*
X33212862Y-119266534D01*
X33616534Y-118862862D01*
X33835000Y-118335439D01*
X33835000Y-117764561D01*
X34115000Y-117764561D01*
X34115000Y-118335439D01*
X34333466Y-118862862D01*
X34737138Y-119266534D01*
X35264561Y-119485000D01*
X35835439Y-119485000D01*
X36362862Y-119266534D01*
X36766534Y-118862862D01*
X36985000Y-118335439D01*
X36985000Y-117764561D01*
X37215000Y-117764561D01*
X37215000Y-118335439D01*
X37433466Y-118862862D01*
X37837138Y-119266534D01*
X38364561Y-119485000D01*
X38935439Y-119485000D01*
X39462862Y-119266534D01*
X39866534Y-118862862D01*
X40085000Y-118335439D01*
X40085000Y-117764561D01*
X40315000Y-117764561D01*
X40315000Y-118335439D01*
X40533466Y-118862862D01*
X40937138Y-119266534D01*
X41464561Y-119485000D01*
X42035439Y-119485000D01*
X42562862Y-119266534D01*
X42966534Y-118862862D01*
X43185000Y-118335439D01*
X43185000Y-117764561D01*
X42966534Y-117237138D01*
X42562862Y-116833466D01*
X42035439Y-116615000D01*
X41464561Y-116615000D01*
X40937138Y-116833466D01*
X40533466Y-117237138D01*
X40315000Y-117764561D01*
X40085000Y-117764561D01*
X39866534Y-117237138D01*
X39462862Y-116833466D01*
X38935439Y-116615000D01*
X38364561Y-116615000D01*
X37837138Y-116833466D01*
X37433466Y-117237138D01*
X37215000Y-117764561D01*
X36985000Y-117764561D01*
X36766534Y-117237138D01*
X36362862Y-116833466D01*
X35835439Y-116615000D01*
X35264561Y-116615000D01*
X34737138Y-116833466D01*
X34333466Y-117237138D01*
X34115000Y-117764561D01*
X33835000Y-117764561D01*
X33616534Y-117237138D01*
X33212862Y-116833466D01*
X32685439Y-116615000D01*
X32114561Y-116615000D01*
X31587138Y-116833466D01*
X31183466Y-117237138D01*
X30965000Y-117764561D01*
X29310000Y-117764561D01*
X29310000Y-97370000D01*
X31635908Y-97370000D01*
X31751161Y-97949418D01*
X32079375Y-98440625D01*
X32377761Y-98640000D01*
X32079375Y-98839375D01*
X31751161Y-99330582D01*
X31635908Y-99910000D01*
X31751161Y-100489418D01*
X32079375Y-100980625D01*
X32097619Y-100992816D01*
X32052235Y-101001843D01*
X31842191Y-101142191D01*
X31701843Y-101352235D01*
X31652560Y-101600000D01*
X31652560Y-103300000D01*
X31701843Y-103547765D01*
X31842191Y-103757809D01*
X32052235Y-103898157D01*
X32300000Y-103947440D01*
X34000000Y-103947440D01*
X34247765Y-103898157D01*
X34457809Y-103757809D01*
X34598157Y-103547765D01*
X34600783Y-103534561D01*
X36765000Y-103534561D01*
X36765000Y-104105439D01*
X36983466Y-104632862D01*
X37387138Y-105036534D01*
X37914561Y-105255000D01*
X38485439Y-105255000D01*
X39012862Y-105036534D01*
X39416534Y-104632862D01*
X39635000Y-104105439D01*
X39635000Y-103534561D01*
X39416534Y-103007138D01*
X39012862Y-102603466D01*
X38485439Y-102385000D01*
X37914561Y-102385000D01*
X37387138Y-102603466D01*
X36983466Y-103007138D01*
X36765000Y-103534561D01*
X34600783Y-103534561D01*
X34647440Y-103300000D01*
X34647440Y-101600000D01*
X34598157Y-101352235D01*
X34457809Y-101142191D01*
X34247765Y-101001843D01*
X34202381Y-100992816D01*
X34220625Y-100980625D01*
X34378065Y-100745000D01*
X39589900Y-100745000D01*
X39589901Y-102487462D01*
X39573543Y-102569700D01*
X39638348Y-102895500D01*
X39638349Y-102895501D01*
X39822900Y-103171701D01*
X39892618Y-103218285D01*
X42389332Y-105715000D01*
X42318667Y-105715000D01*
X41900091Y-105798260D01*
X41425423Y-106115423D01*
X41190000Y-106467758D01*
X40954577Y-106115423D01*
X40479909Y-105798260D01*
X40061333Y-105715000D01*
X39778667Y-105715000D01*
X39360091Y-105798260D01*
X38885423Y-106115423D01*
X38650000Y-106467758D01*
X38414577Y-106115423D01*
X37939909Y-105798260D01*
X37521333Y-105715000D01*
X37238667Y-105715000D01*
X36820091Y-105798260D01*
X36345423Y-106115423D01*
X36028260Y-106590091D01*
X35916887Y-107150000D01*
X36028260Y-107709909D01*
X36345423Y-108184577D01*
X36820091Y-108501740D01*
X37238667Y-108585000D01*
X37521333Y-108585000D01*
X37939909Y-108501740D01*
X38414577Y-108184577D01*
X38650000Y-107832242D01*
X38885423Y-108184577D01*
X39360091Y-108501740D01*
X39778667Y-108585000D01*
X40061333Y-108585000D01*
X40479909Y-108501740D01*
X40954577Y-108184577D01*
X41190000Y-107832242D01*
X41425423Y-108184577D01*
X41900091Y-108501740D01*
X42318667Y-108585000D01*
X42601333Y-108585000D01*
X42882300Y-108529112D01*
X42882301Y-113390888D01*
X42601333Y-113335000D01*
X42318667Y-113335000D01*
X41900091Y-113418260D01*
X41425423Y-113735423D01*
X41190000Y-114087758D01*
X40954577Y-113735423D01*
X40479909Y-113418260D01*
X40061333Y-113335000D01*
X39778667Y-113335000D01*
X39360091Y-113418260D01*
X38885423Y-113735423D01*
X38650000Y-114087758D01*
X38414577Y-113735423D01*
X37939909Y-113418260D01*
X37521333Y-113335000D01*
X37238667Y-113335000D01*
X36820091Y-113418260D01*
X36345423Y-113735423D01*
X36028260Y-114210091D01*
X35916887Y-114770000D01*
X36028260Y-115329909D01*
X36345423Y-115804577D01*
X36820091Y-116121740D01*
X37238667Y-116205000D01*
X37521333Y-116205000D01*
X37939909Y-116121740D01*
X38414577Y-115804577D01*
X38650000Y-115452242D01*
X38885423Y-115804577D01*
X39360091Y-116121740D01*
X39778667Y-116205000D01*
X40061333Y-116205000D01*
X40479909Y-116121740D01*
X40954577Y-115804577D01*
X41190000Y-115452242D01*
X41425423Y-115804577D01*
X41900091Y-116121740D01*
X42318667Y-116205000D01*
X42601333Y-116205000D01*
X43019909Y-116121740D01*
X43212313Y-115993180D01*
X45065000Y-117845868D01*
X45065000Y-118385439D01*
X45283466Y-118912862D01*
X45687138Y-119316534D01*
X46214561Y-119535000D01*
X46754133Y-119535000D01*
X49581415Y-122362283D01*
X49627999Y-122432001D01*
X49904199Y-122616552D01*
X50147763Y-122665000D01*
X50230000Y-122681358D01*
X50312237Y-122665000D01*
X53001161Y-122665000D01*
X53207977Y-122974523D01*
X53733089Y-123325391D01*
X54196150Y-123417500D01*
X54603850Y-123417500D01*
X55066911Y-123325391D01*
X55592023Y-122974523D01*
X55942891Y-122449411D01*
X56066100Y-121830000D01*
X55942891Y-121210589D01*
X55592023Y-120685477D01*
X55404233Y-120560000D01*
X55592023Y-120434523D01*
X55942891Y-119909411D01*
X56066100Y-119290000D01*
X55942891Y-118670589D01*
X55680912Y-118278509D01*
X55857809Y-118160309D01*
X55998157Y-117950265D01*
X56047440Y-117702500D01*
X56047440Y-115797500D01*
X55998157Y-115549735D01*
X55857809Y-115339691D01*
X55647765Y-115199343D01*
X55400000Y-115150060D01*
X53400000Y-115150060D01*
X53152235Y-115199343D01*
X52942191Y-115339691D01*
X52801843Y-115549735D01*
X52752560Y-115797500D01*
X52752560Y-116567759D01*
X51650000Y-115465199D01*
X51650000Y-110835750D01*
X52940000Y-110835750D01*
X52940000Y-111426310D01*
X53036673Y-111659699D01*
X53215302Y-111838327D01*
X53448691Y-111935000D01*
X53814250Y-111935000D01*
X53973000Y-111776250D01*
X53973000Y-110677000D01*
X53098750Y-110677000D01*
X52940000Y-110835750D01*
X51650000Y-110835750D01*
X51650000Y-109673690D01*
X52940000Y-109673690D01*
X52940000Y-110264250D01*
X53098750Y-110423000D01*
X53973000Y-110423000D01*
X53973000Y-110210755D01*
X54210000Y-110210755D01*
X54210000Y-110889246D01*
X54227000Y-110974710D01*
X54227000Y-111776250D01*
X54385750Y-111935000D01*
X54751309Y-111935000D01*
X54916016Y-111866776D01*
X54917392Y-111867695D01*
X55370000Y-111957725D01*
X55822609Y-111867695D01*
X56005001Y-111745825D01*
X56187392Y-111867695D01*
X56640000Y-111957725D01*
X57092609Y-111867695D01*
X57476313Y-111611313D01*
X57732695Y-111227608D01*
X57800000Y-110889245D01*
X57800000Y-110210754D01*
X57732695Y-109872391D01*
X57476313Y-109488687D01*
X57092608Y-109232305D01*
X56640000Y-109142275D01*
X56187391Y-109232305D01*
X56005000Y-109354175D01*
X55822608Y-109232305D01*
X55370000Y-109142275D01*
X54917391Y-109232305D01*
X54916016Y-109233224D01*
X54751309Y-109165000D01*
X54385750Y-109165000D01*
X54227000Y-109323750D01*
X54227000Y-110125291D01*
X54210000Y-110210755D01*
X53973000Y-110210755D01*
X53973000Y-109323750D01*
X53814250Y-109165000D01*
X53448691Y-109165000D01*
X53215302Y-109261673D01*
X53036673Y-109440301D01*
X52940000Y-109673690D01*
X51650000Y-109673690D01*
X51650000Y-107464801D01*
X57575162Y-101539640D01*
X57684670Y-101585000D01*
X58295330Y-101585000D01*
X58859507Y-101351310D01*
X59291310Y-100919507D01*
X59525000Y-100355330D01*
X59525000Y-99744670D01*
X59291310Y-99180493D01*
X58859507Y-98748690D01*
X58295330Y-98515000D01*
X57684670Y-98515000D01*
X57120493Y-98748690D01*
X56944139Y-98925044D01*
X56888327Y-98790301D01*
X56709698Y-98611673D01*
X56476309Y-98515000D01*
X55735750Y-98515000D01*
X55577000Y-98673750D01*
X55577000Y-99923000D01*
X55597000Y-99923000D01*
X55597000Y-100177000D01*
X55577000Y-100177000D01*
X55577000Y-100197000D01*
X55323000Y-100197000D01*
X55323000Y-100177000D01*
X54073750Y-100177000D01*
X53915000Y-100335750D01*
X53915000Y-101076310D01*
X54011673Y-101309699D01*
X54190302Y-101488327D01*
X54423691Y-101585000D01*
X55164250Y-101585000D01*
X55322998Y-101426252D01*
X55322998Y-101585000D01*
X55380198Y-101585000D01*
X50575199Y-106390000D01*
X46447440Y-106390000D01*
X46447440Y-106350000D01*
X46398157Y-106102235D01*
X46257809Y-105892191D01*
X46047765Y-105751843D01*
X45800000Y-105702560D01*
X44536923Y-105702560D01*
X44503852Y-105536300D01*
X44503852Y-105536299D01*
X44319301Y-105260099D01*
X44249583Y-105213515D01*
X43658513Y-104622446D01*
X43984577Y-104404577D01*
X44301740Y-103929909D01*
X44413113Y-103370000D01*
X44301740Y-102810091D01*
X44077063Y-102473838D01*
X44559773Y-101991129D01*
X44623229Y-101948729D01*
X44749182Y-101760228D01*
X44791204Y-101697338D01*
X44809593Y-101604889D01*
X44835300Y-101475652D01*
X44835300Y-101475648D01*
X44850188Y-101400800D01*
X44835300Y-101325952D01*
X44835300Y-100944401D01*
X49325288Y-96454415D01*
X49338959Y-96487423D01*
X49714866Y-96902389D01*
X49919108Y-96999053D01*
X49535423Y-97255423D01*
X49218260Y-97730091D01*
X49106887Y-98290000D01*
X49218260Y-98849909D01*
X49535423Y-99324577D01*
X49887758Y-99560000D01*
X49535423Y-99795423D01*
X49218260Y-100270091D01*
X49106887Y-100830000D01*
X49218260Y-101389909D01*
X49535423Y-101864577D01*
X49887758Y-102100000D01*
X49535423Y-102335423D01*
X49218260Y-102810091D01*
X49106887Y-103370000D01*
X49218260Y-103929909D01*
X49535423Y-104404577D01*
X50010091Y-104721740D01*
X50428667Y-104805000D01*
X50711333Y-104805000D01*
X51129909Y-104721740D01*
X51604577Y-104404577D01*
X51921740Y-103929909D01*
X52033113Y-103370000D01*
X51921740Y-102810091D01*
X51604577Y-102335423D01*
X51252242Y-102100000D01*
X51604577Y-101864577D01*
X51921740Y-101389909D01*
X52033113Y-100830000D01*
X51921740Y-100270091D01*
X51604577Y-99795423D01*
X51252242Y-99560000D01*
X51604577Y-99324577D01*
X51805623Y-99023690D01*
X53915000Y-99023690D01*
X53915000Y-99764250D01*
X54073750Y-99923000D01*
X55323000Y-99923000D01*
X55323000Y-98673750D01*
X55164250Y-98515000D01*
X54423691Y-98515000D01*
X54190302Y-98611673D01*
X54011673Y-98790301D01*
X53915000Y-99023690D01*
X51805623Y-99023690D01*
X51921740Y-98849909D01*
X52033113Y-98290000D01*
X51921740Y-97730091D01*
X51604577Y-97255423D01*
X51220892Y-96999053D01*
X51425134Y-96902389D01*
X51801041Y-96487423D01*
X51961904Y-96099039D01*
X51839915Y-95877000D01*
X50697000Y-95877000D01*
X50697000Y-95897000D01*
X50443000Y-95897000D01*
X50443000Y-95877000D01*
X50423000Y-95877000D01*
X50423000Y-95623000D01*
X50443000Y-95623000D01*
X50443000Y-95603000D01*
X50697000Y-95603000D01*
X50697000Y-95623000D01*
X51839915Y-95623000D01*
X51961904Y-95400961D01*
X51801041Y-95012577D01*
X51425134Y-94597611D01*
X51265485Y-94522052D01*
X51305329Y-94495429D01*
X51347727Y-94431976D01*
X51347729Y-94431974D01*
X51473303Y-94244038D01*
X51473304Y-94244037D01*
X51517400Y-94022352D01*
X51517400Y-94022348D01*
X51532288Y-93947501D01*
X51517400Y-93872654D01*
X51517400Y-88778000D01*
X55880560Y-88778000D01*
X55880560Y-90302000D01*
X55929843Y-90549765D01*
X56070191Y-90759809D01*
X56280235Y-90900157D01*
X56528000Y-90949440D01*
X58052000Y-90949440D01*
X58299765Y-90900157D01*
X58509809Y-90759809D01*
X58650157Y-90549765D01*
X58699440Y-90302000D01*
X58699440Y-88778000D01*
X58650157Y-88530235D01*
X58509809Y-88320191D01*
X58299765Y-88179843D01*
X58052000Y-88130560D01*
X56528000Y-88130560D01*
X56280235Y-88179843D01*
X56070191Y-88320191D01*
X55929843Y-88530235D01*
X55880560Y-88778000D01*
X51517400Y-88778000D01*
X51517400Y-85622248D01*
X51532288Y-85547400D01*
X51517400Y-85472552D01*
X51517400Y-85472548D01*
X51473304Y-85250863D01*
X51473304Y-85250862D01*
X51347729Y-85062927D01*
X51305329Y-84999471D01*
X51241873Y-84957071D01*
X51054020Y-84769218D01*
X51067000Y-84737881D01*
X51067000Y-84182119D01*
X55893000Y-84182119D01*
X55893000Y-84737881D01*
X56105680Y-85251337D01*
X56498663Y-85644320D01*
X57012119Y-85857000D01*
X57567881Y-85857000D01*
X58081337Y-85644320D01*
X58474320Y-85251337D01*
X58687000Y-84737881D01*
X58687000Y-84182119D01*
X58474320Y-83668663D01*
X58081337Y-83275680D01*
X57567881Y-83063000D01*
X57012119Y-83063000D01*
X56498663Y-83275680D01*
X56105680Y-83668663D01*
X55893000Y-84182119D01*
X51067000Y-84182119D01*
X51025012Y-84080750D01*
X51060000Y-83904852D01*
X51060000Y-83904848D01*
X51074888Y-83830000D01*
X51060000Y-83755152D01*
X51060000Y-70047440D01*
X51150000Y-70047440D01*
X51397765Y-69998157D01*
X51607809Y-69857809D01*
X51748157Y-69647765D01*
X51797440Y-69400000D01*
X51797440Y-67700000D01*
X51748157Y-67452235D01*
X51607809Y-67242191D01*
X51397765Y-67101843D01*
X51150000Y-67052560D01*
X49450000Y-67052560D01*
X49202235Y-67101843D01*
X48992191Y-67242191D01*
X48851843Y-67452235D01*
X48842816Y-67497619D01*
X48830625Y-67479375D01*
X48595000Y-67321935D01*
X48595000Y-51247440D01*
X48600000Y-51247440D01*
X48847765Y-51198157D01*
X49057809Y-51057809D01*
X49198157Y-50847765D01*
X49247440Y-50600000D01*
X49247440Y-49255431D01*
X54565000Y-49255431D01*
X54565000Y-50144569D01*
X54905259Y-50966026D01*
X55533974Y-51594741D01*
X56355431Y-51935000D01*
X57244569Y-51935000D01*
X58066026Y-51594741D01*
X58694741Y-50966026D01*
X59035000Y-50144569D01*
X59035000Y-49255431D01*
X58694741Y-48433974D01*
X58066026Y-47805259D01*
X57244569Y-47465000D01*
X56355431Y-47465000D01*
X55533974Y-47805259D01*
X54905259Y-48433974D01*
X54565000Y-49255431D01*
X49247440Y-49255431D01*
X49247440Y-48900000D01*
X49198157Y-48652235D01*
X49057809Y-48442191D01*
X48847765Y-48301843D01*
X48600000Y-48252560D01*
X46900000Y-48252560D01*
X46652235Y-48301843D01*
X46442191Y-48442191D01*
X46301843Y-48652235D01*
X46281261Y-48755708D01*
X45976924Y-48478355D01*
X45566890Y-48308524D01*
X45337000Y-48429845D01*
X45337000Y-49623000D01*
X45357000Y-49623000D01*
X45357000Y-49877000D01*
X45337000Y-49877000D01*
X45337000Y-51070155D01*
X45566890Y-51191476D01*
X45976924Y-51021645D01*
X46281261Y-50744292D01*
X46301843Y-50847765D01*
X46442191Y-51057809D01*
X46652235Y-51198157D01*
X46900000Y-51247440D01*
X46925000Y-51247440D01*
X46925000Y-54090823D01*
X46880773Y-54061271D01*
X43680380Y-50860879D01*
X43740625Y-50820625D01*
X43953843Y-50501522D01*
X44014817Y-50631358D01*
X44443076Y-51021645D01*
X44853110Y-51191476D01*
X45083000Y-51070155D01*
X45083000Y-49877000D01*
X45063000Y-49877000D01*
X45063000Y-49623000D01*
X45083000Y-49623000D01*
X45083000Y-48429845D01*
X44853110Y-48308524D01*
X44443076Y-48478355D01*
X44014817Y-48868642D01*
X43953843Y-48998478D01*
X43740625Y-48679375D01*
X43249418Y-48351161D01*
X42816256Y-48265000D01*
X42523744Y-48265000D01*
X42090582Y-48351161D01*
X41599375Y-48679375D01*
X41271161Y-49170582D01*
X41155908Y-49750000D01*
X41271161Y-50329418D01*
X41599375Y-50820625D01*
X41916430Y-51032475D01*
X41954097Y-51221837D01*
X42122072Y-51473229D01*
X42185528Y-51515629D01*
X45636300Y-54966402D01*
X45636300Y-67133131D01*
X45576890Y-67108524D01*
X45347000Y-67229845D01*
X45347000Y-68423000D01*
X45367000Y-68423000D01*
X45367000Y-68677000D01*
X45347000Y-68677000D01*
X45347000Y-69870155D01*
X45576890Y-69991476D01*
X45636300Y-69966869D01*
X45636300Y-75274682D01*
X45336256Y-75215000D01*
X45043744Y-75215000D01*
X44610582Y-75301161D01*
X44119375Y-75629375D01*
X44107184Y-75647619D01*
X44098157Y-75602235D01*
X43957809Y-75392191D01*
X43747765Y-75251843D01*
X43500000Y-75202560D01*
X41800000Y-75202560D01*
X41552235Y-75251843D01*
X41342191Y-75392191D01*
X41201843Y-75602235D01*
X41152560Y-75850000D01*
X41152560Y-77550000D01*
X41201843Y-77797765D01*
X41342191Y-78007809D01*
X41552235Y-78148157D01*
X41800000Y-78197440D01*
X43500000Y-78197440D01*
X43747765Y-78148157D01*
X43957809Y-78007809D01*
X44098157Y-77797765D01*
X44107184Y-77752381D01*
X44119375Y-77770625D01*
X44430000Y-77978178D01*
X44430000Y-82473746D01*
X44257745Y-82421861D01*
X43429605Y-83250000D01*
X44257745Y-84078139D01*
X44430000Y-84026254D01*
X44430001Y-90053065D01*
X44284577Y-89835423D01*
X43809909Y-89518260D01*
X43391333Y-89435000D01*
X43108667Y-89435000D01*
X42690091Y-89518260D01*
X42215423Y-89835423D01*
X42029214Y-90114104D01*
X41828163Y-90154096D01*
X41576771Y-90322071D01*
X41433117Y-90537065D01*
X41441914Y-90520959D01*
X41202389Y-90014866D01*
X40787423Y-89638959D01*
X40399039Y-89478096D01*
X40177000Y-89600085D01*
X40177000Y-90743000D01*
X40197000Y-90743000D01*
X40197000Y-90997000D01*
X40177000Y-90997000D01*
X40177000Y-91017000D01*
X39923000Y-91017000D01*
X39923000Y-90997000D01*
X38779371Y-90997000D01*
X38658086Y-91219041D01*
X38897611Y-91725134D01*
X39312577Y-92101041D01*
X39700961Y-92261904D01*
X39922998Y-92139916D01*
X39922998Y-92276900D01*
X37715528Y-94484371D01*
X37652072Y-94526771D01*
X37609672Y-94590227D01*
X37609671Y-94590228D01*
X37484097Y-94778163D01*
X37444106Y-94979213D01*
X37165423Y-95165423D01*
X36848260Y-95640091D01*
X36736887Y-96200000D01*
X36848260Y-96759909D01*
X37165423Y-97234577D01*
X37640091Y-97551740D01*
X38058667Y-97635000D01*
X38341333Y-97635000D01*
X38759909Y-97551740D01*
X39234577Y-97234577D01*
X39551740Y-96759909D01*
X39663113Y-96200000D01*
X39551740Y-95640091D01*
X39234577Y-95165423D01*
X39204305Y-95145196D01*
X42352999Y-91996503D01*
X42690091Y-92221740D01*
X43108667Y-92305000D01*
X43391333Y-92305000D01*
X43809909Y-92221740D01*
X44284577Y-91904577D01*
X44430001Y-91686935D01*
X44430001Y-95313197D01*
X44397440Y-95345758D01*
X44397440Y-94950000D01*
X44348157Y-94702235D01*
X44207809Y-94492191D01*
X43997765Y-94351843D01*
X43750000Y-94302560D01*
X42150000Y-94302560D01*
X41902235Y-94351843D01*
X41692191Y-94492191D01*
X41551843Y-94702235D01*
X41503015Y-94947711D01*
X41423899Y-94963448D01*
X41147699Y-95147999D01*
X41101115Y-95217718D01*
X39892620Y-96426213D01*
X39822899Y-96472799D01*
X39638348Y-96749000D01*
X39589900Y-96992564D01*
X39589900Y-96992567D01*
X39573543Y-97074800D01*
X39589900Y-97157033D01*
X39589901Y-99075000D01*
X34378065Y-99075000D01*
X34220625Y-98839375D01*
X33922239Y-98640000D01*
X34220625Y-98440625D01*
X34548839Y-97949418D01*
X34664092Y-97370000D01*
X34548839Y-96790582D01*
X34220625Y-96299375D01*
X33729418Y-95971161D01*
X33296256Y-95885000D01*
X33003744Y-95885000D01*
X32570582Y-95971161D01*
X32079375Y-96299375D01*
X31751161Y-96790582D01*
X31635908Y-97370000D01*
X29310000Y-97370000D01*
X29310000Y-91219041D01*
X32258086Y-91219041D01*
X32497611Y-91725134D01*
X32912577Y-92101041D01*
X33300961Y-92261904D01*
X33523000Y-92139915D01*
X33523000Y-90997000D01*
X33777000Y-90997000D01*
X33777000Y-92139915D01*
X33999039Y-92261904D01*
X34387423Y-92101041D01*
X34802389Y-91725134D01*
X35041914Y-91219041D01*
X35458086Y-91219041D01*
X35697611Y-91725134D01*
X36112577Y-92101041D01*
X36500961Y-92261904D01*
X36723000Y-92139915D01*
X36723000Y-90997000D01*
X36977000Y-90997000D01*
X36977000Y-92139915D01*
X37199039Y-92261904D01*
X37587423Y-92101041D01*
X38002389Y-91725134D01*
X38241914Y-91219041D01*
X38120629Y-90997000D01*
X36977000Y-90997000D01*
X36723000Y-90997000D01*
X35579371Y-90997000D01*
X35458086Y-91219041D01*
X35041914Y-91219041D01*
X34920629Y-90997000D01*
X33777000Y-90997000D01*
X33523000Y-90997000D01*
X32379371Y-90997000D01*
X32258086Y-91219041D01*
X29310000Y-91219041D01*
X29310000Y-90520959D01*
X32258086Y-90520959D01*
X32379371Y-90743000D01*
X33523000Y-90743000D01*
X33523000Y-89600085D01*
X33777000Y-89600085D01*
X33777000Y-90743000D01*
X34920629Y-90743000D01*
X35041914Y-90520959D01*
X35458086Y-90520959D01*
X35579371Y-90743000D01*
X36723000Y-90743000D01*
X36723000Y-89600085D01*
X36977000Y-89600085D01*
X36977000Y-90743000D01*
X38120629Y-90743000D01*
X38241914Y-90520959D01*
X38658086Y-90520959D01*
X38779371Y-90743000D01*
X39923000Y-90743000D01*
X39923000Y-89600085D01*
X39700961Y-89478096D01*
X39312577Y-89638959D01*
X38897611Y-90014866D01*
X38658086Y-90520959D01*
X38241914Y-90520959D01*
X38002389Y-90014866D01*
X37587423Y-89638959D01*
X37199039Y-89478096D01*
X36977000Y-89600085D01*
X36723000Y-89600085D01*
X36500961Y-89478096D01*
X36112577Y-89638959D01*
X35697611Y-90014866D01*
X35458086Y-90520959D01*
X35041914Y-90520959D01*
X34802389Y-90014866D01*
X34387423Y-89638959D01*
X33999039Y-89478096D01*
X33777000Y-89600085D01*
X33523000Y-89600085D01*
X33300961Y-89478096D01*
X32912577Y-89638959D01*
X32497611Y-90014866D01*
X32258086Y-90520959D01*
X29310000Y-90520959D01*
X29310000Y-82964561D01*
X32215000Y-82964561D01*
X32215000Y-83535439D01*
X32433466Y-84062862D01*
X32837138Y-84466534D01*
X33364561Y-84685000D01*
X33935439Y-84685000D01*
X34462862Y-84466534D01*
X34866534Y-84062862D01*
X35085000Y-83535439D01*
X35085000Y-82964561D01*
X35415000Y-82964561D01*
X35415000Y-83535439D01*
X35633466Y-84062862D01*
X36037138Y-84466534D01*
X36564561Y-84685000D01*
X37135439Y-84685000D01*
X37662862Y-84466534D01*
X38066534Y-84062862D01*
X38285000Y-83535439D01*
X38285000Y-82964561D01*
X38615000Y-82964561D01*
X38615000Y-83535439D01*
X38833466Y-84062862D01*
X39237138Y-84466534D01*
X39764561Y-84685000D01*
X40335439Y-84685000D01*
X40862862Y-84466534D01*
X41071651Y-84257745D01*
X42421861Y-84257745D01*
X42495995Y-84503864D01*
X43033223Y-84696965D01*
X43603454Y-84669778D01*
X44004005Y-84503864D01*
X44078139Y-84257745D01*
X43250000Y-83429605D01*
X42421861Y-84257745D01*
X41071651Y-84257745D01*
X41266534Y-84062862D01*
X41485000Y-83535439D01*
X41485000Y-83033223D01*
X41803035Y-83033223D01*
X41830222Y-83603454D01*
X41996136Y-84004005D01*
X42242255Y-84078139D01*
X43070395Y-83250000D01*
X42242255Y-82421861D01*
X41996136Y-82495995D01*
X41803035Y-83033223D01*
X41485000Y-83033223D01*
X41485000Y-82964561D01*
X41266534Y-82437138D01*
X41071651Y-82242255D01*
X42421861Y-82242255D01*
X43250000Y-83070395D01*
X44078139Y-82242255D01*
X44004005Y-81996136D01*
X43466777Y-81803035D01*
X42896546Y-81830222D01*
X42495995Y-81996136D01*
X42421861Y-82242255D01*
X41071651Y-82242255D01*
X40862862Y-82033466D01*
X40810000Y-82011570D01*
X40810000Y-72670101D01*
X43164473Y-70315629D01*
X43227929Y-70273229D01*
X43387109Y-70035000D01*
X43395904Y-70021838D01*
X43410424Y-69948839D01*
X43433571Y-69832474D01*
X43750625Y-69620625D01*
X43963843Y-69301522D01*
X44024817Y-69431358D01*
X44453076Y-69821645D01*
X44863110Y-69991476D01*
X45093000Y-69870155D01*
X45093000Y-68677000D01*
X45073000Y-68677000D01*
X45073000Y-68423000D01*
X45093000Y-68423000D01*
X45093000Y-67229845D01*
X44863110Y-67108524D01*
X44453076Y-67278355D01*
X44024817Y-67668642D01*
X43963843Y-67798478D01*
X43750625Y-67479375D01*
X43259418Y-67151161D01*
X42826256Y-67065000D01*
X42533744Y-67065000D01*
X42100582Y-67151161D01*
X41609375Y-67479375D01*
X41410000Y-67777761D01*
X41210625Y-67479375D01*
X40719418Y-67151161D01*
X40286256Y-67065000D01*
X39993744Y-67065000D01*
X39560582Y-67151161D01*
X39069375Y-67479375D01*
X38741161Y-67970582D01*
X38625908Y-68550000D01*
X38741161Y-69129418D01*
X39069375Y-69620625D01*
X39560582Y-69948839D01*
X39993744Y-70035000D01*
X40286256Y-70035000D01*
X40719418Y-69948839D01*
X41210625Y-69620625D01*
X41410000Y-69322239D01*
X41609375Y-69620625D01*
X41669619Y-69660879D01*
X39565530Y-71764969D01*
X39502071Y-71807371D01*
X39334096Y-72058764D01*
X39290000Y-72280449D01*
X39290000Y-72280453D01*
X39275112Y-72355300D01*
X39290000Y-72430147D01*
X39290001Y-82011569D01*
X39237138Y-82033466D01*
X38833466Y-82437138D01*
X38615000Y-82964561D01*
X38285000Y-82964561D01*
X38066534Y-82437138D01*
X37662862Y-82033466D01*
X37135439Y-81815000D01*
X36564561Y-81815000D01*
X36037138Y-82033466D01*
X35633466Y-82437138D01*
X35415000Y-82964561D01*
X35085000Y-82964561D01*
X34866534Y-82437138D01*
X34462862Y-82033466D01*
X33935439Y-81815000D01*
X33364561Y-81815000D01*
X32837138Y-82033466D01*
X32433466Y-82437138D01*
X32215000Y-82964561D01*
X29310000Y-82964561D01*
X29310000Y-49255431D01*
X31365000Y-49255431D01*
X31365000Y-50144569D01*
X31705259Y-50966026D01*
X32333974Y-51594741D01*
X33155431Y-51935000D01*
X34044569Y-51935000D01*
X34866026Y-51594741D01*
X35494741Y-50966026D01*
X35835000Y-50144569D01*
X35835000Y-49255431D01*
X35494741Y-48433974D01*
X34866026Y-47805259D01*
X34044569Y-47465000D01*
X33155431Y-47465000D01*
X32333974Y-47805259D01*
X31705259Y-48433974D01*
X31365000Y-49255431D01*
X29310000Y-49255431D01*
X29310000Y-45410000D01*
X61090001Y-45410000D01*
X61090000Y-143990000D01*
G04 #@! TD*
M02*
