G04 #@! TF.GenerationSoftware,KiCad,Pcbnew,(5.0.0)*
G04 #@! TF.CreationDate,2019-08-04T18:11:21+09:00*
G04 #@! TF.ProjectId,ir_send_mod,69725F73656E645F6D6F642E6B696361,rev?*
G04 #@! TF.SameCoordinates,Original*
G04 #@! TF.FileFunction,Copper,L1,Top,Signal*
G04 #@! TF.FilePolarity,Positive*
%FSLAX46Y46*%
G04 Gerber Fmt 4.6, Leading zero omitted, Abs format (unit mm)*
G04 Created by KiCad (PCBNEW (5.0.0)) date 08/04/19 18:11:21*
%MOMM*%
%LPD*%
G01*
G04 APERTURE LIST*
G04 #@! TA.AperFunction,ComponentPad*
%ADD10R,1.600000X1.600000*%
G04 #@! TD*
G04 #@! TA.AperFunction,ComponentPad*
%ADD11O,1.600000X1.600000*%
G04 #@! TD*
G04 #@! TA.AperFunction,ComponentPad*
%ADD12C,1.800000*%
G04 #@! TD*
G04 #@! TA.AperFunction,ComponentPad*
%ADD13R,1.800000X1.800000*%
G04 #@! TD*
G04 #@! TA.AperFunction,ComponentPad*
%ADD14R,1.700000X1.700000*%
G04 #@! TD*
G04 #@! TA.AperFunction,ComponentPad*
%ADD15O,1.700000X1.700000*%
G04 #@! TD*
G04 #@! TA.AperFunction,ComponentPad*
%ADD16O,1.500000X1.050000*%
G04 #@! TD*
G04 #@! TA.AperFunction,ComponentPad*
%ADD17R,1.500000X1.050000*%
G04 #@! TD*
G04 #@! TA.AperFunction,ComponentPad*
%ADD18R,2.000000X1.905000*%
G04 #@! TD*
G04 #@! TA.AperFunction,ComponentPad*
%ADD19O,2.000000X1.905000*%
G04 #@! TD*
G04 #@! TA.AperFunction,ComponentPad*
%ADD20C,1.600000*%
G04 #@! TD*
G04 #@! TA.AperFunction,ComponentPad*
%ADD21C,1.524000*%
G04 #@! TD*
G04 #@! TA.AperFunction,ComponentPad*
%ADD22R,1.524000X1.524000*%
G04 #@! TD*
G04 #@! TA.AperFunction,Conductor*
%ADD23C,0.400000*%
G04 #@! TD*
G04 #@! TA.AperFunction,Conductor*
%ADD24C,0.250000*%
G04 #@! TD*
G04 #@! TA.AperFunction,Conductor*
%ADD25C,0.254000*%
G04 #@! TD*
G04 APERTURE END LIST*
D10*
G04 #@! TO.P,SW2,1*
G04 #@! TO.N,Net-(D5-Pad2)*
X53800000Y-73800000D03*
D11*
G04 #@! TO.P,SW2,5*
G04 #@! TO.N,Net-(R7-Pad1)*
X46180000Y-81420000D03*
G04 #@! TO.P,SW2,2*
G04 #@! TO.N,Net-(D5-Pad2)*
X51260000Y-73800000D03*
G04 #@! TO.P,SW2,6*
G04 #@! TO.N,Net-(R8-Pad1)*
X48720000Y-81420000D03*
G04 #@! TO.P,SW2,3*
G04 #@! TO.N,Net-(D5-Pad2)*
X48720000Y-73800000D03*
G04 #@! TO.P,SW2,7*
G04 #@! TO.N,Net-(R9-Pad1)*
X51260000Y-81420000D03*
G04 #@! TO.P,SW2,4*
G04 #@! TO.N,Net-(D5-Pad2)*
X46180000Y-73800000D03*
G04 #@! TO.P,SW2,8*
G04 #@! TO.N,Net-(R10-Pad1)*
X53800000Y-81420000D03*
G04 #@! TD*
D12*
G04 #@! TO.P,D1,2*
G04 #@! TO.N,Net-(D1-Pad2)*
X45640000Y-88200000D03*
D13*
G04 #@! TO.P,D1,1*
G04 #@! TO.N,GND*
X43100000Y-88200000D03*
G04 #@! TD*
G04 #@! TO.P,D2,1*
G04 #@! TO.N,GND*
X49600000Y-88200000D03*
D12*
G04 #@! TO.P,D2,2*
G04 #@! TO.N,Net-(D2-Pad2)*
X52140000Y-88200000D03*
G04 #@! TD*
G04 #@! TO.P,D3,2*
G04 #@! TO.N,Net-(D3-Pad2)*
X58640000Y-88200000D03*
D13*
G04 #@! TO.P,D3,1*
G04 #@! TO.N,GND*
X56100000Y-88200000D03*
G04 #@! TD*
G04 #@! TO.P,D4,1*
G04 #@! TO.N,GND*
X62600000Y-88200000D03*
D12*
G04 #@! TO.P,D4,2*
G04 #@! TO.N,Net-(D4-Pad2)*
X65140000Y-88200000D03*
G04 #@! TD*
D13*
G04 #@! TO.P,D5,1*
G04 #@! TO.N,GND*
X62100000Y-77400000D03*
D12*
G04 #@! TO.P,D5,2*
G04 #@! TO.N,Net-(D5-Pad2)*
X62100000Y-74860000D03*
G04 #@! TD*
D14*
G04 #@! TO.P,J1,1*
G04 #@! TO.N,Net-(J1-Pad1)*
X40200000Y-51200000D03*
D15*
G04 #@! TO.P,J1,2*
G04 #@! TO.N,GND*
X40200000Y-53740000D03*
G04 #@! TO.P,J1,3*
G04 #@! TO.N,Net-(J1-Pad3)*
X40200000Y-56280000D03*
G04 #@! TD*
D16*
G04 #@! TO.P,Q1,2*
G04 #@! TO.N,Net-(Q1-Pad2)*
X59100000Y-57530000D03*
G04 #@! TO.P,Q1,3*
G04 #@! TO.N,Net-(Q1-Pad3)*
X59100000Y-56260000D03*
D17*
G04 #@! TO.P,Q1,1*
G04 #@! TO.N,GND*
X59100000Y-58800000D03*
G04 #@! TD*
D18*
G04 #@! TO.P,Q2,1*
G04 #@! TO.N,Net-(Q1-Pad3)*
X66100000Y-53500000D03*
D19*
G04 #@! TO.P,Q2,2*
G04 #@! TO.N,Net-(D5-Pad2)*
X66100000Y-56040000D03*
G04 #@! TO.P,Q2,3*
G04 #@! TO.N,Net-(J1-Pad1)*
X66100000Y-58580000D03*
G04 #@! TD*
D20*
G04 #@! TO.P,R1,1*
G04 #@! TO.N,Net-(R1-Pad1)*
X59200000Y-63300000D03*
D11*
G04 #@! TO.P,R1,2*
G04 #@! TO.N,GND*
X59200000Y-70920000D03*
G04 #@! TD*
G04 #@! TO.P,R2,2*
G04 #@! TO.N,GND*
X62400000Y-70920000D03*
D20*
G04 #@! TO.P,R2,1*
G04 #@! TO.N,Net-(J2-Pad5)*
X62400000Y-63300000D03*
G04 #@! TD*
D11*
G04 #@! TO.P,R3,2*
G04 #@! TO.N,GND*
X65600000Y-70920000D03*
D20*
G04 #@! TO.P,R3,1*
G04 #@! TO.N,Net-(J2-Pad4)*
X65600000Y-63300000D03*
G04 #@! TD*
G04 #@! TO.P,R4,1*
G04 #@! TO.N,Net-(Q1-Pad2)*
X39200000Y-69120000D03*
D11*
G04 #@! TO.P,R4,2*
G04 #@! TO.N,Net-(R4-Pad2)*
X39200000Y-61500000D03*
G04 #@! TD*
D20*
G04 #@! TO.P,R5,1*
G04 #@! TO.N,GND*
X42300000Y-69120000D03*
D11*
G04 #@! TO.P,R5,2*
G04 #@! TO.N,Net-(J2-Pad1)*
X42300000Y-61500000D03*
G04 #@! TD*
G04 #@! TO.P,R6,2*
G04 #@! TO.N,Net-(Q1-Pad3)*
X62720000Y-51200000D03*
D20*
G04 #@! TO.P,R6,1*
G04 #@! TO.N,Net-(J1-Pad1)*
X55100000Y-51200000D03*
G04 #@! TD*
G04 #@! TO.P,R7,1*
G04 #@! TO.N,Net-(R7-Pad1)*
X38900000Y-74300000D03*
D11*
G04 #@! TO.P,R7,2*
G04 #@! TO.N,Net-(D1-Pad2)*
X38900000Y-81920000D03*
G04 #@! TD*
G04 #@! TO.P,R8,2*
G04 #@! TO.N,Net-(D2-Pad2)*
X35700000Y-81920000D03*
D20*
G04 #@! TO.P,R8,1*
G04 #@! TO.N,Net-(R8-Pad1)*
X35700000Y-74300000D03*
G04 #@! TD*
G04 #@! TO.P,R10,1*
G04 #@! TO.N,Net-(R10-Pad1)*
X70300000Y-75500000D03*
D11*
G04 #@! TO.P,R10,2*
G04 #@! TO.N,Net-(D4-Pad2)*
X70300000Y-83120000D03*
G04 #@! TD*
D21*
G04 #@! TO.P,SW1,2*
G04 #@! TO.N,Net-(J2-Pad5)*
X52340000Y-50160000D03*
D22*
G04 #@! TO.P,SW1,1*
G04 #@! TO.N,Net-(J2-Pad4)*
X52340000Y-55240000D03*
D21*
G04 #@! TO.P,SW1,8*
G04 #@! TO.N,Net-(J2-Pad1)*
X44720000Y-50160000D03*
G04 #@! TO.P,SW1,4*
G04 #@! TO.N,Net-(R1-Pad1)*
X44720000Y-55240000D03*
G04 #@! TO.P,SW1,C*
G04 #@! TO.N,Net-(J1-Pad1)*
X44720000Y-52700000D03*
G04 #@! TD*
D10*
G04 #@! TO.P,U1,1*
G04 #@! TO.N,Net-(J1-Pad1)*
X47100000Y-61300000D03*
D11*
G04 #@! TO.P,U1,5*
G04 #@! TO.N,Net-(R1-Pad1)*
X54720000Y-68920000D03*
G04 #@! TO.P,U1,2*
G04 #@! TO.N,Net-(R4-Pad2)*
X47100000Y-63840000D03*
G04 #@! TO.P,U1,6*
G04 #@! TO.N,Net-(J2-Pad5)*
X54720000Y-66380000D03*
G04 #@! TO.P,U1,3*
G04 #@! TO.N,Net-(J1-Pad3)*
X47100000Y-66380000D03*
G04 #@! TO.P,U1,7*
G04 #@! TO.N,Net-(J2-Pad4)*
X54720000Y-63840000D03*
G04 #@! TO.P,U1,4*
G04 #@! TO.N,Net-(J2-Pad1)*
X47100000Y-68920000D03*
G04 #@! TO.P,U1,8*
G04 #@! TO.N,GND*
X54720000Y-61300000D03*
G04 #@! TD*
D20*
G04 #@! TO.P,R9,1*
G04 #@! TO.N,Net-(R9-Pad1)*
X67200000Y-83120000D03*
D11*
G04 #@! TO.P,R9,2*
G04 #@! TO.N,Net-(D3-Pad2)*
X67200000Y-75500000D03*
G04 #@! TD*
D14*
G04 #@! TO.P,J2,1*
G04 #@! TO.N,Net-(J2-Pad1)*
X73800000Y-56400000D03*
D15*
G04 #@! TO.P,J2,2*
G04 #@! TO.N,Net-(J1-Pad1)*
X73800000Y-58940000D03*
G04 #@! TO.P,J2,3*
G04 #@! TO.N,GND*
X73800000Y-61480000D03*
G04 #@! TO.P,J2,4*
G04 #@! TO.N,Net-(J2-Pad4)*
X73800000Y-64020000D03*
G04 #@! TO.P,J2,5*
G04 #@! TO.N,Net-(J2-Pad5)*
X73800000Y-66560000D03*
G04 #@! TD*
D20*
G04 #@! TO.P,R11,1*
G04 #@! TO.N,Net-(R11-Pad1)*
X69400000Y-70900000D03*
D11*
G04 #@! TO.P,R11,2*
G04 #@! TO.N,Net-(J2-Pad1)*
X69400000Y-63280000D03*
G04 #@! TD*
D14*
G04 #@! TO.P,SW3,1*
G04 #@! TO.N,Net-(SW3-Pad1)*
X33100000Y-67700000D03*
D15*
G04 #@! TO.P,SW3,2*
G04 #@! TO.N,Net-(R4-Pad2)*
X33100000Y-65160000D03*
G04 #@! TO.P,SW3,3*
G04 #@! TO.N,Net-(J1-Pad1)*
X33100000Y-62620000D03*
G04 #@! TD*
G04 #@! TO.P,SW4,3*
G04 #@! TO.N,Net-(R11-Pad1)*
X74300000Y-77980000D03*
G04 #@! TO.P,SW4,2*
G04 #@! TO.N,Net-(J1-Pad1)*
X74300000Y-75440000D03*
D14*
G04 #@! TO.P,SW4,1*
G04 #@! TO.N,Net-(SW4-Pad1)*
X74300000Y-72900000D03*
G04 #@! TD*
D23*
G04 #@! TO.N,GND*
X49600000Y-88200000D02*
X48299700Y-88200000D01*
X48299700Y-88200000D02*
X46927800Y-86828100D01*
X46927800Y-86828100D02*
X44471900Y-86828100D01*
X44471900Y-86828100D02*
X43100000Y-88200000D01*
X54799700Y-88200000D02*
X53469600Y-89530100D01*
X53469600Y-89530100D02*
X50930100Y-89530100D01*
X50930100Y-89530100D02*
X49600000Y-88200000D01*
X40200000Y-53740000D02*
X41450300Y-53740000D01*
X54720000Y-61300000D02*
X53519700Y-61300000D01*
X53519700Y-61300000D02*
X46283000Y-54063300D01*
X46283000Y-54063300D02*
X41773600Y-54063300D01*
X41773600Y-54063300D02*
X41450300Y-53740000D01*
X63436000Y-70920000D02*
X62400000Y-70920000D01*
X65600000Y-70920000D02*
X63436000Y-70920000D01*
X63436000Y-70920000D02*
X63436000Y-76064000D01*
X63436000Y-76064000D02*
X62100000Y-77400000D01*
X62400000Y-70920000D02*
X59200000Y-70920000D01*
X56100000Y-88200000D02*
X54799700Y-88200000D01*
X61299700Y-88200000D02*
X59991900Y-86892200D01*
X59991900Y-86892200D02*
X57407800Y-86892200D01*
X57407800Y-86892200D02*
X56100000Y-88200000D01*
X62600000Y-88200000D02*
X61299700Y-88200000D01*
D24*
G04 #@! TO.N,Net-(D2-Pad2)*
X35700000Y-81920000D02*
X36825300Y-81920000D01*
X36825300Y-81920000D02*
X37950600Y-83045300D01*
X37950600Y-83045300D02*
X46985300Y-83045300D01*
X46985300Y-83045300D02*
X52140000Y-88200000D01*
G04 #@! TO.N,Net-(D4-Pad2)*
X70300000Y-83120000D02*
X69174700Y-83120000D01*
X69174700Y-83120000D02*
X69174700Y-84165300D01*
X69174700Y-84165300D02*
X65140000Y-88200000D01*
G04 #@! TO.N,Net-(D5-Pad2)*
X51260000Y-73800000D02*
X53800000Y-73800000D01*
X48720000Y-73800000D02*
X51260000Y-73800000D01*
X46180000Y-73800000D02*
X48720000Y-73800000D01*
D23*
G04 #@! TO.N,Net-(J1-Pad1)*
X66100000Y-58580000D02*
X67500300Y-58580000D01*
X73800000Y-58940000D02*
X67860300Y-58940000D01*
X67860300Y-58940000D02*
X67500300Y-58580000D01*
X40200000Y-51200000D02*
X41450300Y-51200000D01*
X44720000Y-52700000D02*
X42950300Y-52700000D01*
X42950300Y-52700000D02*
X41450300Y-51200000D01*
X55100000Y-51200000D02*
X53600000Y-52700000D01*
X53600000Y-52700000D02*
X44720000Y-52700000D01*
X66100000Y-58580000D02*
X58720000Y-51200000D01*
X58720000Y-51200000D02*
X55100000Y-51200000D01*
D24*
G04 #@! TO.N,Net-(Q1-Pad3)*
X66100000Y-53500000D02*
X66100000Y-52222200D01*
X62720000Y-51200000D02*
X63845300Y-51200000D01*
X63845300Y-51200000D02*
X64867500Y-52222200D01*
X64867500Y-52222200D02*
X66100000Y-52222200D01*
G04 #@! TO.N,Net-(R1-Pad1)*
X54302100Y-65199600D02*
X57300400Y-65199600D01*
X57300400Y-65199600D02*
X59200000Y-63300000D01*
X54720000Y-67794700D02*
X54438700Y-67794700D01*
X54438700Y-67794700D02*
X53594500Y-66950500D01*
X53594500Y-66950500D02*
X53594500Y-65907200D01*
X53594500Y-65907200D02*
X54302100Y-65199600D01*
X44720000Y-55240000D02*
X44720000Y-55617500D01*
X44720000Y-55617500D02*
X54302100Y-65199600D01*
X54720000Y-68920000D02*
X54720000Y-67794700D01*
G04 #@! TO.N,Net-(R4-Pad2)*
X39762700Y-61500000D02*
X36102700Y-65160000D01*
X36102700Y-65160000D02*
X33100000Y-65160000D01*
X39762700Y-61500000D02*
X40325300Y-61500000D01*
X39200000Y-61500000D02*
X39762700Y-61500000D01*
X47100000Y-63840000D02*
X42665300Y-63840000D01*
X42665300Y-63840000D02*
X40325300Y-61500000D01*
G04 #@! TO.N,Net-(R8-Pad1)*
X48720000Y-81420000D02*
X47594700Y-81420000D01*
X35700000Y-74300000D02*
X41694700Y-80294700D01*
X41694700Y-80294700D02*
X46750800Y-80294700D01*
X46750800Y-80294700D02*
X47594700Y-81138600D01*
X47594700Y-81138600D02*
X47594700Y-81420000D01*
G04 #@! TO.N,Net-(R9-Pad1)*
X51260000Y-81420000D02*
X52385300Y-81420000D01*
X67200000Y-83120000D02*
X53804000Y-83120000D01*
X53804000Y-83120000D02*
X52385300Y-81701300D01*
X52385300Y-81701300D02*
X52385300Y-81420000D01*
G04 #@! TO.N,Net-(R10-Pad1)*
X70300000Y-75500000D02*
X64380000Y-81420000D01*
X64380000Y-81420000D02*
X53800000Y-81420000D01*
G04 #@! TO.N,Net-(J2-Pad1)*
X73800000Y-56400000D02*
X72624700Y-56400000D01*
X72624700Y-56400000D02*
X65287400Y-49062700D01*
X65287400Y-49062700D02*
X45817300Y-49062700D01*
X45817300Y-49062700D02*
X44720000Y-50160000D01*
G04 #@! TO.N,Net-(J2-Pad4)*
X73800000Y-64020000D02*
X72624700Y-64020000D01*
X72624700Y-64020000D02*
X72198600Y-64446100D01*
X72198600Y-64446100D02*
X66746100Y-64446100D01*
X66746100Y-64446100D02*
X65600000Y-63300000D01*
X54720000Y-63840000D02*
X55845300Y-63840000D01*
X55845300Y-63840000D02*
X57518100Y-62167200D01*
X57518100Y-62167200D02*
X64467200Y-62167200D01*
X64467200Y-62167200D02*
X65600000Y-63300000D01*
G04 #@! TO.N,Net-(J2-Pad5)*
X62400000Y-65650000D02*
X56575300Y-65650000D01*
X56575300Y-65650000D02*
X55845300Y-66380000D01*
X73800000Y-66560000D02*
X63310000Y-66560000D01*
X63310000Y-66560000D02*
X62400000Y-65650000D01*
X62400000Y-65650000D02*
X62400000Y-63300000D01*
X54720000Y-66380000D02*
X55845300Y-66380000D01*
G04 #@! TD*
D25*
G04 #@! TO.N,GND*
G36*
X77865001Y-93765000D02*
X29335000Y-93765000D01*
X29335000Y-89055431D01*
X31365000Y-89055431D01*
X31365000Y-89944569D01*
X31705259Y-90766026D01*
X32333974Y-91394741D01*
X33155431Y-91735000D01*
X34044569Y-91735000D01*
X34866026Y-91394741D01*
X35494741Y-90766026D01*
X35835000Y-89944569D01*
X35835000Y-89055431D01*
X35599031Y-88485750D01*
X41565000Y-88485750D01*
X41565000Y-89226310D01*
X41661673Y-89459699D01*
X41840302Y-89638327D01*
X42073691Y-89735000D01*
X42814250Y-89735000D01*
X42973000Y-89576250D01*
X42973000Y-88327000D01*
X41723750Y-88327000D01*
X41565000Y-88485750D01*
X35599031Y-88485750D01*
X35494741Y-88233974D01*
X34866026Y-87605259D01*
X34044569Y-87265000D01*
X33155431Y-87265000D01*
X32333974Y-87605259D01*
X31705259Y-88233974D01*
X31365000Y-89055431D01*
X29335000Y-89055431D01*
X29335000Y-87173690D01*
X41565000Y-87173690D01*
X41565000Y-87914250D01*
X41723750Y-88073000D01*
X42973000Y-88073000D01*
X42973000Y-86823750D01*
X43227000Y-86823750D01*
X43227000Y-88073000D01*
X43247000Y-88073000D01*
X43247000Y-88327000D01*
X43227000Y-88327000D01*
X43227000Y-89576250D01*
X43385750Y-89735000D01*
X44126309Y-89735000D01*
X44359698Y-89638327D01*
X44538327Y-89459699D01*
X44594139Y-89324956D01*
X44770493Y-89501310D01*
X45334670Y-89735000D01*
X45945330Y-89735000D01*
X46509507Y-89501310D01*
X46941310Y-89069507D01*
X47175000Y-88505330D01*
X47175000Y-88485750D01*
X48065000Y-88485750D01*
X48065000Y-89226310D01*
X48161673Y-89459699D01*
X48340302Y-89638327D01*
X48573691Y-89735000D01*
X49314250Y-89735000D01*
X49473000Y-89576250D01*
X49473000Y-88327000D01*
X48223750Y-88327000D01*
X48065000Y-88485750D01*
X47175000Y-88485750D01*
X47175000Y-87894670D01*
X46941310Y-87330493D01*
X46509507Y-86898690D01*
X45945330Y-86665000D01*
X45334670Y-86665000D01*
X44770493Y-86898690D01*
X44594139Y-87075044D01*
X44538327Y-86940301D01*
X44359698Y-86761673D01*
X44126309Y-86665000D01*
X43385750Y-86665000D01*
X43227000Y-86823750D01*
X42973000Y-86823750D01*
X42814250Y-86665000D01*
X42073691Y-86665000D01*
X41840302Y-86761673D01*
X41661673Y-86940301D01*
X41565000Y-87173690D01*
X29335000Y-87173690D01*
X29335000Y-81920000D01*
X34236887Y-81920000D01*
X34348260Y-82479909D01*
X34665423Y-82954577D01*
X35140091Y-83271740D01*
X35558667Y-83355000D01*
X35841333Y-83355000D01*
X36259909Y-83271740D01*
X36734577Y-82954577D01*
X36754804Y-82924305D01*
X37360270Y-83529772D01*
X37402671Y-83593229D01*
X37654063Y-83761204D01*
X37875748Y-83805300D01*
X37875752Y-83805300D01*
X37950600Y-83820188D01*
X38025448Y-83805300D01*
X46670499Y-83805300D01*
X49530198Y-86665000D01*
X49472998Y-86665000D01*
X49472998Y-86823748D01*
X49314250Y-86665000D01*
X48573691Y-86665000D01*
X48340302Y-86761673D01*
X48161673Y-86940301D01*
X48065000Y-87173690D01*
X48065000Y-87914250D01*
X48223750Y-88073000D01*
X49473000Y-88073000D01*
X49473000Y-88053000D01*
X49727000Y-88053000D01*
X49727000Y-88073000D01*
X49747000Y-88073000D01*
X49747000Y-88327000D01*
X49727000Y-88327000D01*
X49727000Y-89576250D01*
X49885750Y-89735000D01*
X50626309Y-89735000D01*
X50859698Y-89638327D01*
X51038327Y-89459699D01*
X51094139Y-89324956D01*
X51270493Y-89501310D01*
X51834670Y-89735000D01*
X52445330Y-89735000D01*
X53009507Y-89501310D01*
X53441310Y-89069507D01*
X53675000Y-88505330D01*
X53675000Y-88485750D01*
X54565000Y-88485750D01*
X54565000Y-89226310D01*
X54661673Y-89459699D01*
X54840302Y-89638327D01*
X55073691Y-89735000D01*
X55814250Y-89735000D01*
X55973000Y-89576250D01*
X55973000Y-88327000D01*
X54723750Y-88327000D01*
X54565000Y-88485750D01*
X53675000Y-88485750D01*
X53675000Y-87894670D01*
X53441310Y-87330493D01*
X53284507Y-87173690D01*
X54565000Y-87173690D01*
X54565000Y-87914250D01*
X54723750Y-88073000D01*
X55973000Y-88073000D01*
X55973000Y-86823750D01*
X56227000Y-86823750D01*
X56227000Y-88073000D01*
X56247000Y-88073000D01*
X56247000Y-88327000D01*
X56227000Y-88327000D01*
X56227000Y-89576250D01*
X56385750Y-89735000D01*
X57126309Y-89735000D01*
X57359698Y-89638327D01*
X57538327Y-89459699D01*
X57594139Y-89324956D01*
X57770493Y-89501310D01*
X58334670Y-89735000D01*
X58945330Y-89735000D01*
X59509507Y-89501310D01*
X59941310Y-89069507D01*
X60175000Y-88505330D01*
X60175000Y-88485750D01*
X61065000Y-88485750D01*
X61065000Y-89226310D01*
X61161673Y-89459699D01*
X61340302Y-89638327D01*
X61573691Y-89735000D01*
X62314250Y-89735000D01*
X62473000Y-89576250D01*
X62473000Y-88327000D01*
X61223750Y-88327000D01*
X61065000Y-88485750D01*
X60175000Y-88485750D01*
X60175000Y-87894670D01*
X59941310Y-87330493D01*
X59784507Y-87173690D01*
X61065000Y-87173690D01*
X61065000Y-87914250D01*
X61223750Y-88073000D01*
X62473000Y-88073000D01*
X62473000Y-86823750D01*
X62314250Y-86665000D01*
X61573691Y-86665000D01*
X61340302Y-86761673D01*
X61161673Y-86940301D01*
X61065000Y-87173690D01*
X59784507Y-87173690D01*
X59509507Y-86898690D01*
X58945330Y-86665000D01*
X58334670Y-86665000D01*
X57770493Y-86898690D01*
X57594139Y-87075044D01*
X57538327Y-86940301D01*
X57359698Y-86761673D01*
X57126309Y-86665000D01*
X56385750Y-86665000D01*
X56227000Y-86823750D01*
X55973000Y-86823750D01*
X55814250Y-86665000D01*
X55073691Y-86665000D01*
X54840302Y-86761673D01*
X54661673Y-86940301D01*
X54565000Y-87173690D01*
X53284507Y-87173690D01*
X53009507Y-86898690D01*
X52445330Y-86665000D01*
X51834670Y-86665000D01*
X51725162Y-86710360D01*
X47575631Y-82560830D01*
X47533229Y-82497371D01*
X47293163Y-82336964D01*
X47412333Y-82158614D01*
X47499214Y-82175896D01*
X47685423Y-82454577D01*
X48160091Y-82771740D01*
X48578667Y-82855000D01*
X48861333Y-82855000D01*
X49279909Y-82771740D01*
X49754577Y-82454577D01*
X49990000Y-82102242D01*
X50225423Y-82454577D01*
X50700091Y-82771740D01*
X51118667Y-82855000D01*
X51401333Y-82855000D01*
X51819909Y-82771740D01*
X52156222Y-82547023D01*
X53213671Y-83604473D01*
X53256071Y-83667929D01*
X53319527Y-83710329D01*
X53507462Y-83835904D01*
X53555605Y-83845480D01*
X53729148Y-83880000D01*
X53729152Y-83880000D01*
X53804000Y-83894888D01*
X53878848Y-83880000D01*
X65961570Y-83880000D01*
X65983466Y-83932862D01*
X66387138Y-84336534D01*
X66914561Y-84555000D01*
X67485439Y-84555000D01*
X67869126Y-84396072D01*
X65554839Y-86710360D01*
X65445330Y-86665000D01*
X64834670Y-86665000D01*
X64270493Y-86898690D01*
X64094139Y-87075044D01*
X64038327Y-86940301D01*
X63859698Y-86761673D01*
X63626309Y-86665000D01*
X62885750Y-86665000D01*
X62727000Y-86823750D01*
X62727000Y-88073000D01*
X62747000Y-88073000D01*
X62747000Y-88327000D01*
X62727000Y-88327000D01*
X62727000Y-89576250D01*
X62885750Y-89735000D01*
X63626309Y-89735000D01*
X63859698Y-89638327D01*
X64038327Y-89459699D01*
X64094139Y-89324956D01*
X64270493Y-89501310D01*
X64834670Y-89735000D01*
X65445330Y-89735000D01*
X66009507Y-89501310D01*
X66441310Y-89069507D01*
X66447140Y-89055431D01*
X71365000Y-89055431D01*
X71365000Y-89944569D01*
X71705259Y-90766026D01*
X72333974Y-91394741D01*
X73155431Y-91735000D01*
X74044569Y-91735000D01*
X74866026Y-91394741D01*
X75494741Y-90766026D01*
X75835000Y-89944569D01*
X75835000Y-89055431D01*
X75494741Y-88233974D01*
X74866026Y-87605259D01*
X74044569Y-87265000D01*
X73155431Y-87265000D01*
X72333974Y-87605259D01*
X71705259Y-88233974D01*
X71365000Y-89055431D01*
X66447140Y-89055431D01*
X66675000Y-88505330D01*
X66675000Y-87894670D01*
X66629640Y-87785161D01*
X69659176Y-84755627D01*
X69722629Y-84713229D01*
X69765027Y-84649776D01*
X69765029Y-84649774D01*
X69867105Y-84497005D01*
X70158667Y-84555000D01*
X70441333Y-84555000D01*
X70859909Y-84471740D01*
X71334577Y-84154577D01*
X71651740Y-83679909D01*
X71763113Y-83120000D01*
X71651740Y-82560091D01*
X71334577Y-82085423D01*
X70859909Y-81768260D01*
X70441333Y-81685000D01*
X70158667Y-81685000D01*
X69740091Y-81768260D01*
X69265423Y-82085423D01*
X69079214Y-82364104D01*
X68878163Y-82404096D01*
X68626771Y-82572071D01*
X68564732Y-82664919D01*
X68416534Y-82307138D01*
X68012862Y-81903466D01*
X67485439Y-81685000D01*
X66914561Y-81685000D01*
X66387138Y-81903466D01*
X65983466Y-82307138D01*
X65961570Y-82360000D01*
X54897771Y-82360000D01*
X55018043Y-82180000D01*
X64305153Y-82180000D01*
X64380000Y-82194888D01*
X64454847Y-82180000D01*
X64454852Y-82180000D01*
X64676537Y-82135904D01*
X64927929Y-81967929D01*
X64970331Y-81904470D01*
X69961699Y-76913104D01*
X70014561Y-76935000D01*
X70585439Y-76935000D01*
X71112862Y-76716534D01*
X71516534Y-76312862D01*
X71735000Y-75785439D01*
X71735000Y-75440000D01*
X72785908Y-75440000D01*
X72901161Y-76019418D01*
X73229375Y-76510625D01*
X73527761Y-76710000D01*
X73229375Y-76909375D01*
X72901161Y-77400582D01*
X72785908Y-77980000D01*
X72901161Y-78559418D01*
X73229375Y-79050625D01*
X73720582Y-79378839D01*
X74153744Y-79465000D01*
X74446256Y-79465000D01*
X74879418Y-79378839D01*
X75370625Y-79050625D01*
X75698839Y-78559418D01*
X75814092Y-77980000D01*
X75698839Y-77400582D01*
X75370625Y-76909375D01*
X75072239Y-76710000D01*
X75370625Y-76510625D01*
X75698839Y-76019418D01*
X75814092Y-75440000D01*
X75698839Y-74860582D01*
X75370625Y-74369375D01*
X75352381Y-74357184D01*
X75397765Y-74348157D01*
X75607809Y-74207809D01*
X75748157Y-73997765D01*
X75797440Y-73750000D01*
X75797440Y-72050000D01*
X75748157Y-71802235D01*
X75607809Y-71592191D01*
X75397765Y-71451843D01*
X75150000Y-71402560D01*
X73450000Y-71402560D01*
X73202235Y-71451843D01*
X72992191Y-71592191D01*
X72851843Y-71802235D01*
X72802560Y-72050000D01*
X72802560Y-73750000D01*
X72851843Y-73997765D01*
X72992191Y-74207809D01*
X73202235Y-74348157D01*
X73247619Y-74357184D01*
X73229375Y-74369375D01*
X72901161Y-74860582D01*
X72785908Y-75440000D01*
X71735000Y-75440000D01*
X71735000Y-75214561D01*
X71516534Y-74687138D01*
X71112862Y-74283466D01*
X70585439Y-74065000D01*
X70014561Y-74065000D01*
X69487138Y-74283466D01*
X69083466Y-74687138D01*
X68865000Y-75214561D01*
X68865000Y-75785439D01*
X68886896Y-75838301D01*
X68323091Y-76402107D01*
X68551740Y-76059909D01*
X68663113Y-75500000D01*
X68551740Y-74940091D01*
X68234577Y-74465423D01*
X67759909Y-74148260D01*
X67341333Y-74065000D01*
X67058667Y-74065000D01*
X66640091Y-74148260D01*
X66165423Y-74465423D01*
X65848260Y-74940091D01*
X65736887Y-75500000D01*
X65848260Y-76059909D01*
X66165423Y-76534577D01*
X66640091Y-76851740D01*
X67058667Y-76935000D01*
X67341333Y-76935000D01*
X67759909Y-76851740D01*
X68102107Y-76623091D01*
X64065199Y-80660000D01*
X55018043Y-80660000D01*
X54834577Y-80385423D01*
X54359909Y-80068260D01*
X53941333Y-79985000D01*
X53658667Y-79985000D01*
X53240091Y-80068260D01*
X52765423Y-80385423D01*
X52567667Y-80681386D01*
X52480786Y-80664104D01*
X52294577Y-80385423D01*
X51819909Y-80068260D01*
X51401333Y-79985000D01*
X51118667Y-79985000D01*
X50700091Y-80068260D01*
X50225423Y-80385423D01*
X49990000Y-80737758D01*
X49754577Y-80385423D01*
X49279909Y-80068260D01*
X48861333Y-79985000D01*
X48578667Y-79985000D01*
X48160091Y-80068260D01*
X47823838Y-80292937D01*
X47341131Y-79810230D01*
X47298729Y-79746771D01*
X47047337Y-79578796D01*
X46825652Y-79534700D01*
X46825647Y-79534700D01*
X46750800Y-79519812D01*
X46675953Y-79534700D01*
X42009502Y-79534700D01*
X40160552Y-77685750D01*
X60565000Y-77685750D01*
X60565000Y-78426309D01*
X60661673Y-78659698D01*
X60840301Y-78838327D01*
X61073690Y-78935000D01*
X61814250Y-78935000D01*
X61973000Y-78776250D01*
X61973000Y-77527000D01*
X62227000Y-77527000D01*
X62227000Y-78776250D01*
X62385750Y-78935000D01*
X63126310Y-78935000D01*
X63359699Y-78838327D01*
X63538327Y-78659698D01*
X63635000Y-78426309D01*
X63635000Y-77685750D01*
X63476250Y-77527000D01*
X62227000Y-77527000D01*
X61973000Y-77527000D01*
X60723750Y-77527000D01*
X60565000Y-77685750D01*
X40160552Y-77685750D01*
X37113103Y-74638302D01*
X37135000Y-74585439D01*
X37135000Y-74014561D01*
X37465000Y-74014561D01*
X37465000Y-74585439D01*
X37683466Y-75112862D01*
X38087138Y-75516534D01*
X38614561Y-75735000D01*
X39185439Y-75735000D01*
X39712862Y-75516534D01*
X40116534Y-75112862D01*
X40335000Y-74585439D01*
X40335000Y-74014561D01*
X40246126Y-73800000D01*
X44716887Y-73800000D01*
X44828260Y-74359909D01*
X45145423Y-74834577D01*
X45620091Y-75151740D01*
X46038667Y-75235000D01*
X46321333Y-75235000D01*
X46739909Y-75151740D01*
X47214577Y-74834577D01*
X47398043Y-74560000D01*
X47501957Y-74560000D01*
X47685423Y-74834577D01*
X48160091Y-75151740D01*
X48578667Y-75235000D01*
X48861333Y-75235000D01*
X49279909Y-75151740D01*
X49754577Y-74834577D01*
X49938043Y-74560000D01*
X50041957Y-74560000D01*
X50225423Y-74834577D01*
X50700091Y-75151740D01*
X51118667Y-75235000D01*
X51401333Y-75235000D01*
X51819909Y-75151740D01*
X52294577Y-74834577D01*
X52375215Y-74713894D01*
X52401843Y-74847765D01*
X52542191Y-75057809D01*
X52752235Y-75198157D01*
X53000000Y-75247440D01*
X54600000Y-75247440D01*
X54847765Y-75198157D01*
X55057809Y-75057809D01*
X55198157Y-74847765D01*
X55247440Y-74600000D01*
X55247440Y-74554670D01*
X60565000Y-74554670D01*
X60565000Y-75165330D01*
X60798690Y-75729507D01*
X60975044Y-75905861D01*
X60840301Y-75961673D01*
X60661673Y-76140302D01*
X60565000Y-76373691D01*
X60565000Y-77114250D01*
X60723750Y-77273000D01*
X61973000Y-77273000D01*
X61973000Y-77253000D01*
X62227000Y-77253000D01*
X62227000Y-77273000D01*
X63476250Y-77273000D01*
X63635000Y-77114250D01*
X63635000Y-76373691D01*
X63538327Y-76140302D01*
X63359699Y-75961673D01*
X63224956Y-75905861D01*
X63401310Y-75729507D01*
X63635000Y-75165330D01*
X63635000Y-74554670D01*
X63401310Y-73990493D01*
X62969507Y-73558690D01*
X62405330Y-73325000D01*
X61794670Y-73325000D01*
X61230493Y-73558690D01*
X60798690Y-73990493D01*
X60565000Y-74554670D01*
X55247440Y-74554670D01*
X55247440Y-73000000D01*
X55198157Y-72752235D01*
X55057809Y-72542191D01*
X54847765Y-72401843D01*
X54600000Y-72352560D01*
X53000000Y-72352560D01*
X52752235Y-72401843D01*
X52542191Y-72542191D01*
X52401843Y-72752235D01*
X52375215Y-72886106D01*
X52294577Y-72765423D01*
X51819909Y-72448260D01*
X51401333Y-72365000D01*
X51118667Y-72365000D01*
X50700091Y-72448260D01*
X50225423Y-72765423D01*
X50041957Y-73040000D01*
X49938043Y-73040000D01*
X49754577Y-72765423D01*
X49279909Y-72448260D01*
X48861333Y-72365000D01*
X48578667Y-72365000D01*
X48160091Y-72448260D01*
X47685423Y-72765423D01*
X47501957Y-73040000D01*
X47398043Y-73040000D01*
X47214577Y-72765423D01*
X46739909Y-72448260D01*
X46321333Y-72365000D01*
X46038667Y-72365000D01*
X45620091Y-72448260D01*
X45145423Y-72765423D01*
X44828260Y-73240091D01*
X44716887Y-73800000D01*
X40246126Y-73800000D01*
X40116534Y-73487138D01*
X39712862Y-73083466D01*
X39185439Y-72865000D01*
X38614561Y-72865000D01*
X38087138Y-73083466D01*
X37683466Y-73487138D01*
X37465000Y-74014561D01*
X37135000Y-74014561D01*
X36916534Y-73487138D01*
X36512862Y-73083466D01*
X35985439Y-72865000D01*
X35414561Y-72865000D01*
X34887138Y-73083466D01*
X34483466Y-73487138D01*
X34265000Y-74014561D01*
X34265000Y-74585439D01*
X34483466Y-75112862D01*
X34887138Y-75516534D01*
X35414561Y-75735000D01*
X35985439Y-75735000D01*
X36038302Y-75713103D01*
X41104370Y-80779172D01*
X41146771Y-80842629D01*
X41398163Y-81010604D01*
X41619848Y-81054700D01*
X41619852Y-81054700D01*
X41694699Y-81069588D01*
X41769546Y-81054700D01*
X44789550Y-81054700D01*
X44716887Y-81420000D01*
X44828260Y-81979909D01*
X45032316Y-82285300D01*
X40290450Y-82285300D01*
X40363113Y-81920000D01*
X40251740Y-81360091D01*
X39934577Y-80885423D01*
X39459909Y-80568260D01*
X39041333Y-80485000D01*
X38758667Y-80485000D01*
X38340091Y-80568260D01*
X37865423Y-80885423D01*
X37548260Y-81360091D01*
X37513739Y-81533638D01*
X37415631Y-81435530D01*
X37373229Y-81372071D01*
X37121837Y-81204096D01*
X36920786Y-81164104D01*
X36734577Y-80885423D01*
X36259909Y-80568260D01*
X35841333Y-80485000D01*
X35558667Y-80485000D01*
X35140091Y-80568260D01*
X34665423Y-80885423D01*
X34348260Y-81360091D01*
X34236887Y-81920000D01*
X29335000Y-81920000D01*
X29335000Y-71269041D01*
X57808086Y-71269041D01*
X58047611Y-71775134D01*
X58462577Y-72151041D01*
X58850961Y-72311904D01*
X59073000Y-72189915D01*
X59073000Y-71047000D01*
X59327000Y-71047000D01*
X59327000Y-72189915D01*
X59549039Y-72311904D01*
X59937423Y-72151041D01*
X60352389Y-71775134D01*
X60591914Y-71269041D01*
X61008086Y-71269041D01*
X61247611Y-71775134D01*
X61662577Y-72151041D01*
X62050961Y-72311904D01*
X62273000Y-72189915D01*
X62273000Y-71047000D01*
X62527000Y-71047000D01*
X62527000Y-72189915D01*
X62749039Y-72311904D01*
X63137423Y-72151041D01*
X63552389Y-71775134D01*
X63791914Y-71269041D01*
X64208086Y-71269041D01*
X64447611Y-71775134D01*
X64862577Y-72151041D01*
X65250961Y-72311904D01*
X65473000Y-72189915D01*
X65473000Y-71047000D01*
X65727000Y-71047000D01*
X65727000Y-72189915D01*
X65949039Y-72311904D01*
X66337423Y-72151041D01*
X66752389Y-71775134D01*
X66991914Y-71269041D01*
X66870629Y-71047000D01*
X65727000Y-71047000D01*
X65473000Y-71047000D01*
X64329371Y-71047000D01*
X64208086Y-71269041D01*
X63791914Y-71269041D01*
X63670629Y-71047000D01*
X62527000Y-71047000D01*
X62273000Y-71047000D01*
X61129371Y-71047000D01*
X61008086Y-71269041D01*
X60591914Y-71269041D01*
X60470629Y-71047000D01*
X59327000Y-71047000D01*
X59073000Y-71047000D01*
X57929371Y-71047000D01*
X57808086Y-71269041D01*
X29335000Y-71269041D01*
X29335000Y-70570959D01*
X57808086Y-70570959D01*
X57929371Y-70793000D01*
X59073000Y-70793000D01*
X59073000Y-69650085D01*
X59327000Y-69650085D01*
X59327000Y-70793000D01*
X60470629Y-70793000D01*
X60591914Y-70570959D01*
X61008086Y-70570959D01*
X61129371Y-70793000D01*
X62273000Y-70793000D01*
X62273000Y-69650085D01*
X62527000Y-69650085D01*
X62527000Y-70793000D01*
X63670629Y-70793000D01*
X63791914Y-70570959D01*
X64208086Y-70570959D01*
X64329371Y-70793000D01*
X65473000Y-70793000D01*
X65473000Y-69650085D01*
X65727000Y-69650085D01*
X65727000Y-70793000D01*
X66870629Y-70793000D01*
X66968097Y-70614561D01*
X67965000Y-70614561D01*
X67965000Y-71185439D01*
X68183466Y-71712862D01*
X68587138Y-72116534D01*
X69114561Y-72335000D01*
X69685439Y-72335000D01*
X70212862Y-72116534D01*
X70616534Y-71712862D01*
X70835000Y-71185439D01*
X70835000Y-70614561D01*
X70616534Y-70087138D01*
X70212862Y-69683466D01*
X69685439Y-69465000D01*
X69114561Y-69465000D01*
X68587138Y-69683466D01*
X68183466Y-70087138D01*
X67965000Y-70614561D01*
X66968097Y-70614561D01*
X66991914Y-70570959D01*
X66752389Y-70064866D01*
X66337423Y-69688959D01*
X65949039Y-69528096D01*
X65727000Y-69650085D01*
X65473000Y-69650085D01*
X65250961Y-69528096D01*
X64862577Y-69688959D01*
X64447611Y-70064866D01*
X64208086Y-70570959D01*
X63791914Y-70570959D01*
X63552389Y-70064866D01*
X63137423Y-69688959D01*
X62749039Y-69528096D01*
X62527000Y-69650085D01*
X62273000Y-69650085D01*
X62050961Y-69528096D01*
X61662577Y-69688959D01*
X61247611Y-70064866D01*
X61008086Y-70570959D01*
X60591914Y-70570959D01*
X60352389Y-70064866D01*
X59937423Y-69688959D01*
X59549039Y-69528096D01*
X59327000Y-69650085D01*
X59073000Y-69650085D01*
X58850961Y-69528096D01*
X58462577Y-69688959D01*
X58047611Y-70064866D01*
X57808086Y-70570959D01*
X29335000Y-70570959D01*
X29335000Y-62620000D01*
X31585908Y-62620000D01*
X31701161Y-63199418D01*
X32029375Y-63690625D01*
X32327761Y-63890000D01*
X32029375Y-64089375D01*
X31701161Y-64580582D01*
X31585908Y-65160000D01*
X31701161Y-65739418D01*
X32029375Y-66230625D01*
X32047619Y-66242816D01*
X32002235Y-66251843D01*
X31792191Y-66392191D01*
X31651843Y-66602235D01*
X31602560Y-66850000D01*
X31602560Y-68550000D01*
X31651843Y-68797765D01*
X31792191Y-69007809D01*
X32002235Y-69148157D01*
X32250000Y-69197440D01*
X33950000Y-69197440D01*
X34197765Y-69148157D01*
X34407809Y-69007809D01*
X34523570Y-68834561D01*
X37765000Y-68834561D01*
X37765000Y-69405439D01*
X37983466Y-69932862D01*
X38387138Y-70336534D01*
X38914561Y-70555000D01*
X39485439Y-70555000D01*
X40012862Y-70336534D01*
X40221651Y-70127745D01*
X41471861Y-70127745D01*
X41545995Y-70373864D01*
X42083223Y-70566965D01*
X42653454Y-70539778D01*
X43054005Y-70373864D01*
X43128139Y-70127745D01*
X42300000Y-69299605D01*
X41471861Y-70127745D01*
X40221651Y-70127745D01*
X40416534Y-69932862D01*
X40635000Y-69405439D01*
X40635000Y-68903223D01*
X40853035Y-68903223D01*
X40880222Y-69473454D01*
X41046136Y-69874005D01*
X41292255Y-69948139D01*
X42120395Y-69120000D01*
X42479605Y-69120000D01*
X43307745Y-69948139D01*
X43553864Y-69874005D01*
X43746965Y-69336777D01*
X43719778Y-68766546D01*
X43553864Y-68365995D01*
X43307745Y-68291861D01*
X42479605Y-69120000D01*
X42120395Y-69120000D01*
X41292255Y-68291861D01*
X41046136Y-68365995D01*
X40853035Y-68903223D01*
X40635000Y-68903223D01*
X40635000Y-68834561D01*
X40416534Y-68307138D01*
X40221651Y-68112255D01*
X41471861Y-68112255D01*
X42300000Y-68940395D01*
X43128139Y-68112255D01*
X43054005Y-67866136D01*
X42516777Y-67673035D01*
X41946546Y-67700222D01*
X41545995Y-67866136D01*
X41471861Y-68112255D01*
X40221651Y-68112255D01*
X40012862Y-67903466D01*
X39485439Y-67685000D01*
X38914561Y-67685000D01*
X38387138Y-67903466D01*
X37983466Y-68307138D01*
X37765000Y-68834561D01*
X34523570Y-68834561D01*
X34548157Y-68797765D01*
X34597440Y-68550000D01*
X34597440Y-66850000D01*
X34548157Y-66602235D01*
X34407809Y-66392191D01*
X34197765Y-66251843D01*
X34152381Y-66242816D01*
X34170625Y-66230625D01*
X34378178Y-65920000D01*
X36027853Y-65920000D01*
X36102700Y-65934888D01*
X36177547Y-65920000D01*
X36177552Y-65920000D01*
X36399237Y-65875904D01*
X36650629Y-65707929D01*
X36693031Y-65644470D01*
X39417690Y-62919812D01*
X39759909Y-62851740D01*
X40234577Y-62534577D01*
X40254804Y-62504305D01*
X42074971Y-64324473D01*
X42117371Y-64387929D01*
X42180827Y-64430329D01*
X42368762Y-64555904D01*
X42416905Y-64565480D01*
X42590448Y-64600000D01*
X42590452Y-64600000D01*
X42665300Y-64614888D01*
X42740148Y-64600000D01*
X45881957Y-64600000D01*
X46065423Y-64874577D01*
X46417758Y-65110000D01*
X46065423Y-65345423D01*
X45748260Y-65820091D01*
X45636887Y-66380000D01*
X45748260Y-66939909D01*
X46065423Y-67414577D01*
X46417758Y-67650000D01*
X46065423Y-67885423D01*
X45748260Y-68360091D01*
X45636887Y-68920000D01*
X45748260Y-69479909D01*
X46065423Y-69954577D01*
X46540091Y-70271740D01*
X46958667Y-70355000D01*
X47241333Y-70355000D01*
X47659909Y-70271740D01*
X48134577Y-69954577D01*
X48451740Y-69479909D01*
X48563113Y-68920000D01*
X48451740Y-68360091D01*
X48134577Y-67885423D01*
X47782242Y-67650000D01*
X48134577Y-67414577D01*
X48451740Y-66939909D01*
X48563113Y-66380000D01*
X48451740Y-65820091D01*
X48134577Y-65345423D01*
X47782242Y-65110000D01*
X48134577Y-64874577D01*
X48451740Y-64399909D01*
X48563113Y-63840000D01*
X48451740Y-63280091D01*
X48134577Y-62805423D01*
X48013894Y-62724785D01*
X48147765Y-62698157D01*
X48357809Y-62557809D01*
X48498157Y-62347765D01*
X48547440Y-62100000D01*
X48547440Y-60519741D01*
X53227298Y-65199600D01*
X53110028Y-65316871D01*
X53046572Y-65359271D01*
X53004172Y-65422727D01*
X53004171Y-65422728D01*
X52878597Y-65610663D01*
X52819612Y-65907200D01*
X52834501Y-65982051D01*
X52834500Y-66875652D01*
X52819612Y-66950500D01*
X52834500Y-67025347D01*
X52834500Y-67025351D01*
X52878596Y-67247036D01*
X53046571Y-67498429D01*
X53110030Y-67540831D01*
X53592977Y-68023778D01*
X53368260Y-68360091D01*
X53256887Y-68920000D01*
X53368260Y-69479909D01*
X53685423Y-69954577D01*
X54160091Y-70271740D01*
X54578667Y-70355000D01*
X54861333Y-70355000D01*
X55279909Y-70271740D01*
X55754577Y-69954577D01*
X56071740Y-69479909D01*
X56183113Y-68920000D01*
X56071740Y-68360091D01*
X55754577Y-67885423D01*
X55475896Y-67699214D01*
X55458614Y-67612333D01*
X55754577Y-67414577D01*
X55940786Y-67135896D01*
X56141837Y-67095904D01*
X56393229Y-66927929D01*
X56435631Y-66864470D01*
X56890102Y-66410000D01*
X62085198Y-66410000D01*
X62719673Y-67044475D01*
X62762071Y-67107929D01*
X62825524Y-67150327D01*
X62825526Y-67150329D01*
X62950902Y-67234102D01*
X63013463Y-67275904D01*
X63235148Y-67320000D01*
X63235152Y-67320000D01*
X63309999Y-67334888D01*
X63384846Y-67320000D01*
X72521822Y-67320000D01*
X72729375Y-67630625D01*
X73220582Y-67958839D01*
X73653744Y-68045000D01*
X73946256Y-68045000D01*
X74379418Y-67958839D01*
X74870625Y-67630625D01*
X75198839Y-67139418D01*
X75314092Y-66560000D01*
X75198839Y-65980582D01*
X74870625Y-65489375D01*
X74572239Y-65290000D01*
X74870625Y-65090625D01*
X75198839Y-64599418D01*
X75314092Y-64020000D01*
X75198839Y-63440582D01*
X74870625Y-62949375D01*
X74551522Y-62736157D01*
X74681358Y-62675183D01*
X75071645Y-62246924D01*
X75241476Y-61836890D01*
X75120155Y-61607000D01*
X73927000Y-61607000D01*
X73927000Y-61627000D01*
X73673000Y-61627000D01*
X73673000Y-61607000D01*
X72479845Y-61607000D01*
X72358524Y-61836890D01*
X72528355Y-62246924D01*
X72918642Y-62675183D01*
X73048478Y-62736157D01*
X72729375Y-62949375D01*
X72517526Y-63266429D01*
X72328163Y-63304096D01*
X72076771Y-63472071D01*
X72034371Y-63535528D01*
X71883798Y-63686100D01*
X70782335Y-63686100D01*
X70863113Y-63280000D01*
X70751740Y-62720091D01*
X70434577Y-62245423D01*
X69959909Y-61928260D01*
X69541333Y-61845000D01*
X69258667Y-61845000D01*
X68840091Y-61928260D01*
X68365423Y-62245423D01*
X68048260Y-62720091D01*
X67936887Y-63280000D01*
X68017665Y-63686100D01*
X67060902Y-63686100D01*
X67013104Y-63638302D01*
X67035000Y-63585439D01*
X67035000Y-63014561D01*
X66816534Y-62487138D01*
X66412862Y-62083466D01*
X65885439Y-61865000D01*
X65314561Y-61865000D01*
X65261698Y-61886897D01*
X65057531Y-61682730D01*
X65015129Y-61619271D01*
X64763737Y-61451296D01*
X64542052Y-61407200D01*
X64542047Y-61407200D01*
X64467200Y-61392312D01*
X64392353Y-61407200D01*
X57592946Y-61407200D01*
X57518099Y-61392312D01*
X57443252Y-61407200D01*
X57443248Y-61407200D01*
X57221563Y-61451296D01*
X57221561Y-61451297D01*
X57221562Y-61451297D01*
X57033626Y-61576871D01*
X57033624Y-61576873D01*
X56970171Y-61619271D01*
X56927773Y-61682724D01*
X55774804Y-62835695D01*
X55754577Y-62805423D01*
X55370892Y-62549053D01*
X55575134Y-62452389D01*
X55951041Y-62037423D01*
X56111904Y-61649039D01*
X55989915Y-61427000D01*
X54847000Y-61427000D01*
X54847000Y-61447000D01*
X54593000Y-61447000D01*
X54593000Y-61427000D01*
X53450085Y-61427000D01*
X53328096Y-61649039D01*
X53488959Y-62037423D01*
X53864866Y-62452389D01*
X54069108Y-62549053D01*
X53685423Y-62805423D01*
X53403962Y-63226660D01*
X51128263Y-60950961D01*
X53328096Y-60950961D01*
X53450085Y-61173000D01*
X54593000Y-61173000D01*
X54593000Y-60029371D01*
X54847000Y-60029371D01*
X54847000Y-61173000D01*
X55989915Y-61173000D01*
X56111904Y-60950961D01*
X55951041Y-60562577D01*
X55575134Y-60147611D01*
X55069041Y-59908086D01*
X54847000Y-60029371D01*
X54593000Y-60029371D01*
X54370959Y-59908086D01*
X53864866Y-60147611D01*
X53488959Y-60562577D01*
X53328096Y-60950961D01*
X51128263Y-60950961D01*
X49263052Y-59085750D01*
X57715000Y-59085750D01*
X57715000Y-59451309D01*
X57811673Y-59684698D01*
X57990301Y-59863327D01*
X58223690Y-59960000D01*
X58814250Y-59960000D01*
X58973000Y-59801250D01*
X58973000Y-58927000D01*
X59227000Y-58927000D01*
X59227000Y-59801250D01*
X59385750Y-59960000D01*
X59976310Y-59960000D01*
X60209699Y-59863327D01*
X60388327Y-59684698D01*
X60485000Y-59451309D01*
X60485000Y-59085750D01*
X60326250Y-58927000D01*
X59227000Y-58927000D01*
X58973000Y-58927000D01*
X57873750Y-58927000D01*
X57715000Y-59085750D01*
X49263052Y-59085750D01*
X45993453Y-55816151D01*
X46117000Y-55517881D01*
X46117000Y-54962119D01*
X45916472Y-54478000D01*
X50930560Y-54478000D01*
X50930560Y-56002000D01*
X50979843Y-56249765D01*
X51120191Y-56459809D01*
X51330235Y-56600157D01*
X51578000Y-56649440D01*
X53102000Y-56649440D01*
X53349765Y-56600157D01*
X53559809Y-56459809D01*
X53693318Y-56260000D01*
X57692275Y-56260000D01*
X57782305Y-56712609D01*
X57904174Y-56895000D01*
X57782305Y-57077391D01*
X57692275Y-57530000D01*
X57782305Y-57982609D01*
X57783224Y-57983984D01*
X57715000Y-58148691D01*
X57715000Y-58514250D01*
X57873750Y-58673000D01*
X58675290Y-58673000D01*
X58760754Y-58690000D01*
X59439246Y-58690000D01*
X59524710Y-58673000D01*
X60326250Y-58673000D01*
X60485000Y-58514250D01*
X60485000Y-58148691D01*
X60416776Y-57983984D01*
X60417695Y-57982609D01*
X60507725Y-57530000D01*
X60417695Y-57077391D01*
X60295826Y-56895000D01*
X60417695Y-56712609D01*
X60507725Y-56260000D01*
X60417695Y-55807391D01*
X60161313Y-55423687D01*
X59777609Y-55167305D01*
X59439246Y-55100000D01*
X58760754Y-55100000D01*
X58422391Y-55167305D01*
X58038687Y-55423687D01*
X57782305Y-55807391D01*
X57692275Y-56260000D01*
X53693318Y-56260000D01*
X53700157Y-56249765D01*
X53749440Y-56002000D01*
X53749440Y-54478000D01*
X53700157Y-54230235D01*
X53559809Y-54020191D01*
X53349765Y-53879843D01*
X53102000Y-53830560D01*
X51578000Y-53830560D01*
X51330235Y-53879843D01*
X51120191Y-54020191D01*
X50979843Y-54230235D01*
X50930560Y-54478000D01*
X45916472Y-54478000D01*
X45904320Y-54448663D01*
X45511337Y-54055680D01*
X45304487Y-53970000D01*
X45511337Y-53884320D01*
X45860657Y-53535000D01*
X53517767Y-53535000D01*
X53600000Y-53551357D01*
X53682233Y-53535000D01*
X53682237Y-53535000D01*
X53925801Y-53486552D01*
X54202001Y-53302001D01*
X54248587Y-53232280D01*
X54845868Y-52635000D01*
X55385439Y-52635000D01*
X55912862Y-52416534D01*
X56294396Y-52035000D01*
X58374133Y-52035000D01*
X64514405Y-58175273D01*
X64433900Y-58580000D01*
X64557109Y-59199411D01*
X64907977Y-59724523D01*
X65433089Y-60075391D01*
X65896150Y-60167500D01*
X66303850Y-60167500D01*
X66766911Y-60075391D01*
X67292023Y-59724523D01*
X67365928Y-59613916D01*
X67531462Y-59724523D01*
X67534499Y-59726552D01*
X67860300Y-59791358D01*
X67942537Y-59775000D01*
X72571935Y-59775000D01*
X72729375Y-60010625D01*
X73048478Y-60223843D01*
X72918642Y-60284817D01*
X72528355Y-60713076D01*
X72358524Y-61123110D01*
X72479845Y-61353000D01*
X73673000Y-61353000D01*
X73673000Y-61333000D01*
X73927000Y-61333000D01*
X73927000Y-61353000D01*
X75120155Y-61353000D01*
X75241476Y-61123110D01*
X75071645Y-60713076D01*
X74681358Y-60284817D01*
X74551522Y-60223843D01*
X74870625Y-60010625D01*
X75198839Y-59519418D01*
X75314092Y-58940000D01*
X75198839Y-58360582D01*
X74870625Y-57869375D01*
X74852381Y-57857184D01*
X74897765Y-57848157D01*
X75107809Y-57707809D01*
X75248157Y-57497765D01*
X75297440Y-57250000D01*
X75297440Y-55550000D01*
X75248157Y-55302235D01*
X75107809Y-55092191D01*
X74897765Y-54951843D01*
X74650000Y-54902560D01*
X72950000Y-54902560D01*
X72702235Y-54951843D01*
X72492191Y-55092191D01*
X72451937Y-55152435D01*
X66354933Y-49055431D01*
X71365000Y-49055431D01*
X71365000Y-49944569D01*
X71705259Y-50766026D01*
X72333974Y-51394741D01*
X73155431Y-51735000D01*
X74044569Y-51735000D01*
X74866026Y-51394741D01*
X75494741Y-50766026D01*
X75835000Y-49944569D01*
X75835000Y-49055431D01*
X75494741Y-48233974D01*
X74866026Y-47605259D01*
X74044569Y-47265000D01*
X73155431Y-47265000D01*
X72333974Y-47605259D01*
X71705259Y-48233974D01*
X71365000Y-49055431D01*
X66354933Y-49055431D01*
X65877731Y-48578230D01*
X65835329Y-48514771D01*
X65583937Y-48346796D01*
X65362252Y-48302700D01*
X65362247Y-48302700D01*
X65287400Y-48287812D01*
X65212553Y-48302700D01*
X45892148Y-48302700D01*
X45817300Y-48287812D01*
X45742452Y-48302700D01*
X45742448Y-48302700D01*
X45520763Y-48346796D01*
X45269371Y-48514771D01*
X45226971Y-48578227D01*
X45029218Y-48775980D01*
X44997881Y-48763000D01*
X44442119Y-48763000D01*
X43928663Y-48975680D01*
X43535680Y-49368663D01*
X43323000Y-49882119D01*
X43323000Y-50437881D01*
X43535680Y-50951337D01*
X43928663Y-51344320D01*
X44135513Y-51430000D01*
X43928663Y-51515680D01*
X43579343Y-51865000D01*
X43296169Y-51865000D01*
X42098887Y-50667720D01*
X42052301Y-50597999D01*
X41776101Y-50413448D01*
X41697440Y-50397801D01*
X41697440Y-50350000D01*
X41648157Y-50102235D01*
X41507809Y-49892191D01*
X41297765Y-49751843D01*
X41050000Y-49702560D01*
X39350000Y-49702560D01*
X39102235Y-49751843D01*
X38892191Y-49892191D01*
X38751843Y-50102235D01*
X38702560Y-50350000D01*
X38702560Y-52050000D01*
X38751843Y-52297765D01*
X38892191Y-52507809D01*
X39102235Y-52648157D01*
X39205708Y-52668739D01*
X38928355Y-52973076D01*
X38758524Y-53383110D01*
X38879845Y-53613000D01*
X40073000Y-53613000D01*
X40073000Y-53593000D01*
X40327000Y-53593000D01*
X40327000Y-53613000D01*
X41520155Y-53613000D01*
X41641476Y-53383110D01*
X41471645Y-52973076D01*
X41194292Y-52668739D01*
X41297765Y-52648157D01*
X41507809Y-52507809D01*
X41535620Y-52466188D01*
X42301716Y-53232285D01*
X42348299Y-53302001D01*
X42624499Y-53486552D01*
X42868063Y-53535000D01*
X42868066Y-53535000D01*
X42950299Y-53551357D01*
X43032532Y-53535000D01*
X43579343Y-53535000D01*
X43928663Y-53884320D01*
X44135513Y-53970000D01*
X43928663Y-54055680D01*
X43535680Y-54448663D01*
X43323000Y-54962119D01*
X43323000Y-55517881D01*
X43535680Y-56031337D01*
X43928663Y-56424320D01*
X44442119Y-56637000D01*
X44664699Y-56637000D01*
X47880259Y-59852560D01*
X46300000Y-59852560D01*
X46052235Y-59901843D01*
X45842191Y-60042191D01*
X45701843Y-60252235D01*
X45652560Y-60500000D01*
X45652560Y-62100000D01*
X45701843Y-62347765D01*
X45842191Y-62557809D01*
X46052235Y-62698157D01*
X46186106Y-62724785D01*
X46065423Y-62805423D01*
X45881957Y-63080000D01*
X42980102Y-63080000D01*
X42769771Y-62869670D01*
X42859909Y-62851740D01*
X43334577Y-62534577D01*
X43651740Y-62059909D01*
X43763113Y-61500000D01*
X43651740Y-60940091D01*
X43334577Y-60465423D01*
X42859909Y-60148260D01*
X42441333Y-60065000D01*
X42158667Y-60065000D01*
X41740091Y-60148260D01*
X41265423Y-60465423D01*
X40948260Y-60940091D01*
X40930330Y-61030229D01*
X40915631Y-61015530D01*
X40873229Y-60952071D01*
X40621837Y-60784096D01*
X40420786Y-60744104D01*
X40234577Y-60465423D01*
X39759909Y-60148260D01*
X39341333Y-60065000D01*
X39058667Y-60065000D01*
X38640091Y-60148260D01*
X38165423Y-60465423D01*
X37848260Y-60940091D01*
X37736887Y-61500000D01*
X37848260Y-62059909D01*
X37960304Y-62227594D01*
X35787899Y-64400000D01*
X34378178Y-64400000D01*
X34170625Y-64089375D01*
X33872239Y-63890000D01*
X34170625Y-63690625D01*
X34498839Y-63199418D01*
X34614092Y-62620000D01*
X34498839Y-62040582D01*
X34170625Y-61549375D01*
X33679418Y-61221161D01*
X33246256Y-61135000D01*
X32953744Y-61135000D01*
X32520582Y-61221161D01*
X32029375Y-61549375D01*
X31701161Y-62040582D01*
X31585908Y-62620000D01*
X29335000Y-62620000D01*
X29335000Y-56280000D01*
X38685908Y-56280000D01*
X38801161Y-56859418D01*
X39129375Y-57350625D01*
X39620582Y-57678839D01*
X40053744Y-57765000D01*
X40346256Y-57765000D01*
X40779418Y-57678839D01*
X41270625Y-57350625D01*
X41598839Y-56859418D01*
X41714092Y-56280000D01*
X41598839Y-55700582D01*
X41270625Y-55209375D01*
X40951522Y-54996157D01*
X41081358Y-54935183D01*
X41471645Y-54506924D01*
X41641476Y-54096890D01*
X41520155Y-53867000D01*
X40327000Y-53867000D01*
X40327000Y-53887000D01*
X40073000Y-53887000D01*
X40073000Y-53867000D01*
X38879845Y-53867000D01*
X38758524Y-54096890D01*
X38928355Y-54506924D01*
X39318642Y-54935183D01*
X39448478Y-54996157D01*
X39129375Y-55209375D01*
X38801161Y-55700582D01*
X38685908Y-56280000D01*
X29335000Y-56280000D01*
X29335000Y-49055431D01*
X31365000Y-49055431D01*
X31365000Y-49944569D01*
X31705259Y-50766026D01*
X32333974Y-51394741D01*
X33155431Y-51735000D01*
X34044569Y-51735000D01*
X34866026Y-51394741D01*
X35494741Y-50766026D01*
X35835000Y-49944569D01*
X35835000Y-49055431D01*
X35494741Y-48233974D01*
X34866026Y-47605259D01*
X34044569Y-47265000D01*
X33155431Y-47265000D01*
X32333974Y-47605259D01*
X31705259Y-48233974D01*
X31365000Y-49055431D01*
X29335000Y-49055431D01*
X29335000Y-45235000D01*
X77865000Y-45235000D01*
X77865001Y-93765000D01*
X77865001Y-93765000D01*
G37*
X77865001Y-93765000D02*
X29335000Y-93765000D01*
X29335000Y-89055431D01*
X31365000Y-89055431D01*
X31365000Y-89944569D01*
X31705259Y-90766026D01*
X32333974Y-91394741D01*
X33155431Y-91735000D01*
X34044569Y-91735000D01*
X34866026Y-91394741D01*
X35494741Y-90766026D01*
X35835000Y-89944569D01*
X35835000Y-89055431D01*
X35599031Y-88485750D01*
X41565000Y-88485750D01*
X41565000Y-89226310D01*
X41661673Y-89459699D01*
X41840302Y-89638327D01*
X42073691Y-89735000D01*
X42814250Y-89735000D01*
X42973000Y-89576250D01*
X42973000Y-88327000D01*
X41723750Y-88327000D01*
X41565000Y-88485750D01*
X35599031Y-88485750D01*
X35494741Y-88233974D01*
X34866026Y-87605259D01*
X34044569Y-87265000D01*
X33155431Y-87265000D01*
X32333974Y-87605259D01*
X31705259Y-88233974D01*
X31365000Y-89055431D01*
X29335000Y-89055431D01*
X29335000Y-87173690D01*
X41565000Y-87173690D01*
X41565000Y-87914250D01*
X41723750Y-88073000D01*
X42973000Y-88073000D01*
X42973000Y-86823750D01*
X43227000Y-86823750D01*
X43227000Y-88073000D01*
X43247000Y-88073000D01*
X43247000Y-88327000D01*
X43227000Y-88327000D01*
X43227000Y-89576250D01*
X43385750Y-89735000D01*
X44126309Y-89735000D01*
X44359698Y-89638327D01*
X44538327Y-89459699D01*
X44594139Y-89324956D01*
X44770493Y-89501310D01*
X45334670Y-89735000D01*
X45945330Y-89735000D01*
X46509507Y-89501310D01*
X46941310Y-89069507D01*
X47175000Y-88505330D01*
X47175000Y-88485750D01*
X48065000Y-88485750D01*
X48065000Y-89226310D01*
X48161673Y-89459699D01*
X48340302Y-89638327D01*
X48573691Y-89735000D01*
X49314250Y-89735000D01*
X49473000Y-89576250D01*
X49473000Y-88327000D01*
X48223750Y-88327000D01*
X48065000Y-88485750D01*
X47175000Y-88485750D01*
X47175000Y-87894670D01*
X46941310Y-87330493D01*
X46509507Y-86898690D01*
X45945330Y-86665000D01*
X45334670Y-86665000D01*
X44770493Y-86898690D01*
X44594139Y-87075044D01*
X44538327Y-86940301D01*
X44359698Y-86761673D01*
X44126309Y-86665000D01*
X43385750Y-86665000D01*
X43227000Y-86823750D01*
X42973000Y-86823750D01*
X42814250Y-86665000D01*
X42073691Y-86665000D01*
X41840302Y-86761673D01*
X41661673Y-86940301D01*
X41565000Y-87173690D01*
X29335000Y-87173690D01*
X29335000Y-81920000D01*
X34236887Y-81920000D01*
X34348260Y-82479909D01*
X34665423Y-82954577D01*
X35140091Y-83271740D01*
X35558667Y-83355000D01*
X35841333Y-83355000D01*
X36259909Y-83271740D01*
X36734577Y-82954577D01*
X36754804Y-82924305D01*
X37360270Y-83529772D01*
X37402671Y-83593229D01*
X37654063Y-83761204D01*
X37875748Y-83805300D01*
X37875752Y-83805300D01*
X37950600Y-83820188D01*
X38025448Y-83805300D01*
X46670499Y-83805300D01*
X49530198Y-86665000D01*
X49472998Y-86665000D01*
X49472998Y-86823748D01*
X49314250Y-86665000D01*
X48573691Y-86665000D01*
X48340302Y-86761673D01*
X48161673Y-86940301D01*
X48065000Y-87173690D01*
X48065000Y-87914250D01*
X48223750Y-88073000D01*
X49473000Y-88073000D01*
X49473000Y-88053000D01*
X49727000Y-88053000D01*
X49727000Y-88073000D01*
X49747000Y-88073000D01*
X49747000Y-88327000D01*
X49727000Y-88327000D01*
X49727000Y-89576250D01*
X49885750Y-89735000D01*
X50626309Y-89735000D01*
X50859698Y-89638327D01*
X51038327Y-89459699D01*
X51094139Y-89324956D01*
X51270493Y-89501310D01*
X51834670Y-89735000D01*
X52445330Y-89735000D01*
X53009507Y-89501310D01*
X53441310Y-89069507D01*
X53675000Y-88505330D01*
X53675000Y-88485750D01*
X54565000Y-88485750D01*
X54565000Y-89226310D01*
X54661673Y-89459699D01*
X54840302Y-89638327D01*
X55073691Y-89735000D01*
X55814250Y-89735000D01*
X55973000Y-89576250D01*
X55973000Y-88327000D01*
X54723750Y-88327000D01*
X54565000Y-88485750D01*
X53675000Y-88485750D01*
X53675000Y-87894670D01*
X53441310Y-87330493D01*
X53284507Y-87173690D01*
X54565000Y-87173690D01*
X54565000Y-87914250D01*
X54723750Y-88073000D01*
X55973000Y-88073000D01*
X55973000Y-86823750D01*
X56227000Y-86823750D01*
X56227000Y-88073000D01*
X56247000Y-88073000D01*
X56247000Y-88327000D01*
X56227000Y-88327000D01*
X56227000Y-89576250D01*
X56385750Y-89735000D01*
X57126309Y-89735000D01*
X57359698Y-89638327D01*
X57538327Y-89459699D01*
X57594139Y-89324956D01*
X57770493Y-89501310D01*
X58334670Y-89735000D01*
X58945330Y-89735000D01*
X59509507Y-89501310D01*
X59941310Y-89069507D01*
X60175000Y-88505330D01*
X60175000Y-88485750D01*
X61065000Y-88485750D01*
X61065000Y-89226310D01*
X61161673Y-89459699D01*
X61340302Y-89638327D01*
X61573691Y-89735000D01*
X62314250Y-89735000D01*
X62473000Y-89576250D01*
X62473000Y-88327000D01*
X61223750Y-88327000D01*
X61065000Y-88485750D01*
X60175000Y-88485750D01*
X60175000Y-87894670D01*
X59941310Y-87330493D01*
X59784507Y-87173690D01*
X61065000Y-87173690D01*
X61065000Y-87914250D01*
X61223750Y-88073000D01*
X62473000Y-88073000D01*
X62473000Y-86823750D01*
X62314250Y-86665000D01*
X61573691Y-86665000D01*
X61340302Y-86761673D01*
X61161673Y-86940301D01*
X61065000Y-87173690D01*
X59784507Y-87173690D01*
X59509507Y-86898690D01*
X58945330Y-86665000D01*
X58334670Y-86665000D01*
X57770493Y-86898690D01*
X57594139Y-87075044D01*
X57538327Y-86940301D01*
X57359698Y-86761673D01*
X57126309Y-86665000D01*
X56385750Y-86665000D01*
X56227000Y-86823750D01*
X55973000Y-86823750D01*
X55814250Y-86665000D01*
X55073691Y-86665000D01*
X54840302Y-86761673D01*
X54661673Y-86940301D01*
X54565000Y-87173690D01*
X53284507Y-87173690D01*
X53009507Y-86898690D01*
X52445330Y-86665000D01*
X51834670Y-86665000D01*
X51725162Y-86710360D01*
X47575631Y-82560830D01*
X47533229Y-82497371D01*
X47293163Y-82336964D01*
X47412333Y-82158614D01*
X47499214Y-82175896D01*
X47685423Y-82454577D01*
X48160091Y-82771740D01*
X48578667Y-82855000D01*
X48861333Y-82855000D01*
X49279909Y-82771740D01*
X49754577Y-82454577D01*
X49990000Y-82102242D01*
X50225423Y-82454577D01*
X50700091Y-82771740D01*
X51118667Y-82855000D01*
X51401333Y-82855000D01*
X51819909Y-82771740D01*
X52156222Y-82547023D01*
X53213671Y-83604473D01*
X53256071Y-83667929D01*
X53319527Y-83710329D01*
X53507462Y-83835904D01*
X53555605Y-83845480D01*
X53729148Y-83880000D01*
X53729152Y-83880000D01*
X53804000Y-83894888D01*
X53878848Y-83880000D01*
X65961570Y-83880000D01*
X65983466Y-83932862D01*
X66387138Y-84336534D01*
X66914561Y-84555000D01*
X67485439Y-84555000D01*
X67869126Y-84396072D01*
X65554839Y-86710360D01*
X65445330Y-86665000D01*
X64834670Y-86665000D01*
X64270493Y-86898690D01*
X64094139Y-87075044D01*
X64038327Y-86940301D01*
X63859698Y-86761673D01*
X63626309Y-86665000D01*
X62885750Y-86665000D01*
X62727000Y-86823750D01*
X62727000Y-88073000D01*
X62747000Y-88073000D01*
X62747000Y-88327000D01*
X62727000Y-88327000D01*
X62727000Y-89576250D01*
X62885750Y-89735000D01*
X63626309Y-89735000D01*
X63859698Y-89638327D01*
X64038327Y-89459699D01*
X64094139Y-89324956D01*
X64270493Y-89501310D01*
X64834670Y-89735000D01*
X65445330Y-89735000D01*
X66009507Y-89501310D01*
X66441310Y-89069507D01*
X66447140Y-89055431D01*
X71365000Y-89055431D01*
X71365000Y-89944569D01*
X71705259Y-90766026D01*
X72333974Y-91394741D01*
X73155431Y-91735000D01*
X74044569Y-91735000D01*
X74866026Y-91394741D01*
X75494741Y-90766026D01*
X75835000Y-89944569D01*
X75835000Y-89055431D01*
X75494741Y-88233974D01*
X74866026Y-87605259D01*
X74044569Y-87265000D01*
X73155431Y-87265000D01*
X72333974Y-87605259D01*
X71705259Y-88233974D01*
X71365000Y-89055431D01*
X66447140Y-89055431D01*
X66675000Y-88505330D01*
X66675000Y-87894670D01*
X66629640Y-87785161D01*
X69659176Y-84755627D01*
X69722629Y-84713229D01*
X69765027Y-84649776D01*
X69765029Y-84649774D01*
X69867105Y-84497005D01*
X70158667Y-84555000D01*
X70441333Y-84555000D01*
X70859909Y-84471740D01*
X71334577Y-84154577D01*
X71651740Y-83679909D01*
X71763113Y-83120000D01*
X71651740Y-82560091D01*
X71334577Y-82085423D01*
X70859909Y-81768260D01*
X70441333Y-81685000D01*
X70158667Y-81685000D01*
X69740091Y-81768260D01*
X69265423Y-82085423D01*
X69079214Y-82364104D01*
X68878163Y-82404096D01*
X68626771Y-82572071D01*
X68564732Y-82664919D01*
X68416534Y-82307138D01*
X68012862Y-81903466D01*
X67485439Y-81685000D01*
X66914561Y-81685000D01*
X66387138Y-81903466D01*
X65983466Y-82307138D01*
X65961570Y-82360000D01*
X54897771Y-82360000D01*
X55018043Y-82180000D01*
X64305153Y-82180000D01*
X64380000Y-82194888D01*
X64454847Y-82180000D01*
X64454852Y-82180000D01*
X64676537Y-82135904D01*
X64927929Y-81967929D01*
X64970331Y-81904470D01*
X69961699Y-76913104D01*
X70014561Y-76935000D01*
X70585439Y-76935000D01*
X71112862Y-76716534D01*
X71516534Y-76312862D01*
X71735000Y-75785439D01*
X71735000Y-75440000D01*
X72785908Y-75440000D01*
X72901161Y-76019418D01*
X73229375Y-76510625D01*
X73527761Y-76710000D01*
X73229375Y-76909375D01*
X72901161Y-77400582D01*
X72785908Y-77980000D01*
X72901161Y-78559418D01*
X73229375Y-79050625D01*
X73720582Y-79378839D01*
X74153744Y-79465000D01*
X74446256Y-79465000D01*
X74879418Y-79378839D01*
X75370625Y-79050625D01*
X75698839Y-78559418D01*
X75814092Y-77980000D01*
X75698839Y-77400582D01*
X75370625Y-76909375D01*
X75072239Y-76710000D01*
X75370625Y-76510625D01*
X75698839Y-76019418D01*
X75814092Y-75440000D01*
X75698839Y-74860582D01*
X75370625Y-74369375D01*
X75352381Y-74357184D01*
X75397765Y-74348157D01*
X75607809Y-74207809D01*
X75748157Y-73997765D01*
X75797440Y-73750000D01*
X75797440Y-72050000D01*
X75748157Y-71802235D01*
X75607809Y-71592191D01*
X75397765Y-71451843D01*
X75150000Y-71402560D01*
X73450000Y-71402560D01*
X73202235Y-71451843D01*
X72992191Y-71592191D01*
X72851843Y-71802235D01*
X72802560Y-72050000D01*
X72802560Y-73750000D01*
X72851843Y-73997765D01*
X72992191Y-74207809D01*
X73202235Y-74348157D01*
X73247619Y-74357184D01*
X73229375Y-74369375D01*
X72901161Y-74860582D01*
X72785908Y-75440000D01*
X71735000Y-75440000D01*
X71735000Y-75214561D01*
X71516534Y-74687138D01*
X71112862Y-74283466D01*
X70585439Y-74065000D01*
X70014561Y-74065000D01*
X69487138Y-74283466D01*
X69083466Y-74687138D01*
X68865000Y-75214561D01*
X68865000Y-75785439D01*
X68886896Y-75838301D01*
X68323091Y-76402107D01*
X68551740Y-76059909D01*
X68663113Y-75500000D01*
X68551740Y-74940091D01*
X68234577Y-74465423D01*
X67759909Y-74148260D01*
X67341333Y-74065000D01*
X67058667Y-74065000D01*
X66640091Y-74148260D01*
X66165423Y-74465423D01*
X65848260Y-74940091D01*
X65736887Y-75500000D01*
X65848260Y-76059909D01*
X66165423Y-76534577D01*
X66640091Y-76851740D01*
X67058667Y-76935000D01*
X67341333Y-76935000D01*
X67759909Y-76851740D01*
X68102107Y-76623091D01*
X64065199Y-80660000D01*
X55018043Y-80660000D01*
X54834577Y-80385423D01*
X54359909Y-80068260D01*
X53941333Y-79985000D01*
X53658667Y-79985000D01*
X53240091Y-80068260D01*
X52765423Y-80385423D01*
X52567667Y-80681386D01*
X52480786Y-80664104D01*
X52294577Y-80385423D01*
X51819909Y-80068260D01*
X51401333Y-79985000D01*
X51118667Y-79985000D01*
X50700091Y-80068260D01*
X50225423Y-80385423D01*
X49990000Y-80737758D01*
X49754577Y-80385423D01*
X49279909Y-80068260D01*
X48861333Y-79985000D01*
X48578667Y-79985000D01*
X48160091Y-80068260D01*
X47823838Y-80292937D01*
X47341131Y-79810230D01*
X47298729Y-79746771D01*
X47047337Y-79578796D01*
X46825652Y-79534700D01*
X46825647Y-79534700D01*
X46750800Y-79519812D01*
X46675953Y-79534700D01*
X42009502Y-79534700D01*
X40160552Y-77685750D01*
X60565000Y-77685750D01*
X60565000Y-78426309D01*
X60661673Y-78659698D01*
X60840301Y-78838327D01*
X61073690Y-78935000D01*
X61814250Y-78935000D01*
X61973000Y-78776250D01*
X61973000Y-77527000D01*
X62227000Y-77527000D01*
X62227000Y-78776250D01*
X62385750Y-78935000D01*
X63126310Y-78935000D01*
X63359699Y-78838327D01*
X63538327Y-78659698D01*
X63635000Y-78426309D01*
X63635000Y-77685750D01*
X63476250Y-77527000D01*
X62227000Y-77527000D01*
X61973000Y-77527000D01*
X60723750Y-77527000D01*
X60565000Y-77685750D01*
X40160552Y-77685750D01*
X37113103Y-74638302D01*
X37135000Y-74585439D01*
X37135000Y-74014561D01*
X37465000Y-74014561D01*
X37465000Y-74585439D01*
X37683466Y-75112862D01*
X38087138Y-75516534D01*
X38614561Y-75735000D01*
X39185439Y-75735000D01*
X39712862Y-75516534D01*
X40116534Y-75112862D01*
X40335000Y-74585439D01*
X40335000Y-74014561D01*
X40246126Y-73800000D01*
X44716887Y-73800000D01*
X44828260Y-74359909D01*
X45145423Y-74834577D01*
X45620091Y-75151740D01*
X46038667Y-75235000D01*
X46321333Y-75235000D01*
X46739909Y-75151740D01*
X47214577Y-74834577D01*
X47398043Y-74560000D01*
X47501957Y-74560000D01*
X47685423Y-74834577D01*
X48160091Y-75151740D01*
X48578667Y-75235000D01*
X48861333Y-75235000D01*
X49279909Y-75151740D01*
X49754577Y-74834577D01*
X49938043Y-74560000D01*
X50041957Y-74560000D01*
X50225423Y-74834577D01*
X50700091Y-75151740D01*
X51118667Y-75235000D01*
X51401333Y-75235000D01*
X51819909Y-75151740D01*
X52294577Y-74834577D01*
X52375215Y-74713894D01*
X52401843Y-74847765D01*
X52542191Y-75057809D01*
X52752235Y-75198157D01*
X53000000Y-75247440D01*
X54600000Y-75247440D01*
X54847765Y-75198157D01*
X55057809Y-75057809D01*
X55198157Y-74847765D01*
X55247440Y-74600000D01*
X55247440Y-74554670D01*
X60565000Y-74554670D01*
X60565000Y-75165330D01*
X60798690Y-75729507D01*
X60975044Y-75905861D01*
X60840301Y-75961673D01*
X60661673Y-76140302D01*
X60565000Y-76373691D01*
X60565000Y-77114250D01*
X60723750Y-77273000D01*
X61973000Y-77273000D01*
X61973000Y-77253000D01*
X62227000Y-77253000D01*
X62227000Y-77273000D01*
X63476250Y-77273000D01*
X63635000Y-77114250D01*
X63635000Y-76373691D01*
X63538327Y-76140302D01*
X63359699Y-75961673D01*
X63224956Y-75905861D01*
X63401310Y-75729507D01*
X63635000Y-75165330D01*
X63635000Y-74554670D01*
X63401310Y-73990493D01*
X62969507Y-73558690D01*
X62405330Y-73325000D01*
X61794670Y-73325000D01*
X61230493Y-73558690D01*
X60798690Y-73990493D01*
X60565000Y-74554670D01*
X55247440Y-74554670D01*
X55247440Y-73000000D01*
X55198157Y-72752235D01*
X55057809Y-72542191D01*
X54847765Y-72401843D01*
X54600000Y-72352560D01*
X53000000Y-72352560D01*
X52752235Y-72401843D01*
X52542191Y-72542191D01*
X52401843Y-72752235D01*
X52375215Y-72886106D01*
X52294577Y-72765423D01*
X51819909Y-72448260D01*
X51401333Y-72365000D01*
X51118667Y-72365000D01*
X50700091Y-72448260D01*
X50225423Y-72765423D01*
X50041957Y-73040000D01*
X49938043Y-73040000D01*
X49754577Y-72765423D01*
X49279909Y-72448260D01*
X48861333Y-72365000D01*
X48578667Y-72365000D01*
X48160091Y-72448260D01*
X47685423Y-72765423D01*
X47501957Y-73040000D01*
X47398043Y-73040000D01*
X47214577Y-72765423D01*
X46739909Y-72448260D01*
X46321333Y-72365000D01*
X46038667Y-72365000D01*
X45620091Y-72448260D01*
X45145423Y-72765423D01*
X44828260Y-73240091D01*
X44716887Y-73800000D01*
X40246126Y-73800000D01*
X40116534Y-73487138D01*
X39712862Y-73083466D01*
X39185439Y-72865000D01*
X38614561Y-72865000D01*
X38087138Y-73083466D01*
X37683466Y-73487138D01*
X37465000Y-74014561D01*
X37135000Y-74014561D01*
X36916534Y-73487138D01*
X36512862Y-73083466D01*
X35985439Y-72865000D01*
X35414561Y-72865000D01*
X34887138Y-73083466D01*
X34483466Y-73487138D01*
X34265000Y-74014561D01*
X34265000Y-74585439D01*
X34483466Y-75112862D01*
X34887138Y-75516534D01*
X35414561Y-75735000D01*
X35985439Y-75735000D01*
X36038302Y-75713103D01*
X41104370Y-80779172D01*
X41146771Y-80842629D01*
X41398163Y-81010604D01*
X41619848Y-81054700D01*
X41619852Y-81054700D01*
X41694699Y-81069588D01*
X41769546Y-81054700D01*
X44789550Y-81054700D01*
X44716887Y-81420000D01*
X44828260Y-81979909D01*
X45032316Y-82285300D01*
X40290450Y-82285300D01*
X40363113Y-81920000D01*
X40251740Y-81360091D01*
X39934577Y-80885423D01*
X39459909Y-80568260D01*
X39041333Y-80485000D01*
X38758667Y-80485000D01*
X38340091Y-80568260D01*
X37865423Y-80885423D01*
X37548260Y-81360091D01*
X37513739Y-81533638D01*
X37415631Y-81435530D01*
X37373229Y-81372071D01*
X37121837Y-81204096D01*
X36920786Y-81164104D01*
X36734577Y-80885423D01*
X36259909Y-80568260D01*
X35841333Y-80485000D01*
X35558667Y-80485000D01*
X35140091Y-80568260D01*
X34665423Y-80885423D01*
X34348260Y-81360091D01*
X34236887Y-81920000D01*
X29335000Y-81920000D01*
X29335000Y-71269041D01*
X57808086Y-71269041D01*
X58047611Y-71775134D01*
X58462577Y-72151041D01*
X58850961Y-72311904D01*
X59073000Y-72189915D01*
X59073000Y-71047000D01*
X59327000Y-71047000D01*
X59327000Y-72189915D01*
X59549039Y-72311904D01*
X59937423Y-72151041D01*
X60352389Y-71775134D01*
X60591914Y-71269041D01*
X61008086Y-71269041D01*
X61247611Y-71775134D01*
X61662577Y-72151041D01*
X62050961Y-72311904D01*
X62273000Y-72189915D01*
X62273000Y-71047000D01*
X62527000Y-71047000D01*
X62527000Y-72189915D01*
X62749039Y-72311904D01*
X63137423Y-72151041D01*
X63552389Y-71775134D01*
X63791914Y-71269041D01*
X64208086Y-71269041D01*
X64447611Y-71775134D01*
X64862577Y-72151041D01*
X65250961Y-72311904D01*
X65473000Y-72189915D01*
X65473000Y-71047000D01*
X65727000Y-71047000D01*
X65727000Y-72189915D01*
X65949039Y-72311904D01*
X66337423Y-72151041D01*
X66752389Y-71775134D01*
X66991914Y-71269041D01*
X66870629Y-71047000D01*
X65727000Y-71047000D01*
X65473000Y-71047000D01*
X64329371Y-71047000D01*
X64208086Y-71269041D01*
X63791914Y-71269041D01*
X63670629Y-71047000D01*
X62527000Y-71047000D01*
X62273000Y-71047000D01*
X61129371Y-71047000D01*
X61008086Y-71269041D01*
X60591914Y-71269041D01*
X60470629Y-71047000D01*
X59327000Y-71047000D01*
X59073000Y-71047000D01*
X57929371Y-71047000D01*
X57808086Y-71269041D01*
X29335000Y-71269041D01*
X29335000Y-70570959D01*
X57808086Y-70570959D01*
X57929371Y-70793000D01*
X59073000Y-70793000D01*
X59073000Y-69650085D01*
X59327000Y-69650085D01*
X59327000Y-70793000D01*
X60470629Y-70793000D01*
X60591914Y-70570959D01*
X61008086Y-70570959D01*
X61129371Y-70793000D01*
X62273000Y-70793000D01*
X62273000Y-69650085D01*
X62527000Y-69650085D01*
X62527000Y-70793000D01*
X63670629Y-70793000D01*
X63791914Y-70570959D01*
X64208086Y-70570959D01*
X64329371Y-70793000D01*
X65473000Y-70793000D01*
X65473000Y-69650085D01*
X65727000Y-69650085D01*
X65727000Y-70793000D01*
X66870629Y-70793000D01*
X66968097Y-70614561D01*
X67965000Y-70614561D01*
X67965000Y-71185439D01*
X68183466Y-71712862D01*
X68587138Y-72116534D01*
X69114561Y-72335000D01*
X69685439Y-72335000D01*
X70212862Y-72116534D01*
X70616534Y-71712862D01*
X70835000Y-71185439D01*
X70835000Y-70614561D01*
X70616534Y-70087138D01*
X70212862Y-69683466D01*
X69685439Y-69465000D01*
X69114561Y-69465000D01*
X68587138Y-69683466D01*
X68183466Y-70087138D01*
X67965000Y-70614561D01*
X66968097Y-70614561D01*
X66991914Y-70570959D01*
X66752389Y-70064866D01*
X66337423Y-69688959D01*
X65949039Y-69528096D01*
X65727000Y-69650085D01*
X65473000Y-69650085D01*
X65250961Y-69528096D01*
X64862577Y-69688959D01*
X64447611Y-70064866D01*
X64208086Y-70570959D01*
X63791914Y-70570959D01*
X63552389Y-70064866D01*
X63137423Y-69688959D01*
X62749039Y-69528096D01*
X62527000Y-69650085D01*
X62273000Y-69650085D01*
X62050961Y-69528096D01*
X61662577Y-69688959D01*
X61247611Y-70064866D01*
X61008086Y-70570959D01*
X60591914Y-70570959D01*
X60352389Y-70064866D01*
X59937423Y-69688959D01*
X59549039Y-69528096D01*
X59327000Y-69650085D01*
X59073000Y-69650085D01*
X58850961Y-69528096D01*
X58462577Y-69688959D01*
X58047611Y-70064866D01*
X57808086Y-70570959D01*
X29335000Y-70570959D01*
X29335000Y-62620000D01*
X31585908Y-62620000D01*
X31701161Y-63199418D01*
X32029375Y-63690625D01*
X32327761Y-63890000D01*
X32029375Y-64089375D01*
X31701161Y-64580582D01*
X31585908Y-65160000D01*
X31701161Y-65739418D01*
X32029375Y-66230625D01*
X32047619Y-66242816D01*
X32002235Y-66251843D01*
X31792191Y-66392191D01*
X31651843Y-66602235D01*
X31602560Y-66850000D01*
X31602560Y-68550000D01*
X31651843Y-68797765D01*
X31792191Y-69007809D01*
X32002235Y-69148157D01*
X32250000Y-69197440D01*
X33950000Y-69197440D01*
X34197765Y-69148157D01*
X34407809Y-69007809D01*
X34523570Y-68834561D01*
X37765000Y-68834561D01*
X37765000Y-69405439D01*
X37983466Y-69932862D01*
X38387138Y-70336534D01*
X38914561Y-70555000D01*
X39485439Y-70555000D01*
X40012862Y-70336534D01*
X40221651Y-70127745D01*
X41471861Y-70127745D01*
X41545995Y-70373864D01*
X42083223Y-70566965D01*
X42653454Y-70539778D01*
X43054005Y-70373864D01*
X43128139Y-70127745D01*
X42300000Y-69299605D01*
X41471861Y-70127745D01*
X40221651Y-70127745D01*
X40416534Y-69932862D01*
X40635000Y-69405439D01*
X40635000Y-68903223D01*
X40853035Y-68903223D01*
X40880222Y-69473454D01*
X41046136Y-69874005D01*
X41292255Y-69948139D01*
X42120395Y-69120000D01*
X42479605Y-69120000D01*
X43307745Y-69948139D01*
X43553864Y-69874005D01*
X43746965Y-69336777D01*
X43719778Y-68766546D01*
X43553864Y-68365995D01*
X43307745Y-68291861D01*
X42479605Y-69120000D01*
X42120395Y-69120000D01*
X41292255Y-68291861D01*
X41046136Y-68365995D01*
X40853035Y-68903223D01*
X40635000Y-68903223D01*
X40635000Y-68834561D01*
X40416534Y-68307138D01*
X40221651Y-68112255D01*
X41471861Y-68112255D01*
X42300000Y-68940395D01*
X43128139Y-68112255D01*
X43054005Y-67866136D01*
X42516777Y-67673035D01*
X41946546Y-67700222D01*
X41545995Y-67866136D01*
X41471861Y-68112255D01*
X40221651Y-68112255D01*
X40012862Y-67903466D01*
X39485439Y-67685000D01*
X38914561Y-67685000D01*
X38387138Y-67903466D01*
X37983466Y-68307138D01*
X37765000Y-68834561D01*
X34523570Y-68834561D01*
X34548157Y-68797765D01*
X34597440Y-68550000D01*
X34597440Y-66850000D01*
X34548157Y-66602235D01*
X34407809Y-66392191D01*
X34197765Y-66251843D01*
X34152381Y-66242816D01*
X34170625Y-66230625D01*
X34378178Y-65920000D01*
X36027853Y-65920000D01*
X36102700Y-65934888D01*
X36177547Y-65920000D01*
X36177552Y-65920000D01*
X36399237Y-65875904D01*
X36650629Y-65707929D01*
X36693031Y-65644470D01*
X39417690Y-62919812D01*
X39759909Y-62851740D01*
X40234577Y-62534577D01*
X40254804Y-62504305D01*
X42074971Y-64324473D01*
X42117371Y-64387929D01*
X42180827Y-64430329D01*
X42368762Y-64555904D01*
X42416905Y-64565480D01*
X42590448Y-64600000D01*
X42590452Y-64600000D01*
X42665300Y-64614888D01*
X42740148Y-64600000D01*
X45881957Y-64600000D01*
X46065423Y-64874577D01*
X46417758Y-65110000D01*
X46065423Y-65345423D01*
X45748260Y-65820091D01*
X45636887Y-66380000D01*
X45748260Y-66939909D01*
X46065423Y-67414577D01*
X46417758Y-67650000D01*
X46065423Y-67885423D01*
X45748260Y-68360091D01*
X45636887Y-68920000D01*
X45748260Y-69479909D01*
X46065423Y-69954577D01*
X46540091Y-70271740D01*
X46958667Y-70355000D01*
X47241333Y-70355000D01*
X47659909Y-70271740D01*
X48134577Y-69954577D01*
X48451740Y-69479909D01*
X48563113Y-68920000D01*
X48451740Y-68360091D01*
X48134577Y-67885423D01*
X47782242Y-67650000D01*
X48134577Y-67414577D01*
X48451740Y-66939909D01*
X48563113Y-66380000D01*
X48451740Y-65820091D01*
X48134577Y-65345423D01*
X47782242Y-65110000D01*
X48134577Y-64874577D01*
X48451740Y-64399909D01*
X48563113Y-63840000D01*
X48451740Y-63280091D01*
X48134577Y-62805423D01*
X48013894Y-62724785D01*
X48147765Y-62698157D01*
X48357809Y-62557809D01*
X48498157Y-62347765D01*
X48547440Y-62100000D01*
X48547440Y-60519741D01*
X53227298Y-65199600D01*
X53110028Y-65316871D01*
X53046572Y-65359271D01*
X53004172Y-65422727D01*
X53004171Y-65422728D01*
X52878597Y-65610663D01*
X52819612Y-65907200D01*
X52834501Y-65982051D01*
X52834500Y-66875652D01*
X52819612Y-66950500D01*
X52834500Y-67025347D01*
X52834500Y-67025351D01*
X52878596Y-67247036D01*
X53046571Y-67498429D01*
X53110030Y-67540831D01*
X53592977Y-68023778D01*
X53368260Y-68360091D01*
X53256887Y-68920000D01*
X53368260Y-69479909D01*
X53685423Y-69954577D01*
X54160091Y-70271740D01*
X54578667Y-70355000D01*
X54861333Y-70355000D01*
X55279909Y-70271740D01*
X55754577Y-69954577D01*
X56071740Y-69479909D01*
X56183113Y-68920000D01*
X56071740Y-68360091D01*
X55754577Y-67885423D01*
X55475896Y-67699214D01*
X55458614Y-67612333D01*
X55754577Y-67414577D01*
X55940786Y-67135896D01*
X56141837Y-67095904D01*
X56393229Y-66927929D01*
X56435631Y-66864470D01*
X56890102Y-66410000D01*
X62085198Y-66410000D01*
X62719673Y-67044475D01*
X62762071Y-67107929D01*
X62825524Y-67150327D01*
X62825526Y-67150329D01*
X62950902Y-67234102D01*
X63013463Y-67275904D01*
X63235148Y-67320000D01*
X63235152Y-67320000D01*
X63309999Y-67334888D01*
X63384846Y-67320000D01*
X72521822Y-67320000D01*
X72729375Y-67630625D01*
X73220582Y-67958839D01*
X73653744Y-68045000D01*
X73946256Y-68045000D01*
X74379418Y-67958839D01*
X74870625Y-67630625D01*
X75198839Y-67139418D01*
X75314092Y-66560000D01*
X75198839Y-65980582D01*
X74870625Y-65489375D01*
X74572239Y-65290000D01*
X74870625Y-65090625D01*
X75198839Y-64599418D01*
X75314092Y-64020000D01*
X75198839Y-63440582D01*
X74870625Y-62949375D01*
X74551522Y-62736157D01*
X74681358Y-62675183D01*
X75071645Y-62246924D01*
X75241476Y-61836890D01*
X75120155Y-61607000D01*
X73927000Y-61607000D01*
X73927000Y-61627000D01*
X73673000Y-61627000D01*
X73673000Y-61607000D01*
X72479845Y-61607000D01*
X72358524Y-61836890D01*
X72528355Y-62246924D01*
X72918642Y-62675183D01*
X73048478Y-62736157D01*
X72729375Y-62949375D01*
X72517526Y-63266429D01*
X72328163Y-63304096D01*
X72076771Y-63472071D01*
X72034371Y-63535528D01*
X71883798Y-63686100D01*
X70782335Y-63686100D01*
X70863113Y-63280000D01*
X70751740Y-62720091D01*
X70434577Y-62245423D01*
X69959909Y-61928260D01*
X69541333Y-61845000D01*
X69258667Y-61845000D01*
X68840091Y-61928260D01*
X68365423Y-62245423D01*
X68048260Y-62720091D01*
X67936887Y-63280000D01*
X68017665Y-63686100D01*
X67060902Y-63686100D01*
X67013104Y-63638302D01*
X67035000Y-63585439D01*
X67035000Y-63014561D01*
X66816534Y-62487138D01*
X66412862Y-62083466D01*
X65885439Y-61865000D01*
X65314561Y-61865000D01*
X65261698Y-61886897D01*
X65057531Y-61682730D01*
X65015129Y-61619271D01*
X64763737Y-61451296D01*
X64542052Y-61407200D01*
X64542047Y-61407200D01*
X64467200Y-61392312D01*
X64392353Y-61407200D01*
X57592946Y-61407200D01*
X57518099Y-61392312D01*
X57443252Y-61407200D01*
X57443248Y-61407200D01*
X57221563Y-61451296D01*
X57221561Y-61451297D01*
X57221562Y-61451297D01*
X57033626Y-61576871D01*
X57033624Y-61576873D01*
X56970171Y-61619271D01*
X56927773Y-61682724D01*
X55774804Y-62835695D01*
X55754577Y-62805423D01*
X55370892Y-62549053D01*
X55575134Y-62452389D01*
X55951041Y-62037423D01*
X56111904Y-61649039D01*
X55989915Y-61427000D01*
X54847000Y-61427000D01*
X54847000Y-61447000D01*
X54593000Y-61447000D01*
X54593000Y-61427000D01*
X53450085Y-61427000D01*
X53328096Y-61649039D01*
X53488959Y-62037423D01*
X53864866Y-62452389D01*
X54069108Y-62549053D01*
X53685423Y-62805423D01*
X53403962Y-63226660D01*
X51128263Y-60950961D01*
X53328096Y-60950961D01*
X53450085Y-61173000D01*
X54593000Y-61173000D01*
X54593000Y-60029371D01*
X54847000Y-60029371D01*
X54847000Y-61173000D01*
X55989915Y-61173000D01*
X56111904Y-60950961D01*
X55951041Y-60562577D01*
X55575134Y-60147611D01*
X55069041Y-59908086D01*
X54847000Y-60029371D01*
X54593000Y-60029371D01*
X54370959Y-59908086D01*
X53864866Y-60147611D01*
X53488959Y-60562577D01*
X53328096Y-60950961D01*
X51128263Y-60950961D01*
X49263052Y-59085750D01*
X57715000Y-59085750D01*
X57715000Y-59451309D01*
X57811673Y-59684698D01*
X57990301Y-59863327D01*
X58223690Y-59960000D01*
X58814250Y-59960000D01*
X58973000Y-59801250D01*
X58973000Y-58927000D01*
X59227000Y-58927000D01*
X59227000Y-59801250D01*
X59385750Y-59960000D01*
X59976310Y-59960000D01*
X60209699Y-59863327D01*
X60388327Y-59684698D01*
X60485000Y-59451309D01*
X60485000Y-59085750D01*
X60326250Y-58927000D01*
X59227000Y-58927000D01*
X58973000Y-58927000D01*
X57873750Y-58927000D01*
X57715000Y-59085750D01*
X49263052Y-59085750D01*
X45993453Y-55816151D01*
X46117000Y-55517881D01*
X46117000Y-54962119D01*
X45916472Y-54478000D01*
X50930560Y-54478000D01*
X50930560Y-56002000D01*
X50979843Y-56249765D01*
X51120191Y-56459809D01*
X51330235Y-56600157D01*
X51578000Y-56649440D01*
X53102000Y-56649440D01*
X53349765Y-56600157D01*
X53559809Y-56459809D01*
X53693318Y-56260000D01*
X57692275Y-56260000D01*
X57782305Y-56712609D01*
X57904174Y-56895000D01*
X57782305Y-57077391D01*
X57692275Y-57530000D01*
X57782305Y-57982609D01*
X57783224Y-57983984D01*
X57715000Y-58148691D01*
X57715000Y-58514250D01*
X57873750Y-58673000D01*
X58675290Y-58673000D01*
X58760754Y-58690000D01*
X59439246Y-58690000D01*
X59524710Y-58673000D01*
X60326250Y-58673000D01*
X60485000Y-58514250D01*
X60485000Y-58148691D01*
X60416776Y-57983984D01*
X60417695Y-57982609D01*
X60507725Y-57530000D01*
X60417695Y-57077391D01*
X60295826Y-56895000D01*
X60417695Y-56712609D01*
X60507725Y-56260000D01*
X60417695Y-55807391D01*
X60161313Y-55423687D01*
X59777609Y-55167305D01*
X59439246Y-55100000D01*
X58760754Y-55100000D01*
X58422391Y-55167305D01*
X58038687Y-55423687D01*
X57782305Y-55807391D01*
X57692275Y-56260000D01*
X53693318Y-56260000D01*
X53700157Y-56249765D01*
X53749440Y-56002000D01*
X53749440Y-54478000D01*
X53700157Y-54230235D01*
X53559809Y-54020191D01*
X53349765Y-53879843D01*
X53102000Y-53830560D01*
X51578000Y-53830560D01*
X51330235Y-53879843D01*
X51120191Y-54020191D01*
X50979843Y-54230235D01*
X50930560Y-54478000D01*
X45916472Y-54478000D01*
X45904320Y-54448663D01*
X45511337Y-54055680D01*
X45304487Y-53970000D01*
X45511337Y-53884320D01*
X45860657Y-53535000D01*
X53517767Y-53535000D01*
X53600000Y-53551357D01*
X53682233Y-53535000D01*
X53682237Y-53535000D01*
X53925801Y-53486552D01*
X54202001Y-53302001D01*
X54248587Y-53232280D01*
X54845868Y-52635000D01*
X55385439Y-52635000D01*
X55912862Y-52416534D01*
X56294396Y-52035000D01*
X58374133Y-52035000D01*
X64514405Y-58175273D01*
X64433900Y-58580000D01*
X64557109Y-59199411D01*
X64907977Y-59724523D01*
X65433089Y-60075391D01*
X65896150Y-60167500D01*
X66303850Y-60167500D01*
X66766911Y-60075391D01*
X67292023Y-59724523D01*
X67365928Y-59613916D01*
X67531462Y-59724523D01*
X67534499Y-59726552D01*
X67860300Y-59791358D01*
X67942537Y-59775000D01*
X72571935Y-59775000D01*
X72729375Y-60010625D01*
X73048478Y-60223843D01*
X72918642Y-60284817D01*
X72528355Y-60713076D01*
X72358524Y-61123110D01*
X72479845Y-61353000D01*
X73673000Y-61353000D01*
X73673000Y-61333000D01*
X73927000Y-61333000D01*
X73927000Y-61353000D01*
X75120155Y-61353000D01*
X75241476Y-61123110D01*
X75071645Y-60713076D01*
X74681358Y-60284817D01*
X74551522Y-60223843D01*
X74870625Y-60010625D01*
X75198839Y-59519418D01*
X75314092Y-58940000D01*
X75198839Y-58360582D01*
X74870625Y-57869375D01*
X74852381Y-57857184D01*
X74897765Y-57848157D01*
X75107809Y-57707809D01*
X75248157Y-57497765D01*
X75297440Y-57250000D01*
X75297440Y-55550000D01*
X75248157Y-55302235D01*
X75107809Y-55092191D01*
X74897765Y-54951843D01*
X74650000Y-54902560D01*
X72950000Y-54902560D01*
X72702235Y-54951843D01*
X72492191Y-55092191D01*
X72451937Y-55152435D01*
X66354933Y-49055431D01*
X71365000Y-49055431D01*
X71365000Y-49944569D01*
X71705259Y-50766026D01*
X72333974Y-51394741D01*
X73155431Y-51735000D01*
X74044569Y-51735000D01*
X74866026Y-51394741D01*
X75494741Y-50766026D01*
X75835000Y-49944569D01*
X75835000Y-49055431D01*
X75494741Y-48233974D01*
X74866026Y-47605259D01*
X74044569Y-47265000D01*
X73155431Y-47265000D01*
X72333974Y-47605259D01*
X71705259Y-48233974D01*
X71365000Y-49055431D01*
X66354933Y-49055431D01*
X65877731Y-48578230D01*
X65835329Y-48514771D01*
X65583937Y-48346796D01*
X65362252Y-48302700D01*
X65362247Y-48302700D01*
X65287400Y-48287812D01*
X65212553Y-48302700D01*
X45892148Y-48302700D01*
X45817300Y-48287812D01*
X45742452Y-48302700D01*
X45742448Y-48302700D01*
X45520763Y-48346796D01*
X45269371Y-48514771D01*
X45226971Y-48578227D01*
X45029218Y-48775980D01*
X44997881Y-48763000D01*
X44442119Y-48763000D01*
X43928663Y-48975680D01*
X43535680Y-49368663D01*
X43323000Y-49882119D01*
X43323000Y-50437881D01*
X43535680Y-50951337D01*
X43928663Y-51344320D01*
X44135513Y-51430000D01*
X43928663Y-51515680D01*
X43579343Y-51865000D01*
X43296169Y-51865000D01*
X42098887Y-50667720D01*
X42052301Y-50597999D01*
X41776101Y-50413448D01*
X41697440Y-50397801D01*
X41697440Y-50350000D01*
X41648157Y-50102235D01*
X41507809Y-49892191D01*
X41297765Y-49751843D01*
X41050000Y-49702560D01*
X39350000Y-49702560D01*
X39102235Y-49751843D01*
X38892191Y-49892191D01*
X38751843Y-50102235D01*
X38702560Y-50350000D01*
X38702560Y-52050000D01*
X38751843Y-52297765D01*
X38892191Y-52507809D01*
X39102235Y-52648157D01*
X39205708Y-52668739D01*
X38928355Y-52973076D01*
X38758524Y-53383110D01*
X38879845Y-53613000D01*
X40073000Y-53613000D01*
X40073000Y-53593000D01*
X40327000Y-53593000D01*
X40327000Y-53613000D01*
X41520155Y-53613000D01*
X41641476Y-53383110D01*
X41471645Y-52973076D01*
X41194292Y-52668739D01*
X41297765Y-52648157D01*
X41507809Y-52507809D01*
X41535620Y-52466188D01*
X42301716Y-53232285D01*
X42348299Y-53302001D01*
X42624499Y-53486552D01*
X42868063Y-53535000D01*
X42868066Y-53535000D01*
X42950299Y-53551357D01*
X43032532Y-53535000D01*
X43579343Y-53535000D01*
X43928663Y-53884320D01*
X44135513Y-53970000D01*
X43928663Y-54055680D01*
X43535680Y-54448663D01*
X43323000Y-54962119D01*
X43323000Y-55517881D01*
X43535680Y-56031337D01*
X43928663Y-56424320D01*
X44442119Y-56637000D01*
X44664699Y-56637000D01*
X47880259Y-59852560D01*
X46300000Y-59852560D01*
X46052235Y-59901843D01*
X45842191Y-60042191D01*
X45701843Y-60252235D01*
X45652560Y-60500000D01*
X45652560Y-62100000D01*
X45701843Y-62347765D01*
X45842191Y-62557809D01*
X46052235Y-62698157D01*
X46186106Y-62724785D01*
X46065423Y-62805423D01*
X45881957Y-63080000D01*
X42980102Y-63080000D01*
X42769771Y-62869670D01*
X42859909Y-62851740D01*
X43334577Y-62534577D01*
X43651740Y-62059909D01*
X43763113Y-61500000D01*
X43651740Y-60940091D01*
X43334577Y-60465423D01*
X42859909Y-60148260D01*
X42441333Y-60065000D01*
X42158667Y-60065000D01*
X41740091Y-60148260D01*
X41265423Y-60465423D01*
X40948260Y-60940091D01*
X40930330Y-61030229D01*
X40915631Y-61015530D01*
X40873229Y-60952071D01*
X40621837Y-60784096D01*
X40420786Y-60744104D01*
X40234577Y-60465423D01*
X39759909Y-60148260D01*
X39341333Y-60065000D01*
X39058667Y-60065000D01*
X38640091Y-60148260D01*
X38165423Y-60465423D01*
X37848260Y-60940091D01*
X37736887Y-61500000D01*
X37848260Y-62059909D01*
X37960304Y-62227594D01*
X35787899Y-64400000D01*
X34378178Y-64400000D01*
X34170625Y-64089375D01*
X33872239Y-63890000D01*
X34170625Y-63690625D01*
X34498839Y-63199418D01*
X34614092Y-62620000D01*
X34498839Y-62040582D01*
X34170625Y-61549375D01*
X33679418Y-61221161D01*
X33246256Y-61135000D01*
X32953744Y-61135000D01*
X32520582Y-61221161D01*
X32029375Y-61549375D01*
X31701161Y-62040582D01*
X31585908Y-62620000D01*
X29335000Y-62620000D01*
X29335000Y-56280000D01*
X38685908Y-56280000D01*
X38801161Y-56859418D01*
X39129375Y-57350625D01*
X39620582Y-57678839D01*
X40053744Y-57765000D01*
X40346256Y-57765000D01*
X40779418Y-57678839D01*
X41270625Y-57350625D01*
X41598839Y-56859418D01*
X41714092Y-56280000D01*
X41598839Y-55700582D01*
X41270625Y-55209375D01*
X40951522Y-54996157D01*
X41081358Y-54935183D01*
X41471645Y-54506924D01*
X41641476Y-54096890D01*
X41520155Y-53867000D01*
X40327000Y-53867000D01*
X40327000Y-53887000D01*
X40073000Y-53887000D01*
X40073000Y-53867000D01*
X38879845Y-53867000D01*
X38758524Y-54096890D01*
X38928355Y-54506924D01*
X39318642Y-54935183D01*
X39448478Y-54996157D01*
X39129375Y-55209375D01*
X38801161Y-55700582D01*
X38685908Y-56280000D01*
X29335000Y-56280000D01*
X29335000Y-49055431D01*
X31365000Y-49055431D01*
X31365000Y-49944569D01*
X31705259Y-50766026D01*
X32333974Y-51394741D01*
X33155431Y-51735000D01*
X34044569Y-51735000D01*
X34866026Y-51394741D01*
X35494741Y-50766026D01*
X35835000Y-49944569D01*
X35835000Y-49055431D01*
X35494741Y-48233974D01*
X34866026Y-47605259D01*
X34044569Y-47265000D01*
X33155431Y-47265000D01*
X32333974Y-47605259D01*
X31705259Y-48233974D01*
X31365000Y-49055431D01*
X29335000Y-49055431D01*
X29335000Y-45235000D01*
X77865000Y-45235000D01*
X77865001Y-93765000D01*
G04 #@! TD*
M02*
