G04 #@! TF.GenerationSoftware,KiCad,Pcbnew,(5.0.0)*
G04 #@! TF.CreationDate,2019-08-04T18:11:21+09:00*
G04 #@! TF.ProjectId,ir_send_mod,69725F73656E645F6D6F642E6B696361,rev?*
G04 #@! TF.SameCoordinates,Original*
G04 #@! TF.FileFunction,Legend,Top*
G04 #@! TF.FilePolarity,Positive*
%FSLAX46Y46*%
G04 Gerber Fmt 4.6, Leading zero omitted, Abs format (unit mm)*
G04 Created by KiCad (PCBNEW (5.0.0)) date 08/04/19 18:11:21*
%MOMM*%
%LPD*%
G01*
G04 APERTURE LIST*
%ADD10C,0.150000*%
%ADD11C,0.200000*%
%ADD12C,0.120000*%
%ADD13C,3.600000*%
%ADD14R,2.000000X2.000000*%
%ADD15O,2.000000X2.000000*%
%ADD16C,2.200000*%
%ADD17R,2.200000X2.200000*%
%ADD18R,2.100000X2.100000*%
%ADD19O,2.100000X2.100000*%
%ADD20O,1.900000X1.450000*%
%ADD21R,1.900000X1.450000*%
%ADD22R,2.400000X2.305000*%
%ADD23O,2.400000X2.305000*%
%ADD24C,2.000000*%
%ADD25C,1.924000*%
%ADD26R,1.924000X1.924000*%
G04 APERTURE END LIST*
D10*
X71752380Y-62828571D02*
X70752380Y-62828571D01*
X70752380Y-62447619D01*
X70800000Y-62352380D01*
X70847619Y-62304761D01*
X70942857Y-62257142D01*
X71085714Y-62257142D01*
X71180952Y-62304761D01*
X71228571Y-62352380D01*
X71276190Y-62447619D01*
X71276190Y-62828571D01*
X71752380Y-61828571D02*
X71085714Y-61828571D01*
X70752380Y-61828571D02*
X70800000Y-61876190D01*
X70847619Y-61828571D01*
X70800000Y-61780952D01*
X70752380Y-61828571D01*
X70847619Y-61828571D01*
X71704761Y-60923809D02*
X71752380Y-61019047D01*
X71752380Y-61209523D01*
X71704761Y-61304761D01*
X71657142Y-61352380D01*
X71561904Y-61400000D01*
X71276190Y-61400000D01*
X71180952Y-61352380D01*
X71133333Y-61304761D01*
X71085714Y-61209523D01*
X71085714Y-61019047D01*
X71133333Y-60923809D01*
X71752380Y-60495238D02*
X70752380Y-60495238D01*
X71752380Y-59923809D02*
X71180952Y-60352380D01*
X70752380Y-59923809D02*
X71323809Y-60495238D01*
X71752380Y-59495238D02*
X71085714Y-59495238D01*
X70752380Y-59495238D02*
X70800000Y-59542857D01*
X70847619Y-59495238D01*
X70800000Y-59447619D01*
X70752380Y-59495238D01*
X70847619Y-59495238D01*
X71085714Y-59161904D02*
X71085714Y-58780952D01*
X70752380Y-59019047D02*
X71609523Y-59019047D01*
X71704761Y-58971428D01*
X71752380Y-58876190D01*
X71752380Y-58780952D01*
X70752380Y-58542857D02*
X70752380Y-57923809D01*
X71133333Y-58257142D01*
X71133333Y-58114285D01*
X71180952Y-58019047D01*
X71228571Y-57971428D01*
X71323809Y-57923809D01*
X71561904Y-57923809D01*
X71657142Y-57971428D01*
X71704761Y-58019047D01*
X71752380Y-58114285D01*
X71752380Y-58400000D01*
X71704761Y-58495238D01*
X71657142Y-58542857D01*
X77257142Y-68514285D02*
X77304761Y-68561904D01*
X77352380Y-68704761D01*
X77352380Y-68800000D01*
X77304761Y-68942857D01*
X77209523Y-69038095D01*
X77114285Y-69085714D01*
X76923809Y-69133333D01*
X76780952Y-69133333D01*
X76590476Y-69085714D01*
X76495238Y-69038095D01*
X76400000Y-68942857D01*
X76352380Y-68800000D01*
X76352380Y-68704761D01*
X76400000Y-68561904D01*
X76447619Y-68514285D01*
X77352380Y-67609523D02*
X77352380Y-68085714D01*
X76352380Y-68085714D01*
X77352380Y-67276190D02*
X76352380Y-67276190D01*
X77352380Y-66704761D02*
X76780952Y-67133333D01*
X76352380Y-66704761D02*
X76923809Y-67276190D01*
X77352380Y-65514285D02*
X76352380Y-65514285D01*
X76352380Y-65276190D01*
X76400000Y-65133333D01*
X76495238Y-65038095D01*
X76590476Y-64990476D01*
X76780952Y-64942857D01*
X76923809Y-64942857D01*
X77114285Y-64990476D01*
X77209523Y-65038095D01*
X77304761Y-65133333D01*
X77352380Y-65276190D01*
X77352380Y-65514285D01*
X77066666Y-64561904D02*
X77066666Y-64085714D01*
X77352380Y-64657142D02*
X76352380Y-64323809D01*
X77352380Y-63990476D01*
X76352380Y-63800000D02*
X76352380Y-63228571D01*
X77352380Y-63514285D02*
X76352380Y-63514285D01*
X76352380Y-62276190D02*
X77352380Y-61942857D01*
X76352380Y-61609523D01*
X77304761Y-61323809D02*
X77352380Y-61180952D01*
X77352380Y-60942857D01*
X77304761Y-60847619D01*
X77257142Y-60800000D01*
X77161904Y-60752380D01*
X77066666Y-60752380D01*
X76971428Y-60800000D01*
X76923809Y-60847619D01*
X76876190Y-60942857D01*
X76828571Y-61133333D01*
X76780952Y-61228571D01*
X76733333Y-61276190D01*
X76638095Y-61323809D01*
X76542857Y-61323809D01*
X76447619Y-61276190D01*
X76400000Y-61228571D01*
X76352380Y-61133333D01*
X76352380Y-60895238D01*
X76400000Y-60752380D01*
X77304761Y-60371428D02*
X77352380Y-60228571D01*
X77352380Y-59990476D01*
X77304761Y-59895238D01*
X77257142Y-59847619D01*
X77161904Y-59800000D01*
X77066666Y-59800000D01*
X76971428Y-59847619D01*
X76923809Y-59895238D01*
X76876190Y-59990476D01*
X76828571Y-60180952D01*
X76780952Y-60276190D01*
X76733333Y-60323809D01*
X76638095Y-60371428D01*
X76542857Y-60371428D01*
X76447619Y-60323809D01*
X76400000Y-60276190D01*
X76352380Y-60180952D01*
X76352380Y-59942857D01*
X76400000Y-59800000D01*
X76352380Y-58752380D02*
X77352380Y-58419047D01*
X76352380Y-58085714D01*
X77352380Y-57752380D02*
X76352380Y-57752380D01*
X76352380Y-57514285D01*
X76400000Y-57371428D01*
X76495238Y-57276190D01*
X76590476Y-57228571D01*
X76780952Y-57180952D01*
X76923809Y-57180952D01*
X77114285Y-57228571D01*
X77209523Y-57276190D01*
X77304761Y-57371428D01*
X77352380Y-57514285D01*
X77352380Y-57752380D01*
X77352380Y-56752380D02*
X76352380Y-56752380D01*
X76352380Y-56514285D01*
X76400000Y-56371428D01*
X76495238Y-56276190D01*
X76590476Y-56228571D01*
X76780952Y-56180952D01*
X76923809Y-56180952D01*
X77114285Y-56228571D01*
X77209523Y-56276190D01*
X77304761Y-56371428D01*
X77352380Y-56514285D01*
X77352380Y-56752380D01*
X77352380Y-54990476D02*
X76352380Y-54990476D01*
X77066666Y-54657142D01*
X76352380Y-54323809D01*
X77352380Y-54323809D01*
X77257142Y-53276190D02*
X77304761Y-53323809D01*
X77352380Y-53466666D01*
X77352380Y-53561904D01*
X77304761Y-53704761D01*
X77209523Y-53800000D01*
X77114285Y-53847619D01*
X76923809Y-53895238D01*
X76780952Y-53895238D01*
X76590476Y-53847619D01*
X76495238Y-53800000D01*
X76400000Y-53704761D01*
X76352380Y-53561904D01*
X76352380Y-53466666D01*
X76400000Y-53323809D01*
X76447619Y-53276190D01*
X77352380Y-52371428D02*
X77352380Y-52847619D01*
X76352380Y-52847619D01*
X76352380Y-79780952D02*
X77161904Y-79780952D01*
X77257142Y-79733333D01*
X77304761Y-79685714D01*
X77352380Y-79590476D01*
X77352380Y-79400000D01*
X77304761Y-79304761D01*
X77257142Y-79257142D01*
X77161904Y-79209523D01*
X76352380Y-79209523D01*
X76685714Y-78733333D02*
X77685714Y-78733333D01*
X76733333Y-78733333D02*
X76685714Y-78638095D01*
X76685714Y-78447619D01*
X76733333Y-78352380D01*
X76780952Y-78304761D01*
X76876190Y-78257142D01*
X77161904Y-78257142D01*
X77257142Y-78304761D01*
X77304761Y-78352380D01*
X77352380Y-78447619D01*
X77352380Y-78638095D01*
X77304761Y-78733333D01*
X77352380Y-77685714D02*
X77304761Y-77780952D01*
X77209523Y-77828571D01*
X76352380Y-77828571D01*
X77352380Y-77161904D02*
X77304761Y-77257142D01*
X77257142Y-77304761D01*
X77161904Y-77352380D01*
X76876190Y-77352380D01*
X76780952Y-77304761D01*
X76733333Y-77257142D01*
X76685714Y-77161904D01*
X76685714Y-77019047D01*
X76733333Y-76923809D01*
X76780952Y-76876190D01*
X76876190Y-76828571D01*
X77161904Y-76828571D01*
X77257142Y-76876190D01*
X77304761Y-76923809D01*
X77352380Y-77019047D01*
X77352380Y-77161904D01*
X77352380Y-75971428D02*
X76828571Y-75971428D01*
X76733333Y-76019047D01*
X76685714Y-76114285D01*
X76685714Y-76304761D01*
X76733333Y-76400000D01*
X77304761Y-75971428D02*
X77352380Y-76066666D01*
X77352380Y-76304761D01*
X77304761Y-76400000D01*
X77209523Y-76447619D01*
X77114285Y-76447619D01*
X77019047Y-76400000D01*
X76971428Y-76304761D01*
X76971428Y-76066666D01*
X76923809Y-75971428D01*
X77352380Y-75066666D02*
X76352380Y-75066666D01*
X77304761Y-75066666D02*
X77352380Y-75161904D01*
X77352380Y-75352380D01*
X77304761Y-75447619D01*
X77257142Y-75495238D01*
X77161904Y-75542857D01*
X76876190Y-75542857D01*
X76780952Y-75495238D01*
X76733333Y-75447619D01*
X76685714Y-75352380D01*
X76685714Y-75161904D01*
X76733333Y-75066666D01*
X77114285Y-74447619D02*
X77114285Y-73971428D01*
X76828571Y-74447619D02*
X76828571Y-73971428D01*
X77209523Y-74352380D02*
X76971428Y-74590476D01*
X76733333Y-74352380D01*
X76733333Y-74066666D02*
X76971428Y-73828571D01*
X77209523Y-74066666D01*
X77352380Y-72780952D02*
X76876190Y-73114285D01*
X77352380Y-73352380D02*
X76352380Y-73352380D01*
X76352380Y-72971428D01*
X76400000Y-72876190D01*
X76447619Y-72828571D01*
X76542857Y-72780952D01*
X76685714Y-72780952D01*
X76780952Y-72828571D01*
X76828571Y-72876190D01*
X76876190Y-72971428D01*
X76876190Y-73352380D01*
X76685714Y-71923809D02*
X77352380Y-71923809D01*
X76685714Y-72352380D02*
X77209523Y-72352380D01*
X77304761Y-72304761D01*
X77352380Y-72209523D01*
X77352380Y-72066666D01*
X77304761Y-71971428D01*
X77257142Y-71923809D01*
X76685714Y-71447619D02*
X77352380Y-71447619D01*
X76780952Y-71447619D02*
X76733333Y-71400000D01*
X76685714Y-71304761D01*
X76685714Y-71161904D01*
X76733333Y-71066666D01*
X76828571Y-71019047D01*
X77352380Y-71019047D01*
X30752380Y-64228571D02*
X29752380Y-64228571D01*
X30752380Y-63180952D02*
X30276190Y-63514285D01*
X30752380Y-63752380D02*
X29752380Y-63752380D01*
X29752380Y-63371428D01*
X29800000Y-63276190D01*
X29847619Y-63228571D01*
X29942857Y-63180952D01*
X30085714Y-63180952D01*
X30180952Y-63228571D01*
X30228571Y-63276190D01*
X30276190Y-63371428D01*
X30276190Y-63752380D01*
X29752380Y-61800000D02*
X29752380Y-61609523D01*
X29800000Y-61514285D01*
X29895238Y-61419047D01*
X30085714Y-61371428D01*
X30419047Y-61371428D01*
X30609523Y-61419047D01*
X30704761Y-61514285D01*
X30752380Y-61609523D01*
X30752380Y-61800000D01*
X30704761Y-61895238D01*
X30609523Y-61990476D01*
X30419047Y-62038095D01*
X30085714Y-62038095D01*
X29895238Y-61990476D01*
X29800000Y-61895238D01*
X29752380Y-61800000D01*
X30752380Y-60942857D02*
X29752380Y-60942857D01*
X30752380Y-60371428D01*
X29752380Y-60371428D01*
X46309523Y-47157142D02*
X46261904Y-47204761D01*
X46119047Y-47252380D01*
X46023809Y-47252380D01*
X45880952Y-47204761D01*
X45785714Y-47109523D01*
X45738095Y-47014285D01*
X45690476Y-46823809D01*
X45690476Y-46680952D01*
X45738095Y-46490476D01*
X45785714Y-46395238D01*
X45880952Y-46300000D01*
X46023809Y-46252380D01*
X46119047Y-46252380D01*
X46261904Y-46300000D01*
X46309523Y-46347619D01*
X46738095Y-47252380D02*
X46738095Y-46252380D01*
X47166666Y-47252380D02*
X47166666Y-46728571D01*
X47119047Y-46633333D01*
X47023809Y-46585714D01*
X46880952Y-46585714D01*
X46785714Y-46633333D01*
X46738095Y-46680952D01*
X48071428Y-47252380D02*
X48071428Y-46728571D01*
X48023809Y-46633333D01*
X47928571Y-46585714D01*
X47738095Y-46585714D01*
X47642857Y-46633333D01*
X48071428Y-47204761D02*
X47976190Y-47252380D01*
X47738095Y-47252380D01*
X47642857Y-47204761D01*
X47595238Y-47109523D01*
X47595238Y-47014285D01*
X47642857Y-46919047D01*
X47738095Y-46871428D01*
X47976190Y-46871428D01*
X48071428Y-46823809D01*
X48547619Y-46585714D02*
X48547619Y-47252380D01*
X48547619Y-46680952D02*
X48595238Y-46633333D01*
X48690476Y-46585714D01*
X48833333Y-46585714D01*
X48928571Y-46633333D01*
X48976190Y-46728571D01*
X48976190Y-47252380D01*
X49452380Y-46585714D02*
X49452380Y-47252380D01*
X49452380Y-46680952D02*
X49500000Y-46633333D01*
X49595238Y-46585714D01*
X49738095Y-46585714D01*
X49833333Y-46633333D01*
X49880952Y-46728571D01*
X49880952Y-47252380D01*
X50738095Y-47204761D02*
X50642857Y-47252380D01*
X50452380Y-47252380D01*
X50357142Y-47204761D01*
X50309523Y-47109523D01*
X50309523Y-46728571D01*
X50357142Y-46633333D01*
X50452380Y-46585714D01*
X50642857Y-46585714D01*
X50738095Y-46633333D01*
X50785714Y-46728571D01*
X50785714Y-46823809D01*
X50309523Y-46919047D01*
X51357142Y-47252380D02*
X51261904Y-47204761D01*
X51214285Y-47109523D01*
X51214285Y-46252380D01*
D11*
X61657142Y-81952380D02*
X61180952Y-81952380D01*
X61180952Y-80952380D01*
X61990476Y-81428571D02*
X62323809Y-81428571D01*
X62466666Y-81952380D02*
X61990476Y-81952380D01*
X61990476Y-80952380D01*
X62466666Y-80952380D01*
X62895238Y-81952380D02*
X62895238Y-80952380D01*
X63133333Y-80952380D01*
X63276190Y-81000000D01*
X63371428Y-81095238D01*
X63419047Y-81190476D01*
X63466666Y-81380952D01*
X63466666Y-81523809D01*
X63419047Y-81714285D01*
X63371428Y-81809523D01*
X63276190Y-81904761D01*
X63133333Y-81952380D01*
X62895238Y-81952380D01*
X44552380Y-92752380D02*
X44552380Y-91752380D01*
X45600000Y-92752380D02*
X45266666Y-92276190D01*
X45028571Y-92752380D02*
X45028571Y-91752380D01*
X45409523Y-91752380D01*
X45504761Y-91800000D01*
X45552380Y-91847619D01*
X45600000Y-91942857D01*
X45600000Y-92085714D01*
X45552380Y-92180952D01*
X45504761Y-92228571D01*
X45409523Y-92276190D01*
X45028571Y-92276190D01*
X47266666Y-92752380D02*
X46790476Y-92752380D01*
X46790476Y-91752380D01*
X47600000Y-92228571D02*
X47933333Y-92228571D01*
X48076190Y-92752380D02*
X47600000Y-92752380D01*
X47600000Y-91752380D01*
X48076190Y-91752380D01*
X48504761Y-92752380D02*
X48504761Y-91752380D01*
X48742857Y-91752380D01*
X48885714Y-91800000D01*
X48980952Y-91895238D01*
X49028571Y-91990476D01*
X49076190Y-92180952D01*
X49076190Y-92323809D01*
X49028571Y-92514285D01*
X48980952Y-92609523D01*
X48885714Y-92704761D01*
X48742857Y-92752380D01*
X48504761Y-92752380D01*
X49790476Y-93133333D02*
X49742857Y-93085714D01*
X49647619Y-92942857D01*
X49600000Y-92847619D01*
X49552380Y-92704761D01*
X49504761Y-92466666D01*
X49504761Y-92276190D01*
X49552380Y-92038095D01*
X49600000Y-91895238D01*
X49647619Y-91800000D01*
X49742857Y-91657142D01*
X49790476Y-91609523D01*
X50361904Y-91752380D02*
X50552380Y-91752380D01*
X50647619Y-91800000D01*
X50742857Y-91895238D01*
X50790476Y-92085714D01*
X50790476Y-92419047D01*
X50742857Y-92609523D01*
X50647619Y-92704761D01*
X50552380Y-92752380D01*
X50361904Y-92752380D01*
X50266666Y-92704761D01*
X50171428Y-92609523D01*
X50123809Y-92419047D01*
X50123809Y-92085714D01*
X50171428Y-91895238D01*
X50266666Y-91800000D01*
X50361904Y-91752380D01*
X51171428Y-92704761D02*
X51314285Y-92752380D01*
X51552380Y-92752380D01*
X51647619Y-92704761D01*
X51695238Y-92657142D01*
X51742857Y-92561904D01*
X51742857Y-92466666D01*
X51695238Y-92371428D01*
X51647619Y-92323809D01*
X51552380Y-92276190D01*
X51361904Y-92228571D01*
X51266666Y-92180952D01*
X51219047Y-92133333D01*
X51171428Y-92038095D01*
X51171428Y-91942857D01*
X51219047Y-91847619D01*
X51266666Y-91800000D01*
X51361904Y-91752380D01*
X51600000Y-91752380D01*
X51742857Y-91800000D01*
X52171428Y-92752380D02*
X52171428Y-91752380D01*
X53123809Y-91752380D02*
X52647619Y-91752380D01*
X52600000Y-92228571D01*
X52647619Y-92180952D01*
X52742857Y-92133333D01*
X52980952Y-92133333D01*
X53076190Y-92180952D01*
X53123809Y-92228571D01*
X53171428Y-92323809D01*
X53171428Y-92561904D01*
X53123809Y-92657142D01*
X53076190Y-92704761D01*
X52980952Y-92752380D01*
X52742857Y-92752380D01*
X52647619Y-92704761D01*
X52600000Y-92657142D01*
X53933333Y-92228571D02*
X53600000Y-92228571D01*
X53600000Y-92752380D02*
X53600000Y-91752380D01*
X54076190Y-91752380D01*
X54457142Y-91752380D02*
X54457142Y-92561904D01*
X54504761Y-92657142D01*
X54552380Y-92704761D01*
X54647619Y-92752380D01*
X54838095Y-92752380D01*
X54933333Y-92704761D01*
X54980952Y-92657142D01*
X55028571Y-92561904D01*
X55028571Y-91752380D01*
X55980952Y-91752380D02*
X55504761Y-91752380D01*
X55457142Y-92228571D01*
X55504761Y-92180952D01*
X55600000Y-92133333D01*
X55838095Y-92133333D01*
X55933333Y-92180952D01*
X55980952Y-92228571D01*
X56028571Y-92323809D01*
X56028571Y-92561904D01*
X55980952Y-92657142D01*
X55933333Y-92704761D01*
X55838095Y-92752380D01*
X55600000Y-92752380D01*
X55504761Y-92704761D01*
X55457142Y-92657142D01*
X56980952Y-92752380D02*
X56409523Y-92752380D01*
X56695238Y-92752380D02*
X56695238Y-91752380D01*
X56600000Y-91895238D01*
X56504761Y-91990476D01*
X56409523Y-92038095D01*
X57933333Y-92752380D02*
X57361904Y-92752380D01*
X57647619Y-92752380D02*
X57647619Y-91752380D01*
X57552380Y-91895238D01*
X57457142Y-91990476D01*
X57361904Y-92038095D01*
X58885714Y-92752380D02*
X58314285Y-92752380D01*
X58600000Y-92752380D02*
X58600000Y-91752380D01*
X58504761Y-91895238D01*
X58409523Y-91990476D01*
X58314285Y-92038095D01*
X59885714Y-92657142D02*
X59838095Y-92704761D01*
X59695238Y-92752380D01*
X59600000Y-92752380D01*
X59457142Y-92704761D01*
X59361904Y-92609523D01*
X59314285Y-92514285D01*
X59266666Y-92323809D01*
X59266666Y-92180952D01*
X59314285Y-91990476D01*
X59361904Y-91895238D01*
X59457142Y-91800000D01*
X59600000Y-91752380D01*
X59695238Y-91752380D01*
X59838095Y-91800000D01*
X59885714Y-91847619D01*
X60314285Y-92371428D02*
X61076190Y-92371428D01*
X61980952Y-92085714D02*
X61980952Y-92752380D01*
X61742857Y-91704761D02*
X61504761Y-92419047D01*
X62123809Y-92419047D01*
X62695238Y-91752380D02*
X62790476Y-91752380D01*
X62885714Y-91800000D01*
X62933333Y-91847619D01*
X62980952Y-91942857D01*
X63028571Y-92133333D01*
X63028571Y-92371428D01*
X62980952Y-92561904D01*
X62933333Y-92657142D01*
X62885714Y-92704761D01*
X62790476Y-92752380D01*
X62695238Y-92752380D01*
X62599999Y-92704761D01*
X62552380Y-92657142D01*
X62504761Y-92561904D01*
X62457142Y-92371428D01*
X62457142Y-92133333D01*
X62504761Y-91942857D01*
X62552380Y-91847619D01*
X62599999Y-91800000D01*
X62695238Y-91752380D01*
X63361904Y-93133333D02*
X63409523Y-93085714D01*
X63504761Y-92942857D01*
X63552380Y-92847619D01*
X63599999Y-92704761D01*
X63647619Y-92466666D01*
X63647619Y-92276190D01*
X63599999Y-92038095D01*
X63552380Y-91895238D01*
X63504761Y-91800000D01*
X63409523Y-91657142D01*
X63361904Y-91609523D01*
X38052380Y-57314285D02*
X37052380Y-57314285D01*
X38052380Y-56838095D02*
X37052380Y-56838095D01*
X38052380Y-56266666D01*
X37052380Y-56266666D01*
X37100000Y-54504761D02*
X37052380Y-54600000D01*
X37052380Y-54742857D01*
X37100000Y-54885714D01*
X37195238Y-54980952D01*
X37290476Y-55028571D01*
X37480952Y-55076190D01*
X37623809Y-55076190D01*
X37814285Y-55028571D01*
X37909523Y-54980952D01*
X38004761Y-54885714D01*
X38052380Y-54742857D01*
X38052380Y-54647619D01*
X38004761Y-54504761D01*
X37957142Y-54457142D01*
X37623809Y-54457142D01*
X37623809Y-54647619D01*
X38052380Y-54028571D02*
X37052380Y-54028571D01*
X38052380Y-53457142D01*
X37052380Y-53457142D01*
X38052380Y-52980952D02*
X37052380Y-52980952D01*
X37052380Y-52742857D01*
X37100000Y-52600000D01*
X37195238Y-52504761D01*
X37290476Y-52457142D01*
X37480952Y-52409523D01*
X37623809Y-52409523D01*
X37814285Y-52457142D01*
X37909523Y-52504761D01*
X38004761Y-52600000D01*
X38052380Y-52742857D01*
X38052380Y-52980952D01*
X37052380Y-50742857D02*
X37052380Y-51219047D01*
X37528571Y-51266666D01*
X37480952Y-51219047D01*
X37433333Y-51123809D01*
X37433333Y-50885714D01*
X37480952Y-50790476D01*
X37528571Y-50742857D01*
X37623809Y-50695238D01*
X37861904Y-50695238D01*
X37957142Y-50742857D01*
X38004761Y-50790476D01*
X38052380Y-50885714D01*
X38052380Y-51123809D01*
X38004761Y-51219047D01*
X37957142Y-51266666D01*
X37052380Y-50409523D02*
X38052380Y-50076190D01*
X37052380Y-49742857D01*
D12*
G04 #@! TO.C,SW2*
X56220000Y-72660000D02*
X56220000Y-82560000D01*
X43760000Y-72660000D02*
X43760000Y-82560000D01*
X56220000Y-72660000D02*
X43760000Y-72660000D01*
X56220000Y-82560000D02*
X43760000Y-82560000D01*
X56460000Y-72420000D02*
X56460000Y-73804000D01*
X56460000Y-72420000D02*
X55077000Y-72420000D01*
X54435000Y-75580000D02*
X53165000Y-75580000D01*
X53165000Y-75580000D02*
X53165000Y-79640000D01*
X53165000Y-79640000D02*
X54435000Y-79640000D01*
X54435000Y-79640000D02*
X54435000Y-75580000D01*
X54315000Y-75580000D02*
X54315000Y-76933333D01*
X54195000Y-75580000D02*
X54195000Y-76933333D01*
X54075000Y-75580000D02*
X54075000Y-76933333D01*
X53955000Y-75580000D02*
X53955000Y-76933333D01*
X53835000Y-75580000D02*
X53835000Y-76933333D01*
X53715000Y-75580000D02*
X53715000Y-76933333D01*
X53595000Y-75580000D02*
X53595000Y-76933333D01*
X53475000Y-75580000D02*
X53475000Y-76933333D01*
X53355000Y-75580000D02*
X53355000Y-76933333D01*
X53235000Y-75580000D02*
X53235000Y-76933333D01*
X54435000Y-76933333D02*
X53165000Y-76933333D01*
X51895000Y-75580000D02*
X50625000Y-75580000D01*
X50625000Y-75580000D02*
X50625000Y-79640000D01*
X50625000Y-79640000D02*
X51895000Y-79640000D01*
X51895000Y-79640000D02*
X51895000Y-75580000D01*
X51775000Y-75580000D02*
X51775000Y-76933333D01*
X51655000Y-75580000D02*
X51655000Y-76933333D01*
X51535000Y-75580000D02*
X51535000Y-76933333D01*
X51415000Y-75580000D02*
X51415000Y-76933333D01*
X51295000Y-75580000D02*
X51295000Y-76933333D01*
X51175000Y-75580000D02*
X51175000Y-76933333D01*
X51055000Y-75580000D02*
X51055000Y-76933333D01*
X50935000Y-75580000D02*
X50935000Y-76933333D01*
X50815000Y-75580000D02*
X50815000Y-76933333D01*
X50695000Y-75580000D02*
X50695000Y-76933333D01*
X51895000Y-76933333D02*
X50625000Y-76933333D01*
X49355000Y-75580000D02*
X48085000Y-75580000D01*
X48085000Y-75580000D02*
X48085000Y-79640000D01*
X48085000Y-79640000D02*
X49355000Y-79640000D01*
X49355000Y-79640000D02*
X49355000Y-75580000D01*
X49235000Y-75580000D02*
X49235000Y-76933333D01*
X49115000Y-75580000D02*
X49115000Y-76933333D01*
X48995000Y-75580000D02*
X48995000Y-76933333D01*
X48875000Y-75580000D02*
X48875000Y-76933333D01*
X48755000Y-75580000D02*
X48755000Y-76933333D01*
X48635000Y-75580000D02*
X48635000Y-76933333D01*
X48515000Y-75580000D02*
X48515000Y-76933333D01*
X48395000Y-75580000D02*
X48395000Y-76933333D01*
X48275000Y-75580000D02*
X48275000Y-76933333D01*
X48155000Y-75580000D02*
X48155000Y-76933333D01*
X49355000Y-76933333D02*
X48085000Y-76933333D01*
X46815000Y-75580000D02*
X45545000Y-75580000D01*
X45545000Y-75580000D02*
X45545000Y-79640000D01*
X45545000Y-79640000D02*
X46815000Y-79640000D01*
X46815000Y-79640000D02*
X46815000Y-75580000D01*
X46695000Y-75580000D02*
X46695000Y-76933333D01*
X46575000Y-75580000D02*
X46575000Y-76933333D01*
X46455000Y-75580000D02*
X46455000Y-76933333D01*
X46335000Y-75580000D02*
X46335000Y-76933333D01*
X46215000Y-75580000D02*
X46215000Y-76933333D01*
X46095000Y-75580000D02*
X46095000Y-76933333D01*
X45975000Y-75580000D02*
X45975000Y-76933333D01*
X45855000Y-75580000D02*
X45855000Y-76933333D01*
X45735000Y-75580000D02*
X45735000Y-76933333D01*
X45615000Y-75580000D02*
X45615000Y-76933333D01*
X46815000Y-76933333D02*
X45545000Y-76933333D01*
G04 #@! TO.C,D1*
X41810000Y-86655000D02*
X41810000Y-89745000D01*
X46870000Y-88200000D02*
G75*
G03X46870000Y-88200000I-2500000J0D01*
G01*
X47360000Y-88199538D02*
G75*
G02X41810000Y-89744830I-2990000J-462D01*
G01*
X47360000Y-88200462D02*
G75*
G03X41810000Y-86655170I-2990000J462D01*
G01*
G04 #@! TO.C,D2*
X53860000Y-88200462D02*
G75*
G03X48310000Y-86655170I-2990000J462D01*
G01*
X53860000Y-88199538D02*
G75*
G02X48310000Y-89744830I-2990000J-462D01*
G01*
X53370000Y-88200000D02*
G75*
G03X53370000Y-88200000I-2500000J0D01*
G01*
X48310000Y-86655000D02*
X48310000Y-89745000D01*
G04 #@! TO.C,D3*
X54810000Y-86655000D02*
X54810000Y-89745000D01*
X59870000Y-88200000D02*
G75*
G03X59870000Y-88200000I-2500000J0D01*
G01*
X60360000Y-88199538D02*
G75*
G02X54810000Y-89744830I-2990000J-462D01*
G01*
X60360000Y-88200462D02*
G75*
G03X54810000Y-86655170I-2990000J462D01*
G01*
G04 #@! TO.C,D4*
X66860000Y-88200462D02*
G75*
G03X61310000Y-86655170I-2990000J462D01*
G01*
X66860000Y-88199538D02*
G75*
G02X61310000Y-89744830I-2990000J-462D01*
G01*
X66370000Y-88200000D02*
G75*
G03X66370000Y-88200000I-2500000J0D01*
G01*
X61310000Y-86655000D02*
X61310000Y-89745000D01*
G04 #@! TO.C,D5*
X62100462Y-73140000D02*
G75*
G03X60555170Y-78690000I-462J-2990000D01*
G01*
X62099538Y-73140000D02*
G75*
G02X63644830Y-78690000I462J-2990000D01*
G01*
X64600000Y-76130000D02*
G75*
G03X64600000Y-76130000I-2500000J0D01*
G01*
X60555000Y-78690000D02*
X63645000Y-78690000D01*
G04 #@! TO.C,J1*
X38870000Y-57610000D02*
X41530000Y-57610000D01*
X38870000Y-52470000D02*
X38870000Y-57610000D01*
X41530000Y-52470000D02*
X41530000Y-57610000D01*
X38870000Y-52470000D02*
X41530000Y-52470000D01*
X38870000Y-51200000D02*
X38870000Y-49870000D01*
X38870000Y-49870000D02*
X40200000Y-49870000D01*
G04 #@! TO.C,Q1*
X60950000Y-59330000D02*
X60950000Y-55730000D01*
X60938478Y-59368478D02*
G75*
G02X56500000Y-57530000I-1838478J1838478D01*
G01*
X60938478Y-55691522D02*
G75*
G03X56500000Y-57530000I-1838478J-1838478D01*
G01*
G04 #@! TO.C,Q2*
X69370000Y-50920000D02*
X69370000Y-61160000D01*
X64729000Y-50920000D02*
X64729000Y-61160000D01*
X69370000Y-50920000D02*
X64729000Y-50920000D01*
X69370000Y-61160000D02*
X64729000Y-61160000D01*
X67860000Y-50920000D02*
X67860000Y-61160000D01*
X69370000Y-54190000D02*
X67860000Y-54190000D01*
X69370000Y-57891000D02*
X67860000Y-57891000D01*
G04 #@! TO.C,R1*
X60240000Y-63840000D02*
X60570000Y-63840000D01*
X60570000Y-63840000D02*
X60570000Y-70380000D01*
X60570000Y-70380000D02*
X60240000Y-70380000D01*
X58160000Y-63840000D02*
X57830000Y-63840000D01*
X57830000Y-63840000D02*
X57830000Y-70380000D01*
X57830000Y-70380000D02*
X58160000Y-70380000D01*
G04 #@! TO.C,R2*
X61030000Y-70380000D02*
X61360000Y-70380000D01*
X61030000Y-63840000D02*
X61030000Y-70380000D01*
X61360000Y-63840000D02*
X61030000Y-63840000D01*
X63770000Y-70380000D02*
X63440000Y-70380000D01*
X63770000Y-63840000D02*
X63770000Y-70380000D01*
X63440000Y-63840000D02*
X63770000Y-63840000D01*
G04 #@! TO.C,R3*
X64230000Y-70380000D02*
X64560000Y-70380000D01*
X64230000Y-63840000D02*
X64230000Y-70380000D01*
X64560000Y-63840000D02*
X64230000Y-63840000D01*
X66970000Y-70380000D02*
X66640000Y-70380000D01*
X66970000Y-63840000D02*
X66970000Y-70380000D01*
X66640000Y-63840000D02*
X66970000Y-63840000D01*
G04 #@! TO.C,R4*
X38160000Y-68580000D02*
X37830000Y-68580000D01*
X37830000Y-68580000D02*
X37830000Y-62040000D01*
X37830000Y-62040000D02*
X38160000Y-62040000D01*
X40240000Y-68580000D02*
X40570000Y-68580000D01*
X40570000Y-68580000D02*
X40570000Y-62040000D01*
X40570000Y-62040000D02*
X40240000Y-62040000D01*
G04 #@! TO.C,R5*
X41260000Y-68580000D02*
X40930000Y-68580000D01*
X40930000Y-68580000D02*
X40930000Y-62040000D01*
X40930000Y-62040000D02*
X41260000Y-62040000D01*
X43340000Y-68580000D02*
X43670000Y-68580000D01*
X43670000Y-68580000D02*
X43670000Y-62040000D01*
X43670000Y-62040000D02*
X43340000Y-62040000D01*
G04 #@! TO.C,R6*
X62180000Y-52570000D02*
X62180000Y-52240000D01*
X55640000Y-52570000D02*
X62180000Y-52570000D01*
X55640000Y-52240000D02*
X55640000Y-52570000D01*
X62180000Y-49830000D02*
X62180000Y-50160000D01*
X55640000Y-49830000D02*
X62180000Y-49830000D01*
X55640000Y-50160000D02*
X55640000Y-49830000D01*
G04 #@! TO.C,R7*
X39940000Y-74840000D02*
X40270000Y-74840000D01*
X40270000Y-74840000D02*
X40270000Y-81380000D01*
X40270000Y-81380000D02*
X39940000Y-81380000D01*
X37860000Y-74840000D02*
X37530000Y-74840000D01*
X37530000Y-74840000D02*
X37530000Y-81380000D01*
X37530000Y-81380000D02*
X37860000Y-81380000D01*
G04 #@! TO.C,R8*
X34330000Y-81380000D02*
X34660000Y-81380000D01*
X34330000Y-74840000D02*
X34330000Y-81380000D01*
X34660000Y-74840000D02*
X34330000Y-74840000D01*
X37070000Y-81380000D02*
X36740000Y-81380000D01*
X37070000Y-74840000D02*
X37070000Y-81380000D01*
X36740000Y-74840000D02*
X37070000Y-74840000D01*
G04 #@! TO.C,R10*
X71340000Y-76040000D02*
X71670000Y-76040000D01*
X71670000Y-76040000D02*
X71670000Y-82580000D01*
X71670000Y-82580000D02*
X71340000Y-82580000D01*
X69260000Y-76040000D02*
X68930000Y-76040000D01*
X68930000Y-76040000D02*
X68930000Y-82580000D01*
X68930000Y-82580000D02*
X69260000Y-82580000D01*
D10*
G04 #@! TO.C,SW1*
X53430000Y-47800000D02*
X53430000Y-57600000D01*
X53430000Y-57600000D02*
X43630000Y-57600000D01*
X43630000Y-57600000D02*
X43630000Y-47800000D01*
X43630000Y-47800000D02*
X53430000Y-47800000D01*
D12*
G04 #@! TO.C,U1*
X51910000Y-59970000D02*
G75*
G02X49910000Y-59970000I-1000000J0D01*
G01*
X49910000Y-59970000D02*
X48260000Y-59970000D01*
X48260000Y-59970000D02*
X48260000Y-70250000D01*
X48260000Y-70250000D02*
X53560000Y-70250000D01*
X53560000Y-70250000D02*
X53560000Y-59970000D01*
X53560000Y-59970000D02*
X51910000Y-59970000D01*
G04 #@! TO.C,R9*
X66160000Y-82580000D02*
X65830000Y-82580000D01*
X65830000Y-82580000D02*
X65830000Y-76040000D01*
X65830000Y-76040000D02*
X66160000Y-76040000D01*
X68240000Y-82580000D02*
X68570000Y-82580000D01*
X68570000Y-82580000D02*
X68570000Y-76040000D01*
X68570000Y-76040000D02*
X68240000Y-76040000D01*
G04 #@! TO.C,J2*
X72470000Y-67890000D02*
X75130000Y-67890000D01*
X72470000Y-57670000D02*
X72470000Y-67890000D01*
X75130000Y-57670000D02*
X75130000Y-67890000D01*
X72470000Y-57670000D02*
X75130000Y-57670000D01*
X72470000Y-56400000D02*
X72470000Y-55070000D01*
X72470000Y-55070000D02*
X73800000Y-55070000D01*
G04 #@! TO.C,R11*
X68360000Y-70360000D02*
X68030000Y-70360000D01*
X68030000Y-70360000D02*
X68030000Y-63820000D01*
X68030000Y-63820000D02*
X68360000Y-63820000D01*
X70440000Y-70360000D02*
X70770000Y-70360000D01*
X70770000Y-70360000D02*
X70770000Y-63820000D01*
X70770000Y-63820000D02*
X70440000Y-63820000D01*
G04 #@! TO.C,SW3*
X34430000Y-61290000D02*
X31770000Y-61290000D01*
X34430000Y-66430000D02*
X34430000Y-61290000D01*
X31770000Y-66430000D02*
X31770000Y-61290000D01*
X34430000Y-66430000D02*
X31770000Y-66430000D01*
X34430000Y-67700000D02*
X34430000Y-69030000D01*
X34430000Y-69030000D02*
X33100000Y-69030000D01*
G04 #@! TO.C,SW4*
X72970000Y-71570000D02*
X74300000Y-71570000D01*
X72970000Y-72900000D02*
X72970000Y-71570000D01*
X72970000Y-74170000D02*
X75630000Y-74170000D01*
X75630000Y-74170000D02*
X75630000Y-79310000D01*
X72970000Y-74170000D02*
X72970000Y-79310000D01*
X72970000Y-79310000D02*
X75630000Y-79310000D01*
G04 #@! TO.C,SW2*
D10*
X57624761Y-78943333D02*
X57672380Y-78800476D01*
X57672380Y-78562380D01*
X57624761Y-78467142D01*
X57577142Y-78419523D01*
X57481904Y-78371904D01*
X57386666Y-78371904D01*
X57291428Y-78419523D01*
X57243809Y-78467142D01*
X57196190Y-78562380D01*
X57148571Y-78752857D01*
X57100952Y-78848095D01*
X57053333Y-78895714D01*
X56958095Y-78943333D01*
X56862857Y-78943333D01*
X56767619Y-78895714D01*
X56720000Y-78848095D01*
X56672380Y-78752857D01*
X56672380Y-78514761D01*
X56720000Y-78371904D01*
X56672380Y-78038571D02*
X57672380Y-77800476D01*
X56958095Y-77610000D01*
X57672380Y-77419523D01*
X56672380Y-77181428D01*
X56767619Y-76848095D02*
X56720000Y-76800476D01*
X56672380Y-76705238D01*
X56672380Y-76467142D01*
X56720000Y-76371904D01*
X56767619Y-76324285D01*
X56862857Y-76276666D01*
X56958095Y-76276666D01*
X57100952Y-76324285D01*
X57672380Y-76895714D01*
X57672380Y-76276666D01*
G04 #@! TO.C,D1*
X43631904Y-84692380D02*
X43631904Y-83692380D01*
X43870000Y-83692380D01*
X44012857Y-83740000D01*
X44108095Y-83835238D01*
X44155714Y-83930476D01*
X44203333Y-84120952D01*
X44203333Y-84263809D01*
X44155714Y-84454285D01*
X44108095Y-84549523D01*
X44012857Y-84644761D01*
X43870000Y-84692380D01*
X43631904Y-84692380D01*
X45155714Y-84692380D02*
X44584285Y-84692380D01*
X44870000Y-84692380D02*
X44870000Y-83692380D01*
X44774761Y-83835238D01*
X44679523Y-83930476D01*
X44584285Y-83978095D01*
G04 #@! TO.C,D2*
X50131904Y-84692380D02*
X50131904Y-83692380D01*
X50370000Y-83692380D01*
X50512857Y-83740000D01*
X50608095Y-83835238D01*
X50655714Y-83930476D01*
X50703333Y-84120952D01*
X50703333Y-84263809D01*
X50655714Y-84454285D01*
X50608095Y-84549523D01*
X50512857Y-84644761D01*
X50370000Y-84692380D01*
X50131904Y-84692380D01*
X51084285Y-83787619D02*
X51131904Y-83740000D01*
X51227142Y-83692380D01*
X51465238Y-83692380D01*
X51560476Y-83740000D01*
X51608095Y-83787619D01*
X51655714Y-83882857D01*
X51655714Y-83978095D01*
X51608095Y-84120952D01*
X51036666Y-84692380D01*
X51655714Y-84692380D01*
G04 #@! TO.C,D3*
X56631904Y-84692380D02*
X56631904Y-83692380D01*
X56870000Y-83692380D01*
X57012857Y-83740000D01*
X57108095Y-83835238D01*
X57155714Y-83930476D01*
X57203333Y-84120952D01*
X57203333Y-84263809D01*
X57155714Y-84454285D01*
X57108095Y-84549523D01*
X57012857Y-84644761D01*
X56870000Y-84692380D01*
X56631904Y-84692380D01*
X57536666Y-83692380D02*
X58155714Y-83692380D01*
X57822380Y-84073333D01*
X57965238Y-84073333D01*
X58060476Y-84120952D01*
X58108095Y-84168571D01*
X58155714Y-84263809D01*
X58155714Y-84501904D01*
X58108095Y-84597142D01*
X58060476Y-84644761D01*
X57965238Y-84692380D01*
X57679523Y-84692380D01*
X57584285Y-84644761D01*
X57536666Y-84597142D01*
G04 #@! TO.C,D4*
X63131904Y-84692380D02*
X63131904Y-83692380D01*
X63370000Y-83692380D01*
X63512857Y-83740000D01*
X63608095Y-83835238D01*
X63655714Y-83930476D01*
X63703333Y-84120952D01*
X63703333Y-84263809D01*
X63655714Y-84454285D01*
X63608095Y-84549523D01*
X63512857Y-84644761D01*
X63370000Y-84692380D01*
X63131904Y-84692380D01*
X64560476Y-84025714D02*
X64560476Y-84692380D01*
X64322380Y-83644761D02*
X64084285Y-84359047D01*
X64703333Y-84359047D01*
G04 #@! TO.C,D5*
X61461904Y-80452380D02*
X61461904Y-79452380D01*
X61700000Y-79452380D01*
X61842857Y-79500000D01*
X61938095Y-79595238D01*
X61985714Y-79690476D01*
X62033333Y-79880952D01*
X62033333Y-80023809D01*
X61985714Y-80214285D01*
X61938095Y-80309523D01*
X61842857Y-80404761D01*
X61700000Y-80452380D01*
X61461904Y-80452380D01*
X62938095Y-79452380D02*
X62461904Y-79452380D01*
X62414285Y-79928571D01*
X62461904Y-79880952D01*
X62557142Y-79833333D01*
X62795238Y-79833333D01*
X62890476Y-79880952D01*
X62938095Y-79928571D01*
X62985714Y-80023809D01*
X62985714Y-80261904D01*
X62938095Y-80357142D01*
X62890476Y-80404761D01*
X62795238Y-80452380D01*
X62557142Y-80452380D01*
X62461904Y-80404761D01*
X62414285Y-80357142D01*
G04 #@! TO.C,J1*
X39866666Y-48322380D02*
X39866666Y-49036666D01*
X39819047Y-49179523D01*
X39723809Y-49274761D01*
X39580952Y-49322380D01*
X39485714Y-49322380D01*
X40866666Y-49322380D02*
X40295238Y-49322380D01*
X40580952Y-49322380D02*
X40580952Y-48322380D01*
X40485714Y-48465238D01*
X40390476Y-48560476D01*
X40295238Y-48608095D01*
G04 #@! TO.C,Q1*
X56087619Y-57625238D02*
X56040000Y-57720476D01*
X55944761Y-57815714D01*
X55801904Y-57958571D01*
X55754285Y-58053809D01*
X55754285Y-58149047D01*
X55992380Y-58101428D02*
X55944761Y-58196666D01*
X55849523Y-58291904D01*
X55659047Y-58339523D01*
X55325714Y-58339523D01*
X55135238Y-58291904D01*
X55040000Y-58196666D01*
X54992380Y-58101428D01*
X54992380Y-57910952D01*
X55040000Y-57815714D01*
X55135238Y-57720476D01*
X55325714Y-57672857D01*
X55659047Y-57672857D01*
X55849523Y-57720476D01*
X55944761Y-57815714D01*
X55992380Y-57910952D01*
X55992380Y-58101428D01*
X55992380Y-56720476D02*
X55992380Y-57291904D01*
X55992380Y-57006190D02*
X54992380Y-57006190D01*
X55135238Y-57101428D01*
X55230476Y-57196666D01*
X55278095Y-57291904D01*
G04 #@! TO.C,Q2*
X70917619Y-56135238D02*
X70870000Y-56230476D01*
X70774761Y-56325714D01*
X70631904Y-56468571D01*
X70584285Y-56563809D01*
X70584285Y-56659047D01*
X70822380Y-56611428D02*
X70774761Y-56706666D01*
X70679523Y-56801904D01*
X70489047Y-56849523D01*
X70155714Y-56849523D01*
X69965238Y-56801904D01*
X69870000Y-56706666D01*
X69822380Y-56611428D01*
X69822380Y-56420952D01*
X69870000Y-56325714D01*
X69965238Y-56230476D01*
X70155714Y-56182857D01*
X70489047Y-56182857D01*
X70679523Y-56230476D01*
X70774761Y-56325714D01*
X70822380Y-56420952D01*
X70822380Y-56611428D01*
X69917619Y-55801904D02*
X69870000Y-55754285D01*
X69822380Y-55659047D01*
X69822380Y-55420952D01*
X69870000Y-55325714D01*
X69917619Y-55278095D01*
X70012857Y-55230476D01*
X70108095Y-55230476D01*
X70250952Y-55278095D01*
X70822380Y-55849523D01*
X70822380Y-55230476D01*
G04 #@! TO.C,R1*
X62022380Y-67276666D02*
X61546190Y-67610000D01*
X62022380Y-67848095D02*
X61022380Y-67848095D01*
X61022380Y-67467142D01*
X61070000Y-67371904D01*
X61117619Y-67324285D01*
X61212857Y-67276666D01*
X61355714Y-67276666D01*
X61450952Y-67324285D01*
X61498571Y-67371904D01*
X61546190Y-67467142D01*
X61546190Y-67848095D01*
X62022380Y-66324285D02*
X62022380Y-66895714D01*
X62022380Y-66610000D02*
X61022380Y-66610000D01*
X61165238Y-66705238D01*
X61260476Y-66800476D01*
X61308095Y-66895714D01*
X57282380Y-67705238D02*
X57282380Y-68276666D01*
X57282380Y-67990952D02*
X56282380Y-67990952D01*
X56425238Y-68086190D01*
X56520476Y-68181428D01*
X56568095Y-68276666D01*
X56282380Y-67086190D02*
X56282380Y-66990952D01*
X56330000Y-66895714D01*
X56377619Y-66848095D01*
X56472857Y-66800476D01*
X56663333Y-66752857D01*
X56901428Y-66752857D01*
X57091904Y-66800476D01*
X57187142Y-66848095D01*
X57234761Y-66895714D01*
X57282380Y-66990952D01*
X57282380Y-67086190D01*
X57234761Y-67181428D01*
X57187142Y-67229047D01*
X57091904Y-67276666D01*
X56901428Y-67324285D01*
X56663333Y-67324285D01*
X56472857Y-67276666D01*
X56377619Y-67229047D01*
X56330000Y-67181428D01*
X56282380Y-67086190D01*
X57282380Y-66324285D02*
X56282380Y-66324285D01*
X56901428Y-66229047D02*
X57282380Y-65943333D01*
X56615714Y-65943333D02*
X56996666Y-66324285D01*
G04 #@! TO.C,R2*
X65222380Y-67276666D02*
X64746190Y-67610000D01*
X65222380Y-67848095D02*
X64222380Y-67848095D01*
X64222380Y-67467142D01*
X64270000Y-67371904D01*
X64317619Y-67324285D01*
X64412857Y-67276666D01*
X64555714Y-67276666D01*
X64650952Y-67324285D01*
X64698571Y-67371904D01*
X64746190Y-67467142D01*
X64746190Y-67848095D01*
X64317619Y-66895714D02*
X64270000Y-66848095D01*
X64222380Y-66752857D01*
X64222380Y-66514761D01*
X64270000Y-66419523D01*
X64317619Y-66371904D01*
X64412857Y-66324285D01*
X64508095Y-66324285D01*
X64650952Y-66371904D01*
X65222380Y-66943333D01*
X65222380Y-66324285D01*
X60482380Y-67705238D02*
X60482380Y-68276666D01*
X60482380Y-67990952D02*
X59482380Y-67990952D01*
X59625238Y-68086190D01*
X59720476Y-68181428D01*
X59768095Y-68276666D01*
X59482380Y-67086190D02*
X59482380Y-66990952D01*
X59530000Y-66895714D01*
X59577619Y-66848095D01*
X59672857Y-66800476D01*
X59863333Y-66752857D01*
X60101428Y-66752857D01*
X60291904Y-66800476D01*
X60387142Y-66848095D01*
X60434761Y-66895714D01*
X60482380Y-66990952D01*
X60482380Y-67086190D01*
X60434761Y-67181428D01*
X60387142Y-67229047D01*
X60291904Y-67276666D01*
X60101428Y-67324285D01*
X59863333Y-67324285D01*
X59672857Y-67276666D01*
X59577619Y-67229047D01*
X59530000Y-67181428D01*
X59482380Y-67086190D01*
X60482380Y-66324285D02*
X59482380Y-66324285D01*
X60101428Y-66229047D02*
X60482380Y-65943333D01*
X59815714Y-65943333D02*
X60196666Y-66324285D01*
G04 #@! TO.C,R3*
X68422380Y-67276666D02*
X67946190Y-67610000D01*
X68422380Y-67848095D02*
X67422380Y-67848095D01*
X67422380Y-67467142D01*
X67470000Y-67371904D01*
X67517619Y-67324285D01*
X67612857Y-67276666D01*
X67755714Y-67276666D01*
X67850952Y-67324285D01*
X67898571Y-67371904D01*
X67946190Y-67467142D01*
X67946190Y-67848095D01*
X67422380Y-66943333D02*
X67422380Y-66324285D01*
X67803333Y-66657619D01*
X67803333Y-66514761D01*
X67850952Y-66419523D01*
X67898571Y-66371904D01*
X67993809Y-66324285D01*
X68231904Y-66324285D01*
X68327142Y-66371904D01*
X68374761Y-66419523D01*
X68422380Y-66514761D01*
X68422380Y-66800476D01*
X68374761Y-66895714D01*
X68327142Y-66943333D01*
X63682380Y-67705238D02*
X63682380Y-68276666D01*
X63682380Y-67990952D02*
X62682380Y-67990952D01*
X62825238Y-68086190D01*
X62920476Y-68181428D01*
X62968095Y-68276666D01*
X62682380Y-67086190D02*
X62682380Y-66990952D01*
X62730000Y-66895714D01*
X62777619Y-66848095D01*
X62872857Y-66800476D01*
X63063333Y-66752857D01*
X63301428Y-66752857D01*
X63491904Y-66800476D01*
X63587142Y-66848095D01*
X63634761Y-66895714D01*
X63682380Y-66990952D01*
X63682380Y-67086190D01*
X63634761Y-67181428D01*
X63587142Y-67229047D01*
X63491904Y-67276666D01*
X63301428Y-67324285D01*
X63063333Y-67324285D01*
X62872857Y-67276666D01*
X62777619Y-67229047D01*
X62730000Y-67181428D01*
X62682380Y-67086190D01*
X63682380Y-66324285D02*
X62682380Y-66324285D01*
X63301428Y-66229047D02*
X63682380Y-65943333D01*
X63015714Y-65943333D02*
X63396666Y-66324285D01*
G04 #@! TO.C,R4*
X37282380Y-65476666D02*
X36806190Y-65810000D01*
X37282380Y-66048095D02*
X36282380Y-66048095D01*
X36282380Y-65667142D01*
X36330000Y-65571904D01*
X36377619Y-65524285D01*
X36472857Y-65476666D01*
X36615714Y-65476666D01*
X36710952Y-65524285D01*
X36758571Y-65571904D01*
X36806190Y-65667142D01*
X36806190Y-66048095D01*
X36615714Y-64619523D02*
X37282380Y-64619523D01*
X36234761Y-64857619D02*
X36949047Y-65095714D01*
X36949047Y-64476666D01*
X42022380Y-65429047D02*
X42022380Y-66000476D01*
X42022380Y-65714761D02*
X41022380Y-65714761D01*
X41165238Y-65810000D01*
X41260476Y-65905238D01*
X41308095Y-66000476D01*
X42022380Y-65000476D02*
X41022380Y-65000476D01*
X41641428Y-64905238D02*
X42022380Y-64619523D01*
X41355714Y-64619523D02*
X41736666Y-65000476D01*
G04 #@! TO.C,R5*
X40382380Y-65476666D02*
X39906190Y-65810000D01*
X40382380Y-66048095D02*
X39382380Y-66048095D01*
X39382380Y-65667142D01*
X39430000Y-65571904D01*
X39477619Y-65524285D01*
X39572857Y-65476666D01*
X39715714Y-65476666D01*
X39810952Y-65524285D01*
X39858571Y-65571904D01*
X39906190Y-65667142D01*
X39906190Y-66048095D01*
X39382380Y-64571904D02*
X39382380Y-65048095D01*
X39858571Y-65095714D01*
X39810952Y-65048095D01*
X39763333Y-64952857D01*
X39763333Y-64714761D01*
X39810952Y-64619523D01*
X39858571Y-64571904D01*
X39953809Y-64524285D01*
X40191904Y-64524285D01*
X40287142Y-64571904D01*
X40334761Y-64619523D01*
X40382380Y-64714761D01*
X40382380Y-64952857D01*
X40334761Y-65048095D01*
X40287142Y-65095714D01*
X45122380Y-65905238D02*
X45122380Y-66476666D01*
X45122380Y-66190952D02*
X44122380Y-66190952D01*
X44265238Y-66286190D01*
X44360476Y-66381428D01*
X44408095Y-66476666D01*
X44122380Y-65286190D02*
X44122380Y-65190952D01*
X44170000Y-65095714D01*
X44217619Y-65048095D01*
X44312857Y-65000476D01*
X44503333Y-64952857D01*
X44741428Y-64952857D01*
X44931904Y-65000476D01*
X45027142Y-65048095D01*
X45074761Y-65095714D01*
X45122380Y-65190952D01*
X45122380Y-65286190D01*
X45074761Y-65381428D01*
X45027142Y-65429047D01*
X44931904Y-65476666D01*
X44741428Y-65524285D01*
X44503333Y-65524285D01*
X44312857Y-65476666D01*
X44217619Y-65429047D01*
X44170000Y-65381428D01*
X44122380Y-65286190D01*
X45122380Y-64524285D02*
X44122380Y-64524285D01*
X44741428Y-64429047D02*
X45122380Y-64143333D01*
X44455714Y-64143333D02*
X44836666Y-64524285D01*
G04 #@! TO.C,R6*
X58743333Y-49282380D02*
X58410000Y-48806190D01*
X58171904Y-49282380D02*
X58171904Y-48282380D01*
X58552857Y-48282380D01*
X58648095Y-48330000D01*
X58695714Y-48377619D01*
X58743333Y-48472857D01*
X58743333Y-48615714D01*
X58695714Y-48710952D01*
X58648095Y-48758571D01*
X58552857Y-48806190D01*
X58171904Y-48806190D01*
X59600476Y-48282380D02*
X59410000Y-48282380D01*
X59314761Y-48330000D01*
X59267142Y-48377619D01*
X59171904Y-48520476D01*
X59124285Y-48710952D01*
X59124285Y-49091904D01*
X59171904Y-49187142D01*
X59219523Y-49234761D01*
X59314761Y-49282380D01*
X59505238Y-49282380D01*
X59600476Y-49234761D01*
X59648095Y-49187142D01*
X59695714Y-49091904D01*
X59695714Y-48853809D01*
X59648095Y-48758571D01*
X59600476Y-48710952D01*
X59505238Y-48663333D01*
X59314761Y-48663333D01*
X59219523Y-48710952D01*
X59171904Y-48758571D01*
X59124285Y-48853809D01*
X57981428Y-53355714D02*
X57981428Y-54022380D01*
X57743333Y-52974761D02*
X57505238Y-53689047D01*
X58124285Y-53689047D01*
X58505238Y-53927142D02*
X58552857Y-53974761D01*
X58505238Y-54022380D01*
X58457619Y-53974761D01*
X58505238Y-53927142D01*
X58505238Y-54022380D01*
X58886190Y-53022380D02*
X59552857Y-53022380D01*
X59124285Y-54022380D01*
X59933809Y-54022380D02*
X59933809Y-53022380D01*
X60029047Y-53641428D02*
X60314761Y-54022380D01*
X60314761Y-53355714D02*
X59933809Y-53736666D01*
G04 #@! TO.C,R7*
X41722380Y-78276666D02*
X41246190Y-78610000D01*
X41722380Y-78848095D02*
X40722380Y-78848095D01*
X40722380Y-78467142D01*
X40770000Y-78371904D01*
X40817619Y-78324285D01*
X40912857Y-78276666D01*
X41055714Y-78276666D01*
X41150952Y-78324285D01*
X41198571Y-78371904D01*
X41246190Y-78467142D01*
X41246190Y-78848095D01*
X40722380Y-77943333D02*
X40722380Y-77276666D01*
X41722380Y-77705238D01*
X36315714Y-78395714D02*
X36982380Y-78395714D01*
X35934761Y-78633809D02*
X36649047Y-78871904D01*
X36649047Y-78252857D01*
X35982380Y-77967142D02*
X35982380Y-77300476D01*
X36982380Y-77729047D01*
G04 #@! TO.C,R8*
X38522380Y-78276666D02*
X38046190Y-78610000D01*
X38522380Y-78848095D02*
X37522380Y-78848095D01*
X37522380Y-78467142D01*
X37570000Y-78371904D01*
X37617619Y-78324285D01*
X37712857Y-78276666D01*
X37855714Y-78276666D01*
X37950952Y-78324285D01*
X37998571Y-78371904D01*
X38046190Y-78467142D01*
X38046190Y-78848095D01*
X37950952Y-77705238D02*
X37903333Y-77800476D01*
X37855714Y-77848095D01*
X37760476Y-77895714D01*
X37712857Y-77895714D01*
X37617619Y-77848095D01*
X37570000Y-77800476D01*
X37522380Y-77705238D01*
X37522380Y-77514761D01*
X37570000Y-77419523D01*
X37617619Y-77371904D01*
X37712857Y-77324285D01*
X37760476Y-77324285D01*
X37855714Y-77371904D01*
X37903333Y-77419523D01*
X37950952Y-77514761D01*
X37950952Y-77705238D01*
X37998571Y-77800476D01*
X38046190Y-77848095D01*
X38141428Y-77895714D01*
X38331904Y-77895714D01*
X38427142Y-77848095D01*
X38474761Y-77800476D01*
X38522380Y-77705238D01*
X38522380Y-77514761D01*
X38474761Y-77419523D01*
X38427142Y-77371904D01*
X38331904Y-77324285D01*
X38141428Y-77324285D01*
X38046190Y-77371904D01*
X37998571Y-77419523D01*
X37950952Y-77514761D01*
X33115714Y-78395714D02*
X33782380Y-78395714D01*
X32734761Y-78633809D02*
X33449047Y-78871904D01*
X33449047Y-78252857D01*
X32782380Y-77967142D02*
X32782380Y-77300476D01*
X33782380Y-77729047D01*
G04 #@! TO.C,R10*
X73052380Y-83242857D02*
X72576190Y-83576190D01*
X73052380Y-83814285D02*
X72052380Y-83814285D01*
X72052380Y-83433333D01*
X72100000Y-83338095D01*
X72147619Y-83290476D01*
X72242857Y-83242857D01*
X72385714Y-83242857D01*
X72480952Y-83290476D01*
X72528571Y-83338095D01*
X72576190Y-83433333D01*
X72576190Y-83814285D01*
X73052380Y-82290476D02*
X73052380Y-82861904D01*
X73052380Y-82576190D02*
X72052380Y-82576190D01*
X72195238Y-82671428D01*
X72290476Y-82766666D01*
X72338095Y-82861904D01*
X72052380Y-81671428D02*
X72052380Y-81576190D01*
X72100000Y-81480952D01*
X72147619Y-81433333D01*
X72242857Y-81385714D01*
X72433333Y-81338095D01*
X72671428Y-81338095D01*
X72861904Y-81385714D01*
X72957142Y-81433333D01*
X73004761Y-81480952D01*
X73052380Y-81576190D01*
X73052380Y-81671428D01*
X73004761Y-81766666D01*
X72957142Y-81814285D01*
X72861904Y-81861904D01*
X72671428Y-81909523D01*
X72433333Y-81909523D01*
X72242857Y-81861904D01*
X72147619Y-81814285D01*
X72100000Y-81766666D01*
X72052380Y-81671428D01*
X67715714Y-79595714D02*
X68382380Y-79595714D01*
X67334761Y-79833809D02*
X68049047Y-80071904D01*
X68049047Y-79452857D01*
X67382380Y-79167142D02*
X67382380Y-78500476D01*
X68382380Y-78929047D01*
G04 #@! TO.C,SW1*
X44266666Y-59004761D02*
X44409523Y-59052380D01*
X44647619Y-59052380D01*
X44742857Y-59004761D01*
X44790476Y-58957142D01*
X44838095Y-58861904D01*
X44838095Y-58766666D01*
X44790476Y-58671428D01*
X44742857Y-58623809D01*
X44647619Y-58576190D01*
X44457142Y-58528571D01*
X44361904Y-58480952D01*
X44314285Y-58433333D01*
X44266666Y-58338095D01*
X44266666Y-58242857D01*
X44314285Y-58147619D01*
X44361904Y-58100000D01*
X44457142Y-58052380D01*
X44695238Y-58052380D01*
X44838095Y-58100000D01*
X45171428Y-58052380D02*
X45409523Y-59052380D01*
X45600000Y-58338095D01*
X45790476Y-59052380D01*
X46028571Y-58052380D01*
X46933333Y-59052380D02*
X46361904Y-59052380D01*
X46647619Y-59052380D02*
X46647619Y-58052380D01*
X46552380Y-58195238D01*
X46457142Y-58290476D01*
X46361904Y-58338095D01*
G04 #@! TO.C,U1*
X50148095Y-58422380D02*
X50148095Y-59231904D01*
X50195714Y-59327142D01*
X50243333Y-59374761D01*
X50338571Y-59422380D01*
X50529047Y-59422380D01*
X50624285Y-59374761D01*
X50671904Y-59327142D01*
X50719523Y-59231904D01*
X50719523Y-58422380D01*
X51719523Y-59422380D02*
X51148095Y-59422380D01*
X51433809Y-59422380D02*
X51433809Y-58422380D01*
X51338571Y-58565238D01*
X51243333Y-58660476D01*
X51148095Y-58708095D01*
G04 #@! TO.C,R9*
X65282380Y-79476666D02*
X64806190Y-79810000D01*
X65282380Y-80048095D02*
X64282380Y-80048095D01*
X64282380Y-79667142D01*
X64330000Y-79571904D01*
X64377619Y-79524285D01*
X64472857Y-79476666D01*
X64615714Y-79476666D01*
X64710952Y-79524285D01*
X64758571Y-79571904D01*
X64806190Y-79667142D01*
X64806190Y-80048095D01*
X65282380Y-79000476D02*
X65282380Y-78810000D01*
X65234761Y-78714761D01*
X65187142Y-78667142D01*
X65044285Y-78571904D01*
X64853809Y-78524285D01*
X64472857Y-78524285D01*
X64377619Y-78571904D01*
X64330000Y-78619523D01*
X64282380Y-78714761D01*
X64282380Y-78905238D01*
X64330000Y-79000476D01*
X64377619Y-79048095D01*
X64472857Y-79095714D01*
X64710952Y-79095714D01*
X64806190Y-79048095D01*
X64853809Y-79000476D01*
X64901428Y-78905238D01*
X64901428Y-78714761D01*
X64853809Y-78619523D01*
X64806190Y-78571904D01*
X64710952Y-78524285D01*
X69355714Y-79595714D02*
X70022380Y-79595714D01*
X68974761Y-79833809D02*
X69689047Y-80071904D01*
X69689047Y-79452857D01*
X69022380Y-79167142D02*
X69022380Y-78500476D01*
X70022380Y-78929047D01*
G04 #@! TO.C,J2*
X73466666Y-53522380D02*
X73466666Y-54236666D01*
X73419047Y-54379523D01*
X73323809Y-54474761D01*
X73180952Y-54522380D01*
X73085714Y-54522380D01*
X73895238Y-53617619D02*
X73942857Y-53570000D01*
X74038095Y-53522380D01*
X74276190Y-53522380D01*
X74371428Y-53570000D01*
X74419047Y-53617619D01*
X74466666Y-53712857D01*
X74466666Y-53808095D01*
X74419047Y-53950952D01*
X73847619Y-54522380D01*
X74466666Y-54522380D01*
G04 #@! TO.C,R11*
X72052380Y-67732857D02*
X71576190Y-68066190D01*
X72052380Y-68304285D02*
X71052380Y-68304285D01*
X71052380Y-67923333D01*
X71100000Y-67828095D01*
X71147619Y-67780476D01*
X71242857Y-67732857D01*
X71385714Y-67732857D01*
X71480952Y-67780476D01*
X71528571Y-67828095D01*
X71576190Y-67923333D01*
X71576190Y-68304285D01*
X72052380Y-66780476D02*
X72052380Y-67351904D01*
X72052380Y-67066190D02*
X71052380Y-67066190D01*
X71195238Y-67161428D01*
X71290476Y-67256666D01*
X71338095Y-67351904D01*
X72052380Y-65828095D02*
X72052380Y-66399523D01*
X72052380Y-66113809D02*
X71052380Y-66113809D01*
X71195238Y-66209047D01*
X71290476Y-66304285D01*
X71338095Y-66399523D01*
X69852380Y-67695238D02*
X69852380Y-68266666D01*
X69852380Y-67980952D02*
X68852380Y-67980952D01*
X68995238Y-68076190D01*
X69090476Y-68171428D01*
X69138095Y-68266666D01*
X68852380Y-67076190D02*
X68852380Y-66980952D01*
X68900000Y-66885714D01*
X68947619Y-66838095D01*
X69042857Y-66790476D01*
X69233333Y-66742857D01*
X69471428Y-66742857D01*
X69661904Y-66790476D01*
X69757142Y-66838095D01*
X69804761Y-66885714D01*
X69852380Y-66980952D01*
X69852380Y-67076190D01*
X69804761Y-67171428D01*
X69757142Y-67219047D01*
X69661904Y-67266666D01*
X69471428Y-67314285D01*
X69233333Y-67314285D01*
X69042857Y-67266666D01*
X68947619Y-67219047D01*
X68900000Y-67171428D01*
X68852380Y-67076190D01*
X69852380Y-66314285D02*
X68852380Y-66314285D01*
X69471428Y-66219047D02*
X69852380Y-65933333D01*
X69185714Y-65933333D02*
X69566666Y-66314285D01*
G04 #@! TO.C,SW3*
X31766666Y-70434761D02*
X31909523Y-70482380D01*
X32147619Y-70482380D01*
X32242857Y-70434761D01*
X32290476Y-70387142D01*
X32338095Y-70291904D01*
X32338095Y-70196666D01*
X32290476Y-70101428D01*
X32242857Y-70053809D01*
X32147619Y-70006190D01*
X31957142Y-69958571D01*
X31861904Y-69910952D01*
X31814285Y-69863333D01*
X31766666Y-69768095D01*
X31766666Y-69672857D01*
X31814285Y-69577619D01*
X31861904Y-69530000D01*
X31957142Y-69482380D01*
X32195238Y-69482380D01*
X32338095Y-69530000D01*
X32671428Y-69482380D02*
X32909523Y-70482380D01*
X33100000Y-69768095D01*
X33290476Y-70482380D01*
X33528571Y-69482380D01*
X33814285Y-69482380D02*
X34433333Y-69482380D01*
X34100000Y-69863333D01*
X34242857Y-69863333D01*
X34338095Y-69910952D01*
X34385714Y-69958571D01*
X34433333Y-70053809D01*
X34433333Y-70291904D01*
X34385714Y-70387142D01*
X34338095Y-70434761D01*
X34242857Y-70482380D01*
X33957142Y-70482380D01*
X33861904Y-70434761D01*
X33814285Y-70387142D01*
G04 #@! TO.C,SW4*
X72966666Y-70974761D02*
X73109523Y-71022380D01*
X73347619Y-71022380D01*
X73442857Y-70974761D01*
X73490476Y-70927142D01*
X73538095Y-70831904D01*
X73538095Y-70736666D01*
X73490476Y-70641428D01*
X73442857Y-70593809D01*
X73347619Y-70546190D01*
X73157142Y-70498571D01*
X73061904Y-70450952D01*
X73014285Y-70403333D01*
X72966666Y-70308095D01*
X72966666Y-70212857D01*
X73014285Y-70117619D01*
X73061904Y-70070000D01*
X73157142Y-70022380D01*
X73395238Y-70022380D01*
X73538095Y-70070000D01*
X73871428Y-70022380D02*
X74109523Y-71022380D01*
X74300000Y-70308095D01*
X74490476Y-71022380D01*
X74728571Y-70022380D01*
X75538095Y-70355714D02*
X75538095Y-71022380D01*
X75300000Y-69974761D02*
X75061904Y-70689047D01*
X75680952Y-70689047D01*
G04 #@! TD*
%LPC*%
D13*
G04 #@! TO.C,hole2*
X73600000Y-49500000D03*
G04 #@! TD*
G04 #@! TO.C,hole1*
X33600000Y-49500000D03*
G04 #@! TD*
G04 #@! TO.C,hole4*
X73600000Y-89500000D03*
G04 #@! TD*
G04 #@! TO.C,hole3*
X33600000Y-89500000D03*
G04 #@! TD*
D14*
G04 #@! TO.C,SW2*
X53800000Y-73800000D03*
D15*
X46180000Y-81420000D03*
X51260000Y-73800000D03*
X48720000Y-81420000D03*
X48720000Y-73800000D03*
X51260000Y-81420000D03*
X46180000Y-73800000D03*
X53800000Y-81420000D03*
G04 #@! TD*
D16*
G04 #@! TO.C,D1*
X45640000Y-88200000D03*
D17*
X43100000Y-88200000D03*
G04 #@! TD*
G04 #@! TO.C,D2*
X49600000Y-88200000D03*
D16*
X52140000Y-88200000D03*
G04 #@! TD*
G04 #@! TO.C,D3*
X58640000Y-88200000D03*
D17*
X56100000Y-88200000D03*
G04 #@! TD*
G04 #@! TO.C,D4*
X62600000Y-88200000D03*
D16*
X65140000Y-88200000D03*
G04 #@! TD*
D17*
G04 #@! TO.C,D5*
X62100000Y-77400000D03*
D16*
X62100000Y-74860000D03*
G04 #@! TD*
D18*
G04 #@! TO.C,J1*
X40200000Y-51200000D03*
D19*
X40200000Y-53740000D03*
X40200000Y-56280000D03*
G04 #@! TD*
D20*
G04 #@! TO.C,Q1*
X59100000Y-57530000D03*
X59100000Y-56260000D03*
D21*
X59100000Y-58800000D03*
G04 #@! TD*
D22*
G04 #@! TO.C,Q2*
X66100000Y-53500000D03*
D23*
X66100000Y-56040000D03*
X66100000Y-58580000D03*
G04 #@! TD*
D24*
G04 #@! TO.C,R1*
X59200000Y-63300000D03*
D15*
X59200000Y-70920000D03*
G04 #@! TD*
G04 #@! TO.C,R2*
X62400000Y-70920000D03*
D24*
X62400000Y-63300000D03*
G04 #@! TD*
D15*
G04 #@! TO.C,R3*
X65600000Y-70920000D03*
D24*
X65600000Y-63300000D03*
G04 #@! TD*
G04 #@! TO.C,R4*
X39200000Y-69120000D03*
D15*
X39200000Y-61500000D03*
G04 #@! TD*
D24*
G04 #@! TO.C,R5*
X42300000Y-69120000D03*
D15*
X42300000Y-61500000D03*
G04 #@! TD*
G04 #@! TO.C,R6*
X62720000Y-51200000D03*
D24*
X55100000Y-51200000D03*
G04 #@! TD*
G04 #@! TO.C,R7*
X38900000Y-74300000D03*
D15*
X38900000Y-81920000D03*
G04 #@! TD*
G04 #@! TO.C,R8*
X35700000Y-81920000D03*
D24*
X35700000Y-74300000D03*
G04 #@! TD*
G04 #@! TO.C,R10*
X70300000Y-75500000D03*
D15*
X70300000Y-83120000D03*
G04 #@! TD*
D25*
G04 #@! TO.C,SW1*
X52340000Y-50160000D03*
D26*
X52340000Y-55240000D03*
D25*
X44720000Y-50160000D03*
X44720000Y-55240000D03*
X44720000Y-52700000D03*
G04 #@! TD*
D14*
G04 #@! TO.C,U1*
X47100000Y-61300000D03*
D15*
X54720000Y-68920000D03*
X47100000Y-63840000D03*
X54720000Y-66380000D03*
X47100000Y-66380000D03*
X54720000Y-63840000D03*
X47100000Y-68920000D03*
X54720000Y-61300000D03*
G04 #@! TD*
D24*
G04 #@! TO.C,R9*
X67200000Y-83120000D03*
D15*
X67200000Y-75500000D03*
G04 #@! TD*
D18*
G04 #@! TO.C,J2*
X73800000Y-56400000D03*
D19*
X73800000Y-58940000D03*
X73800000Y-61480000D03*
X73800000Y-64020000D03*
X73800000Y-66560000D03*
G04 #@! TD*
D24*
G04 #@! TO.C,R11*
X69400000Y-70900000D03*
D15*
X69400000Y-63280000D03*
G04 #@! TD*
D18*
G04 #@! TO.C,SW3*
X33100000Y-67700000D03*
D19*
X33100000Y-65160000D03*
X33100000Y-62620000D03*
G04 #@! TD*
G04 #@! TO.C,SW4*
X74300000Y-77980000D03*
X74300000Y-75440000D03*
D18*
X74300000Y-72900000D03*
G04 #@! TD*
M02*
