G04 #@! TF.GenerationSoftware,KiCad,Pcbnew,(5.0.0)*
G04 #@! TF.CreationDate,2019-09-04T21:05:25+09:00*
G04 #@! TF.ProjectId,ir_send_mod,69725F73656E645F6D6F642E6B696361,rev?*
G04 #@! TF.SameCoordinates,Original*
G04 #@! TF.FileFunction,Copper,L2,Bot,Signal*
G04 #@! TF.FilePolarity,Positive*
%FSLAX46Y46*%
G04 Gerber Fmt 4.6, Leading zero omitted, Abs format (unit mm)*
G04 Created by KiCad (PCBNEW (5.0.0)) date 09/04/19 21:05:25*
%MOMM*%
%LPD*%
G01*
G04 APERTURE LIST*
G04 #@! TA.AperFunction,ComponentPad*
%ADD10C,1.800000*%
G04 #@! TD*
G04 #@! TA.AperFunction,ComponentPad*
%ADD11R,1.800000X1.800000*%
G04 #@! TD*
G04 #@! TA.AperFunction,ComponentPad*
%ADD12O,1.050000X1.500000*%
G04 #@! TD*
G04 #@! TA.AperFunction,ComponentPad*
%ADD13R,1.050000X1.500000*%
G04 #@! TD*
G04 #@! TA.AperFunction,ComponentPad*
%ADD14R,2.000000X1.905000*%
G04 #@! TD*
G04 #@! TA.AperFunction,ComponentPad*
%ADD15O,2.000000X1.905000*%
G04 #@! TD*
G04 #@! TA.AperFunction,ComponentPad*
%ADD16C,1.600000*%
G04 #@! TD*
G04 #@! TA.AperFunction,ComponentPad*
%ADD17O,1.600000X1.600000*%
G04 #@! TD*
G04 #@! TA.AperFunction,ComponentPad*
%ADD18C,1.524000*%
G04 #@! TD*
G04 #@! TA.AperFunction,ComponentPad*
%ADD19R,1.524000X1.524000*%
G04 #@! TD*
G04 #@! TA.AperFunction,ComponentPad*
%ADD20R,1.600000X1.600000*%
G04 #@! TD*
G04 #@! TA.AperFunction,ComponentPad*
%ADD21R,1.700000X1.700000*%
G04 #@! TD*
G04 #@! TA.AperFunction,ComponentPad*
%ADD22O,1.700000X1.700000*%
G04 #@! TD*
G04 #@! TA.AperFunction,ViaPad*
%ADD23C,0.800000*%
G04 #@! TD*
G04 #@! TA.AperFunction,Conductor*
%ADD24C,0.250000*%
G04 #@! TD*
G04 #@! TA.AperFunction,Conductor*
%ADD25C,0.400000*%
G04 #@! TD*
G04 #@! TA.AperFunction,Conductor*
%ADD26C,0.254000*%
G04 #@! TD*
G04 APERTURE END LIST*
D10*
G04 #@! TO.P,D1,2*
G04 #@! TO.N,Net-(D1-Pad2)*
X36740000Y-131800000D03*
D11*
G04 #@! TO.P,D1,1*
G04 #@! TO.N,GND*
X34200000Y-131800000D03*
G04 #@! TD*
G04 #@! TO.P,D2,1*
G04 #@! TO.N,GND*
X40700000Y-131800000D03*
D10*
G04 #@! TO.P,D2,2*
G04 #@! TO.N,Net-(D2-Pad2)*
X43240000Y-131800000D03*
G04 #@! TD*
G04 #@! TO.P,D3,2*
G04 #@! TO.N,Net-(D3-Pad2)*
X49740000Y-131800000D03*
D11*
G04 #@! TO.P,D3,1*
G04 #@! TO.N,GND*
X47200000Y-131800000D03*
G04 #@! TD*
G04 #@! TO.P,D4,1*
G04 #@! TO.N,GND*
X53700000Y-131800000D03*
D10*
G04 #@! TO.P,D4,2*
G04 #@! TO.N,Net-(D4-Pad2)*
X56240000Y-131800000D03*
G04 #@! TD*
D11*
G04 #@! TO.P,D5,1*
G04 #@! TO.N,GND*
X55450000Y-100050000D03*
D10*
G04 #@! TO.P,D5,2*
G04 #@! TO.N,Net-(D5-Pad2)*
X57990000Y-100050000D03*
G04 #@! TD*
D12*
G04 #@! TO.P,Q1,2*
G04 #@! TO.N,Net-(Q1-Pad2)*
X55370000Y-110550000D03*
G04 #@! TO.P,Q1,3*
G04 #@! TO.N,Net-(Q1-Pad3)*
X56640000Y-110550000D03*
D13*
G04 #@! TO.P,Q1,1*
G04 #@! TO.N,GND*
X54100000Y-110550000D03*
G04 #@! TD*
D14*
G04 #@! TO.P,Q2,1*
G04 #@! TO.N,Net-(Q1-Pad3)*
X54400000Y-116750000D03*
D15*
G04 #@! TO.P,Q2,2*
G04 #@! TO.N,Net-(D5-Pad2)*
X54400000Y-119290000D03*
G04 #@! TO.P,Q2,3*
G04 #@! TO.N,5V*
X54400000Y-121830000D03*
G04 #@! TD*
D16*
G04 #@! TO.P,R1,1*
G04 #@! TO.N,Net-(R1-Pad1)*
X33650000Y-83250000D03*
D17*
G04 #@! TO.P,R1,2*
G04 #@! TO.N,GND*
X33650000Y-90870000D03*
G04 #@! TD*
G04 #@! TO.P,R2,2*
G04 #@! TO.N,GND*
X36850000Y-90870000D03*
D16*
G04 #@! TO.P,R2,1*
G04 #@! TO.N,Net-(J1-Pad5)*
X36850000Y-83250000D03*
G04 #@! TD*
D17*
G04 #@! TO.P,R3,2*
G04 #@! TO.N,GND*
X40050000Y-90870000D03*
D16*
G04 #@! TO.P,R3,1*
G04 #@! TO.N,Net-(J1-Pad4)*
X40050000Y-83250000D03*
G04 #@! TD*
G04 #@! TO.P,R4,1*
G04 #@! TO.N,Net-(R4-Pad1)*
X38200000Y-103820000D03*
D17*
G04 #@! TO.P,R4,2*
G04 #@! TO.N,Net-(J1-Pad1)*
X38200000Y-96200000D03*
G04 #@! TD*
D16*
G04 #@! TO.P,R5,1*
G04 #@! TO.N,Net-(Q1-Pad2)*
X49650000Y-118100000D03*
D17*
G04 #@! TO.P,R5,2*
G04 #@! TO.N,Net-(R5-Pad2)*
X49650000Y-125720000D03*
G04 #@! TD*
G04 #@! TO.P,R6,2*
G04 #@! TO.N,Net-(J1-Pad1)*
X43250000Y-90870000D03*
D16*
G04 #@! TO.P,R6,1*
G04 #@! TO.N,GND*
X43250000Y-83250000D03*
G04 #@! TD*
G04 #@! TO.P,R7,1*
G04 #@! TO.N,5V*
X46500000Y-118100000D03*
D17*
G04 #@! TO.P,R7,2*
G04 #@! TO.N,Net-(Q1-Pad3)*
X46500000Y-125720000D03*
G04 #@! TD*
G04 #@! TO.P,R8,2*
G04 #@! TO.N,Net-(D1-Pad2)*
X32400000Y-125670000D03*
D16*
G04 #@! TO.P,R8,1*
G04 #@! TO.N,Net-(R8-Pad1)*
X32400000Y-118050000D03*
G04 #@! TD*
G04 #@! TO.P,R10,1*
G04 #@! TO.N,Net-(R10-Pad1)*
X38650000Y-118050000D03*
D17*
G04 #@! TO.P,R10,2*
G04 #@! TO.N,Net-(D3-Pad2)*
X38650000Y-125670000D03*
G04 #@! TD*
D18*
G04 #@! TO.P,SW1,2*
G04 #@! TO.N,Net-(J1-Pad5)*
X57290000Y-84460000D03*
D19*
G04 #@! TO.P,SW1,1*
G04 #@! TO.N,Net-(J1-Pad4)*
X57290000Y-89540000D03*
D18*
G04 #@! TO.P,SW1,8*
G04 #@! TO.N,Net-(J1-Pad1)*
X49670000Y-84460000D03*
G04 #@! TO.P,SW1,4*
G04 #@! TO.N,Net-(R1-Pad1)*
X49670000Y-89540000D03*
G04 #@! TO.P,SW1,C*
G04 #@! TO.N,5V*
X49670000Y-87000000D03*
G04 #@! TD*
D20*
G04 #@! TO.P,U1,1*
G04 #@! TO.N,5V*
X42950000Y-95750000D03*
D17*
G04 #@! TO.P,U1,5*
G04 #@! TO.N,Net-(R1-Pad1)*
X50570000Y-103370000D03*
G04 #@! TO.P,U1,2*
G04 #@! TO.N,Net-(R5-Pad2)*
X42950000Y-98290000D03*
G04 #@! TO.P,U1,6*
G04 #@! TO.N,Net-(J1-Pad5)*
X50570000Y-100830000D03*
G04 #@! TO.P,U1,3*
G04 #@! TO.N,Net-(J2-Pad3)*
X42950000Y-100830000D03*
G04 #@! TO.P,U1,7*
G04 #@! TO.N,Net-(J1-Pad4)*
X50570000Y-98290000D03*
G04 #@! TO.P,U1,4*
G04 #@! TO.N,Net-(J1-Pad1)*
X42950000Y-103370000D03*
G04 #@! TO.P,U1,8*
G04 #@! TO.N,GND*
X50570000Y-95750000D03*
G04 #@! TD*
D16*
G04 #@! TO.P,R9,1*
G04 #@! TO.N,Net-(R9-Pad1)*
X35550000Y-118050000D03*
D17*
G04 #@! TO.P,R9,2*
G04 #@! TO.N,Net-(D2-Pad2)*
X35550000Y-125670000D03*
G04 #@! TD*
D16*
G04 #@! TO.P,R11,1*
G04 #@! TO.N,Net-(R11-Pad1)*
X41750000Y-118050000D03*
D17*
G04 #@! TO.P,R11,2*
G04 #@! TO.N,Net-(D4-Pad2)*
X41750000Y-125670000D03*
G04 #@! TD*
D21*
G04 #@! TO.P,SW3,1*
G04 #@! TO.N,N/C*
X33150000Y-102450000D03*
D22*
G04 #@! TO.P,SW3,2*
G04 #@! TO.N,5V*
X33150000Y-99910000D03*
G04 #@! TO.P,SW3,3*
G04 #@! TO.N,Net-(R4-Pad1)*
X33150000Y-97370000D03*
G04 #@! TD*
D21*
G04 #@! TO.P,J1,1*
G04 #@! TO.N,Net-(J1-Pad1)*
X50300000Y-68550000D03*
D22*
G04 #@! TO.P,J1,2*
G04 #@! TO.N,5V*
X47760000Y-68550000D03*
G04 #@! TO.P,J1,3*
G04 #@! TO.N,GND*
X45220000Y-68550000D03*
G04 #@! TO.P,J1,4*
G04 #@! TO.N,Net-(J1-Pad4)*
X42680000Y-68550000D03*
G04 #@! TO.P,J1,5*
G04 #@! TO.N,Net-(J1-Pad5)*
X40140000Y-68550000D03*
G04 #@! TD*
D21*
G04 #@! TO.P,J2,1*
G04 #@! TO.N,5V*
X47750000Y-49750000D03*
D22*
G04 #@! TO.P,J2,2*
G04 #@! TO.N,GND*
X45210000Y-49750000D03*
G04 #@! TO.P,J2,3*
G04 #@! TO.N,Net-(J2-Pad3)*
X42670000Y-49750000D03*
G04 #@! TD*
G04 #@! TO.P,SW2,3*
G04 #@! TO.N,5V*
X47730000Y-76700000D03*
G04 #@! TO.P,SW2,2*
G04 #@! TO.N,Net-(R5-Pad2)*
X45190000Y-76700000D03*
D21*
G04 #@! TO.P,SW2,1*
G04 #@! TO.N,N/C*
X42650000Y-76700000D03*
G04 #@! TD*
D20*
G04 #@! TO.P,SW4,1*
G04 #@! TO.N,Net-(D5-Pad2)*
X45000000Y-107150000D03*
D17*
G04 #@! TO.P,SW4,5*
G04 #@! TO.N,Net-(R8-Pad1)*
X37380000Y-114770000D03*
G04 #@! TO.P,SW4,2*
G04 #@! TO.N,Net-(D5-Pad2)*
X42460000Y-107150000D03*
G04 #@! TO.P,SW4,6*
G04 #@! TO.N,Net-(R9-Pad1)*
X39920000Y-114770000D03*
G04 #@! TO.P,SW4,3*
G04 #@! TO.N,Net-(D5-Pad2)*
X39920000Y-107150000D03*
G04 #@! TO.P,SW4,7*
G04 #@! TO.N,Net-(R10-Pad1)*
X42460000Y-114770000D03*
G04 #@! TO.P,SW4,4*
G04 #@! TO.N,Net-(D5-Pad2)*
X37380000Y-107150000D03*
G04 #@! TO.P,SW4,8*
G04 #@! TO.N,Net-(R11-Pad1)*
X45000000Y-114770000D03*
G04 #@! TD*
D23*
G04 #@! TO.N,5V*
X47578100Y-91986600D03*
G04 #@! TD*
D24*
G04 #@! TO.N,Net-(D1-Pad2)*
X32400000Y-125670000D02*
X32400000Y-126795300D01*
X32400000Y-126795300D02*
X36740000Y-131135300D01*
X36740000Y-131135300D02*
X36740000Y-131800000D01*
D25*
G04 #@! TO.N,GND*
X54100000Y-110550000D02*
X53174700Y-110550000D01*
X52161100Y-104639200D02*
X50063300Y-104639200D01*
X50063300Y-104639200D02*
X47800800Y-102376700D01*
X47800800Y-102376700D02*
X47800800Y-101436200D01*
X47800800Y-101436200D02*
X43315000Y-96950400D01*
X43315000Y-96950400D02*
X41962200Y-96950400D01*
X41962200Y-96950400D02*
X40050000Y-95038200D01*
X40050000Y-95038200D02*
X40050000Y-90870000D01*
X55450000Y-101350300D02*
X52161100Y-104639200D01*
X52161100Y-104639200D02*
X52161100Y-109536400D01*
X52161100Y-109536400D02*
X53174700Y-110550000D01*
X55450000Y-100050000D02*
X55450000Y-101350300D01*
X40050000Y-90569900D02*
X40050000Y-90870000D01*
X40050000Y-90569900D02*
X40050000Y-90269800D01*
X36850000Y-90870000D02*
X38050300Y-90870000D01*
X40050000Y-90269800D02*
X38650500Y-90269800D01*
X38650500Y-90269800D02*
X38050300Y-90870000D01*
X40050000Y-90269800D02*
X40050000Y-89669700D01*
X43250000Y-83250000D02*
X43250000Y-86469700D01*
X43250000Y-86469700D02*
X40050000Y-89669700D01*
X53700000Y-131800000D02*
X52399700Y-131800000D01*
X52399700Y-131800000D02*
X51099300Y-133100400D01*
X51099300Y-133100400D02*
X48500400Y-133100400D01*
X48500400Y-133100400D02*
X47200000Y-131800000D01*
X40700000Y-131800000D02*
X39399700Y-131800000D01*
X39399700Y-131800000D02*
X38075300Y-133124400D01*
X38075300Y-133124400D02*
X35524400Y-133124400D01*
X35524400Y-133124400D02*
X34200000Y-131800000D01*
X40700000Y-131800000D02*
X42000300Y-133100300D01*
X42000300Y-133100300D02*
X44599400Y-133100300D01*
X44599400Y-133100300D02*
X45899700Y-131800000D01*
X47200000Y-131800000D02*
X45899700Y-131800000D01*
X36850000Y-90870000D02*
X33650000Y-90870000D01*
X45220000Y-68550000D02*
X45220000Y-67299700D01*
X45210000Y-49750000D02*
X45210000Y-67289700D01*
X45210000Y-67289700D02*
X45220000Y-67299700D01*
D24*
G04 #@! TO.N,Net-(D2-Pad2)*
X36675300Y-125670000D02*
X38250900Y-127245600D01*
X38250900Y-127245600D02*
X38685600Y-127245600D01*
X38685600Y-127245600D02*
X43240000Y-131800000D01*
X35550000Y-125670000D02*
X36675300Y-125670000D01*
G04 #@! TO.N,Net-(D3-Pad2)*
X38650000Y-125670000D02*
X39775300Y-125670000D01*
X39775300Y-125670000D02*
X44578200Y-130472900D01*
X44578200Y-130472900D02*
X48412900Y-130472900D01*
X48412900Y-130472900D02*
X49740000Y-131800000D01*
G04 #@! TO.N,Net-(D4-Pad2)*
X56240000Y-131800000D02*
X52799200Y-128359200D01*
X52799200Y-128359200D02*
X45564500Y-128359200D01*
X45564500Y-128359200D02*
X42875300Y-125670000D01*
X41750000Y-125670000D02*
X42875300Y-125670000D01*
G04 #@! TO.N,Net-(D5-Pad2)*
X42460000Y-107150000D02*
X45000000Y-107150000D01*
X39920000Y-107150000D02*
X42460000Y-107150000D01*
X37380000Y-107150000D02*
X39920000Y-107150000D01*
G04 #@! TO.N,Net-(Q1-Pad2)*
X49650000Y-118100000D02*
X55370000Y-112380000D01*
X55370000Y-112380000D02*
X55370000Y-110550000D01*
G04 #@! TO.N,Net-(Q1-Pad3)*
X54400000Y-116750000D02*
X54400000Y-115472200D01*
X54400000Y-115472200D02*
X56640000Y-113232200D01*
X56640000Y-113232200D02*
X56640000Y-110550000D01*
X47625300Y-125720000D02*
X48785100Y-126879800D01*
X48785100Y-126879800D02*
X50082800Y-126879800D01*
X50082800Y-126879800D02*
X52233300Y-124729300D01*
X52233300Y-124729300D02*
X52233300Y-118916700D01*
X52233300Y-118916700D02*
X54400000Y-116750000D01*
X46500000Y-125720000D02*
X47625300Y-125720000D01*
G04 #@! TO.N,Net-(R1-Pad1)*
X33650000Y-83250000D02*
X35250700Y-84850700D01*
X35250700Y-84850700D02*
X40835200Y-84850700D01*
X40835200Y-84850700D02*
X41703200Y-83982700D01*
X41703200Y-83982700D02*
X41703200Y-83195500D01*
X41703200Y-83195500D02*
X42775900Y-82122800D01*
X42775900Y-82122800D02*
X43746600Y-82122800D01*
X43746600Y-82122800D02*
X45792800Y-84169000D01*
X45792800Y-84169000D02*
X45792800Y-85662900D01*
X45792800Y-85662900D02*
X45792900Y-85662900D01*
X45792900Y-85662900D02*
X49670000Y-89540000D01*
X50570000Y-103370000D02*
X50570000Y-102244700D01*
X50570000Y-102244700D02*
X50288700Y-102244700D01*
X50288700Y-102244700D02*
X48958800Y-100914800D01*
X48958800Y-100914800D02*
X48958800Y-90251200D01*
X48958800Y-90251200D02*
X49670000Y-89540000D01*
G04 #@! TO.N,Net-(R8-Pad1)*
X37380000Y-114770000D02*
X35680000Y-114770000D01*
X35680000Y-114770000D02*
X32400000Y-118050000D01*
G04 #@! TO.N,Net-(R9-Pad1)*
X39920000Y-114770000D02*
X38794700Y-114770000D01*
X38794700Y-114770000D02*
X38794700Y-115077800D01*
X38794700Y-115077800D02*
X35822500Y-118050000D01*
X35822500Y-118050000D02*
X35550000Y-118050000D01*
G04 #@! TO.N,Net-(R10-Pad1)*
X42460000Y-114770000D02*
X41334700Y-114770000D01*
X41334700Y-114770000D02*
X41334700Y-115365300D01*
X41334700Y-115365300D02*
X38650000Y-118050000D01*
G04 #@! TO.N,Net-(R11-Pad1)*
X45000000Y-114770000D02*
X45000000Y-115895300D01*
X45000000Y-115895300D02*
X43904700Y-115895300D01*
X43904700Y-115895300D02*
X41750000Y-118050000D01*
D25*
G04 #@! TO.N,5V*
X44150300Y-95750000D02*
X44150300Y-95414400D01*
X44150300Y-95414400D02*
X47578100Y-91986600D01*
X42950000Y-95750000D02*
X44150300Y-95750000D01*
X47730000Y-76700000D02*
X47730000Y-85060000D01*
X47730000Y-85060000D02*
X49670000Y-87000000D01*
D24*
G04 #@! TO.N,Net-(J1-Pad1)*
X38200000Y-96200000D02*
X38200000Y-97325300D01*
X38200000Y-97325300D02*
X38200000Y-97776000D01*
X38200000Y-97776000D02*
X42668700Y-102244700D01*
X42668700Y-102244700D02*
X42950000Y-102244700D01*
X42950000Y-103370000D02*
X42950000Y-102244700D01*
G04 #@! TO.N,Net-(J1-Pad4)*
X57290000Y-89540000D02*
X57290000Y-88452700D01*
X42680000Y-68550000D02*
X43855300Y-68550000D01*
X43855300Y-68550000D02*
X43855300Y-69436400D01*
X43855300Y-69436400D02*
X58377300Y-83958400D01*
X58377300Y-83958400D02*
X58377300Y-87365400D01*
X58377300Y-87365400D02*
X57290000Y-88452700D01*
X50570000Y-98290000D02*
X50570000Y-97164700D01*
X57290000Y-89540000D02*
X57290000Y-90726000D01*
X57290000Y-90726000D02*
X50851300Y-97164700D01*
X50851300Y-97164700D02*
X50570000Y-97164700D01*
G04 #@! TO.N,Net-(J1-Pad5)*
X50767500Y-88174000D02*
X53576000Y-88174000D01*
X53576000Y-88174000D02*
X57290000Y-84460000D01*
X41198700Y-81670200D02*
X43931000Y-81670200D01*
X43931000Y-81670200D02*
X46297700Y-84036900D01*
X46297700Y-84036900D02*
X46297700Y-85197700D01*
X46297700Y-85197700D02*
X49274000Y-88174000D01*
X49274000Y-88174000D02*
X50767500Y-88174000D01*
X50570000Y-99704700D02*
X50288700Y-99704700D01*
X50288700Y-99704700D02*
X49409200Y-98825200D01*
X49409200Y-98825200D02*
X49409200Y-93072900D01*
X49409200Y-93072900D02*
X50767500Y-91714600D01*
X50767500Y-91714600D02*
X50767500Y-88174000D01*
X50570000Y-100830000D02*
X50570000Y-99704700D01*
X41198700Y-81670200D02*
X41198700Y-83757000D01*
X41198700Y-83757000D02*
X40555400Y-84400300D01*
X40555400Y-84400300D02*
X38000300Y-84400300D01*
X38000300Y-84400300D02*
X36850000Y-83250000D01*
X40140000Y-69725300D02*
X41198700Y-70784000D01*
X41198700Y-70784000D02*
X41198700Y-81670200D01*
X40140000Y-68550000D02*
X40140000Y-69725300D01*
G04 #@! TO.N,Net-(R4-Pad1)*
X33150000Y-97370000D02*
X33150000Y-98545300D01*
X33150000Y-98545300D02*
X33517300Y-98545300D01*
X33517300Y-98545300D02*
X38200000Y-103228000D01*
X38200000Y-103228000D02*
X38200000Y-103820000D01*
G04 #@! TO.N,Net-(R5-Pad2)*
X42950000Y-98290000D02*
X42950000Y-99415300D01*
X49650000Y-125720000D02*
X49650000Y-124594700D01*
X42950000Y-99415300D02*
X43231300Y-99415300D01*
X43231300Y-99415300D02*
X48524700Y-104708700D01*
X48524700Y-104708700D02*
X48524700Y-123469400D01*
X48524700Y-123469400D02*
X49650000Y-124594700D01*
G04 #@! TD*
D26*
G04 #@! TO.N,GND*
G36*
X61090000Y-143990000D02*
X29310000Y-143990000D01*
X29310000Y-139255431D01*
X31365000Y-139255431D01*
X31365000Y-140144569D01*
X31705259Y-140966026D01*
X32333974Y-141594741D01*
X33155431Y-141935000D01*
X34044569Y-141935000D01*
X34866026Y-141594741D01*
X35494741Y-140966026D01*
X35835000Y-140144569D01*
X35835000Y-139255431D01*
X54565000Y-139255431D01*
X54565000Y-140144569D01*
X54905259Y-140966026D01*
X55533974Y-141594741D01*
X56355431Y-141935000D01*
X57244569Y-141935000D01*
X58066026Y-141594741D01*
X58694741Y-140966026D01*
X59035000Y-140144569D01*
X59035000Y-139255431D01*
X58694741Y-138433974D01*
X58066026Y-137805259D01*
X57244569Y-137465000D01*
X56355431Y-137465000D01*
X55533974Y-137805259D01*
X54905259Y-138433974D01*
X54565000Y-139255431D01*
X35835000Y-139255431D01*
X35494741Y-138433974D01*
X34866026Y-137805259D01*
X34044569Y-137465000D01*
X33155431Y-137465000D01*
X32333974Y-137805259D01*
X31705259Y-138433974D01*
X31365000Y-139255431D01*
X29310000Y-139255431D01*
X29310000Y-132085750D01*
X32665000Y-132085750D01*
X32665000Y-132826310D01*
X32761673Y-133059699D01*
X32940302Y-133238327D01*
X33173691Y-133335000D01*
X33914250Y-133335000D01*
X34073000Y-133176250D01*
X34073000Y-131927000D01*
X32823750Y-131927000D01*
X32665000Y-132085750D01*
X29310000Y-132085750D01*
X29310000Y-130773690D01*
X32665000Y-130773690D01*
X32665000Y-131514250D01*
X32823750Y-131673000D01*
X34073000Y-131673000D01*
X34073000Y-130423750D01*
X33914250Y-130265000D01*
X33173691Y-130265000D01*
X32940302Y-130361673D01*
X32761673Y-130540301D01*
X32665000Y-130773690D01*
X29310000Y-130773690D01*
X29310000Y-125670000D01*
X30936887Y-125670000D01*
X31048260Y-126229909D01*
X31365423Y-126704577D01*
X31644106Y-126890787D01*
X31684097Y-127091837D01*
X31852072Y-127343229D01*
X31915528Y-127385629D01*
X34794898Y-130265000D01*
X34485750Y-130265000D01*
X34327000Y-130423750D01*
X34327000Y-131673000D01*
X34347000Y-131673000D01*
X34347000Y-131927000D01*
X34327000Y-131927000D01*
X34327000Y-133176250D01*
X34485750Y-133335000D01*
X35226309Y-133335000D01*
X35459698Y-133238327D01*
X35638327Y-133059699D01*
X35694139Y-132924956D01*
X35870493Y-133101310D01*
X36434670Y-133335000D01*
X37045330Y-133335000D01*
X37609507Y-133101310D01*
X38041310Y-132669507D01*
X38275000Y-132105330D01*
X38275000Y-132085750D01*
X39165000Y-132085750D01*
X39165000Y-132826310D01*
X39261673Y-133059699D01*
X39440302Y-133238327D01*
X39673691Y-133335000D01*
X40414250Y-133335000D01*
X40573000Y-133176250D01*
X40573000Y-131927000D01*
X39323750Y-131927000D01*
X39165000Y-132085750D01*
X38275000Y-132085750D01*
X38275000Y-131494670D01*
X38041310Y-130930493D01*
X37609507Y-130498690D01*
X37045330Y-130265000D01*
X36944502Y-130265000D01*
X33404305Y-126724804D01*
X33434577Y-126704577D01*
X33751740Y-126229909D01*
X33863113Y-125670000D01*
X33751740Y-125110091D01*
X33434577Y-124635423D01*
X32959909Y-124318260D01*
X32541333Y-124235000D01*
X32258667Y-124235000D01*
X31840091Y-124318260D01*
X31365423Y-124635423D01*
X31048260Y-125110091D01*
X30936887Y-125670000D01*
X29310000Y-125670000D01*
X29310000Y-117764561D01*
X30965000Y-117764561D01*
X30965000Y-118335439D01*
X31183466Y-118862862D01*
X31587138Y-119266534D01*
X32114561Y-119485000D01*
X32685439Y-119485000D01*
X33212862Y-119266534D01*
X33616534Y-118862862D01*
X33835000Y-118335439D01*
X33835000Y-117764561D01*
X33813103Y-117711698D01*
X35994803Y-115530000D01*
X36161957Y-115530000D01*
X36345423Y-115804577D01*
X36733690Y-116064009D01*
X36080989Y-116716710D01*
X35835439Y-116615000D01*
X35264561Y-116615000D01*
X34737138Y-116833466D01*
X34333466Y-117237138D01*
X34115000Y-117764561D01*
X34115000Y-118335439D01*
X34333466Y-118862862D01*
X34737138Y-119266534D01*
X35264561Y-119485000D01*
X35835439Y-119485000D01*
X36362862Y-119266534D01*
X36766534Y-118862862D01*
X36985000Y-118335439D01*
X36985000Y-117962301D01*
X37237811Y-117709490D01*
X37215000Y-117764561D01*
X37215000Y-118335439D01*
X37433466Y-118862862D01*
X37837138Y-119266534D01*
X38364561Y-119485000D01*
X38935439Y-119485000D01*
X39462862Y-119266534D01*
X39866534Y-118862862D01*
X40085000Y-118335439D01*
X40085000Y-117764561D01*
X40063103Y-117711698D01*
X40530498Y-117244304D01*
X40315000Y-117764561D01*
X40315000Y-118335439D01*
X40533466Y-118862862D01*
X40937138Y-119266534D01*
X41464561Y-119485000D01*
X42035439Y-119485000D01*
X42562862Y-119266534D01*
X42966534Y-118862862D01*
X43185000Y-118335439D01*
X43185000Y-117764561D01*
X43163103Y-117711698D01*
X44219502Y-116655300D01*
X44925148Y-116655300D01*
X45000000Y-116670189D01*
X45296537Y-116611204D01*
X45547929Y-116443229D01*
X45715904Y-116191837D01*
X45755896Y-115990786D01*
X46034577Y-115804577D01*
X46351740Y-115329909D01*
X46463113Y-114770000D01*
X46351740Y-114210091D01*
X46034577Y-113735423D01*
X45559909Y-113418260D01*
X45141333Y-113335000D01*
X44858667Y-113335000D01*
X44440091Y-113418260D01*
X43965423Y-113735423D01*
X43730000Y-114087758D01*
X43494577Y-113735423D01*
X43019909Y-113418260D01*
X42601333Y-113335000D01*
X42318667Y-113335000D01*
X41900091Y-113418260D01*
X41425423Y-113735423D01*
X41239214Y-114014104D01*
X41152333Y-114031386D01*
X40954577Y-113735423D01*
X40479909Y-113418260D01*
X40061333Y-113335000D01*
X39778667Y-113335000D01*
X39360091Y-113418260D01*
X38885423Y-113735423D01*
X38699214Y-114014104D01*
X38612333Y-114031386D01*
X38414577Y-113735423D01*
X37939909Y-113418260D01*
X37521333Y-113335000D01*
X37238667Y-113335000D01*
X36820091Y-113418260D01*
X36345423Y-113735423D01*
X36161957Y-114010000D01*
X35754846Y-114010000D01*
X35679999Y-113995112D01*
X35605152Y-114010000D01*
X35605148Y-114010000D01*
X35383463Y-114054096D01*
X35383461Y-114054097D01*
X35383462Y-114054097D01*
X35195526Y-114179671D01*
X35195524Y-114179673D01*
X35132071Y-114222071D01*
X35089673Y-114285524D01*
X32738302Y-116636897D01*
X32685439Y-116615000D01*
X32114561Y-116615000D01*
X31587138Y-116833466D01*
X31183466Y-117237138D01*
X30965000Y-117764561D01*
X29310000Y-117764561D01*
X29310000Y-107150000D01*
X35916887Y-107150000D01*
X36028260Y-107709909D01*
X36345423Y-108184577D01*
X36820091Y-108501740D01*
X37238667Y-108585000D01*
X37521333Y-108585000D01*
X37939909Y-108501740D01*
X38414577Y-108184577D01*
X38598043Y-107910000D01*
X38701957Y-107910000D01*
X38885423Y-108184577D01*
X39360091Y-108501740D01*
X39778667Y-108585000D01*
X40061333Y-108585000D01*
X40479909Y-108501740D01*
X40954577Y-108184577D01*
X41138043Y-107910000D01*
X41241957Y-107910000D01*
X41425423Y-108184577D01*
X41900091Y-108501740D01*
X42318667Y-108585000D01*
X42601333Y-108585000D01*
X43019909Y-108501740D01*
X43494577Y-108184577D01*
X43575215Y-108063894D01*
X43601843Y-108197765D01*
X43742191Y-108407809D01*
X43952235Y-108548157D01*
X44200000Y-108597440D01*
X45800000Y-108597440D01*
X46047765Y-108548157D01*
X46257809Y-108407809D01*
X46398157Y-108197765D01*
X46447440Y-107950000D01*
X46447440Y-106350000D01*
X46398157Y-106102235D01*
X46257809Y-105892191D01*
X46047765Y-105751843D01*
X45800000Y-105702560D01*
X44200000Y-105702560D01*
X43952235Y-105751843D01*
X43742191Y-105892191D01*
X43601843Y-106102235D01*
X43575215Y-106236106D01*
X43494577Y-106115423D01*
X43019909Y-105798260D01*
X42601333Y-105715000D01*
X42318667Y-105715000D01*
X41900091Y-105798260D01*
X41425423Y-106115423D01*
X41241957Y-106390000D01*
X41138043Y-106390000D01*
X40954577Y-106115423D01*
X40479909Y-105798260D01*
X40061333Y-105715000D01*
X39778667Y-105715000D01*
X39360091Y-105798260D01*
X38885423Y-106115423D01*
X38701957Y-106390000D01*
X38598043Y-106390000D01*
X38414577Y-106115423D01*
X37939909Y-105798260D01*
X37521333Y-105715000D01*
X37238667Y-105715000D01*
X36820091Y-105798260D01*
X36345423Y-106115423D01*
X36028260Y-106590091D01*
X35916887Y-107150000D01*
X29310000Y-107150000D01*
X29310000Y-97370000D01*
X31635908Y-97370000D01*
X31751161Y-97949418D01*
X32079375Y-98440625D01*
X32377761Y-98640000D01*
X32079375Y-98839375D01*
X31751161Y-99330582D01*
X31635908Y-99910000D01*
X31751161Y-100489418D01*
X32079375Y-100980625D01*
X32097619Y-100992816D01*
X32052235Y-101001843D01*
X31842191Y-101142191D01*
X31701843Y-101352235D01*
X31652560Y-101600000D01*
X31652560Y-103300000D01*
X31701843Y-103547765D01*
X31842191Y-103757809D01*
X32052235Y-103898157D01*
X32300000Y-103947440D01*
X34000000Y-103947440D01*
X34247765Y-103898157D01*
X34457809Y-103757809D01*
X34598157Y-103547765D01*
X34647440Y-103300000D01*
X34647440Y-101600000D01*
X34598157Y-101352235D01*
X34457809Y-101142191D01*
X34247765Y-101001843D01*
X34202381Y-100992816D01*
X34220625Y-100980625D01*
X34483862Y-100586663D01*
X36960289Y-103063091D01*
X36765000Y-103534561D01*
X36765000Y-104105439D01*
X36983466Y-104632862D01*
X37387138Y-105036534D01*
X37914561Y-105255000D01*
X38485439Y-105255000D01*
X39012862Y-105036534D01*
X39416534Y-104632862D01*
X39635000Y-104105439D01*
X39635000Y-103534561D01*
X39416534Y-103007138D01*
X39012862Y-102603466D01*
X38485439Y-102385000D01*
X38431802Y-102385000D01*
X34327491Y-98280689D01*
X34548839Y-97949418D01*
X34664092Y-97370000D01*
X34548839Y-96790582D01*
X34220625Y-96299375D01*
X33729418Y-95971161D01*
X33296256Y-95885000D01*
X33003744Y-95885000D01*
X32570582Y-95971161D01*
X32079375Y-96299375D01*
X31751161Y-96790582D01*
X31635908Y-97370000D01*
X29310000Y-97370000D01*
X29310000Y-91219041D01*
X32258086Y-91219041D01*
X32497611Y-91725134D01*
X32912577Y-92101041D01*
X33300961Y-92261904D01*
X33523000Y-92139915D01*
X33523000Y-90997000D01*
X33777000Y-90997000D01*
X33777000Y-92139915D01*
X33999039Y-92261904D01*
X34387423Y-92101041D01*
X34802389Y-91725134D01*
X35041914Y-91219041D01*
X35458086Y-91219041D01*
X35697611Y-91725134D01*
X36112577Y-92101041D01*
X36500961Y-92261904D01*
X36723000Y-92139915D01*
X36723000Y-90997000D01*
X36977000Y-90997000D01*
X36977000Y-92139915D01*
X37199039Y-92261904D01*
X37587423Y-92101041D01*
X38002389Y-91725134D01*
X38241914Y-91219041D01*
X38658086Y-91219041D01*
X38897611Y-91725134D01*
X39312577Y-92101041D01*
X39700961Y-92261904D01*
X39923000Y-92139915D01*
X39923000Y-90997000D01*
X40177000Y-90997000D01*
X40177000Y-92139915D01*
X40399039Y-92261904D01*
X40787423Y-92101041D01*
X41202389Y-91725134D01*
X41441914Y-91219041D01*
X41320629Y-90997000D01*
X40177000Y-90997000D01*
X39923000Y-90997000D01*
X38779371Y-90997000D01*
X38658086Y-91219041D01*
X38241914Y-91219041D01*
X38120629Y-90997000D01*
X36977000Y-90997000D01*
X36723000Y-90997000D01*
X35579371Y-90997000D01*
X35458086Y-91219041D01*
X35041914Y-91219041D01*
X34920629Y-90997000D01*
X33777000Y-90997000D01*
X33523000Y-90997000D01*
X32379371Y-90997000D01*
X32258086Y-91219041D01*
X29310000Y-91219041D01*
X29310000Y-90870000D01*
X41786887Y-90870000D01*
X41898260Y-91429909D01*
X42215423Y-91904577D01*
X42690091Y-92221740D01*
X43108667Y-92305000D01*
X43391333Y-92305000D01*
X43809909Y-92221740D01*
X44284577Y-91904577D01*
X44601740Y-91429909D01*
X44713113Y-90870000D01*
X44601740Y-90310091D01*
X44284577Y-89835423D01*
X43809909Y-89518260D01*
X43391333Y-89435000D01*
X43108667Y-89435000D01*
X42690091Y-89518260D01*
X42215423Y-89835423D01*
X41898260Y-90310091D01*
X41786887Y-90870000D01*
X29310000Y-90870000D01*
X29310000Y-90520959D01*
X32258086Y-90520959D01*
X32379371Y-90743000D01*
X33523000Y-90743000D01*
X33523000Y-89600085D01*
X33777000Y-89600085D01*
X33777000Y-90743000D01*
X34920629Y-90743000D01*
X35041914Y-90520959D01*
X35458086Y-90520959D01*
X35579371Y-90743000D01*
X36723000Y-90743000D01*
X36723000Y-89600085D01*
X36977000Y-89600085D01*
X36977000Y-90743000D01*
X38120629Y-90743000D01*
X38241914Y-90520959D01*
X38658086Y-90520959D01*
X38779371Y-90743000D01*
X39923000Y-90743000D01*
X39923000Y-89600085D01*
X40177000Y-89600085D01*
X40177000Y-90743000D01*
X41320629Y-90743000D01*
X41441914Y-90520959D01*
X41202389Y-90014866D01*
X40787423Y-89638959D01*
X40399039Y-89478096D01*
X40177000Y-89600085D01*
X39923000Y-89600085D01*
X39700961Y-89478096D01*
X39312577Y-89638959D01*
X38897611Y-90014866D01*
X38658086Y-90520959D01*
X38241914Y-90520959D01*
X38002389Y-90014866D01*
X37587423Y-89638959D01*
X37199039Y-89478096D01*
X36977000Y-89600085D01*
X36723000Y-89600085D01*
X36500961Y-89478096D01*
X36112577Y-89638959D01*
X35697611Y-90014866D01*
X35458086Y-90520959D01*
X35041914Y-90520959D01*
X34802389Y-90014866D01*
X34387423Y-89638959D01*
X33999039Y-89478096D01*
X33777000Y-89600085D01*
X33523000Y-89600085D01*
X33300961Y-89478096D01*
X32912577Y-89638959D01*
X32497611Y-90014866D01*
X32258086Y-90520959D01*
X29310000Y-90520959D01*
X29310000Y-82964561D01*
X32215000Y-82964561D01*
X32215000Y-83535439D01*
X32433466Y-84062862D01*
X32837138Y-84466534D01*
X33364561Y-84685000D01*
X33935439Y-84685000D01*
X33988302Y-84663103D01*
X34660371Y-85335173D01*
X34702771Y-85398629D01*
X34766227Y-85441029D01*
X34954162Y-85566604D01*
X35002305Y-85576180D01*
X35175848Y-85610700D01*
X35175852Y-85610700D01*
X35250700Y-85625588D01*
X35325548Y-85610700D01*
X40760353Y-85610700D01*
X40835200Y-85625588D01*
X40910047Y-85610700D01*
X40910052Y-85610700D01*
X41131737Y-85566604D01*
X41383129Y-85398629D01*
X41425531Y-85335171D01*
X42187676Y-84573027D01*
X42251129Y-84530629D01*
X42293527Y-84467176D01*
X42293529Y-84467174D01*
X42419103Y-84279238D01*
X42419104Y-84279237D01*
X42422775Y-84260780D01*
X42495995Y-84503864D01*
X43033223Y-84696965D01*
X43603454Y-84669778D01*
X44004005Y-84503864D01*
X44078139Y-84257745D01*
X43250000Y-83429605D01*
X43235858Y-83443748D01*
X43056252Y-83264142D01*
X43070395Y-83250000D01*
X43056253Y-83235858D01*
X43235858Y-83056253D01*
X43250000Y-83070395D01*
X43264143Y-83056253D01*
X43443748Y-83235858D01*
X43429605Y-83250000D01*
X44257745Y-84078139D01*
X44503864Y-84004005D01*
X44516857Y-83967858D01*
X45032800Y-84483802D01*
X45032801Y-85588044D01*
X45017911Y-85662900D01*
X45076896Y-85959437D01*
X45244871Y-86210829D01*
X45308631Y-86253432D01*
X48285980Y-89230783D01*
X48273000Y-89262119D01*
X48273000Y-89817881D01*
X48296455Y-89874507D01*
X48242897Y-89954663D01*
X48183912Y-90251200D01*
X48198801Y-90326052D01*
X48198801Y-91143590D01*
X48164380Y-91109169D01*
X47783974Y-90951600D01*
X47372226Y-90951600D01*
X46991820Y-91109169D01*
X46700669Y-91400320D01*
X46543100Y-91780726D01*
X46543100Y-91840732D01*
X44018281Y-94365552D01*
X43997765Y-94351843D01*
X43750000Y-94302560D01*
X42150000Y-94302560D01*
X41902235Y-94351843D01*
X41692191Y-94492191D01*
X41551843Y-94702235D01*
X41502560Y-94950000D01*
X41502560Y-96550000D01*
X41551843Y-96797765D01*
X41692191Y-97007809D01*
X41902235Y-97148157D01*
X42036106Y-97174785D01*
X41915423Y-97255423D01*
X41598260Y-97730091D01*
X41486887Y-98290000D01*
X41598260Y-98849909D01*
X41915423Y-99324577D01*
X42194104Y-99510786D01*
X42211386Y-99597667D01*
X41915423Y-99795423D01*
X41666606Y-100167804D01*
X38960000Y-97461199D01*
X38960000Y-97418043D01*
X39234577Y-97234577D01*
X39551740Y-96759909D01*
X39663113Y-96200000D01*
X39551740Y-95640091D01*
X39234577Y-95165423D01*
X38759909Y-94848260D01*
X38341333Y-94765000D01*
X38058667Y-94765000D01*
X37640091Y-94848260D01*
X37165423Y-95165423D01*
X36848260Y-95640091D01*
X36736887Y-96200000D01*
X36848260Y-96759909D01*
X37165423Y-97234577D01*
X37440000Y-97418043D01*
X37440000Y-97701153D01*
X37425112Y-97776000D01*
X37440000Y-97850847D01*
X37440000Y-97850852D01*
X37484096Y-98072537D01*
X37652072Y-98323929D01*
X37715528Y-98366329D01*
X41822977Y-102473779D01*
X41598260Y-102810091D01*
X41486887Y-103370000D01*
X41598260Y-103929909D01*
X41915423Y-104404577D01*
X42390091Y-104721740D01*
X42808667Y-104805000D01*
X43091333Y-104805000D01*
X43509909Y-104721740D01*
X43984577Y-104404577D01*
X44301740Y-103929909D01*
X44413113Y-103370000D01*
X44301740Y-102810091D01*
X43984577Y-102335423D01*
X43705896Y-102149214D01*
X43688614Y-102062333D01*
X43984577Y-101864577D01*
X44233394Y-101492196D01*
X47764700Y-105023502D01*
X47764701Y-117403423D01*
X47716534Y-117287138D01*
X47312862Y-116883466D01*
X46785439Y-116665000D01*
X46214561Y-116665000D01*
X45687138Y-116883466D01*
X45283466Y-117287138D01*
X45065000Y-117814561D01*
X45065000Y-118385439D01*
X45283466Y-118912862D01*
X45687138Y-119316534D01*
X46214561Y-119535000D01*
X46785439Y-119535000D01*
X47312862Y-119316534D01*
X47716534Y-118912862D01*
X47764701Y-118796577D01*
X47764701Y-123394548D01*
X47749812Y-123469400D01*
X47808797Y-123765937D01*
X47844795Y-123819811D01*
X47976772Y-124017329D01*
X48040228Y-124059729D01*
X48645695Y-124665196D01*
X48615423Y-124685423D01*
X48298260Y-125160091D01*
X48272035Y-125291934D01*
X48215631Y-125235530D01*
X48173229Y-125172071D01*
X47921837Y-125004096D01*
X47720786Y-124964104D01*
X47534577Y-124685423D01*
X47059909Y-124368260D01*
X46641333Y-124285000D01*
X46358667Y-124285000D01*
X45940091Y-124368260D01*
X45465423Y-124685423D01*
X45148260Y-125160091D01*
X45036887Y-125720000D01*
X45148260Y-126279909D01*
X45465423Y-126754577D01*
X45940091Y-127071740D01*
X46358667Y-127155000D01*
X46641333Y-127155000D01*
X47059909Y-127071740D01*
X47534577Y-126754577D01*
X47554804Y-126724305D01*
X48194771Y-127364273D01*
X48237171Y-127427729D01*
X48488563Y-127595704D01*
X48506139Y-127599200D01*
X45879302Y-127599200D01*
X43465631Y-125185530D01*
X43423229Y-125122071D01*
X43171837Y-124954096D01*
X42970786Y-124914104D01*
X42784577Y-124635423D01*
X42309909Y-124318260D01*
X41891333Y-124235000D01*
X41608667Y-124235000D01*
X41190091Y-124318260D01*
X40715423Y-124635423D01*
X40398260Y-125110091D01*
X40380330Y-125200229D01*
X40365631Y-125185530D01*
X40323229Y-125122071D01*
X40071837Y-124954096D01*
X39870786Y-124914104D01*
X39684577Y-124635423D01*
X39209909Y-124318260D01*
X38791333Y-124235000D01*
X38508667Y-124235000D01*
X38090091Y-124318260D01*
X37615423Y-124635423D01*
X37298260Y-125110091D01*
X37280330Y-125200229D01*
X37265631Y-125185530D01*
X37223229Y-125122071D01*
X36971837Y-124954096D01*
X36770786Y-124914104D01*
X36584577Y-124635423D01*
X36109909Y-124318260D01*
X35691333Y-124235000D01*
X35408667Y-124235000D01*
X34990091Y-124318260D01*
X34515423Y-124635423D01*
X34198260Y-125110091D01*
X34086887Y-125670000D01*
X34198260Y-126229909D01*
X34515423Y-126704577D01*
X34990091Y-127021740D01*
X35408667Y-127105000D01*
X35691333Y-127105000D01*
X36109909Y-127021740D01*
X36584577Y-126704577D01*
X36604804Y-126674305D01*
X37660570Y-127730072D01*
X37702971Y-127793529D01*
X37954363Y-127961504D01*
X38176048Y-128005600D01*
X38176053Y-128005600D01*
X38250900Y-128020488D01*
X38325747Y-128005600D01*
X38370799Y-128005600D01*
X40630198Y-130265000D01*
X40572998Y-130265000D01*
X40572998Y-130423748D01*
X40414250Y-130265000D01*
X39673691Y-130265000D01*
X39440302Y-130361673D01*
X39261673Y-130540301D01*
X39165000Y-130773690D01*
X39165000Y-131514250D01*
X39323750Y-131673000D01*
X40573000Y-131673000D01*
X40573000Y-131653000D01*
X40827000Y-131653000D01*
X40827000Y-131673000D01*
X40847000Y-131673000D01*
X40847000Y-131927000D01*
X40827000Y-131927000D01*
X40827000Y-133176250D01*
X40985750Y-133335000D01*
X41726309Y-133335000D01*
X41959698Y-133238327D01*
X42138327Y-133059699D01*
X42194139Y-132924956D01*
X42370493Y-133101310D01*
X42934670Y-133335000D01*
X43545330Y-133335000D01*
X44109507Y-133101310D01*
X44541310Y-132669507D01*
X44775000Y-132105330D01*
X44775000Y-132085750D01*
X45665000Y-132085750D01*
X45665000Y-132826310D01*
X45761673Y-133059699D01*
X45940302Y-133238327D01*
X46173691Y-133335000D01*
X46914250Y-133335000D01*
X47073000Y-133176250D01*
X47073000Y-131927000D01*
X45823750Y-131927000D01*
X45665000Y-132085750D01*
X44775000Y-132085750D01*
X44775000Y-131494670D01*
X44666571Y-131232900D01*
X45665000Y-131232900D01*
X45665000Y-131514250D01*
X45823750Y-131673000D01*
X47073000Y-131673000D01*
X47073000Y-131653000D01*
X47327000Y-131653000D01*
X47327000Y-131673000D01*
X47347000Y-131673000D01*
X47347000Y-131927000D01*
X47327000Y-131927000D01*
X47327000Y-133176250D01*
X47485750Y-133335000D01*
X48226309Y-133335000D01*
X48459698Y-133238327D01*
X48638327Y-133059699D01*
X48694139Y-132924956D01*
X48870493Y-133101310D01*
X49434670Y-133335000D01*
X50045330Y-133335000D01*
X50609507Y-133101310D01*
X51041310Y-132669507D01*
X51275000Y-132105330D01*
X51275000Y-132085750D01*
X52165000Y-132085750D01*
X52165000Y-132826310D01*
X52261673Y-133059699D01*
X52440302Y-133238327D01*
X52673691Y-133335000D01*
X53414250Y-133335000D01*
X53573000Y-133176250D01*
X53573000Y-131927000D01*
X52323750Y-131927000D01*
X52165000Y-132085750D01*
X51275000Y-132085750D01*
X51275000Y-131494670D01*
X51041310Y-130930493D01*
X50609507Y-130498690D01*
X50045330Y-130265000D01*
X49434670Y-130265000D01*
X49325161Y-130310360D01*
X49003231Y-129988430D01*
X48960829Y-129924971D01*
X48709437Y-129756996D01*
X48487752Y-129712900D01*
X48487747Y-129712900D01*
X48412900Y-129698012D01*
X48338053Y-129712900D01*
X44893003Y-129712900D01*
X42219771Y-127039670D01*
X42309909Y-127021740D01*
X42784577Y-126704577D01*
X42804804Y-126674305D01*
X44974170Y-128843672D01*
X45016571Y-128907129D01*
X45267963Y-129075104D01*
X45489648Y-129119200D01*
X45489652Y-129119200D01*
X45564499Y-129134088D01*
X45639346Y-129119200D01*
X52484399Y-129119200D01*
X53630199Y-130265000D01*
X53572998Y-130265000D01*
X53572998Y-130423748D01*
X53414250Y-130265000D01*
X52673691Y-130265000D01*
X52440302Y-130361673D01*
X52261673Y-130540301D01*
X52165000Y-130773690D01*
X52165000Y-131514250D01*
X52323750Y-131673000D01*
X53573000Y-131673000D01*
X53573000Y-131653000D01*
X53827000Y-131653000D01*
X53827000Y-131673000D01*
X53847000Y-131673000D01*
X53847000Y-131927000D01*
X53827000Y-131927000D01*
X53827000Y-133176250D01*
X53985750Y-133335000D01*
X54726309Y-133335000D01*
X54959698Y-133238327D01*
X55138327Y-133059699D01*
X55194139Y-132924956D01*
X55370493Y-133101310D01*
X55934670Y-133335000D01*
X56545330Y-133335000D01*
X57109507Y-133101310D01*
X57541310Y-132669507D01*
X57775000Y-132105330D01*
X57775000Y-131494670D01*
X57541310Y-130930493D01*
X57109507Y-130498690D01*
X56545330Y-130265000D01*
X55934670Y-130265000D01*
X55825162Y-130310360D01*
X53389531Y-127874730D01*
X53347129Y-127811271D01*
X53095737Y-127643296D01*
X52874052Y-127599200D01*
X52874047Y-127599200D01*
X52799200Y-127584312D01*
X52724353Y-127599200D01*
X50361761Y-127599200D01*
X50379337Y-127595704D01*
X50630729Y-127427729D01*
X50673131Y-127364270D01*
X52717773Y-125319629D01*
X52781229Y-125277229D01*
X52949204Y-125025837D01*
X52993300Y-124804152D01*
X52993300Y-124804148D01*
X53008188Y-124729301D01*
X52993300Y-124654454D01*
X52993300Y-122653236D01*
X53207977Y-122974523D01*
X53733089Y-123325391D01*
X54196150Y-123417500D01*
X54603850Y-123417500D01*
X55066911Y-123325391D01*
X55592023Y-122974523D01*
X55942891Y-122449411D01*
X56066100Y-121830000D01*
X55942891Y-121210589D01*
X55592023Y-120685477D01*
X55404233Y-120560000D01*
X55592023Y-120434523D01*
X55942891Y-119909411D01*
X56066100Y-119290000D01*
X55942891Y-118670589D01*
X55680912Y-118278509D01*
X55857809Y-118160309D01*
X55998157Y-117950265D01*
X56047440Y-117702500D01*
X56047440Y-115797500D01*
X55998157Y-115549735D01*
X55857809Y-115339691D01*
X55707647Y-115239355D01*
X57124476Y-113822527D01*
X57187929Y-113780129D01*
X57230327Y-113716676D01*
X57230329Y-113716674D01*
X57355903Y-113528738D01*
X57355904Y-113528737D01*
X57400000Y-113307052D01*
X57400000Y-113307048D01*
X57414888Y-113232201D01*
X57400000Y-113157354D01*
X57400000Y-111662304D01*
X57476313Y-111611313D01*
X57732695Y-111227608D01*
X57800000Y-110889245D01*
X57800000Y-110210754D01*
X57732695Y-109872391D01*
X57476313Y-109488687D01*
X57092608Y-109232305D01*
X56640000Y-109142275D01*
X56187391Y-109232305D01*
X56005000Y-109354175D01*
X55822608Y-109232305D01*
X55370000Y-109142275D01*
X54917391Y-109232305D01*
X54916016Y-109233224D01*
X54751309Y-109165000D01*
X54385750Y-109165000D01*
X54227000Y-109323750D01*
X54227000Y-110125291D01*
X54210000Y-110210755D01*
X54210000Y-110889246D01*
X54227000Y-110974710D01*
X54227000Y-111776250D01*
X54385750Y-111935000D01*
X54610000Y-111935000D01*
X54610000Y-112065198D01*
X49988302Y-116686897D01*
X49935439Y-116665000D01*
X49364561Y-116665000D01*
X49284700Y-116698080D01*
X49284700Y-110835750D01*
X52940000Y-110835750D01*
X52940000Y-111426310D01*
X53036673Y-111659699D01*
X53215302Y-111838327D01*
X53448691Y-111935000D01*
X53814250Y-111935000D01*
X53973000Y-111776250D01*
X53973000Y-110677000D01*
X53098750Y-110677000D01*
X52940000Y-110835750D01*
X49284700Y-110835750D01*
X49284700Y-109673690D01*
X52940000Y-109673690D01*
X52940000Y-110264250D01*
X53098750Y-110423000D01*
X53973000Y-110423000D01*
X53973000Y-109323750D01*
X53814250Y-109165000D01*
X53448691Y-109165000D01*
X53215302Y-109261673D01*
X53036673Y-109440301D01*
X52940000Y-109673690D01*
X49284700Y-109673690D01*
X49284700Y-104783546D01*
X49299588Y-104708699D01*
X49284700Y-104633852D01*
X49284700Y-104633848D01*
X49240604Y-104412163D01*
X49072629Y-104160771D01*
X49009173Y-104118371D01*
X44077023Y-99186222D01*
X44301740Y-98849909D01*
X44413113Y-98290000D01*
X44301740Y-97730091D01*
X43984577Y-97255423D01*
X43863894Y-97174785D01*
X43997765Y-97148157D01*
X44207809Y-97007809D01*
X44348157Y-96797765D01*
X44396985Y-96552289D01*
X44476101Y-96536552D01*
X44752301Y-96352001D01*
X44936852Y-96075801D01*
X45001658Y-95750000D01*
X45000647Y-95744920D01*
X47723968Y-93021600D01*
X47783974Y-93021600D01*
X48164380Y-92864031D01*
X48198801Y-92829610D01*
X48198800Y-100839953D01*
X48183912Y-100914800D01*
X48198800Y-100989647D01*
X48198800Y-100989651D01*
X48242896Y-101211336D01*
X48410871Y-101462729D01*
X48474330Y-101505131D01*
X49442977Y-102473779D01*
X49218260Y-102810091D01*
X49106887Y-103370000D01*
X49218260Y-103929909D01*
X49535423Y-104404577D01*
X50010091Y-104721740D01*
X50428667Y-104805000D01*
X50711333Y-104805000D01*
X51129909Y-104721740D01*
X51604577Y-104404577D01*
X51921740Y-103929909D01*
X52033113Y-103370000D01*
X51921740Y-102810091D01*
X51604577Y-102335423D01*
X51325896Y-102149214D01*
X51308614Y-102062333D01*
X51604577Y-101864577D01*
X51921740Y-101389909D01*
X52033113Y-100830000D01*
X51934801Y-100335750D01*
X53915000Y-100335750D01*
X53915000Y-101076310D01*
X54011673Y-101309699D01*
X54190302Y-101488327D01*
X54423691Y-101585000D01*
X55164250Y-101585000D01*
X55323000Y-101426250D01*
X55323000Y-100177000D01*
X54073750Y-100177000D01*
X53915000Y-100335750D01*
X51934801Y-100335750D01*
X51921740Y-100270091D01*
X51604577Y-99795423D01*
X51325896Y-99609214D01*
X51308614Y-99522333D01*
X51604577Y-99324577D01*
X51805623Y-99023690D01*
X53915000Y-99023690D01*
X53915000Y-99764250D01*
X54073750Y-99923000D01*
X55323000Y-99923000D01*
X55323000Y-98673750D01*
X55577000Y-98673750D01*
X55577000Y-99923000D01*
X55597000Y-99923000D01*
X55597000Y-100177000D01*
X55577000Y-100177000D01*
X55577000Y-101426250D01*
X55735750Y-101585000D01*
X56476309Y-101585000D01*
X56709698Y-101488327D01*
X56888327Y-101309699D01*
X56944139Y-101174956D01*
X57120493Y-101351310D01*
X57684670Y-101585000D01*
X58295330Y-101585000D01*
X58859507Y-101351310D01*
X59291310Y-100919507D01*
X59525000Y-100355330D01*
X59525000Y-99744670D01*
X59291310Y-99180493D01*
X58859507Y-98748690D01*
X58295330Y-98515000D01*
X57684670Y-98515000D01*
X57120493Y-98748690D01*
X56944139Y-98925044D01*
X56888327Y-98790301D01*
X56709698Y-98611673D01*
X56476309Y-98515000D01*
X55735750Y-98515000D01*
X55577000Y-98673750D01*
X55323000Y-98673750D01*
X55164250Y-98515000D01*
X54423691Y-98515000D01*
X54190302Y-98611673D01*
X54011673Y-98790301D01*
X53915000Y-99023690D01*
X51805623Y-99023690D01*
X51921740Y-98849909D01*
X52033113Y-98290000D01*
X51921740Y-97730091D01*
X51697023Y-97393778D01*
X57774473Y-91316329D01*
X57837929Y-91273929D01*
X58005904Y-91022537D01*
X58020444Y-90949440D01*
X58052000Y-90949440D01*
X58299765Y-90900157D01*
X58509809Y-90759809D01*
X58650157Y-90549765D01*
X58699440Y-90302000D01*
X58699440Y-88778000D01*
X58650157Y-88530235D01*
X58509809Y-88320191D01*
X58502317Y-88315185D01*
X58861775Y-87955727D01*
X58925229Y-87913329D01*
X58967627Y-87849876D01*
X58967629Y-87849874D01*
X59093203Y-87661938D01*
X59093204Y-87661937D01*
X59137300Y-87440252D01*
X59137300Y-87440248D01*
X59152188Y-87365401D01*
X59137300Y-87290554D01*
X59137300Y-84033246D01*
X59152188Y-83958399D01*
X59137300Y-83883552D01*
X59137300Y-83883548D01*
X59093204Y-83661863D01*
X58979730Y-83492037D01*
X58967629Y-83473926D01*
X58967627Y-83473924D01*
X58925229Y-83410471D01*
X58861776Y-83368073D01*
X45382692Y-69888991D01*
X45576890Y-69991476D01*
X45986924Y-69821645D01*
X46415183Y-69431358D01*
X46476157Y-69301522D01*
X46689375Y-69620625D01*
X47180582Y-69948839D01*
X47613744Y-70035000D01*
X47906256Y-70035000D01*
X48339418Y-69948839D01*
X48830625Y-69620625D01*
X48842816Y-69602381D01*
X48851843Y-69647765D01*
X48992191Y-69857809D01*
X49202235Y-69998157D01*
X49450000Y-70047440D01*
X51150000Y-70047440D01*
X51397765Y-69998157D01*
X51607809Y-69857809D01*
X51748157Y-69647765D01*
X51797440Y-69400000D01*
X51797440Y-67700000D01*
X51748157Y-67452235D01*
X51607809Y-67242191D01*
X51397765Y-67101843D01*
X51150000Y-67052560D01*
X49450000Y-67052560D01*
X49202235Y-67101843D01*
X48992191Y-67242191D01*
X48851843Y-67452235D01*
X48842816Y-67497619D01*
X48830625Y-67479375D01*
X48339418Y-67151161D01*
X47906256Y-67065000D01*
X47613744Y-67065000D01*
X47180582Y-67151161D01*
X46689375Y-67479375D01*
X46476157Y-67798478D01*
X46415183Y-67668642D01*
X45986924Y-67278355D01*
X45576890Y-67108524D01*
X45347000Y-67229845D01*
X45347000Y-68423000D01*
X45367000Y-68423000D01*
X45367000Y-68677000D01*
X45347000Y-68677000D01*
X45347000Y-68697000D01*
X45093000Y-68697000D01*
X45093000Y-68677000D01*
X45073000Y-68677000D01*
X45073000Y-68423000D01*
X45093000Y-68423000D01*
X45093000Y-67229845D01*
X44863110Y-67108524D01*
X44453076Y-67278355D01*
X44024817Y-67668642D01*
X43964606Y-67796853D01*
X43962474Y-67796429D01*
X43750625Y-67479375D01*
X43259418Y-67151161D01*
X42826256Y-67065000D01*
X42533744Y-67065000D01*
X42100582Y-67151161D01*
X41609375Y-67479375D01*
X41410000Y-67777761D01*
X41210625Y-67479375D01*
X40719418Y-67151161D01*
X40286256Y-67065000D01*
X39993744Y-67065000D01*
X39560582Y-67151161D01*
X39069375Y-67479375D01*
X38741161Y-67970582D01*
X38625908Y-68550000D01*
X38741161Y-69129418D01*
X39069375Y-69620625D01*
X39386430Y-69832475D01*
X39424097Y-70021837D01*
X39592072Y-70273229D01*
X39655528Y-70315629D01*
X40438700Y-71098802D01*
X40438701Y-81595343D01*
X40423811Y-81670200D01*
X40438700Y-81745052D01*
X40438700Y-81857772D01*
X40335439Y-81815000D01*
X39764561Y-81815000D01*
X39237138Y-82033466D01*
X38833466Y-82437138D01*
X38615000Y-82964561D01*
X38615000Y-83535439D01*
X38658435Y-83640300D01*
X38315102Y-83640300D01*
X38263104Y-83588302D01*
X38285000Y-83535439D01*
X38285000Y-82964561D01*
X38066534Y-82437138D01*
X37662862Y-82033466D01*
X37135439Y-81815000D01*
X36564561Y-81815000D01*
X36037138Y-82033466D01*
X35633466Y-82437138D01*
X35415000Y-82964561D01*
X35415000Y-83535439D01*
X35633466Y-84062862D01*
X35661304Y-84090700D01*
X35565502Y-84090700D01*
X35063103Y-83588302D01*
X35085000Y-83535439D01*
X35085000Y-82964561D01*
X34866534Y-82437138D01*
X34462862Y-82033466D01*
X33935439Y-81815000D01*
X33364561Y-81815000D01*
X32837138Y-82033466D01*
X32433466Y-82437138D01*
X32215000Y-82964561D01*
X29310000Y-82964561D01*
X29310000Y-49255431D01*
X31365000Y-49255431D01*
X31365000Y-50144569D01*
X31705259Y-50966026D01*
X32333974Y-51594741D01*
X33155431Y-51935000D01*
X34044569Y-51935000D01*
X34866026Y-51594741D01*
X35494741Y-50966026D01*
X35835000Y-50144569D01*
X35835000Y-49750000D01*
X41155908Y-49750000D01*
X41271161Y-50329418D01*
X41599375Y-50820625D01*
X42090582Y-51148839D01*
X42523744Y-51235000D01*
X42816256Y-51235000D01*
X43249418Y-51148839D01*
X43740625Y-50820625D01*
X43953843Y-50501522D01*
X44014817Y-50631358D01*
X44443076Y-51021645D01*
X44853110Y-51191476D01*
X45083000Y-51070155D01*
X45083000Y-49877000D01*
X45063000Y-49877000D01*
X45063000Y-49623000D01*
X45083000Y-49623000D01*
X45083000Y-48429845D01*
X45337000Y-48429845D01*
X45337000Y-49623000D01*
X45357000Y-49623000D01*
X45357000Y-49877000D01*
X45337000Y-49877000D01*
X45337000Y-51070155D01*
X45566890Y-51191476D01*
X45976924Y-51021645D01*
X46281261Y-50744292D01*
X46301843Y-50847765D01*
X46442191Y-51057809D01*
X46652235Y-51198157D01*
X46900000Y-51247440D01*
X48600000Y-51247440D01*
X48847765Y-51198157D01*
X49057809Y-51057809D01*
X49198157Y-50847765D01*
X49247440Y-50600000D01*
X49247440Y-49255431D01*
X54565000Y-49255431D01*
X54565000Y-50144569D01*
X54905259Y-50966026D01*
X55533974Y-51594741D01*
X56355431Y-51935000D01*
X57244569Y-51935000D01*
X58066026Y-51594741D01*
X58694741Y-50966026D01*
X59035000Y-50144569D01*
X59035000Y-49255431D01*
X58694741Y-48433974D01*
X58066026Y-47805259D01*
X57244569Y-47465000D01*
X56355431Y-47465000D01*
X55533974Y-47805259D01*
X54905259Y-48433974D01*
X54565000Y-49255431D01*
X49247440Y-49255431D01*
X49247440Y-48900000D01*
X49198157Y-48652235D01*
X49057809Y-48442191D01*
X48847765Y-48301843D01*
X48600000Y-48252560D01*
X46900000Y-48252560D01*
X46652235Y-48301843D01*
X46442191Y-48442191D01*
X46301843Y-48652235D01*
X46281261Y-48755708D01*
X45976924Y-48478355D01*
X45566890Y-48308524D01*
X45337000Y-48429845D01*
X45083000Y-48429845D01*
X44853110Y-48308524D01*
X44443076Y-48478355D01*
X44014817Y-48868642D01*
X43953843Y-48998478D01*
X43740625Y-48679375D01*
X43249418Y-48351161D01*
X42816256Y-48265000D01*
X42523744Y-48265000D01*
X42090582Y-48351161D01*
X41599375Y-48679375D01*
X41271161Y-49170582D01*
X41155908Y-49750000D01*
X35835000Y-49750000D01*
X35835000Y-49255431D01*
X35494741Y-48433974D01*
X34866026Y-47805259D01*
X34044569Y-47465000D01*
X33155431Y-47465000D01*
X32333974Y-47805259D01*
X31705259Y-48433974D01*
X31365000Y-49255431D01*
X29310000Y-49255431D01*
X29310000Y-45410000D01*
X61090001Y-45410000D01*
X61090000Y-143990000D01*
X61090000Y-143990000D01*
G37*
X61090000Y-143990000D02*
X29310000Y-143990000D01*
X29310000Y-139255431D01*
X31365000Y-139255431D01*
X31365000Y-140144569D01*
X31705259Y-140966026D01*
X32333974Y-141594741D01*
X33155431Y-141935000D01*
X34044569Y-141935000D01*
X34866026Y-141594741D01*
X35494741Y-140966026D01*
X35835000Y-140144569D01*
X35835000Y-139255431D01*
X54565000Y-139255431D01*
X54565000Y-140144569D01*
X54905259Y-140966026D01*
X55533974Y-141594741D01*
X56355431Y-141935000D01*
X57244569Y-141935000D01*
X58066026Y-141594741D01*
X58694741Y-140966026D01*
X59035000Y-140144569D01*
X59035000Y-139255431D01*
X58694741Y-138433974D01*
X58066026Y-137805259D01*
X57244569Y-137465000D01*
X56355431Y-137465000D01*
X55533974Y-137805259D01*
X54905259Y-138433974D01*
X54565000Y-139255431D01*
X35835000Y-139255431D01*
X35494741Y-138433974D01*
X34866026Y-137805259D01*
X34044569Y-137465000D01*
X33155431Y-137465000D01*
X32333974Y-137805259D01*
X31705259Y-138433974D01*
X31365000Y-139255431D01*
X29310000Y-139255431D01*
X29310000Y-132085750D01*
X32665000Y-132085750D01*
X32665000Y-132826310D01*
X32761673Y-133059699D01*
X32940302Y-133238327D01*
X33173691Y-133335000D01*
X33914250Y-133335000D01*
X34073000Y-133176250D01*
X34073000Y-131927000D01*
X32823750Y-131927000D01*
X32665000Y-132085750D01*
X29310000Y-132085750D01*
X29310000Y-130773690D01*
X32665000Y-130773690D01*
X32665000Y-131514250D01*
X32823750Y-131673000D01*
X34073000Y-131673000D01*
X34073000Y-130423750D01*
X33914250Y-130265000D01*
X33173691Y-130265000D01*
X32940302Y-130361673D01*
X32761673Y-130540301D01*
X32665000Y-130773690D01*
X29310000Y-130773690D01*
X29310000Y-125670000D01*
X30936887Y-125670000D01*
X31048260Y-126229909D01*
X31365423Y-126704577D01*
X31644106Y-126890787D01*
X31684097Y-127091837D01*
X31852072Y-127343229D01*
X31915528Y-127385629D01*
X34794898Y-130265000D01*
X34485750Y-130265000D01*
X34327000Y-130423750D01*
X34327000Y-131673000D01*
X34347000Y-131673000D01*
X34347000Y-131927000D01*
X34327000Y-131927000D01*
X34327000Y-133176250D01*
X34485750Y-133335000D01*
X35226309Y-133335000D01*
X35459698Y-133238327D01*
X35638327Y-133059699D01*
X35694139Y-132924956D01*
X35870493Y-133101310D01*
X36434670Y-133335000D01*
X37045330Y-133335000D01*
X37609507Y-133101310D01*
X38041310Y-132669507D01*
X38275000Y-132105330D01*
X38275000Y-132085750D01*
X39165000Y-132085750D01*
X39165000Y-132826310D01*
X39261673Y-133059699D01*
X39440302Y-133238327D01*
X39673691Y-133335000D01*
X40414250Y-133335000D01*
X40573000Y-133176250D01*
X40573000Y-131927000D01*
X39323750Y-131927000D01*
X39165000Y-132085750D01*
X38275000Y-132085750D01*
X38275000Y-131494670D01*
X38041310Y-130930493D01*
X37609507Y-130498690D01*
X37045330Y-130265000D01*
X36944502Y-130265000D01*
X33404305Y-126724804D01*
X33434577Y-126704577D01*
X33751740Y-126229909D01*
X33863113Y-125670000D01*
X33751740Y-125110091D01*
X33434577Y-124635423D01*
X32959909Y-124318260D01*
X32541333Y-124235000D01*
X32258667Y-124235000D01*
X31840091Y-124318260D01*
X31365423Y-124635423D01*
X31048260Y-125110091D01*
X30936887Y-125670000D01*
X29310000Y-125670000D01*
X29310000Y-117764561D01*
X30965000Y-117764561D01*
X30965000Y-118335439D01*
X31183466Y-118862862D01*
X31587138Y-119266534D01*
X32114561Y-119485000D01*
X32685439Y-119485000D01*
X33212862Y-119266534D01*
X33616534Y-118862862D01*
X33835000Y-118335439D01*
X33835000Y-117764561D01*
X33813103Y-117711698D01*
X35994803Y-115530000D01*
X36161957Y-115530000D01*
X36345423Y-115804577D01*
X36733690Y-116064009D01*
X36080989Y-116716710D01*
X35835439Y-116615000D01*
X35264561Y-116615000D01*
X34737138Y-116833466D01*
X34333466Y-117237138D01*
X34115000Y-117764561D01*
X34115000Y-118335439D01*
X34333466Y-118862862D01*
X34737138Y-119266534D01*
X35264561Y-119485000D01*
X35835439Y-119485000D01*
X36362862Y-119266534D01*
X36766534Y-118862862D01*
X36985000Y-118335439D01*
X36985000Y-117962301D01*
X37237811Y-117709490D01*
X37215000Y-117764561D01*
X37215000Y-118335439D01*
X37433466Y-118862862D01*
X37837138Y-119266534D01*
X38364561Y-119485000D01*
X38935439Y-119485000D01*
X39462862Y-119266534D01*
X39866534Y-118862862D01*
X40085000Y-118335439D01*
X40085000Y-117764561D01*
X40063103Y-117711698D01*
X40530498Y-117244304D01*
X40315000Y-117764561D01*
X40315000Y-118335439D01*
X40533466Y-118862862D01*
X40937138Y-119266534D01*
X41464561Y-119485000D01*
X42035439Y-119485000D01*
X42562862Y-119266534D01*
X42966534Y-118862862D01*
X43185000Y-118335439D01*
X43185000Y-117764561D01*
X43163103Y-117711698D01*
X44219502Y-116655300D01*
X44925148Y-116655300D01*
X45000000Y-116670189D01*
X45296537Y-116611204D01*
X45547929Y-116443229D01*
X45715904Y-116191837D01*
X45755896Y-115990786D01*
X46034577Y-115804577D01*
X46351740Y-115329909D01*
X46463113Y-114770000D01*
X46351740Y-114210091D01*
X46034577Y-113735423D01*
X45559909Y-113418260D01*
X45141333Y-113335000D01*
X44858667Y-113335000D01*
X44440091Y-113418260D01*
X43965423Y-113735423D01*
X43730000Y-114087758D01*
X43494577Y-113735423D01*
X43019909Y-113418260D01*
X42601333Y-113335000D01*
X42318667Y-113335000D01*
X41900091Y-113418260D01*
X41425423Y-113735423D01*
X41239214Y-114014104D01*
X41152333Y-114031386D01*
X40954577Y-113735423D01*
X40479909Y-113418260D01*
X40061333Y-113335000D01*
X39778667Y-113335000D01*
X39360091Y-113418260D01*
X38885423Y-113735423D01*
X38699214Y-114014104D01*
X38612333Y-114031386D01*
X38414577Y-113735423D01*
X37939909Y-113418260D01*
X37521333Y-113335000D01*
X37238667Y-113335000D01*
X36820091Y-113418260D01*
X36345423Y-113735423D01*
X36161957Y-114010000D01*
X35754846Y-114010000D01*
X35679999Y-113995112D01*
X35605152Y-114010000D01*
X35605148Y-114010000D01*
X35383463Y-114054096D01*
X35383461Y-114054097D01*
X35383462Y-114054097D01*
X35195526Y-114179671D01*
X35195524Y-114179673D01*
X35132071Y-114222071D01*
X35089673Y-114285524D01*
X32738302Y-116636897D01*
X32685439Y-116615000D01*
X32114561Y-116615000D01*
X31587138Y-116833466D01*
X31183466Y-117237138D01*
X30965000Y-117764561D01*
X29310000Y-117764561D01*
X29310000Y-107150000D01*
X35916887Y-107150000D01*
X36028260Y-107709909D01*
X36345423Y-108184577D01*
X36820091Y-108501740D01*
X37238667Y-108585000D01*
X37521333Y-108585000D01*
X37939909Y-108501740D01*
X38414577Y-108184577D01*
X38598043Y-107910000D01*
X38701957Y-107910000D01*
X38885423Y-108184577D01*
X39360091Y-108501740D01*
X39778667Y-108585000D01*
X40061333Y-108585000D01*
X40479909Y-108501740D01*
X40954577Y-108184577D01*
X41138043Y-107910000D01*
X41241957Y-107910000D01*
X41425423Y-108184577D01*
X41900091Y-108501740D01*
X42318667Y-108585000D01*
X42601333Y-108585000D01*
X43019909Y-108501740D01*
X43494577Y-108184577D01*
X43575215Y-108063894D01*
X43601843Y-108197765D01*
X43742191Y-108407809D01*
X43952235Y-108548157D01*
X44200000Y-108597440D01*
X45800000Y-108597440D01*
X46047765Y-108548157D01*
X46257809Y-108407809D01*
X46398157Y-108197765D01*
X46447440Y-107950000D01*
X46447440Y-106350000D01*
X46398157Y-106102235D01*
X46257809Y-105892191D01*
X46047765Y-105751843D01*
X45800000Y-105702560D01*
X44200000Y-105702560D01*
X43952235Y-105751843D01*
X43742191Y-105892191D01*
X43601843Y-106102235D01*
X43575215Y-106236106D01*
X43494577Y-106115423D01*
X43019909Y-105798260D01*
X42601333Y-105715000D01*
X42318667Y-105715000D01*
X41900091Y-105798260D01*
X41425423Y-106115423D01*
X41241957Y-106390000D01*
X41138043Y-106390000D01*
X40954577Y-106115423D01*
X40479909Y-105798260D01*
X40061333Y-105715000D01*
X39778667Y-105715000D01*
X39360091Y-105798260D01*
X38885423Y-106115423D01*
X38701957Y-106390000D01*
X38598043Y-106390000D01*
X38414577Y-106115423D01*
X37939909Y-105798260D01*
X37521333Y-105715000D01*
X37238667Y-105715000D01*
X36820091Y-105798260D01*
X36345423Y-106115423D01*
X36028260Y-106590091D01*
X35916887Y-107150000D01*
X29310000Y-107150000D01*
X29310000Y-97370000D01*
X31635908Y-97370000D01*
X31751161Y-97949418D01*
X32079375Y-98440625D01*
X32377761Y-98640000D01*
X32079375Y-98839375D01*
X31751161Y-99330582D01*
X31635908Y-99910000D01*
X31751161Y-100489418D01*
X32079375Y-100980625D01*
X32097619Y-100992816D01*
X32052235Y-101001843D01*
X31842191Y-101142191D01*
X31701843Y-101352235D01*
X31652560Y-101600000D01*
X31652560Y-103300000D01*
X31701843Y-103547765D01*
X31842191Y-103757809D01*
X32052235Y-103898157D01*
X32300000Y-103947440D01*
X34000000Y-103947440D01*
X34247765Y-103898157D01*
X34457809Y-103757809D01*
X34598157Y-103547765D01*
X34647440Y-103300000D01*
X34647440Y-101600000D01*
X34598157Y-101352235D01*
X34457809Y-101142191D01*
X34247765Y-101001843D01*
X34202381Y-100992816D01*
X34220625Y-100980625D01*
X34483862Y-100586663D01*
X36960289Y-103063091D01*
X36765000Y-103534561D01*
X36765000Y-104105439D01*
X36983466Y-104632862D01*
X37387138Y-105036534D01*
X37914561Y-105255000D01*
X38485439Y-105255000D01*
X39012862Y-105036534D01*
X39416534Y-104632862D01*
X39635000Y-104105439D01*
X39635000Y-103534561D01*
X39416534Y-103007138D01*
X39012862Y-102603466D01*
X38485439Y-102385000D01*
X38431802Y-102385000D01*
X34327491Y-98280689D01*
X34548839Y-97949418D01*
X34664092Y-97370000D01*
X34548839Y-96790582D01*
X34220625Y-96299375D01*
X33729418Y-95971161D01*
X33296256Y-95885000D01*
X33003744Y-95885000D01*
X32570582Y-95971161D01*
X32079375Y-96299375D01*
X31751161Y-96790582D01*
X31635908Y-97370000D01*
X29310000Y-97370000D01*
X29310000Y-91219041D01*
X32258086Y-91219041D01*
X32497611Y-91725134D01*
X32912577Y-92101041D01*
X33300961Y-92261904D01*
X33523000Y-92139915D01*
X33523000Y-90997000D01*
X33777000Y-90997000D01*
X33777000Y-92139915D01*
X33999039Y-92261904D01*
X34387423Y-92101041D01*
X34802389Y-91725134D01*
X35041914Y-91219041D01*
X35458086Y-91219041D01*
X35697611Y-91725134D01*
X36112577Y-92101041D01*
X36500961Y-92261904D01*
X36723000Y-92139915D01*
X36723000Y-90997000D01*
X36977000Y-90997000D01*
X36977000Y-92139915D01*
X37199039Y-92261904D01*
X37587423Y-92101041D01*
X38002389Y-91725134D01*
X38241914Y-91219041D01*
X38658086Y-91219041D01*
X38897611Y-91725134D01*
X39312577Y-92101041D01*
X39700961Y-92261904D01*
X39923000Y-92139915D01*
X39923000Y-90997000D01*
X40177000Y-90997000D01*
X40177000Y-92139915D01*
X40399039Y-92261904D01*
X40787423Y-92101041D01*
X41202389Y-91725134D01*
X41441914Y-91219041D01*
X41320629Y-90997000D01*
X40177000Y-90997000D01*
X39923000Y-90997000D01*
X38779371Y-90997000D01*
X38658086Y-91219041D01*
X38241914Y-91219041D01*
X38120629Y-90997000D01*
X36977000Y-90997000D01*
X36723000Y-90997000D01*
X35579371Y-90997000D01*
X35458086Y-91219041D01*
X35041914Y-91219041D01*
X34920629Y-90997000D01*
X33777000Y-90997000D01*
X33523000Y-90997000D01*
X32379371Y-90997000D01*
X32258086Y-91219041D01*
X29310000Y-91219041D01*
X29310000Y-90870000D01*
X41786887Y-90870000D01*
X41898260Y-91429909D01*
X42215423Y-91904577D01*
X42690091Y-92221740D01*
X43108667Y-92305000D01*
X43391333Y-92305000D01*
X43809909Y-92221740D01*
X44284577Y-91904577D01*
X44601740Y-91429909D01*
X44713113Y-90870000D01*
X44601740Y-90310091D01*
X44284577Y-89835423D01*
X43809909Y-89518260D01*
X43391333Y-89435000D01*
X43108667Y-89435000D01*
X42690091Y-89518260D01*
X42215423Y-89835423D01*
X41898260Y-90310091D01*
X41786887Y-90870000D01*
X29310000Y-90870000D01*
X29310000Y-90520959D01*
X32258086Y-90520959D01*
X32379371Y-90743000D01*
X33523000Y-90743000D01*
X33523000Y-89600085D01*
X33777000Y-89600085D01*
X33777000Y-90743000D01*
X34920629Y-90743000D01*
X35041914Y-90520959D01*
X35458086Y-90520959D01*
X35579371Y-90743000D01*
X36723000Y-90743000D01*
X36723000Y-89600085D01*
X36977000Y-89600085D01*
X36977000Y-90743000D01*
X38120629Y-90743000D01*
X38241914Y-90520959D01*
X38658086Y-90520959D01*
X38779371Y-90743000D01*
X39923000Y-90743000D01*
X39923000Y-89600085D01*
X40177000Y-89600085D01*
X40177000Y-90743000D01*
X41320629Y-90743000D01*
X41441914Y-90520959D01*
X41202389Y-90014866D01*
X40787423Y-89638959D01*
X40399039Y-89478096D01*
X40177000Y-89600085D01*
X39923000Y-89600085D01*
X39700961Y-89478096D01*
X39312577Y-89638959D01*
X38897611Y-90014866D01*
X38658086Y-90520959D01*
X38241914Y-90520959D01*
X38002389Y-90014866D01*
X37587423Y-89638959D01*
X37199039Y-89478096D01*
X36977000Y-89600085D01*
X36723000Y-89600085D01*
X36500961Y-89478096D01*
X36112577Y-89638959D01*
X35697611Y-90014866D01*
X35458086Y-90520959D01*
X35041914Y-90520959D01*
X34802389Y-90014866D01*
X34387423Y-89638959D01*
X33999039Y-89478096D01*
X33777000Y-89600085D01*
X33523000Y-89600085D01*
X33300961Y-89478096D01*
X32912577Y-89638959D01*
X32497611Y-90014866D01*
X32258086Y-90520959D01*
X29310000Y-90520959D01*
X29310000Y-82964561D01*
X32215000Y-82964561D01*
X32215000Y-83535439D01*
X32433466Y-84062862D01*
X32837138Y-84466534D01*
X33364561Y-84685000D01*
X33935439Y-84685000D01*
X33988302Y-84663103D01*
X34660371Y-85335173D01*
X34702771Y-85398629D01*
X34766227Y-85441029D01*
X34954162Y-85566604D01*
X35002305Y-85576180D01*
X35175848Y-85610700D01*
X35175852Y-85610700D01*
X35250700Y-85625588D01*
X35325548Y-85610700D01*
X40760353Y-85610700D01*
X40835200Y-85625588D01*
X40910047Y-85610700D01*
X40910052Y-85610700D01*
X41131737Y-85566604D01*
X41383129Y-85398629D01*
X41425531Y-85335171D01*
X42187676Y-84573027D01*
X42251129Y-84530629D01*
X42293527Y-84467176D01*
X42293529Y-84467174D01*
X42419103Y-84279238D01*
X42419104Y-84279237D01*
X42422775Y-84260780D01*
X42495995Y-84503864D01*
X43033223Y-84696965D01*
X43603454Y-84669778D01*
X44004005Y-84503864D01*
X44078139Y-84257745D01*
X43250000Y-83429605D01*
X43235858Y-83443748D01*
X43056252Y-83264142D01*
X43070395Y-83250000D01*
X43056253Y-83235858D01*
X43235858Y-83056253D01*
X43250000Y-83070395D01*
X43264143Y-83056253D01*
X43443748Y-83235858D01*
X43429605Y-83250000D01*
X44257745Y-84078139D01*
X44503864Y-84004005D01*
X44516857Y-83967858D01*
X45032800Y-84483802D01*
X45032801Y-85588044D01*
X45017911Y-85662900D01*
X45076896Y-85959437D01*
X45244871Y-86210829D01*
X45308631Y-86253432D01*
X48285980Y-89230783D01*
X48273000Y-89262119D01*
X48273000Y-89817881D01*
X48296455Y-89874507D01*
X48242897Y-89954663D01*
X48183912Y-90251200D01*
X48198801Y-90326052D01*
X48198801Y-91143590D01*
X48164380Y-91109169D01*
X47783974Y-90951600D01*
X47372226Y-90951600D01*
X46991820Y-91109169D01*
X46700669Y-91400320D01*
X46543100Y-91780726D01*
X46543100Y-91840732D01*
X44018281Y-94365552D01*
X43997765Y-94351843D01*
X43750000Y-94302560D01*
X42150000Y-94302560D01*
X41902235Y-94351843D01*
X41692191Y-94492191D01*
X41551843Y-94702235D01*
X41502560Y-94950000D01*
X41502560Y-96550000D01*
X41551843Y-96797765D01*
X41692191Y-97007809D01*
X41902235Y-97148157D01*
X42036106Y-97174785D01*
X41915423Y-97255423D01*
X41598260Y-97730091D01*
X41486887Y-98290000D01*
X41598260Y-98849909D01*
X41915423Y-99324577D01*
X42194104Y-99510786D01*
X42211386Y-99597667D01*
X41915423Y-99795423D01*
X41666606Y-100167804D01*
X38960000Y-97461199D01*
X38960000Y-97418043D01*
X39234577Y-97234577D01*
X39551740Y-96759909D01*
X39663113Y-96200000D01*
X39551740Y-95640091D01*
X39234577Y-95165423D01*
X38759909Y-94848260D01*
X38341333Y-94765000D01*
X38058667Y-94765000D01*
X37640091Y-94848260D01*
X37165423Y-95165423D01*
X36848260Y-95640091D01*
X36736887Y-96200000D01*
X36848260Y-96759909D01*
X37165423Y-97234577D01*
X37440000Y-97418043D01*
X37440000Y-97701153D01*
X37425112Y-97776000D01*
X37440000Y-97850847D01*
X37440000Y-97850852D01*
X37484096Y-98072537D01*
X37652072Y-98323929D01*
X37715528Y-98366329D01*
X41822977Y-102473779D01*
X41598260Y-102810091D01*
X41486887Y-103370000D01*
X41598260Y-103929909D01*
X41915423Y-104404577D01*
X42390091Y-104721740D01*
X42808667Y-104805000D01*
X43091333Y-104805000D01*
X43509909Y-104721740D01*
X43984577Y-104404577D01*
X44301740Y-103929909D01*
X44413113Y-103370000D01*
X44301740Y-102810091D01*
X43984577Y-102335423D01*
X43705896Y-102149214D01*
X43688614Y-102062333D01*
X43984577Y-101864577D01*
X44233394Y-101492196D01*
X47764700Y-105023502D01*
X47764701Y-117403423D01*
X47716534Y-117287138D01*
X47312862Y-116883466D01*
X46785439Y-116665000D01*
X46214561Y-116665000D01*
X45687138Y-116883466D01*
X45283466Y-117287138D01*
X45065000Y-117814561D01*
X45065000Y-118385439D01*
X45283466Y-118912862D01*
X45687138Y-119316534D01*
X46214561Y-119535000D01*
X46785439Y-119535000D01*
X47312862Y-119316534D01*
X47716534Y-118912862D01*
X47764701Y-118796577D01*
X47764701Y-123394548D01*
X47749812Y-123469400D01*
X47808797Y-123765937D01*
X47844795Y-123819811D01*
X47976772Y-124017329D01*
X48040228Y-124059729D01*
X48645695Y-124665196D01*
X48615423Y-124685423D01*
X48298260Y-125160091D01*
X48272035Y-125291934D01*
X48215631Y-125235530D01*
X48173229Y-125172071D01*
X47921837Y-125004096D01*
X47720786Y-124964104D01*
X47534577Y-124685423D01*
X47059909Y-124368260D01*
X46641333Y-124285000D01*
X46358667Y-124285000D01*
X45940091Y-124368260D01*
X45465423Y-124685423D01*
X45148260Y-125160091D01*
X45036887Y-125720000D01*
X45148260Y-126279909D01*
X45465423Y-126754577D01*
X45940091Y-127071740D01*
X46358667Y-127155000D01*
X46641333Y-127155000D01*
X47059909Y-127071740D01*
X47534577Y-126754577D01*
X47554804Y-126724305D01*
X48194771Y-127364273D01*
X48237171Y-127427729D01*
X48488563Y-127595704D01*
X48506139Y-127599200D01*
X45879302Y-127599200D01*
X43465631Y-125185530D01*
X43423229Y-125122071D01*
X43171837Y-124954096D01*
X42970786Y-124914104D01*
X42784577Y-124635423D01*
X42309909Y-124318260D01*
X41891333Y-124235000D01*
X41608667Y-124235000D01*
X41190091Y-124318260D01*
X40715423Y-124635423D01*
X40398260Y-125110091D01*
X40380330Y-125200229D01*
X40365631Y-125185530D01*
X40323229Y-125122071D01*
X40071837Y-124954096D01*
X39870786Y-124914104D01*
X39684577Y-124635423D01*
X39209909Y-124318260D01*
X38791333Y-124235000D01*
X38508667Y-124235000D01*
X38090091Y-124318260D01*
X37615423Y-124635423D01*
X37298260Y-125110091D01*
X37280330Y-125200229D01*
X37265631Y-125185530D01*
X37223229Y-125122071D01*
X36971837Y-124954096D01*
X36770786Y-124914104D01*
X36584577Y-124635423D01*
X36109909Y-124318260D01*
X35691333Y-124235000D01*
X35408667Y-124235000D01*
X34990091Y-124318260D01*
X34515423Y-124635423D01*
X34198260Y-125110091D01*
X34086887Y-125670000D01*
X34198260Y-126229909D01*
X34515423Y-126704577D01*
X34990091Y-127021740D01*
X35408667Y-127105000D01*
X35691333Y-127105000D01*
X36109909Y-127021740D01*
X36584577Y-126704577D01*
X36604804Y-126674305D01*
X37660570Y-127730072D01*
X37702971Y-127793529D01*
X37954363Y-127961504D01*
X38176048Y-128005600D01*
X38176053Y-128005600D01*
X38250900Y-128020488D01*
X38325747Y-128005600D01*
X38370799Y-128005600D01*
X40630198Y-130265000D01*
X40572998Y-130265000D01*
X40572998Y-130423748D01*
X40414250Y-130265000D01*
X39673691Y-130265000D01*
X39440302Y-130361673D01*
X39261673Y-130540301D01*
X39165000Y-130773690D01*
X39165000Y-131514250D01*
X39323750Y-131673000D01*
X40573000Y-131673000D01*
X40573000Y-131653000D01*
X40827000Y-131653000D01*
X40827000Y-131673000D01*
X40847000Y-131673000D01*
X40847000Y-131927000D01*
X40827000Y-131927000D01*
X40827000Y-133176250D01*
X40985750Y-133335000D01*
X41726309Y-133335000D01*
X41959698Y-133238327D01*
X42138327Y-133059699D01*
X42194139Y-132924956D01*
X42370493Y-133101310D01*
X42934670Y-133335000D01*
X43545330Y-133335000D01*
X44109507Y-133101310D01*
X44541310Y-132669507D01*
X44775000Y-132105330D01*
X44775000Y-132085750D01*
X45665000Y-132085750D01*
X45665000Y-132826310D01*
X45761673Y-133059699D01*
X45940302Y-133238327D01*
X46173691Y-133335000D01*
X46914250Y-133335000D01*
X47073000Y-133176250D01*
X47073000Y-131927000D01*
X45823750Y-131927000D01*
X45665000Y-132085750D01*
X44775000Y-132085750D01*
X44775000Y-131494670D01*
X44666571Y-131232900D01*
X45665000Y-131232900D01*
X45665000Y-131514250D01*
X45823750Y-131673000D01*
X47073000Y-131673000D01*
X47073000Y-131653000D01*
X47327000Y-131653000D01*
X47327000Y-131673000D01*
X47347000Y-131673000D01*
X47347000Y-131927000D01*
X47327000Y-131927000D01*
X47327000Y-133176250D01*
X47485750Y-133335000D01*
X48226309Y-133335000D01*
X48459698Y-133238327D01*
X48638327Y-133059699D01*
X48694139Y-132924956D01*
X48870493Y-133101310D01*
X49434670Y-133335000D01*
X50045330Y-133335000D01*
X50609507Y-133101310D01*
X51041310Y-132669507D01*
X51275000Y-132105330D01*
X51275000Y-132085750D01*
X52165000Y-132085750D01*
X52165000Y-132826310D01*
X52261673Y-133059699D01*
X52440302Y-133238327D01*
X52673691Y-133335000D01*
X53414250Y-133335000D01*
X53573000Y-133176250D01*
X53573000Y-131927000D01*
X52323750Y-131927000D01*
X52165000Y-132085750D01*
X51275000Y-132085750D01*
X51275000Y-131494670D01*
X51041310Y-130930493D01*
X50609507Y-130498690D01*
X50045330Y-130265000D01*
X49434670Y-130265000D01*
X49325161Y-130310360D01*
X49003231Y-129988430D01*
X48960829Y-129924971D01*
X48709437Y-129756996D01*
X48487752Y-129712900D01*
X48487747Y-129712900D01*
X48412900Y-129698012D01*
X48338053Y-129712900D01*
X44893003Y-129712900D01*
X42219771Y-127039670D01*
X42309909Y-127021740D01*
X42784577Y-126704577D01*
X42804804Y-126674305D01*
X44974170Y-128843672D01*
X45016571Y-128907129D01*
X45267963Y-129075104D01*
X45489648Y-129119200D01*
X45489652Y-129119200D01*
X45564499Y-129134088D01*
X45639346Y-129119200D01*
X52484399Y-129119200D01*
X53630199Y-130265000D01*
X53572998Y-130265000D01*
X53572998Y-130423748D01*
X53414250Y-130265000D01*
X52673691Y-130265000D01*
X52440302Y-130361673D01*
X52261673Y-130540301D01*
X52165000Y-130773690D01*
X52165000Y-131514250D01*
X52323750Y-131673000D01*
X53573000Y-131673000D01*
X53573000Y-131653000D01*
X53827000Y-131653000D01*
X53827000Y-131673000D01*
X53847000Y-131673000D01*
X53847000Y-131927000D01*
X53827000Y-131927000D01*
X53827000Y-133176250D01*
X53985750Y-133335000D01*
X54726309Y-133335000D01*
X54959698Y-133238327D01*
X55138327Y-133059699D01*
X55194139Y-132924956D01*
X55370493Y-133101310D01*
X55934670Y-133335000D01*
X56545330Y-133335000D01*
X57109507Y-133101310D01*
X57541310Y-132669507D01*
X57775000Y-132105330D01*
X57775000Y-131494670D01*
X57541310Y-130930493D01*
X57109507Y-130498690D01*
X56545330Y-130265000D01*
X55934670Y-130265000D01*
X55825162Y-130310360D01*
X53389531Y-127874730D01*
X53347129Y-127811271D01*
X53095737Y-127643296D01*
X52874052Y-127599200D01*
X52874047Y-127599200D01*
X52799200Y-127584312D01*
X52724353Y-127599200D01*
X50361761Y-127599200D01*
X50379337Y-127595704D01*
X50630729Y-127427729D01*
X50673131Y-127364270D01*
X52717773Y-125319629D01*
X52781229Y-125277229D01*
X52949204Y-125025837D01*
X52993300Y-124804152D01*
X52993300Y-124804148D01*
X53008188Y-124729301D01*
X52993300Y-124654454D01*
X52993300Y-122653236D01*
X53207977Y-122974523D01*
X53733089Y-123325391D01*
X54196150Y-123417500D01*
X54603850Y-123417500D01*
X55066911Y-123325391D01*
X55592023Y-122974523D01*
X55942891Y-122449411D01*
X56066100Y-121830000D01*
X55942891Y-121210589D01*
X55592023Y-120685477D01*
X55404233Y-120560000D01*
X55592023Y-120434523D01*
X55942891Y-119909411D01*
X56066100Y-119290000D01*
X55942891Y-118670589D01*
X55680912Y-118278509D01*
X55857809Y-118160309D01*
X55998157Y-117950265D01*
X56047440Y-117702500D01*
X56047440Y-115797500D01*
X55998157Y-115549735D01*
X55857809Y-115339691D01*
X55707647Y-115239355D01*
X57124476Y-113822527D01*
X57187929Y-113780129D01*
X57230327Y-113716676D01*
X57230329Y-113716674D01*
X57355903Y-113528738D01*
X57355904Y-113528737D01*
X57400000Y-113307052D01*
X57400000Y-113307048D01*
X57414888Y-113232201D01*
X57400000Y-113157354D01*
X57400000Y-111662304D01*
X57476313Y-111611313D01*
X57732695Y-111227608D01*
X57800000Y-110889245D01*
X57800000Y-110210754D01*
X57732695Y-109872391D01*
X57476313Y-109488687D01*
X57092608Y-109232305D01*
X56640000Y-109142275D01*
X56187391Y-109232305D01*
X56005000Y-109354175D01*
X55822608Y-109232305D01*
X55370000Y-109142275D01*
X54917391Y-109232305D01*
X54916016Y-109233224D01*
X54751309Y-109165000D01*
X54385750Y-109165000D01*
X54227000Y-109323750D01*
X54227000Y-110125291D01*
X54210000Y-110210755D01*
X54210000Y-110889246D01*
X54227000Y-110974710D01*
X54227000Y-111776250D01*
X54385750Y-111935000D01*
X54610000Y-111935000D01*
X54610000Y-112065198D01*
X49988302Y-116686897D01*
X49935439Y-116665000D01*
X49364561Y-116665000D01*
X49284700Y-116698080D01*
X49284700Y-110835750D01*
X52940000Y-110835750D01*
X52940000Y-111426310D01*
X53036673Y-111659699D01*
X53215302Y-111838327D01*
X53448691Y-111935000D01*
X53814250Y-111935000D01*
X53973000Y-111776250D01*
X53973000Y-110677000D01*
X53098750Y-110677000D01*
X52940000Y-110835750D01*
X49284700Y-110835750D01*
X49284700Y-109673690D01*
X52940000Y-109673690D01*
X52940000Y-110264250D01*
X53098750Y-110423000D01*
X53973000Y-110423000D01*
X53973000Y-109323750D01*
X53814250Y-109165000D01*
X53448691Y-109165000D01*
X53215302Y-109261673D01*
X53036673Y-109440301D01*
X52940000Y-109673690D01*
X49284700Y-109673690D01*
X49284700Y-104783546D01*
X49299588Y-104708699D01*
X49284700Y-104633852D01*
X49284700Y-104633848D01*
X49240604Y-104412163D01*
X49072629Y-104160771D01*
X49009173Y-104118371D01*
X44077023Y-99186222D01*
X44301740Y-98849909D01*
X44413113Y-98290000D01*
X44301740Y-97730091D01*
X43984577Y-97255423D01*
X43863894Y-97174785D01*
X43997765Y-97148157D01*
X44207809Y-97007809D01*
X44348157Y-96797765D01*
X44396985Y-96552289D01*
X44476101Y-96536552D01*
X44752301Y-96352001D01*
X44936852Y-96075801D01*
X45001658Y-95750000D01*
X45000647Y-95744920D01*
X47723968Y-93021600D01*
X47783974Y-93021600D01*
X48164380Y-92864031D01*
X48198801Y-92829610D01*
X48198800Y-100839953D01*
X48183912Y-100914800D01*
X48198800Y-100989647D01*
X48198800Y-100989651D01*
X48242896Y-101211336D01*
X48410871Y-101462729D01*
X48474330Y-101505131D01*
X49442977Y-102473779D01*
X49218260Y-102810091D01*
X49106887Y-103370000D01*
X49218260Y-103929909D01*
X49535423Y-104404577D01*
X50010091Y-104721740D01*
X50428667Y-104805000D01*
X50711333Y-104805000D01*
X51129909Y-104721740D01*
X51604577Y-104404577D01*
X51921740Y-103929909D01*
X52033113Y-103370000D01*
X51921740Y-102810091D01*
X51604577Y-102335423D01*
X51325896Y-102149214D01*
X51308614Y-102062333D01*
X51604577Y-101864577D01*
X51921740Y-101389909D01*
X52033113Y-100830000D01*
X51934801Y-100335750D01*
X53915000Y-100335750D01*
X53915000Y-101076310D01*
X54011673Y-101309699D01*
X54190302Y-101488327D01*
X54423691Y-101585000D01*
X55164250Y-101585000D01*
X55323000Y-101426250D01*
X55323000Y-100177000D01*
X54073750Y-100177000D01*
X53915000Y-100335750D01*
X51934801Y-100335750D01*
X51921740Y-100270091D01*
X51604577Y-99795423D01*
X51325896Y-99609214D01*
X51308614Y-99522333D01*
X51604577Y-99324577D01*
X51805623Y-99023690D01*
X53915000Y-99023690D01*
X53915000Y-99764250D01*
X54073750Y-99923000D01*
X55323000Y-99923000D01*
X55323000Y-98673750D01*
X55577000Y-98673750D01*
X55577000Y-99923000D01*
X55597000Y-99923000D01*
X55597000Y-100177000D01*
X55577000Y-100177000D01*
X55577000Y-101426250D01*
X55735750Y-101585000D01*
X56476309Y-101585000D01*
X56709698Y-101488327D01*
X56888327Y-101309699D01*
X56944139Y-101174956D01*
X57120493Y-101351310D01*
X57684670Y-101585000D01*
X58295330Y-101585000D01*
X58859507Y-101351310D01*
X59291310Y-100919507D01*
X59525000Y-100355330D01*
X59525000Y-99744670D01*
X59291310Y-99180493D01*
X58859507Y-98748690D01*
X58295330Y-98515000D01*
X57684670Y-98515000D01*
X57120493Y-98748690D01*
X56944139Y-98925044D01*
X56888327Y-98790301D01*
X56709698Y-98611673D01*
X56476309Y-98515000D01*
X55735750Y-98515000D01*
X55577000Y-98673750D01*
X55323000Y-98673750D01*
X55164250Y-98515000D01*
X54423691Y-98515000D01*
X54190302Y-98611673D01*
X54011673Y-98790301D01*
X53915000Y-99023690D01*
X51805623Y-99023690D01*
X51921740Y-98849909D01*
X52033113Y-98290000D01*
X51921740Y-97730091D01*
X51697023Y-97393778D01*
X57774473Y-91316329D01*
X57837929Y-91273929D01*
X58005904Y-91022537D01*
X58020444Y-90949440D01*
X58052000Y-90949440D01*
X58299765Y-90900157D01*
X58509809Y-90759809D01*
X58650157Y-90549765D01*
X58699440Y-90302000D01*
X58699440Y-88778000D01*
X58650157Y-88530235D01*
X58509809Y-88320191D01*
X58502317Y-88315185D01*
X58861775Y-87955727D01*
X58925229Y-87913329D01*
X58967627Y-87849876D01*
X58967629Y-87849874D01*
X59093203Y-87661938D01*
X59093204Y-87661937D01*
X59137300Y-87440252D01*
X59137300Y-87440248D01*
X59152188Y-87365401D01*
X59137300Y-87290554D01*
X59137300Y-84033246D01*
X59152188Y-83958399D01*
X59137300Y-83883552D01*
X59137300Y-83883548D01*
X59093204Y-83661863D01*
X58979730Y-83492037D01*
X58967629Y-83473926D01*
X58967627Y-83473924D01*
X58925229Y-83410471D01*
X58861776Y-83368073D01*
X45382692Y-69888991D01*
X45576890Y-69991476D01*
X45986924Y-69821645D01*
X46415183Y-69431358D01*
X46476157Y-69301522D01*
X46689375Y-69620625D01*
X47180582Y-69948839D01*
X47613744Y-70035000D01*
X47906256Y-70035000D01*
X48339418Y-69948839D01*
X48830625Y-69620625D01*
X48842816Y-69602381D01*
X48851843Y-69647765D01*
X48992191Y-69857809D01*
X49202235Y-69998157D01*
X49450000Y-70047440D01*
X51150000Y-70047440D01*
X51397765Y-69998157D01*
X51607809Y-69857809D01*
X51748157Y-69647765D01*
X51797440Y-69400000D01*
X51797440Y-67700000D01*
X51748157Y-67452235D01*
X51607809Y-67242191D01*
X51397765Y-67101843D01*
X51150000Y-67052560D01*
X49450000Y-67052560D01*
X49202235Y-67101843D01*
X48992191Y-67242191D01*
X48851843Y-67452235D01*
X48842816Y-67497619D01*
X48830625Y-67479375D01*
X48339418Y-67151161D01*
X47906256Y-67065000D01*
X47613744Y-67065000D01*
X47180582Y-67151161D01*
X46689375Y-67479375D01*
X46476157Y-67798478D01*
X46415183Y-67668642D01*
X45986924Y-67278355D01*
X45576890Y-67108524D01*
X45347000Y-67229845D01*
X45347000Y-68423000D01*
X45367000Y-68423000D01*
X45367000Y-68677000D01*
X45347000Y-68677000D01*
X45347000Y-68697000D01*
X45093000Y-68697000D01*
X45093000Y-68677000D01*
X45073000Y-68677000D01*
X45073000Y-68423000D01*
X45093000Y-68423000D01*
X45093000Y-67229845D01*
X44863110Y-67108524D01*
X44453076Y-67278355D01*
X44024817Y-67668642D01*
X43964606Y-67796853D01*
X43962474Y-67796429D01*
X43750625Y-67479375D01*
X43259418Y-67151161D01*
X42826256Y-67065000D01*
X42533744Y-67065000D01*
X42100582Y-67151161D01*
X41609375Y-67479375D01*
X41410000Y-67777761D01*
X41210625Y-67479375D01*
X40719418Y-67151161D01*
X40286256Y-67065000D01*
X39993744Y-67065000D01*
X39560582Y-67151161D01*
X39069375Y-67479375D01*
X38741161Y-67970582D01*
X38625908Y-68550000D01*
X38741161Y-69129418D01*
X39069375Y-69620625D01*
X39386430Y-69832475D01*
X39424097Y-70021837D01*
X39592072Y-70273229D01*
X39655528Y-70315629D01*
X40438700Y-71098802D01*
X40438701Y-81595343D01*
X40423811Y-81670200D01*
X40438700Y-81745052D01*
X40438700Y-81857772D01*
X40335439Y-81815000D01*
X39764561Y-81815000D01*
X39237138Y-82033466D01*
X38833466Y-82437138D01*
X38615000Y-82964561D01*
X38615000Y-83535439D01*
X38658435Y-83640300D01*
X38315102Y-83640300D01*
X38263104Y-83588302D01*
X38285000Y-83535439D01*
X38285000Y-82964561D01*
X38066534Y-82437138D01*
X37662862Y-82033466D01*
X37135439Y-81815000D01*
X36564561Y-81815000D01*
X36037138Y-82033466D01*
X35633466Y-82437138D01*
X35415000Y-82964561D01*
X35415000Y-83535439D01*
X35633466Y-84062862D01*
X35661304Y-84090700D01*
X35565502Y-84090700D01*
X35063103Y-83588302D01*
X35085000Y-83535439D01*
X35085000Y-82964561D01*
X34866534Y-82437138D01*
X34462862Y-82033466D01*
X33935439Y-81815000D01*
X33364561Y-81815000D01*
X32837138Y-82033466D01*
X32433466Y-82437138D01*
X32215000Y-82964561D01*
X29310000Y-82964561D01*
X29310000Y-49255431D01*
X31365000Y-49255431D01*
X31365000Y-50144569D01*
X31705259Y-50966026D01*
X32333974Y-51594741D01*
X33155431Y-51935000D01*
X34044569Y-51935000D01*
X34866026Y-51594741D01*
X35494741Y-50966026D01*
X35835000Y-50144569D01*
X35835000Y-49750000D01*
X41155908Y-49750000D01*
X41271161Y-50329418D01*
X41599375Y-50820625D01*
X42090582Y-51148839D01*
X42523744Y-51235000D01*
X42816256Y-51235000D01*
X43249418Y-51148839D01*
X43740625Y-50820625D01*
X43953843Y-50501522D01*
X44014817Y-50631358D01*
X44443076Y-51021645D01*
X44853110Y-51191476D01*
X45083000Y-51070155D01*
X45083000Y-49877000D01*
X45063000Y-49877000D01*
X45063000Y-49623000D01*
X45083000Y-49623000D01*
X45083000Y-48429845D01*
X45337000Y-48429845D01*
X45337000Y-49623000D01*
X45357000Y-49623000D01*
X45357000Y-49877000D01*
X45337000Y-49877000D01*
X45337000Y-51070155D01*
X45566890Y-51191476D01*
X45976924Y-51021645D01*
X46281261Y-50744292D01*
X46301843Y-50847765D01*
X46442191Y-51057809D01*
X46652235Y-51198157D01*
X46900000Y-51247440D01*
X48600000Y-51247440D01*
X48847765Y-51198157D01*
X49057809Y-51057809D01*
X49198157Y-50847765D01*
X49247440Y-50600000D01*
X49247440Y-49255431D01*
X54565000Y-49255431D01*
X54565000Y-50144569D01*
X54905259Y-50966026D01*
X55533974Y-51594741D01*
X56355431Y-51935000D01*
X57244569Y-51935000D01*
X58066026Y-51594741D01*
X58694741Y-50966026D01*
X59035000Y-50144569D01*
X59035000Y-49255431D01*
X58694741Y-48433974D01*
X58066026Y-47805259D01*
X57244569Y-47465000D01*
X56355431Y-47465000D01*
X55533974Y-47805259D01*
X54905259Y-48433974D01*
X54565000Y-49255431D01*
X49247440Y-49255431D01*
X49247440Y-48900000D01*
X49198157Y-48652235D01*
X49057809Y-48442191D01*
X48847765Y-48301843D01*
X48600000Y-48252560D01*
X46900000Y-48252560D01*
X46652235Y-48301843D01*
X46442191Y-48442191D01*
X46301843Y-48652235D01*
X46281261Y-48755708D01*
X45976924Y-48478355D01*
X45566890Y-48308524D01*
X45337000Y-48429845D01*
X45083000Y-48429845D01*
X44853110Y-48308524D01*
X44443076Y-48478355D01*
X44014817Y-48868642D01*
X43953843Y-48998478D01*
X43740625Y-48679375D01*
X43249418Y-48351161D01*
X42816256Y-48265000D01*
X42523744Y-48265000D01*
X42090582Y-48351161D01*
X41599375Y-48679375D01*
X41271161Y-49170582D01*
X41155908Y-49750000D01*
X35835000Y-49750000D01*
X35835000Y-49255431D01*
X35494741Y-48433974D01*
X34866026Y-47805259D01*
X34044569Y-47465000D01*
X33155431Y-47465000D01*
X32333974Y-47805259D01*
X31705259Y-48433974D01*
X31365000Y-49255431D01*
X29310000Y-49255431D01*
X29310000Y-45410000D01*
X61090001Y-45410000D01*
X61090000Y-143990000D01*
G36*
X57617301Y-87050597D02*
X56805527Y-87862371D01*
X56742072Y-87904771D01*
X56699672Y-87968227D01*
X56699671Y-87968228D01*
X56591204Y-88130560D01*
X56528000Y-88130560D01*
X56280235Y-88179843D01*
X56070191Y-88320191D01*
X55929843Y-88530235D01*
X55880560Y-88778000D01*
X55880560Y-90302000D01*
X55929843Y-90549765D01*
X56070191Y-90759809D01*
X56136849Y-90804349D01*
X51838407Y-95102792D01*
X51801041Y-95012577D01*
X51425134Y-94597611D01*
X50919041Y-94358086D01*
X50697000Y-94479371D01*
X50697000Y-95623000D01*
X50717000Y-95623000D01*
X50717000Y-95877000D01*
X50697000Y-95877000D01*
X50697000Y-95897000D01*
X50443000Y-95897000D01*
X50443000Y-95877000D01*
X50423000Y-95877000D01*
X50423000Y-95623000D01*
X50443000Y-95623000D01*
X50443000Y-94479371D01*
X50220959Y-94358086D01*
X50169200Y-94382583D01*
X50169200Y-93387701D01*
X51251973Y-92304929D01*
X51315429Y-92262529D01*
X51483404Y-92011137D01*
X51527500Y-91789452D01*
X51527500Y-91789448D01*
X51542388Y-91714601D01*
X51527500Y-91639754D01*
X51527500Y-88934000D01*
X53501153Y-88934000D01*
X53576000Y-88948888D01*
X53650847Y-88934000D01*
X53650852Y-88934000D01*
X53872537Y-88889904D01*
X54123929Y-88721929D01*
X54166331Y-88658470D01*
X56980782Y-85844020D01*
X57012119Y-85857000D01*
X57567881Y-85857000D01*
X57617301Y-85836530D01*
X57617301Y-87050597D01*
X57617301Y-87050597D01*
G37*
X57617301Y-87050597D02*
X56805527Y-87862371D01*
X56742072Y-87904771D01*
X56699672Y-87968227D01*
X56699671Y-87968228D01*
X56591204Y-88130560D01*
X56528000Y-88130560D01*
X56280235Y-88179843D01*
X56070191Y-88320191D01*
X55929843Y-88530235D01*
X55880560Y-88778000D01*
X55880560Y-90302000D01*
X55929843Y-90549765D01*
X56070191Y-90759809D01*
X56136849Y-90804349D01*
X51838407Y-95102792D01*
X51801041Y-95012577D01*
X51425134Y-94597611D01*
X50919041Y-94358086D01*
X50697000Y-94479371D01*
X50697000Y-95623000D01*
X50717000Y-95623000D01*
X50717000Y-95877000D01*
X50697000Y-95877000D01*
X50697000Y-95897000D01*
X50443000Y-95897000D01*
X50443000Y-95877000D01*
X50423000Y-95877000D01*
X50423000Y-95623000D01*
X50443000Y-95623000D01*
X50443000Y-94479371D01*
X50220959Y-94358086D01*
X50169200Y-94382583D01*
X50169200Y-93387701D01*
X51251973Y-92304929D01*
X51315429Y-92262529D01*
X51483404Y-92011137D01*
X51527500Y-91789452D01*
X51527500Y-91789448D01*
X51542388Y-91714601D01*
X51527500Y-91639754D01*
X51527500Y-88934000D01*
X53501153Y-88934000D01*
X53576000Y-88948888D01*
X53650847Y-88934000D01*
X53650852Y-88934000D01*
X53872537Y-88889904D01*
X54123929Y-88721929D01*
X54166331Y-88658470D01*
X56980782Y-85844020D01*
X57012119Y-85857000D01*
X57567881Y-85857000D01*
X57617301Y-85836530D01*
X57617301Y-87050597D01*
G04 #@! TD*
M02*
