G04 #@! TF.GenerationSoftware,KiCad,Pcbnew,(5.0.0)*
G04 #@! TF.CreationDate,2019-09-04T21:05:25+09:00*
G04 #@! TF.ProjectId,ir_send_mod,69725F73656E645F6D6F642E6B696361,rev?*
G04 #@! TF.SameCoordinates,Original*
G04 #@! TF.FileFunction,Legend,Top*
G04 #@! TF.FilePolarity,Positive*
%FSLAX46Y46*%
G04 Gerber Fmt 4.6, Leading zero omitted, Abs format (unit mm)*
G04 Created by KiCad (PCBNEW (5.0.0)) date 09/04/19 21:05:25*
%MOMM*%
%LPD*%
G01*
G04 APERTURE LIST*
%ADD10C,0.300000*%
%ADD11C,0.800000*%
%ADD12C,0.150000*%
%ADD13C,0.200000*%
%ADD14C,0.120000*%
%ADD15C,3.600000*%
%ADD16C,2.200000*%
%ADD17R,2.200000X2.200000*%
%ADD18O,1.450000X1.900000*%
%ADD19R,1.450000X1.900000*%
%ADD20R,2.400000X2.305000*%
%ADD21O,2.400000X2.305000*%
%ADD22C,2.000000*%
%ADD23O,2.000000X2.000000*%
%ADD24C,1.924000*%
%ADD25R,1.924000X1.924000*%
%ADD26R,2.000000X2.000000*%
%ADD27R,2.100000X2.100000*%
%ADD28O,2.100000X2.100000*%
G04 APERTURE END LIST*
D10*
X32657142Y-62507142D02*
X33800000Y-62507142D01*
X35657142Y-63078571D02*
X35657142Y-62078571D01*
X35657142Y-61578571D02*
X35585714Y-61650000D01*
X35657142Y-61721428D01*
X35728571Y-61650000D01*
X35657142Y-61578571D01*
X35657142Y-61721428D01*
X36371428Y-62078571D02*
X36371428Y-63078571D01*
X36371428Y-62221428D02*
X36442857Y-62150000D01*
X36585714Y-62078571D01*
X36800000Y-62078571D01*
X36942857Y-62150000D01*
X37014285Y-62292857D01*
X37014285Y-63078571D01*
X37514285Y-62078571D02*
X38085714Y-62078571D01*
X37728571Y-63078571D02*
X37728571Y-61792857D01*
X37800000Y-61650000D01*
X37942857Y-61578571D01*
X38085714Y-61578571D01*
X38585714Y-63078571D02*
X38585714Y-62078571D01*
X38585714Y-62364285D02*
X38657142Y-62221428D01*
X38728571Y-62150000D01*
X38871428Y-62078571D01*
X39014285Y-62078571D01*
X40157142Y-63078571D02*
X40157142Y-62292857D01*
X40085714Y-62150000D01*
X39942857Y-62078571D01*
X39657142Y-62078571D01*
X39514285Y-62150000D01*
X40157142Y-63007142D02*
X40014285Y-63078571D01*
X39657142Y-63078571D01*
X39514285Y-63007142D01*
X39442857Y-62864285D01*
X39442857Y-62721428D01*
X39514285Y-62578571D01*
X39657142Y-62507142D01*
X40014285Y-62507142D01*
X40157142Y-62435714D01*
X40871428Y-63078571D02*
X40871428Y-62078571D01*
X40871428Y-62364285D02*
X40942857Y-62221428D01*
X41014285Y-62150000D01*
X41157142Y-62078571D01*
X41300000Y-62078571D01*
X42371428Y-63007142D02*
X42228571Y-63078571D01*
X41942857Y-63078571D01*
X41800000Y-63007142D01*
X41728571Y-62864285D01*
X41728571Y-62292857D01*
X41800000Y-62150000D01*
X41942857Y-62078571D01*
X42228571Y-62078571D01*
X42371428Y-62150000D01*
X42442857Y-62292857D01*
X42442857Y-62435714D01*
X41728571Y-62578571D01*
X43728571Y-63078571D02*
X43728571Y-61578571D01*
X43728571Y-63007142D02*
X43585714Y-63078571D01*
X43300000Y-63078571D01*
X43157142Y-63007142D01*
X43085714Y-62935714D01*
X43014285Y-62792857D01*
X43014285Y-62364285D01*
X43085714Y-62221428D01*
X43157142Y-62150000D01*
X43300000Y-62078571D01*
X43585714Y-62078571D01*
X43728571Y-62150000D01*
X45514285Y-63007142D02*
X45657142Y-63078571D01*
X45942857Y-63078571D01*
X46085714Y-63007142D01*
X46157142Y-62864285D01*
X46157142Y-62792857D01*
X46085714Y-62650000D01*
X45942857Y-62578571D01*
X45728571Y-62578571D01*
X45585714Y-62507142D01*
X45514285Y-62364285D01*
X45514285Y-62292857D01*
X45585714Y-62150000D01*
X45728571Y-62078571D01*
X45942857Y-62078571D01*
X46085714Y-62150000D01*
X46800000Y-63078571D02*
X46800000Y-61578571D01*
X47442857Y-63078571D02*
X47442857Y-62292857D01*
X47371428Y-62150000D01*
X47228571Y-62078571D01*
X47014285Y-62078571D01*
X46871428Y-62150000D01*
X46800000Y-62221428D01*
X48371428Y-63078571D02*
X48228571Y-63007142D01*
X48157142Y-62935714D01*
X48085714Y-62792857D01*
X48085714Y-62364285D01*
X48157142Y-62221428D01*
X48228571Y-62150000D01*
X48371428Y-62078571D01*
X48585714Y-62078571D01*
X48728571Y-62150000D01*
X48800000Y-62221428D01*
X48871428Y-62364285D01*
X48871428Y-62792857D01*
X48800000Y-62935714D01*
X48728571Y-63007142D01*
X48585714Y-63078571D01*
X48371428Y-63078571D01*
X49728571Y-63078571D02*
X49585714Y-63007142D01*
X49514285Y-62935714D01*
X49442857Y-62792857D01*
X49442857Y-62364285D01*
X49514285Y-62221428D01*
X49585714Y-62150000D01*
X49728571Y-62078571D01*
X49942857Y-62078571D01*
X50085714Y-62150000D01*
X50157142Y-62221428D01*
X50228571Y-62364285D01*
X50228571Y-62792857D01*
X50157142Y-62935714D01*
X50085714Y-63007142D01*
X49942857Y-63078571D01*
X49728571Y-63078571D01*
X50657142Y-62078571D02*
X51228571Y-62078571D01*
X50871428Y-61578571D02*
X50871428Y-62864285D01*
X50942857Y-63007142D01*
X51085714Y-63078571D01*
X51228571Y-63078571D01*
X51728571Y-63078571D02*
X51728571Y-62078571D01*
X51728571Y-61578571D02*
X51657142Y-61650000D01*
X51728571Y-61721428D01*
X51800000Y-61650000D01*
X51728571Y-61578571D01*
X51728571Y-61721428D01*
X52442857Y-62078571D02*
X52442857Y-63078571D01*
X52442857Y-62221428D02*
X52514285Y-62150000D01*
X52657142Y-62078571D01*
X52871428Y-62078571D01*
X53014285Y-62150000D01*
X53085714Y-62292857D01*
X53085714Y-63078571D01*
X54442857Y-62078571D02*
X54442857Y-63292857D01*
X54371428Y-63435714D01*
X54300000Y-63507142D01*
X54157142Y-63578571D01*
X53942857Y-63578571D01*
X53800000Y-63507142D01*
X54442857Y-63007142D02*
X54300000Y-63078571D01*
X54014285Y-63078571D01*
X53871428Y-63007142D01*
X53800000Y-62935714D01*
X53728571Y-62792857D01*
X53728571Y-62364285D01*
X53800000Y-62221428D01*
X53871428Y-62150000D01*
X54014285Y-62078571D01*
X54300000Y-62078571D01*
X54442857Y-62150000D01*
X56300000Y-62507142D02*
X57442857Y-62507142D01*
D11*
X37016666Y-59761904D02*
X34635714Y-59761904D01*
X34635714Y-54761904D01*
X40826190Y-59523809D02*
X40350000Y-59761904D01*
X39397619Y-59761904D01*
X38921428Y-59523809D01*
X38683333Y-59285714D01*
X38445238Y-58809523D01*
X38445238Y-57380952D01*
X38683333Y-56904761D01*
X38921428Y-56666666D01*
X39397619Y-56428571D01*
X40350000Y-56428571D01*
X40826190Y-56666666D01*
X42969047Y-59761904D02*
X42969047Y-54761904D01*
X45111904Y-59761904D02*
X45111904Y-57142857D01*
X44873809Y-56666666D01*
X44397619Y-56428571D01*
X43683333Y-56428571D01*
X43207142Y-56666666D01*
X42969047Y-56904761D01*
X47492857Y-59761904D02*
X47492857Y-56428571D01*
X47492857Y-54761904D02*
X47254761Y-55000000D01*
X47492857Y-55238095D01*
X47730952Y-55000000D01*
X47492857Y-54761904D01*
X47492857Y-55238095D01*
X49873809Y-59761904D02*
X49873809Y-54761904D01*
X50350000Y-57857142D02*
X51778571Y-59761904D01*
X51778571Y-56428571D02*
X49873809Y-58333333D01*
X56064285Y-59761904D02*
X56064285Y-57142857D01*
X55826190Y-56666666D01*
X55350000Y-56428571D01*
X54397619Y-56428571D01*
X53921428Y-56666666D01*
X56064285Y-59523809D02*
X55588095Y-59761904D01*
X54397619Y-59761904D01*
X53921428Y-59523809D01*
X53683333Y-59047619D01*
X53683333Y-58571428D01*
X53921428Y-58095238D01*
X54397619Y-57857142D01*
X55588095Y-57857142D01*
X56064285Y-57619047D01*
D12*
X42771428Y-65902380D02*
X42771428Y-64902380D01*
X43152380Y-64902380D01*
X43247619Y-64950000D01*
X43295238Y-64997619D01*
X43342857Y-65092857D01*
X43342857Y-65235714D01*
X43295238Y-65330952D01*
X43247619Y-65378571D01*
X43152380Y-65426190D01*
X42771428Y-65426190D01*
X43771428Y-65902380D02*
X43771428Y-65235714D01*
X43771428Y-64902380D02*
X43723809Y-64950000D01*
X43771428Y-64997619D01*
X43819047Y-64950000D01*
X43771428Y-64902380D01*
X43771428Y-64997619D01*
X44676190Y-65854761D02*
X44580952Y-65902380D01*
X44390476Y-65902380D01*
X44295238Y-65854761D01*
X44247619Y-65807142D01*
X44200000Y-65711904D01*
X44200000Y-65426190D01*
X44247619Y-65330952D01*
X44295238Y-65283333D01*
X44390476Y-65235714D01*
X44580952Y-65235714D01*
X44676190Y-65283333D01*
X45104761Y-65902380D02*
X45104761Y-64902380D01*
X45676190Y-65902380D02*
X45247619Y-65330952D01*
X45676190Y-64902380D02*
X45104761Y-65473809D01*
X46104761Y-65902380D02*
X46104761Y-65235714D01*
X46104761Y-64902380D02*
X46057142Y-64950000D01*
X46104761Y-64997619D01*
X46152380Y-64950000D01*
X46104761Y-64902380D01*
X46104761Y-64997619D01*
X46438095Y-65235714D02*
X46819047Y-65235714D01*
X46580952Y-64902380D02*
X46580952Y-65759523D01*
X46628571Y-65854761D01*
X46723809Y-65902380D01*
X46819047Y-65902380D01*
X47057142Y-64902380D02*
X47676190Y-64902380D01*
X47342857Y-65283333D01*
X47485714Y-65283333D01*
X47580952Y-65330952D01*
X47628571Y-65378571D01*
X47676190Y-65473809D01*
X47676190Y-65711904D01*
X47628571Y-65807142D01*
X47580952Y-65854761D01*
X47485714Y-65902380D01*
X47200000Y-65902380D01*
X47104761Y-65854761D01*
X47057142Y-65807142D01*
X37335714Y-72207142D02*
X37288095Y-72254761D01*
X37145238Y-72302380D01*
X37050000Y-72302380D01*
X36907142Y-72254761D01*
X36811904Y-72159523D01*
X36764285Y-72064285D01*
X36716666Y-71873809D01*
X36716666Y-71730952D01*
X36764285Y-71540476D01*
X36811904Y-71445238D01*
X36907142Y-71350000D01*
X37050000Y-71302380D01*
X37145238Y-71302380D01*
X37288095Y-71350000D01*
X37335714Y-71397619D01*
X38240476Y-72302380D02*
X37764285Y-72302380D01*
X37764285Y-71302380D01*
X38573809Y-72302380D02*
X38573809Y-71302380D01*
X39145238Y-72302380D02*
X38716666Y-71730952D01*
X39145238Y-71302380D02*
X38573809Y-71873809D01*
X40335714Y-72302380D02*
X40335714Y-71302380D01*
X40573809Y-71302380D01*
X40716666Y-71350000D01*
X40811904Y-71445238D01*
X40859523Y-71540476D01*
X40907142Y-71730952D01*
X40907142Y-71873809D01*
X40859523Y-72064285D01*
X40811904Y-72159523D01*
X40716666Y-72254761D01*
X40573809Y-72302380D01*
X40335714Y-72302380D01*
X41288095Y-72016666D02*
X41764285Y-72016666D01*
X41192857Y-72302380D02*
X41526190Y-71302380D01*
X41859523Y-72302380D01*
X42050000Y-71302380D02*
X42621428Y-71302380D01*
X42335714Y-72302380D02*
X42335714Y-71302380D01*
X43573809Y-71302380D02*
X43907142Y-72302380D01*
X44240476Y-71302380D01*
X44526190Y-72254761D02*
X44669047Y-72302380D01*
X44907142Y-72302380D01*
X45002380Y-72254761D01*
X45050000Y-72207142D01*
X45097619Y-72111904D01*
X45097619Y-72016666D01*
X45050000Y-71921428D01*
X45002380Y-71873809D01*
X44907142Y-71826190D01*
X44716666Y-71778571D01*
X44621428Y-71730952D01*
X44573809Y-71683333D01*
X44526190Y-71588095D01*
X44526190Y-71492857D01*
X44573809Y-71397619D01*
X44621428Y-71350000D01*
X44716666Y-71302380D01*
X44954761Y-71302380D01*
X45097619Y-71350000D01*
X45478571Y-72254761D02*
X45621428Y-72302380D01*
X45859523Y-72302380D01*
X45954761Y-72254761D01*
X46002380Y-72207142D01*
X46050000Y-72111904D01*
X46050000Y-72016666D01*
X46002380Y-71921428D01*
X45954761Y-71873809D01*
X45859523Y-71826190D01*
X45669047Y-71778571D01*
X45573809Y-71730952D01*
X45526190Y-71683333D01*
X45478571Y-71588095D01*
X45478571Y-71492857D01*
X45526190Y-71397619D01*
X45573809Y-71350000D01*
X45669047Y-71302380D01*
X45907142Y-71302380D01*
X46050000Y-71350000D01*
X47097619Y-71302380D02*
X47430952Y-72302380D01*
X47764285Y-71302380D01*
X48097619Y-72302380D02*
X48097619Y-71302380D01*
X48335714Y-71302380D01*
X48478571Y-71350000D01*
X48573809Y-71445238D01*
X48621428Y-71540476D01*
X48669047Y-71730952D01*
X48669047Y-71873809D01*
X48621428Y-72064285D01*
X48573809Y-72159523D01*
X48478571Y-72254761D01*
X48335714Y-72302380D01*
X48097619Y-72302380D01*
X49097619Y-72302380D02*
X49097619Y-71302380D01*
X49335714Y-71302380D01*
X49478571Y-71350000D01*
X49573809Y-71445238D01*
X49621428Y-71540476D01*
X49669047Y-71730952D01*
X49669047Y-71873809D01*
X49621428Y-72064285D01*
X49573809Y-72159523D01*
X49478571Y-72254761D01*
X49335714Y-72302380D01*
X49097619Y-72302380D01*
X50859523Y-72302380D02*
X50859523Y-71302380D01*
X51192857Y-72016666D01*
X51526190Y-71302380D01*
X51526190Y-72302380D01*
X52573809Y-72207142D02*
X52526190Y-72254761D01*
X52383333Y-72302380D01*
X52288095Y-72302380D01*
X52145238Y-72254761D01*
X52050000Y-72159523D01*
X52002380Y-72064285D01*
X51954761Y-71873809D01*
X51954761Y-71730952D01*
X52002380Y-71540476D01*
X52050000Y-71445238D01*
X52145238Y-71350000D01*
X52288095Y-71302380D01*
X52383333Y-71302380D01*
X52526190Y-71350000D01*
X52573809Y-71397619D01*
X53478571Y-72302380D02*
X53002380Y-72302380D01*
X53002380Y-71302380D01*
X41290476Y-80052380D02*
X40957142Y-79576190D01*
X40719047Y-80052380D02*
X40719047Y-79052380D01*
X41100000Y-79052380D01*
X41195238Y-79100000D01*
X41242857Y-79147619D01*
X41290476Y-79242857D01*
X41290476Y-79385714D01*
X41242857Y-79480952D01*
X41195238Y-79528571D01*
X41100000Y-79576190D01*
X40719047Y-79576190D01*
X42147619Y-79385714D02*
X42147619Y-80052380D01*
X41719047Y-79385714D02*
X41719047Y-79909523D01*
X41766666Y-80004761D01*
X41861904Y-80052380D01*
X42004761Y-80052380D01*
X42100000Y-80004761D01*
X42147619Y-79957142D01*
X42623809Y-79385714D02*
X42623809Y-80052380D01*
X42623809Y-79480952D02*
X42671428Y-79433333D01*
X42766666Y-79385714D01*
X42909523Y-79385714D01*
X43004761Y-79433333D01*
X43052380Y-79528571D01*
X43052380Y-80052380D01*
X43671428Y-79814285D02*
X44147619Y-79814285D01*
X43671428Y-79528571D02*
X44147619Y-79528571D01*
X43766666Y-79909523D02*
X43528571Y-79671428D01*
X43766666Y-79433333D01*
X44052380Y-79433333D02*
X44290476Y-79671428D01*
X44052380Y-79909523D01*
X44766666Y-79052380D02*
X44766666Y-79861904D01*
X44814285Y-79957142D01*
X44861904Y-80004761D01*
X44957142Y-80052380D01*
X45147619Y-80052380D01*
X45242857Y-80004761D01*
X45290476Y-79957142D01*
X45338095Y-79861904D01*
X45338095Y-79052380D01*
X45814285Y-79385714D02*
X45814285Y-80385714D01*
X45814285Y-79433333D02*
X45909523Y-79385714D01*
X46100000Y-79385714D01*
X46195238Y-79433333D01*
X46242857Y-79480952D01*
X46290476Y-79576190D01*
X46290476Y-79861904D01*
X46242857Y-79957142D01*
X46195238Y-80004761D01*
X46100000Y-80052380D01*
X45909523Y-80052380D01*
X45814285Y-80004761D01*
X46861904Y-80052380D02*
X46766666Y-80004761D01*
X46719047Y-79909523D01*
X46719047Y-79052380D01*
X47385714Y-80052380D02*
X47290476Y-80004761D01*
X47242857Y-79957142D01*
X47195238Y-79861904D01*
X47195238Y-79576190D01*
X47242857Y-79480952D01*
X47290476Y-79433333D01*
X47385714Y-79385714D01*
X47528571Y-79385714D01*
X47623809Y-79433333D01*
X47671428Y-79480952D01*
X47719047Y-79576190D01*
X47719047Y-79861904D01*
X47671428Y-79957142D01*
X47623809Y-80004761D01*
X47528571Y-80052380D01*
X47385714Y-80052380D01*
X48576190Y-80052380D02*
X48576190Y-79528571D01*
X48528571Y-79433333D01*
X48433333Y-79385714D01*
X48242857Y-79385714D01*
X48147619Y-79433333D01*
X48576190Y-80004761D02*
X48480952Y-80052380D01*
X48242857Y-80052380D01*
X48147619Y-80004761D01*
X48100000Y-79909523D01*
X48100000Y-79814285D01*
X48147619Y-79719047D01*
X48242857Y-79671428D01*
X48480952Y-79671428D01*
X48576190Y-79623809D01*
X49480952Y-80052380D02*
X49480952Y-79052380D01*
X49480952Y-80004761D02*
X49385714Y-80052380D01*
X49195238Y-80052380D01*
X49100000Y-80004761D01*
X49052380Y-79957142D01*
X49004761Y-79861904D01*
X49004761Y-79576190D01*
X49052380Y-79480952D01*
X49100000Y-79433333D01*
X49195238Y-79385714D01*
X49385714Y-79385714D01*
X49480952Y-79433333D01*
X30802380Y-98978571D02*
X29802380Y-98978571D01*
X30802380Y-97930952D02*
X30326190Y-98264285D01*
X30802380Y-98502380D02*
X29802380Y-98502380D01*
X29802380Y-98121428D01*
X29850000Y-98026190D01*
X29897619Y-97978571D01*
X29992857Y-97930952D01*
X30135714Y-97930952D01*
X30230952Y-97978571D01*
X30278571Y-98026190D01*
X30326190Y-98121428D01*
X30326190Y-98502380D01*
X29802380Y-96550000D02*
X29802380Y-96359523D01*
X29850000Y-96264285D01*
X29945238Y-96169047D01*
X30135714Y-96121428D01*
X30469047Y-96121428D01*
X30659523Y-96169047D01*
X30754761Y-96264285D01*
X30802380Y-96359523D01*
X30802380Y-96550000D01*
X30754761Y-96645238D01*
X30659523Y-96740476D01*
X30469047Y-96788095D01*
X30135714Y-96788095D01*
X29945238Y-96740476D01*
X29850000Y-96645238D01*
X29802380Y-96550000D01*
X30802380Y-95692857D02*
X29802380Y-95692857D01*
X30802380Y-95121428D01*
X29802380Y-95121428D01*
X51459523Y-81407142D02*
X51411904Y-81454761D01*
X51269047Y-81502380D01*
X51173809Y-81502380D01*
X51030952Y-81454761D01*
X50935714Y-81359523D01*
X50888095Y-81264285D01*
X50840476Y-81073809D01*
X50840476Y-80930952D01*
X50888095Y-80740476D01*
X50935714Y-80645238D01*
X51030952Y-80550000D01*
X51173809Y-80502380D01*
X51269047Y-80502380D01*
X51411904Y-80550000D01*
X51459523Y-80597619D01*
X51888095Y-81502380D02*
X51888095Y-80502380D01*
X52316666Y-81502380D02*
X52316666Y-80978571D01*
X52269047Y-80883333D01*
X52173809Y-80835714D01*
X52030952Y-80835714D01*
X51935714Y-80883333D01*
X51888095Y-80930952D01*
X53221428Y-81502380D02*
X53221428Y-80978571D01*
X53173809Y-80883333D01*
X53078571Y-80835714D01*
X52888095Y-80835714D01*
X52792857Y-80883333D01*
X53221428Y-81454761D02*
X53126190Y-81502380D01*
X52888095Y-81502380D01*
X52792857Y-81454761D01*
X52745238Y-81359523D01*
X52745238Y-81264285D01*
X52792857Y-81169047D01*
X52888095Y-81121428D01*
X53126190Y-81121428D01*
X53221428Y-81073809D01*
X53697619Y-80835714D02*
X53697619Y-81502380D01*
X53697619Y-80930952D02*
X53745238Y-80883333D01*
X53840476Y-80835714D01*
X53983333Y-80835714D01*
X54078571Y-80883333D01*
X54126190Y-80978571D01*
X54126190Y-81502380D01*
X54602380Y-80835714D02*
X54602380Y-81502380D01*
X54602380Y-80930952D02*
X54650000Y-80883333D01*
X54745238Y-80835714D01*
X54888095Y-80835714D01*
X54983333Y-80883333D01*
X55030952Y-80978571D01*
X55030952Y-81502380D01*
X55888095Y-81454761D02*
X55792857Y-81502380D01*
X55602380Y-81502380D01*
X55507142Y-81454761D01*
X55459523Y-81359523D01*
X55459523Y-80978571D01*
X55507142Y-80883333D01*
X55602380Y-80835714D01*
X55792857Y-80835714D01*
X55888095Y-80883333D01*
X55935714Y-80978571D01*
X55935714Y-81073809D01*
X55459523Y-81169047D01*
X56507142Y-81502380D02*
X56411904Y-81454761D01*
X56364285Y-81359523D01*
X56364285Y-80502380D01*
D13*
X56107142Y-104452380D02*
X55630952Y-104452380D01*
X55630952Y-103452380D01*
X56440476Y-103928571D02*
X56773809Y-103928571D01*
X56916666Y-104452380D02*
X56440476Y-104452380D01*
X56440476Y-103452380D01*
X56916666Y-103452380D01*
X57345238Y-104452380D02*
X57345238Y-103452380D01*
X57583333Y-103452380D01*
X57726190Y-103500000D01*
X57821428Y-103595238D01*
X57869047Y-103690476D01*
X57916666Y-103880952D01*
X57916666Y-104023809D01*
X57869047Y-104214285D01*
X57821428Y-104309523D01*
X57726190Y-104404761D01*
X57583333Y-104452380D01*
X57345238Y-104452380D01*
X35652380Y-136352380D02*
X35652380Y-135352380D01*
X36700000Y-136352380D02*
X36366666Y-135876190D01*
X36128571Y-136352380D02*
X36128571Y-135352380D01*
X36509523Y-135352380D01*
X36604761Y-135400000D01*
X36652380Y-135447619D01*
X36700000Y-135542857D01*
X36700000Y-135685714D01*
X36652380Y-135780952D01*
X36604761Y-135828571D01*
X36509523Y-135876190D01*
X36128571Y-135876190D01*
X38366666Y-136352380D02*
X37890476Y-136352380D01*
X37890476Y-135352380D01*
X38700000Y-135828571D02*
X39033333Y-135828571D01*
X39176190Y-136352380D02*
X38700000Y-136352380D01*
X38700000Y-135352380D01*
X39176190Y-135352380D01*
X39604761Y-136352380D02*
X39604761Y-135352380D01*
X39842857Y-135352380D01*
X39985714Y-135400000D01*
X40080952Y-135495238D01*
X40128571Y-135590476D01*
X40176190Y-135780952D01*
X40176190Y-135923809D01*
X40128571Y-136114285D01*
X40080952Y-136209523D01*
X39985714Y-136304761D01*
X39842857Y-136352380D01*
X39604761Y-136352380D01*
X40890476Y-136733333D02*
X40842857Y-136685714D01*
X40747619Y-136542857D01*
X40700000Y-136447619D01*
X40652380Y-136304761D01*
X40604761Y-136066666D01*
X40604761Y-135876190D01*
X40652380Y-135638095D01*
X40700000Y-135495238D01*
X40747619Y-135400000D01*
X40842857Y-135257142D01*
X40890476Y-135209523D01*
X41461904Y-135352380D02*
X41652380Y-135352380D01*
X41747619Y-135400000D01*
X41842857Y-135495238D01*
X41890476Y-135685714D01*
X41890476Y-136019047D01*
X41842857Y-136209523D01*
X41747619Y-136304761D01*
X41652380Y-136352380D01*
X41461904Y-136352380D01*
X41366666Y-136304761D01*
X41271428Y-136209523D01*
X41223809Y-136019047D01*
X41223809Y-135685714D01*
X41271428Y-135495238D01*
X41366666Y-135400000D01*
X41461904Y-135352380D01*
X42271428Y-136304761D02*
X42414285Y-136352380D01*
X42652380Y-136352380D01*
X42747619Y-136304761D01*
X42795238Y-136257142D01*
X42842857Y-136161904D01*
X42842857Y-136066666D01*
X42795238Y-135971428D01*
X42747619Y-135923809D01*
X42652380Y-135876190D01*
X42461904Y-135828571D01*
X42366666Y-135780952D01*
X42319047Y-135733333D01*
X42271428Y-135638095D01*
X42271428Y-135542857D01*
X42319047Y-135447619D01*
X42366666Y-135400000D01*
X42461904Y-135352380D01*
X42700000Y-135352380D01*
X42842857Y-135400000D01*
X43271428Y-136352380D02*
X43271428Y-135352380D01*
X44223809Y-135352380D02*
X43747619Y-135352380D01*
X43700000Y-135828571D01*
X43747619Y-135780952D01*
X43842857Y-135733333D01*
X44080952Y-135733333D01*
X44176190Y-135780952D01*
X44223809Y-135828571D01*
X44271428Y-135923809D01*
X44271428Y-136161904D01*
X44223809Y-136257142D01*
X44176190Y-136304761D01*
X44080952Y-136352380D01*
X43842857Y-136352380D01*
X43747619Y-136304761D01*
X43700000Y-136257142D01*
X45033333Y-135828571D02*
X44700000Y-135828571D01*
X44700000Y-136352380D02*
X44700000Y-135352380D01*
X45176190Y-135352380D01*
X45557142Y-135352380D02*
X45557142Y-136161904D01*
X45604761Y-136257142D01*
X45652380Y-136304761D01*
X45747619Y-136352380D01*
X45938095Y-136352380D01*
X46033333Y-136304761D01*
X46080952Y-136257142D01*
X46128571Y-136161904D01*
X46128571Y-135352380D01*
X47080952Y-135352380D02*
X46604761Y-135352380D01*
X46557142Y-135828571D01*
X46604761Y-135780952D01*
X46700000Y-135733333D01*
X46938095Y-135733333D01*
X47033333Y-135780952D01*
X47080952Y-135828571D01*
X47128571Y-135923809D01*
X47128571Y-136161904D01*
X47080952Y-136257142D01*
X47033333Y-136304761D01*
X46938095Y-136352380D01*
X46700000Y-136352380D01*
X46604761Y-136304761D01*
X46557142Y-136257142D01*
X48080952Y-136352380D02*
X47509523Y-136352380D01*
X47795238Y-136352380D02*
X47795238Y-135352380D01*
X47700000Y-135495238D01*
X47604761Y-135590476D01*
X47509523Y-135638095D01*
X49033333Y-136352380D02*
X48461904Y-136352380D01*
X48747619Y-136352380D02*
X48747619Y-135352380D01*
X48652380Y-135495238D01*
X48557142Y-135590476D01*
X48461904Y-135638095D01*
X49985714Y-136352380D02*
X49414285Y-136352380D01*
X49700000Y-136352380D02*
X49700000Y-135352380D01*
X49604761Y-135495238D01*
X49509523Y-135590476D01*
X49414285Y-135638095D01*
X50985714Y-136257142D02*
X50938095Y-136304761D01*
X50795238Y-136352380D01*
X50700000Y-136352380D01*
X50557142Y-136304761D01*
X50461904Y-136209523D01*
X50414285Y-136114285D01*
X50366666Y-135923809D01*
X50366666Y-135780952D01*
X50414285Y-135590476D01*
X50461904Y-135495238D01*
X50557142Y-135400000D01*
X50700000Y-135352380D01*
X50795238Y-135352380D01*
X50938095Y-135400000D01*
X50985714Y-135447619D01*
X51414285Y-135971428D02*
X52176190Y-135971428D01*
X53080952Y-135685714D02*
X53080952Y-136352380D01*
X52842857Y-135304761D02*
X52604761Y-136019047D01*
X53223809Y-136019047D01*
X53795238Y-135352380D02*
X53890476Y-135352380D01*
X53985714Y-135400000D01*
X54033333Y-135447619D01*
X54080952Y-135542857D01*
X54128571Y-135733333D01*
X54128571Y-135971428D01*
X54080952Y-136161904D01*
X54033333Y-136257142D01*
X53985714Y-136304761D01*
X53890476Y-136352380D01*
X53795238Y-136352380D01*
X53699999Y-136304761D01*
X53652380Y-136257142D01*
X53604761Y-136161904D01*
X53557142Y-135971428D01*
X53557142Y-135733333D01*
X53604761Y-135542857D01*
X53652380Y-135447619D01*
X53699999Y-135400000D01*
X53795238Y-135352380D01*
X54461904Y-136733333D02*
X54509523Y-136685714D01*
X54604761Y-136542857D01*
X54652380Y-136447619D01*
X54699999Y-136304761D01*
X54747619Y-136066666D01*
X54747619Y-135876190D01*
X54699999Y-135638095D01*
X54652380Y-135495238D01*
X54604761Y-135400000D01*
X54509523Y-135257142D01*
X54461904Y-135209523D01*
D12*
X38819047Y-143002380D02*
X38819047Y-142335714D01*
X38819047Y-142002380D02*
X38771428Y-142050000D01*
X38819047Y-142097619D01*
X38866666Y-142050000D01*
X38819047Y-142002380D01*
X38819047Y-142097619D01*
X39295238Y-143002380D02*
X39295238Y-142335714D01*
X39295238Y-142526190D02*
X39342857Y-142430952D01*
X39390476Y-142383333D01*
X39485714Y-142335714D01*
X39580952Y-142335714D01*
X39676190Y-143097619D02*
X40438095Y-143097619D01*
X40628571Y-142954761D02*
X40723809Y-143002380D01*
X40914285Y-143002380D01*
X41009523Y-142954761D01*
X41057142Y-142859523D01*
X41057142Y-142811904D01*
X41009523Y-142716666D01*
X40914285Y-142669047D01*
X40771428Y-142669047D01*
X40676190Y-142621428D01*
X40628571Y-142526190D01*
X40628571Y-142478571D01*
X40676190Y-142383333D01*
X40771428Y-142335714D01*
X40914285Y-142335714D01*
X41009523Y-142383333D01*
X41866666Y-142954761D02*
X41771428Y-143002380D01*
X41580952Y-143002380D01*
X41485714Y-142954761D01*
X41438095Y-142859523D01*
X41438095Y-142478571D01*
X41485714Y-142383333D01*
X41580952Y-142335714D01*
X41771428Y-142335714D01*
X41866666Y-142383333D01*
X41914285Y-142478571D01*
X41914285Y-142573809D01*
X41438095Y-142669047D01*
X42342857Y-142335714D02*
X42342857Y-143002380D01*
X42342857Y-142430952D02*
X42390476Y-142383333D01*
X42485714Y-142335714D01*
X42628571Y-142335714D01*
X42723809Y-142383333D01*
X42771428Y-142478571D01*
X42771428Y-143002380D01*
X43676190Y-143002380D02*
X43676190Y-142002380D01*
X43676190Y-142954761D02*
X43580952Y-143002380D01*
X43390476Y-143002380D01*
X43295238Y-142954761D01*
X43247619Y-142907142D01*
X43200000Y-142811904D01*
X43200000Y-142526190D01*
X43247619Y-142430952D01*
X43295238Y-142383333D01*
X43390476Y-142335714D01*
X43580952Y-142335714D01*
X43676190Y-142383333D01*
X43914285Y-143097619D02*
X44676190Y-143097619D01*
X44914285Y-143002380D02*
X44914285Y-142002380D01*
X44914285Y-142383333D02*
X45009523Y-142335714D01*
X45200000Y-142335714D01*
X45295238Y-142383333D01*
X45342857Y-142430952D01*
X45390476Y-142526190D01*
X45390476Y-142811904D01*
X45342857Y-142907142D01*
X45295238Y-142954761D01*
X45200000Y-143002380D01*
X45009523Y-143002380D01*
X44914285Y-142954761D01*
X45961904Y-143002380D02*
X45866666Y-142954761D01*
X45819047Y-142907142D01*
X45771428Y-142811904D01*
X45771428Y-142526190D01*
X45819047Y-142430952D01*
X45866666Y-142383333D01*
X45961904Y-142335714D01*
X46104761Y-142335714D01*
X46200000Y-142383333D01*
X46247619Y-142430952D01*
X46295238Y-142526190D01*
X46295238Y-142811904D01*
X46247619Y-142907142D01*
X46200000Y-142954761D01*
X46104761Y-143002380D01*
X45961904Y-143002380D01*
X47152380Y-143002380D02*
X47152380Y-142478571D01*
X47104761Y-142383333D01*
X47009523Y-142335714D01*
X46819047Y-142335714D01*
X46723809Y-142383333D01*
X47152380Y-142954761D02*
X47057142Y-143002380D01*
X46819047Y-143002380D01*
X46723809Y-142954761D01*
X46676190Y-142859523D01*
X46676190Y-142764285D01*
X46723809Y-142669047D01*
X46819047Y-142621428D01*
X47057142Y-142621428D01*
X47152380Y-142573809D01*
X47628571Y-143002380D02*
X47628571Y-142335714D01*
X47628571Y-142526190D02*
X47676190Y-142430952D01*
X47723809Y-142383333D01*
X47819047Y-142335714D01*
X47914285Y-142335714D01*
X48676190Y-143002380D02*
X48676190Y-142002380D01*
X48676190Y-142954761D02*
X48580952Y-143002380D01*
X48390476Y-143002380D01*
X48295238Y-142954761D01*
X48247619Y-142907142D01*
X48200000Y-142811904D01*
X48200000Y-142526190D01*
X48247619Y-142430952D01*
X48295238Y-142383333D01*
X48390476Y-142335714D01*
X48580952Y-142335714D01*
X48676190Y-142383333D01*
X49819047Y-142335714D02*
X50057142Y-143002380D01*
X50295238Y-142335714D01*
X50628571Y-142097619D02*
X50676190Y-142050000D01*
X50771428Y-142002380D01*
X51009523Y-142002380D01*
X51104761Y-142050000D01*
X51152380Y-142097619D01*
X51200000Y-142192857D01*
X51200000Y-142288095D01*
X51152380Y-142430952D01*
X50580952Y-143002380D01*
X51200000Y-143002380D01*
X51628571Y-142907142D02*
X51676190Y-142954761D01*
X51628571Y-143002380D01*
X51580952Y-142954761D01*
X51628571Y-142907142D01*
X51628571Y-143002380D01*
X52628571Y-143002380D02*
X52057142Y-143002380D01*
X52342857Y-143002380D02*
X52342857Y-142002380D01*
X52247619Y-142145238D01*
X52152380Y-142240476D01*
X52057142Y-142288095D01*
D13*
X41185714Y-46952380D02*
X41185714Y-45952380D01*
X41661904Y-46952380D02*
X41661904Y-45952380D01*
X42233333Y-46952380D01*
X42233333Y-45952380D01*
X43995238Y-46000000D02*
X43900000Y-45952380D01*
X43757142Y-45952380D01*
X43614285Y-46000000D01*
X43519047Y-46095238D01*
X43471428Y-46190476D01*
X43423809Y-46380952D01*
X43423809Y-46523809D01*
X43471428Y-46714285D01*
X43519047Y-46809523D01*
X43614285Y-46904761D01*
X43757142Y-46952380D01*
X43852380Y-46952380D01*
X43995238Y-46904761D01*
X44042857Y-46857142D01*
X44042857Y-46523809D01*
X43852380Y-46523809D01*
X44471428Y-46952380D02*
X44471428Y-45952380D01*
X45042857Y-46952380D01*
X45042857Y-45952380D01*
X45519047Y-46952380D02*
X45519047Y-45952380D01*
X45757142Y-45952380D01*
X45900000Y-46000000D01*
X45995238Y-46095238D01*
X46042857Y-46190476D01*
X46090476Y-46380952D01*
X46090476Y-46523809D01*
X46042857Y-46714285D01*
X45995238Y-46809523D01*
X45900000Y-46904761D01*
X45757142Y-46952380D01*
X45519047Y-46952380D01*
X47757142Y-45952380D02*
X47280952Y-45952380D01*
X47233333Y-46428571D01*
X47280952Y-46380952D01*
X47376190Y-46333333D01*
X47614285Y-46333333D01*
X47709523Y-46380952D01*
X47757142Y-46428571D01*
X47804761Y-46523809D01*
X47804761Y-46761904D01*
X47757142Y-46857142D01*
X47709523Y-46904761D01*
X47614285Y-46952380D01*
X47376190Y-46952380D01*
X47280952Y-46904761D01*
X47233333Y-46857142D01*
X48090476Y-45952380D02*
X48423809Y-46952380D01*
X48757142Y-45952380D01*
D14*
G04 #@! TO.C,D1*
X32910000Y-130255000D02*
X32910000Y-133345000D01*
X37970000Y-131800000D02*
G75*
G03X37970000Y-131800000I-2500000J0D01*
G01*
X38460000Y-131799538D02*
G75*
G02X32910000Y-133344830I-2990000J-462D01*
G01*
X38460000Y-131800462D02*
G75*
G03X32910000Y-130255170I-2990000J462D01*
G01*
G04 #@! TO.C,D2*
X44960000Y-131800462D02*
G75*
G03X39410000Y-130255170I-2990000J462D01*
G01*
X44960000Y-131799538D02*
G75*
G02X39410000Y-133344830I-2990000J-462D01*
G01*
X44470000Y-131800000D02*
G75*
G03X44470000Y-131800000I-2500000J0D01*
G01*
X39410000Y-130255000D02*
X39410000Y-133345000D01*
G04 #@! TO.C,D3*
X45910000Y-130255000D02*
X45910000Y-133345000D01*
X50970000Y-131800000D02*
G75*
G03X50970000Y-131800000I-2500000J0D01*
G01*
X51460000Y-131799538D02*
G75*
G02X45910000Y-133344830I-2990000J-462D01*
G01*
X51460000Y-131800462D02*
G75*
G03X45910000Y-130255170I-2990000J462D01*
G01*
G04 #@! TO.C,D4*
X57960000Y-131800462D02*
G75*
G03X52410000Y-130255170I-2990000J462D01*
G01*
X57960000Y-131799538D02*
G75*
G02X52410000Y-133344830I-2990000J-462D01*
G01*
X57470000Y-131800000D02*
G75*
G03X57470000Y-131800000I-2500000J0D01*
G01*
X52410000Y-130255000D02*
X52410000Y-133345000D01*
G04 #@! TO.C,D5*
X59710000Y-100050462D02*
G75*
G03X54160000Y-98505170I-2990000J462D01*
G01*
X59710000Y-100049538D02*
G75*
G02X54160000Y-101594830I-2990000J-462D01*
G01*
X59220000Y-100050000D02*
G75*
G03X59220000Y-100050000I-2500000J0D01*
G01*
X54160000Y-98505000D02*
X54160000Y-101595000D01*
G04 #@! TO.C,Q1*
X53570000Y-112400000D02*
X57170000Y-112400000D01*
X53531522Y-112388478D02*
G75*
G02X55370000Y-107950000I1838478J1838478D01*
G01*
X57208478Y-112388478D02*
G75*
G03X55370000Y-107950000I-1838478J1838478D01*
G01*
G04 #@! TO.C,Q2*
X57670000Y-114170000D02*
X57670000Y-124410000D01*
X53029000Y-114170000D02*
X53029000Y-124410000D01*
X57670000Y-114170000D02*
X53029000Y-114170000D01*
X57670000Y-124410000D02*
X53029000Y-124410000D01*
X56160000Y-114170000D02*
X56160000Y-124410000D01*
X57670000Y-117440000D02*
X56160000Y-117440000D01*
X57670000Y-121141000D02*
X56160000Y-121141000D01*
G04 #@! TO.C,R1*
X34690000Y-83790000D02*
X35020000Y-83790000D01*
X35020000Y-83790000D02*
X35020000Y-90330000D01*
X35020000Y-90330000D02*
X34690000Y-90330000D01*
X32610000Y-83790000D02*
X32280000Y-83790000D01*
X32280000Y-83790000D02*
X32280000Y-90330000D01*
X32280000Y-90330000D02*
X32610000Y-90330000D01*
G04 #@! TO.C,R2*
X35480000Y-90330000D02*
X35810000Y-90330000D01*
X35480000Y-83790000D02*
X35480000Y-90330000D01*
X35810000Y-83790000D02*
X35480000Y-83790000D01*
X38220000Y-90330000D02*
X37890000Y-90330000D01*
X38220000Y-83790000D02*
X38220000Y-90330000D01*
X37890000Y-83790000D02*
X38220000Y-83790000D01*
G04 #@! TO.C,R3*
X38680000Y-90330000D02*
X39010000Y-90330000D01*
X38680000Y-83790000D02*
X38680000Y-90330000D01*
X39010000Y-83790000D02*
X38680000Y-83790000D01*
X41420000Y-90330000D02*
X41090000Y-90330000D01*
X41420000Y-83790000D02*
X41420000Y-90330000D01*
X41090000Y-83790000D02*
X41420000Y-83790000D01*
G04 #@! TO.C,R4*
X37160000Y-103280000D02*
X36830000Y-103280000D01*
X36830000Y-103280000D02*
X36830000Y-96740000D01*
X36830000Y-96740000D02*
X37160000Y-96740000D01*
X39240000Y-103280000D02*
X39570000Y-103280000D01*
X39570000Y-103280000D02*
X39570000Y-96740000D01*
X39570000Y-96740000D02*
X39240000Y-96740000D01*
G04 #@! TO.C,R5*
X50690000Y-118640000D02*
X51020000Y-118640000D01*
X51020000Y-118640000D02*
X51020000Y-125180000D01*
X51020000Y-125180000D02*
X50690000Y-125180000D01*
X48610000Y-118640000D02*
X48280000Y-118640000D01*
X48280000Y-118640000D02*
X48280000Y-125180000D01*
X48280000Y-125180000D02*
X48610000Y-125180000D01*
G04 #@! TO.C,R6*
X41880000Y-90330000D02*
X42210000Y-90330000D01*
X41880000Y-83790000D02*
X41880000Y-90330000D01*
X42210000Y-83790000D02*
X41880000Y-83790000D01*
X44620000Y-90330000D02*
X44290000Y-90330000D01*
X44620000Y-83790000D02*
X44620000Y-90330000D01*
X44290000Y-83790000D02*
X44620000Y-83790000D01*
G04 #@! TO.C,R7*
X47540000Y-118640000D02*
X47870000Y-118640000D01*
X47870000Y-118640000D02*
X47870000Y-125180000D01*
X47870000Y-125180000D02*
X47540000Y-125180000D01*
X45460000Y-118640000D02*
X45130000Y-118640000D01*
X45130000Y-118640000D02*
X45130000Y-125180000D01*
X45130000Y-125180000D02*
X45460000Y-125180000D01*
G04 #@! TO.C,R8*
X31030000Y-125130000D02*
X31360000Y-125130000D01*
X31030000Y-118590000D02*
X31030000Y-125130000D01*
X31360000Y-118590000D02*
X31030000Y-118590000D01*
X33770000Y-125130000D02*
X33440000Y-125130000D01*
X33770000Y-118590000D02*
X33770000Y-125130000D01*
X33440000Y-118590000D02*
X33770000Y-118590000D01*
G04 #@! TO.C,R10*
X39690000Y-118590000D02*
X40020000Y-118590000D01*
X40020000Y-118590000D02*
X40020000Y-125130000D01*
X40020000Y-125130000D02*
X39690000Y-125130000D01*
X37610000Y-118590000D02*
X37280000Y-118590000D01*
X37280000Y-118590000D02*
X37280000Y-125130000D01*
X37280000Y-125130000D02*
X37610000Y-125130000D01*
D12*
G04 #@! TO.C,SW1*
X58380000Y-82100000D02*
X58380000Y-91900000D01*
X58380000Y-91900000D02*
X48580000Y-91900000D01*
X48580000Y-91900000D02*
X48580000Y-82100000D01*
X48580000Y-82100000D02*
X58380000Y-82100000D01*
D14*
G04 #@! TO.C,U1*
X47760000Y-94420000D02*
G75*
G02X45760000Y-94420000I-1000000J0D01*
G01*
X45760000Y-94420000D02*
X44110000Y-94420000D01*
X44110000Y-94420000D02*
X44110000Y-104700000D01*
X44110000Y-104700000D02*
X49410000Y-104700000D01*
X49410000Y-104700000D02*
X49410000Y-94420000D01*
X49410000Y-94420000D02*
X47760000Y-94420000D01*
G04 #@! TO.C,R9*
X36590000Y-118590000D02*
X36920000Y-118590000D01*
X36920000Y-118590000D02*
X36920000Y-125130000D01*
X36920000Y-125130000D02*
X36590000Y-125130000D01*
X34510000Y-118590000D02*
X34180000Y-118590000D01*
X34180000Y-118590000D02*
X34180000Y-125130000D01*
X34180000Y-125130000D02*
X34510000Y-125130000D01*
G04 #@! TO.C,R11*
X42790000Y-118590000D02*
X43120000Y-118590000D01*
X43120000Y-118590000D02*
X43120000Y-125130000D01*
X43120000Y-125130000D02*
X42790000Y-125130000D01*
X40710000Y-118590000D02*
X40380000Y-118590000D01*
X40380000Y-118590000D02*
X40380000Y-125130000D01*
X40380000Y-125130000D02*
X40710000Y-125130000D01*
G04 #@! TO.C,SW3*
X34480000Y-96040000D02*
X31820000Y-96040000D01*
X34480000Y-101180000D02*
X34480000Y-96040000D01*
X31820000Y-101180000D02*
X31820000Y-96040000D01*
X34480000Y-101180000D02*
X31820000Y-101180000D01*
X34480000Y-102450000D02*
X34480000Y-103780000D01*
X34480000Y-103780000D02*
X33150000Y-103780000D01*
G04 #@! TO.C,J1*
X38810000Y-67220000D02*
X38810000Y-69880000D01*
X49030000Y-67220000D02*
X38810000Y-67220000D01*
X49030000Y-69880000D02*
X38810000Y-69880000D01*
X49030000Y-67220000D02*
X49030000Y-69880000D01*
X50300000Y-67220000D02*
X51630000Y-67220000D01*
X51630000Y-67220000D02*
X51630000Y-68550000D01*
G04 #@! TO.C,J2*
X41340000Y-48420000D02*
X41340000Y-51080000D01*
X46480000Y-48420000D02*
X41340000Y-48420000D01*
X46480000Y-51080000D02*
X41340000Y-51080000D01*
X46480000Y-48420000D02*
X46480000Y-51080000D01*
X47750000Y-48420000D02*
X49080000Y-48420000D01*
X49080000Y-48420000D02*
X49080000Y-49750000D01*
G04 #@! TO.C,SW2*
X41320000Y-78030000D02*
X41320000Y-76700000D01*
X42650000Y-78030000D02*
X41320000Y-78030000D01*
X43920000Y-78030000D02*
X43920000Y-75370000D01*
X43920000Y-75370000D02*
X49060000Y-75370000D01*
X43920000Y-78030000D02*
X49060000Y-78030000D01*
X49060000Y-78030000D02*
X49060000Y-75370000D01*
G04 #@! TO.C,SW4*
X47420000Y-106010000D02*
X47420000Y-115910000D01*
X34960000Y-106010000D02*
X34960000Y-115910000D01*
X47420000Y-106010000D02*
X34960000Y-106010000D01*
X47420000Y-115910000D02*
X34960000Y-115910000D01*
X47660000Y-105770000D02*
X47660000Y-107154000D01*
X47660000Y-105770000D02*
X46277000Y-105770000D01*
X45635000Y-108930000D02*
X44365000Y-108930000D01*
X44365000Y-108930000D02*
X44365000Y-112990000D01*
X44365000Y-112990000D02*
X45635000Y-112990000D01*
X45635000Y-112990000D02*
X45635000Y-108930000D01*
X45515000Y-108930000D02*
X45515000Y-110283333D01*
X45395000Y-108930000D02*
X45395000Y-110283333D01*
X45275000Y-108930000D02*
X45275000Y-110283333D01*
X45155000Y-108930000D02*
X45155000Y-110283333D01*
X45035000Y-108930000D02*
X45035000Y-110283333D01*
X44915000Y-108930000D02*
X44915000Y-110283333D01*
X44795000Y-108930000D02*
X44795000Y-110283333D01*
X44675000Y-108930000D02*
X44675000Y-110283333D01*
X44555000Y-108930000D02*
X44555000Y-110283333D01*
X44435000Y-108930000D02*
X44435000Y-110283333D01*
X45635000Y-110283333D02*
X44365000Y-110283333D01*
X43095000Y-108930000D02*
X41825000Y-108930000D01*
X41825000Y-108930000D02*
X41825000Y-112990000D01*
X41825000Y-112990000D02*
X43095000Y-112990000D01*
X43095000Y-112990000D02*
X43095000Y-108930000D01*
X42975000Y-108930000D02*
X42975000Y-110283333D01*
X42855000Y-108930000D02*
X42855000Y-110283333D01*
X42735000Y-108930000D02*
X42735000Y-110283333D01*
X42615000Y-108930000D02*
X42615000Y-110283333D01*
X42495000Y-108930000D02*
X42495000Y-110283333D01*
X42375000Y-108930000D02*
X42375000Y-110283333D01*
X42255000Y-108930000D02*
X42255000Y-110283333D01*
X42135000Y-108930000D02*
X42135000Y-110283333D01*
X42015000Y-108930000D02*
X42015000Y-110283333D01*
X41895000Y-108930000D02*
X41895000Y-110283333D01*
X43095000Y-110283333D02*
X41825000Y-110283333D01*
X40555000Y-108930000D02*
X39285000Y-108930000D01*
X39285000Y-108930000D02*
X39285000Y-112990000D01*
X39285000Y-112990000D02*
X40555000Y-112990000D01*
X40555000Y-112990000D02*
X40555000Y-108930000D01*
X40435000Y-108930000D02*
X40435000Y-110283333D01*
X40315000Y-108930000D02*
X40315000Y-110283333D01*
X40195000Y-108930000D02*
X40195000Y-110283333D01*
X40075000Y-108930000D02*
X40075000Y-110283333D01*
X39955000Y-108930000D02*
X39955000Y-110283333D01*
X39835000Y-108930000D02*
X39835000Y-110283333D01*
X39715000Y-108930000D02*
X39715000Y-110283333D01*
X39595000Y-108930000D02*
X39595000Y-110283333D01*
X39475000Y-108930000D02*
X39475000Y-110283333D01*
X39355000Y-108930000D02*
X39355000Y-110283333D01*
X40555000Y-110283333D02*
X39285000Y-110283333D01*
X38015000Y-108930000D02*
X36745000Y-108930000D01*
X36745000Y-108930000D02*
X36745000Y-112990000D01*
X36745000Y-112990000D02*
X38015000Y-112990000D01*
X38015000Y-112990000D02*
X38015000Y-108930000D01*
X37895000Y-108930000D02*
X37895000Y-110283333D01*
X37775000Y-108930000D02*
X37775000Y-110283333D01*
X37655000Y-108930000D02*
X37655000Y-110283333D01*
X37535000Y-108930000D02*
X37535000Y-110283333D01*
X37415000Y-108930000D02*
X37415000Y-110283333D01*
X37295000Y-108930000D02*
X37295000Y-110283333D01*
X37175000Y-108930000D02*
X37175000Y-110283333D01*
X37055000Y-108930000D02*
X37055000Y-110283333D01*
X36935000Y-108930000D02*
X36935000Y-110283333D01*
X36815000Y-108930000D02*
X36815000Y-110283333D01*
X38015000Y-110283333D02*
X36745000Y-110283333D01*
G04 #@! TO.C,D1*
D12*
X34731904Y-128292380D02*
X34731904Y-127292380D01*
X34970000Y-127292380D01*
X35112857Y-127340000D01*
X35208095Y-127435238D01*
X35255714Y-127530476D01*
X35303333Y-127720952D01*
X35303333Y-127863809D01*
X35255714Y-128054285D01*
X35208095Y-128149523D01*
X35112857Y-128244761D01*
X34970000Y-128292380D01*
X34731904Y-128292380D01*
X36255714Y-128292380D02*
X35684285Y-128292380D01*
X35970000Y-128292380D02*
X35970000Y-127292380D01*
X35874761Y-127435238D01*
X35779523Y-127530476D01*
X35684285Y-127578095D01*
G04 #@! TO.C,D2*
X41231904Y-128292380D02*
X41231904Y-127292380D01*
X41470000Y-127292380D01*
X41612857Y-127340000D01*
X41708095Y-127435238D01*
X41755714Y-127530476D01*
X41803333Y-127720952D01*
X41803333Y-127863809D01*
X41755714Y-128054285D01*
X41708095Y-128149523D01*
X41612857Y-128244761D01*
X41470000Y-128292380D01*
X41231904Y-128292380D01*
X42184285Y-127387619D02*
X42231904Y-127340000D01*
X42327142Y-127292380D01*
X42565238Y-127292380D01*
X42660476Y-127340000D01*
X42708095Y-127387619D01*
X42755714Y-127482857D01*
X42755714Y-127578095D01*
X42708095Y-127720952D01*
X42136666Y-128292380D01*
X42755714Y-128292380D01*
G04 #@! TO.C,D3*
X47731904Y-128292380D02*
X47731904Y-127292380D01*
X47970000Y-127292380D01*
X48112857Y-127340000D01*
X48208095Y-127435238D01*
X48255714Y-127530476D01*
X48303333Y-127720952D01*
X48303333Y-127863809D01*
X48255714Y-128054285D01*
X48208095Y-128149523D01*
X48112857Y-128244761D01*
X47970000Y-128292380D01*
X47731904Y-128292380D01*
X48636666Y-127292380D02*
X49255714Y-127292380D01*
X48922380Y-127673333D01*
X49065238Y-127673333D01*
X49160476Y-127720952D01*
X49208095Y-127768571D01*
X49255714Y-127863809D01*
X49255714Y-128101904D01*
X49208095Y-128197142D01*
X49160476Y-128244761D01*
X49065238Y-128292380D01*
X48779523Y-128292380D01*
X48684285Y-128244761D01*
X48636666Y-128197142D01*
G04 #@! TO.C,D4*
X54231904Y-128292380D02*
X54231904Y-127292380D01*
X54470000Y-127292380D01*
X54612857Y-127340000D01*
X54708095Y-127435238D01*
X54755714Y-127530476D01*
X54803333Y-127720952D01*
X54803333Y-127863809D01*
X54755714Y-128054285D01*
X54708095Y-128149523D01*
X54612857Y-128244761D01*
X54470000Y-128292380D01*
X54231904Y-128292380D01*
X55660476Y-127625714D02*
X55660476Y-128292380D01*
X55422380Y-127244761D02*
X55184285Y-127959047D01*
X55803333Y-127959047D01*
G04 #@! TO.C,D5*
X53302380Y-100888095D02*
X52302380Y-100888095D01*
X52302380Y-100650000D01*
X52350000Y-100507142D01*
X52445238Y-100411904D01*
X52540476Y-100364285D01*
X52730952Y-100316666D01*
X52873809Y-100316666D01*
X53064285Y-100364285D01*
X53159523Y-100411904D01*
X53254761Y-100507142D01*
X53302380Y-100650000D01*
X53302380Y-100888095D01*
X52302380Y-99411904D02*
X52302380Y-99888095D01*
X52778571Y-99935714D01*
X52730952Y-99888095D01*
X52683333Y-99792857D01*
X52683333Y-99554761D01*
X52730952Y-99459523D01*
X52778571Y-99411904D01*
X52873809Y-99364285D01*
X53111904Y-99364285D01*
X53207142Y-99411904D01*
X53254761Y-99459523D01*
X53302380Y-99554761D01*
X53302380Y-99792857D01*
X53254761Y-99888095D01*
X53207142Y-99935714D01*
G04 #@! TO.C,Q1*
X55274761Y-107537619D02*
X55179523Y-107490000D01*
X55084285Y-107394761D01*
X54941428Y-107251904D01*
X54846190Y-107204285D01*
X54750952Y-107204285D01*
X54798571Y-107442380D02*
X54703333Y-107394761D01*
X54608095Y-107299523D01*
X54560476Y-107109047D01*
X54560476Y-106775714D01*
X54608095Y-106585238D01*
X54703333Y-106490000D01*
X54798571Y-106442380D01*
X54989047Y-106442380D01*
X55084285Y-106490000D01*
X55179523Y-106585238D01*
X55227142Y-106775714D01*
X55227142Y-107109047D01*
X55179523Y-107299523D01*
X55084285Y-107394761D01*
X54989047Y-107442380D01*
X54798571Y-107442380D01*
X56179523Y-107442380D02*
X55608095Y-107442380D01*
X55893809Y-107442380D02*
X55893809Y-106442380D01*
X55798571Y-106585238D01*
X55703333Y-106680476D01*
X55608095Y-106728095D01*
G04 #@! TO.C,Q2*
X59217619Y-119385238D02*
X59170000Y-119480476D01*
X59074761Y-119575714D01*
X58931904Y-119718571D01*
X58884285Y-119813809D01*
X58884285Y-119909047D01*
X59122380Y-119861428D02*
X59074761Y-119956666D01*
X58979523Y-120051904D01*
X58789047Y-120099523D01*
X58455714Y-120099523D01*
X58265238Y-120051904D01*
X58170000Y-119956666D01*
X58122380Y-119861428D01*
X58122380Y-119670952D01*
X58170000Y-119575714D01*
X58265238Y-119480476D01*
X58455714Y-119432857D01*
X58789047Y-119432857D01*
X58979523Y-119480476D01*
X59074761Y-119575714D01*
X59122380Y-119670952D01*
X59122380Y-119861428D01*
X58217619Y-119051904D02*
X58170000Y-119004285D01*
X58122380Y-118909047D01*
X58122380Y-118670952D01*
X58170000Y-118575714D01*
X58217619Y-118528095D01*
X58312857Y-118480476D01*
X58408095Y-118480476D01*
X58550952Y-118528095D01*
X59122380Y-119099523D01*
X59122380Y-118480476D01*
G04 #@! TO.C,R1*
X36472380Y-87226666D02*
X35996190Y-87560000D01*
X36472380Y-87798095D02*
X35472380Y-87798095D01*
X35472380Y-87417142D01*
X35520000Y-87321904D01*
X35567619Y-87274285D01*
X35662857Y-87226666D01*
X35805714Y-87226666D01*
X35900952Y-87274285D01*
X35948571Y-87321904D01*
X35996190Y-87417142D01*
X35996190Y-87798095D01*
X36472380Y-86274285D02*
X36472380Y-86845714D01*
X36472380Y-86560000D02*
X35472380Y-86560000D01*
X35615238Y-86655238D01*
X35710476Y-86750476D01*
X35758095Y-86845714D01*
X31732380Y-87655238D02*
X31732380Y-88226666D01*
X31732380Y-87940952D02*
X30732380Y-87940952D01*
X30875238Y-88036190D01*
X30970476Y-88131428D01*
X31018095Y-88226666D01*
X30732380Y-87036190D02*
X30732380Y-86940952D01*
X30780000Y-86845714D01*
X30827619Y-86798095D01*
X30922857Y-86750476D01*
X31113333Y-86702857D01*
X31351428Y-86702857D01*
X31541904Y-86750476D01*
X31637142Y-86798095D01*
X31684761Y-86845714D01*
X31732380Y-86940952D01*
X31732380Y-87036190D01*
X31684761Y-87131428D01*
X31637142Y-87179047D01*
X31541904Y-87226666D01*
X31351428Y-87274285D01*
X31113333Y-87274285D01*
X30922857Y-87226666D01*
X30827619Y-87179047D01*
X30780000Y-87131428D01*
X30732380Y-87036190D01*
X31732380Y-86274285D02*
X30732380Y-86274285D01*
X31351428Y-86179047D02*
X31732380Y-85893333D01*
X31065714Y-85893333D02*
X31446666Y-86274285D01*
G04 #@! TO.C,R2*
X39672380Y-87226666D02*
X39196190Y-87560000D01*
X39672380Y-87798095D02*
X38672380Y-87798095D01*
X38672380Y-87417142D01*
X38720000Y-87321904D01*
X38767619Y-87274285D01*
X38862857Y-87226666D01*
X39005714Y-87226666D01*
X39100952Y-87274285D01*
X39148571Y-87321904D01*
X39196190Y-87417142D01*
X39196190Y-87798095D01*
X38767619Y-86845714D02*
X38720000Y-86798095D01*
X38672380Y-86702857D01*
X38672380Y-86464761D01*
X38720000Y-86369523D01*
X38767619Y-86321904D01*
X38862857Y-86274285D01*
X38958095Y-86274285D01*
X39100952Y-86321904D01*
X39672380Y-86893333D01*
X39672380Y-86274285D01*
X34932380Y-87655238D02*
X34932380Y-88226666D01*
X34932380Y-87940952D02*
X33932380Y-87940952D01*
X34075238Y-88036190D01*
X34170476Y-88131428D01*
X34218095Y-88226666D01*
X33932380Y-87036190D02*
X33932380Y-86940952D01*
X33980000Y-86845714D01*
X34027619Y-86798095D01*
X34122857Y-86750476D01*
X34313333Y-86702857D01*
X34551428Y-86702857D01*
X34741904Y-86750476D01*
X34837142Y-86798095D01*
X34884761Y-86845714D01*
X34932380Y-86940952D01*
X34932380Y-87036190D01*
X34884761Y-87131428D01*
X34837142Y-87179047D01*
X34741904Y-87226666D01*
X34551428Y-87274285D01*
X34313333Y-87274285D01*
X34122857Y-87226666D01*
X34027619Y-87179047D01*
X33980000Y-87131428D01*
X33932380Y-87036190D01*
X34932380Y-86274285D02*
X33932380Y-86274285D01*
X34551428Y-86179047D02*
X34932380Y-85893333D01*
X34265714Y-85893333D02*
X34646666Y-86274285D01*
G04 #@! TO.C,R3*
X42872380Y-87226666D02*
X42396190Y-87560000D01*
X42872380Y-87798095D02*
X41872380Y-87798095D01*
X41872380Y-87417142D01*
X41920000Y-87321904D01*
X41967619Y-87274285D01*
X42062857Y-87226666D01*
X42205714Y-87226666D01*
X42300952Y-87274285D01*
X42348571Y-87321904D01*
X42396190Y-87417142D01*
X42396190Y-87798095D01*
X41872380Y-86893333D02*
X41872380Y-86274285D01*
X42253333Y-86607619D01*
X42253333Y-86464761D01*
X42300952Y-86369523D01*
X42348571Y-86321904D01*
X42443809Y-86274285D01*
X42681904Y-86274285D01*
X42777142Y-86321904D01*
X42824761Y-86369523D01*
X42872380Y-86464761D01*
X42872380Y-86750476D01*
X42824761Y-86845714D01*
X42777142Y-86893333D01*
X38132380Y-87655238D02*
X38132380Y-88226666D01*
X38132380Y-87940952D02*
X37132380Y-87940952D01*
X37275238Y-88036190D01*
X37370476Y-88131428D01*
X37418095Y-88226666D01*
X37132380Y-87036190D02*
X37132380Y-86940952D01*
X37180000Y-86845714D01*
X37227619Y-86798095D01*
X37322857Y-86750476D01*
X37513333Y-86702857D01*
X37751428Y-86702857D01*
X37941904Y-86750476D01*
X38037142Y-86798095D01*
X38084761Y-86845714D01*
X38132380Y-86940952D01*
X38132380Y-87036190D01*
X38084761Y-87131428D01*
X38037142Y-87179047D01*
X37941904Y-87226666D01*
X37751428Y-87274285D01*
X37513333Y-87274285D01*
X37322857Y-87226666D01*
X37227619Y-87179047D01*
X37180000Y-87131428D01*
X37132380Y-87036190D01*
X38132380Y-86274285D02*
X37132380Y-86274285D01*
X37751428Y-86179047D02*
X38132380Y-85893333D01*
X37465714Y-85893333D02*
X37846666Y-86274285D01*
G04 #@! TO.C,R4*
X36282380Y-100176666D02*
X35806190Y-100510000D01*
X36282380Y-100748095D02*
X35282380Y-100748095D01*
X35282380Y-100367142D01*
X35330000Y-100271904D01*
X35377619Y-100224285D01*
X35472857Y-100176666D01*
X35615714Y-100176666D01*
X35710952Y-100224285D01*
X35758571Y-100271904D01*
X35806190Y-100367142D01*
X35806190Y-100748095D01*
X35615714Y-99319523D02*
X36282380Y-99319523D01*
X35234761Y-99557619D02*
X35949047Y-99795714D01*
X35949047Y-99176666D01*
X41022380Y-100605238D02*
X41022380Y-101176666D01*
X41022380Y-100890952D02*
X40022380Y-100890952D01*
X40165238Y-100986190D01*
X40260476Y-101081428D01*
X40308095Y-101176666D01*
X40022380Y-99986190D02*
X40022380Y-99890952D01*
X40070000Y-99795714D01*
X40117619Y-99748095D01*
X40212857Y-99700476D01*
X40403333Y-99652857D01*
X40641428Y-99652857D01*
X40831904Y-99700476D01*
X40927142Y-99748095D01*
X40974761Y-99795714D01*
X41022380Y-99890952D01*
X41022380Y-99986190D01*
X40974761Y-100081428D01*
X40927142Y-100129047D01*
X40831904Y-100176666D01*
X40641428Y-100224285D01*
X40403333Y-100224285D01*
X40212857Y-100176666D01*
X40117619Y-100129047D01*
X40070000Y-100081428D01*
X40022380Y-99986190D01*
X41022380Y-99224285D02*
X40022380Y-99224285D01*
X40641428Y-99129047D02*
X41022380Y-98843333D01*
X40355714Y-98843333D02*
X40736666Y-99224285D01*
G04 #@! TO.C,R5*
X50152380Y-120516666D02*
X49676190Y-120850000D01*
X50152380Y-121088095D02*
X49152380Y-121088095D01*
X49152380Y-120707142D01*
X49200000Y-120611904D01*
X49247619Y-120564285D01*
X49342857Y-120516666D01*
X49485714Y-120516666D01*
X49580952Y-120564285D01*
X49628571Y-120611904D01*
X49676190Y-120707142D01*
X49676190Y-121088095D01*
X49152380Y-119611904D02*
X49152380Y-120088095D01*
X49628571Y-120135714D01*
X49580952Y-120088095D01*
X49533333Y-119992857D01*
X49533333Y-119754761D01*
X49580952Y-119659523D01*
X49628571Y-119611904D01*
X49723809Y-119564285D01*
X49961904Y-119564285D01*
X50057142Y-119611904D01*
X50104761Y-119659523D01*
X50152380Y-119754761D01*
X50152380Y-119992857D01*
X50104761Y-120088095D01*
X50057142Y-120135714D01*
X50052380Y-123369047D02*
X50052380Y-123940476D01*
X50052380Y-123654761D02*
X49052380Y-123654761D01*
X49195238Y-123750000D01*
X49290476Y-123845238D01*
X49338095Y-123940476D01*
X50052380Y-122940476D02*
X49052380Y-122940476D01*
X49671428Y-122845238D02*
X50052380Y-122559523D01*
X49385714Y-122559523D02*
X49766666Y-122940476D01*
G04 #@! TO.C,R6*
X46072380Y-87226666D02*
X45596190Y-87560000D01*
X46072380Y-87798095D02*
X45072380Y-87798095D01*
X45072380Y-87417142D01*
X45120000Y-87321904D01*
X45167619Y-87274285D01*
X45262857Y-87226666D01*
X45405714Y-87226666D01*
X45500952Y-87274285D01*
X45548571Y-87321904D01*
X45596190Y-87417142D01*
X45596190Y-87798095D01*
X45072380Y-86369523D02*
X45072380Y-86560000D01*
X45120000Y-86655238D01*
X45167619Y-86702857D01*
X45310476Y-86798095D01*
X45500952Y-86845714D01*
X45881904Y-86845714D01*
X45977142Y-86798095D01*
X46024761Y-86750476D01*
X46072380Y-86655238D01*
X46072380Y-86464761D01*
X46024761Y-86369523D01*
X45977142Y-86321904D01*
X45881904Y-86274285D01*
X45643809Y-86274285D01*
X45548571Y-86321904D01*
X45500952Y-86369523D01*
X45453333Y-86464761D01*
X45453333Y-86655238D01*
X45500952Y-86750476D01*
X45548571Y-86798095D01*
X45643809Y-86845714D01*
X41332380Y-87655238D02*
X41332380Y-88226666D01*
X41332380Y-87940952D02*
X40332380Y-87940952D01*
X40475238Y-88036190D01*
X40570476Y-88131428D01*
X40618095Y-88226666D01*
X40332380Y-87036190D02*
X40332380Y-86940952D01*
X40380000Y-86845714D01*
X40427619Y-86798095D01*
X40522857Y-86750476D01*
X40713333Y-86702857D01*
X40951428Y-86702857D01*
X41141904Y-86750476D01*
X41237142Y-86798095D01*
X41284761Y-86845714D01*
X41332380Y-86940952D01*
X41332380Y-87036190D01*
X41284761Y-87131428D01*
X41237142Y-87179047D01*
X41141904Y-87226666D01*
X40951428Y-87274285D01*
X40713333Y-87274285D01*
X40522857Y-87226666D01*
X40427619Y-87179047D01*
X40380000Y-87131428D01*
X40332380Y-87036190D01*
X41332380Y-86274285D02*
X40332380Y-86274285D01*
X40951428Y-86179047D02*
X41332380Y-85893333D01*
X40665714Y-85893333D02*
X41046666Y-86274285D01*
G04 #@! TO.C,R7*
X46952380Y-120466666D02*
X46476190Y-120800000D01*
X46952380Y-121038095D02*
X45952380Y-121038095D01*
X45952380Y-120657142D01*
X46000000Y-120561904D01*
X46047619Y-120514285D01*
X46142857Y-120466666D01*
X46285714Y-120466666D01*
X46380952Y-120514285D01*
X46428571Y-120561904D01*
X46476190Y-120657142D01*
X46476190Y-121038095D01*
X45952380Y-120133333D02*
X45952380Y-119466666D01*
X46952380Y-119895238D01*
X46285714Y-123878571D02*
X46952380Y-123878571D01*
X45904761Y-124116666D02*
X46619047Y-124354761D01*
X46619047Y-123735714D01*
X46857142Y-123354761D02*
X46904761Y-123307142D01*
X46952380Y-123354761D01*
X46904761Y-123402380D01*
X46857142Y-123354761D01*
X46952380Y-123354761D01*
X45952380Y-122973809D02*
X45952380Y-122307142D01*
X46952380Y-122735714D01*
X46952380Y-121926190D02*
X45952380Y-121926190D01*
X46571428Y-121830952D02*
X46952380Y-121545238D01*
X46285714Y-121545238D02*
X46666666Y-121926190D01*
G04 #@! TO.C,R8*
X32852380Y-120366666D02*
X32376190Y-120700000D01*
X32852380Y-120938095D02*
X31852380Y-120938095D01*
X31852380Y-120557142D01*
X31900000Y-120461904D01*
X31947619Y-120414285D01*
X32042857Y-120366666D01*
X32185714Y-120366666D01*
X32280952Y-120414285D01*
X32328571Y-120461904D01*
X32376190Y-120557142D01*
X32376190Y-120938095D01*
X32280952Y-119795238D02*
X32233333Y-119890476D01*
X32185714Y-119938095D01*
X32090476Y-119985714D01*
X32042857Y-119985714D01*
X31947619Y-119938095D01*
X31900000Y-119890476D01*
X31852380Y-119795238D01*
X31852380Y-119604761D01*
X31900000Y-119509523D01*
X31947619Y-119461904D01*
X32042857Y-119414285D01*
X32090476Y-119414285D01*
X32185714Y-119461904D01*
X32233333Y-119509523D01*
X32280952Y-119604761D01*
X32280952Y-119795238D01*
X32328571Y-119890476D01*
X32376190Y-119938095D01*
X32471428Y-119985714D01*
X32661904Y-119985714D01*
X32757142Y-119938095D01*
X32804761Y-119890476D01*
X32852380Y-119795238D01*
X32852380Y-119604761D01*
X32804761Y-119509523D01*
X32757142Y-119461904D01*
X32661904Y-119414285D01*
X32471428Y-119414285D01*
X32376190Y-119461904D01*
X32328571Y-119509523D01*
X32280952Y-119604761D01*
X32185714Y-123385714D02*
X32852380Y-123385714D01*
X31804761Y-123623809D02*
X32519047Y-123861904D01*
X32519047Y-123242857D01*
X31852380Y-122957142D02*
X31852380Y-122290476D01*
X32852380Y-122719047D01*
G04 #@! TO.C,R10*
X39152380Y-121192857D02*
X38676190Y-121526190D01*
X39152380Y-121764285D02*
X38152380Y-121764285D01*
X38152380Y-121383333D01*
X38200000Y-121288095D01*
X38247619Y-121240476D01*
X38342857Y-121192857D01*
X38485714Y-121192857D01*
X38580952Y-121240476D01*
X38628571Y-121288095D01*
X38676190Y-121383333D01*
X38676190Y-121764285D01*
X39152380Y-120240476D02*
X39152380Y-120811904D01*
X39152380Y-120526190D02*
X38152380Y-120526190D01*
X38295238Y-120621428D01*
X38390476Y-120716666D01*
X38438095Y-120811904D01*
X38152380Y-119621428D02*
X38152380Y-119526190D01*
X38200000Y-119430952D01*
X38247619Y-119383333D01*
X38342857Y-119335714D01*
X38533333Y-119288095D01*
X38771428Y-119288095D01*
X38961904Y-119335714D01*
X39057142Y-119383333D01*
X39104761Y-119430952D01*
X39152380Y-119526190D01*
X39152380Y-119621428D01*
X39104761Y-119716666D01*
X39057142Y-119764285D01*
X38961904Y-119811904D01*
X38771428Y-119859523D01*
X38533333Y-119859523D01*
X38342857Y-119811904D01*
X38247619Y-119764285D01*
X38200000Y-119716666D01*
X38152380Y-119621428D01*
X38485714Y-123485714D02*
X39152380Y-123485714D01*
X38104761Y-123723809D02*
X38819047Y-123961904D01*
X38819047Y-123342857D01*
X38152380Y-123057142D02*
X38152380Y-122390476D01*
X39152380Y-122819047D01*
G04 #@! TO.C,SW1*
X52016666Y-93304761D02*
X52159523Y-93352380D01*
X52397619Y-93352380D01*
X52492857Y-93304761D01*
X52540476Y-93257142D01*
X52588095Y-93161904D01*
X52588095Y-93066666D01*
X52540476Y-92971428D01*
X52492857Y-92923809D01*
X52397619Y-92876190D01*
X52207142Y-92828571D01*
X52111904Y-92780952D01*
X52064285Y-92733333D01*
X52016666Y-92638095D01*
X52016666Y-92542857D01*
X52064285Y-92447619D01*
X52111904Y-92400000D01*
X52207142Y-92352380D01*
X52445238Y-92352380D01*
X52588095Y-92400000D01*
X52921428Y-92352380D02*
X53159523Y-93352380D01*
X53350000Y-92638095D01*
X53540476Y-93352380D01*
X53778571Y-92352380D01*
X54683333Y-93352380D02*
X54111904Y-93352380D01*
X54397619Y-93352380D02*
X54397619Y-92352380D01*
X54302380Y-92495238D01*
X54207142Y-92590476D01*
X54111904Y-92638095D01*
G04 #@! TO.C,U1*
X45998095Y-92872380D02*
X45998095Y-93681904D01*
X46045714Y-93777142D01*
X46093333Y-93824761D01*
X46188571Y-93872380D01*
X46379047Y-93872380D01*
X46474285Y-93824761D01*
X46521904Y-93777142D01*
X46569523Y-93681904D01*
X46569523Y-92872380D01*
X47569523Y-93872380D02*
X46998095Y-93872380D01*
X47283809Y-93872380D02*
X47283809Y-92872380D01*
X47188571Y-93015238D01*
X47093333Y-93110476D01*
X46998095Y-93158095D01*
G04 #@! TO.C,R9*
X36002380Y-120366666D02*
X35526190Y-120700000D01*
X36002380Y-120938095D02*
X35002380Y-120938095D01*
X35002380Y-120557142D01*
X35050000Y-120461904D01*
X35097619Y-120414285D01*
X35192857Y-120366666D01*
X35335714Y-120366666D01*
X35430952Y-120414285D01*
X35478571Y-120461904D01*
X35526190Y-120557142D01*
X35526190Y-120938095D01*
X36002380Y-119890476D02*
X36002380Y-119700000D01*
X35954761Y-119604761D01*
X35907142Y-119557142D01*
X35764285Y-119461904D01*
X35573809Y-119414285D01*
X35192857Y-119414285D01*
X35097619Y-119461904D01*
X35050000Y-119509523D01*
X35002380Y-119604761D01*
X35002380Y-119795238D01*
X35050000Y-119890476D01*
X35097619Y-119938095D01*
X35192857Y-119985714D01*
X35430952Y-119985714D01*
X35526190Y-119938095D01*
X35573809Y-119890476D01*
X35621428Y-119795238D01*
X35621428Y-119604761D01*
X35573809Y-119509523D01*
X35526190Y-119461904D01*
X35430952Y-119414285D01*
X35235714Y-123385714D02*
X35902380Y-123385714D01*
X34854761Y-123623809D02*
X35569047Y-123861904D01*
X35569047Y-123242857D01*
X34902380Y-122957142D02*
X34902380Y-122290476D01*
X35902380Y-122719047D01*
G04 #@! TO.C,R11*
X42152380Y-121092857D02*
X41676190Y-121426190D01*
X42152380Y-121664285D02*
X41152380Y-121664285D01*
X41152380Y-121283333D01*
X41200000Y-121188095D01*
X41247619Y-121140476D01*
X41342857Y-121092857D01*
X41485714Y-121092857D01*
X41580952Y-121140476D01*
X41628571Y-121188095D01*
X41676190Y-121283333D01*
X41676190Y-121664285D01*
X42152380Y-120140476D02*
X42152380Y-120711904D01*
X42152380Y-120426190D02*
X41152380Y-120426190D01*
X41295238Y-120521428D01*
X41390476Y-120616666D01*
X41438095Y-120711904D01*
X42152380Y-119188095D02*
X42152380Y-119759523D01*
X42152380Y-119473809D02*
X41152380Y-119473809D01*
X41295238Y-119569047D01*
X41390476Y-119664285D01*
X41438095Y-119759523D01*
X41535714Y-123635714D02*
X42202380Y-123635714D01*
X41154761Y-123873809D02*
X41869047Y-124111904D01*
X41869047Y-123492857D01*
X41202380Y-123207142D02*
X41202380Y-122540476D01*
X42202380Y-122969047D01*
G04 #@! TO.C,SW3*
X31816666Y-105184761D02*
X31959523Y-105232380D01*
X32197619Y-105232380D01*
X32292857Y-105184761D01*
X32340476Y-105137142D01*
X32388095Y-105041904D01*
X32388095Y-104946666D01*
X32340476Y-104851428D01*
X32292857Y-104803809D01*
X32197619Y-104756190D01*
X32007142Y-104708571D01*
X31911904Y-104660952D01*
X31864285Y-104613333D01*
X31816666Y-104518095D01*
X31816666Y-104422857D01*
X31864285Y-104327619D01*
X31911904Y-104280000D01*
X32007142Y-104232380D01*
X32245238Y-104232380D01*
X32388095Y-104280000D01*
X32721428Y-104232380D02*
X32959523Y-105232380D01*
X33150000Y-104518095D01*
X33340476Y-105232380D01*
X33578571Y-104232380D01*
X33864285Y-104232380D02*
X34483333Y-104232380D01*
X34150000Y-104613333D01*
X34292857Y-104613333D01*
X34388095Y-104660952D01*
X34435714Y-104708571D01*
X34483333Y-104803809D01*
X34483333Y-105041904D01*
X34435714Y-105137142D01*
X34388095Y-105184761D01*
X34292857Y-105232380D01*
X34007142Y-105232380D01*
X33911904Y-105184761D01*
X33864285Y-105137142D01*
G04 #@! TO.C,J1*
X37052380Y-68933333D02*
X37766666Y-68933333D01*
X37909523Y-68980952D01*
X38004761Y-69076190D01*
X38052380Y-69219047D01*
X38052380Y-69314285D01*
X38052380Y-67933333D02*
X38052380Y-68504761D01*
X38052380Y-68219047D02*
X37052380Y-68219047D01*
X37195238Y-68314285D01*
X37290476Y-68409523D01*
X37338095Y-68504761D01*
G04 #@! TO.C,J2*
X44716666Y-51802380D02*
X44716666Y-52516666D01*
X44669047Y-52659523D01*
X44573809Y-52754761D01*
X44430952Y-52802380D01*
X44335714Y-52802380D01*
X45145238Y-51897619D02*
X45192857Y-51850000D01*
X45288095Y-51802380D01*
X45526190Y-51802380D01*
X45621428Y-51850000D01*
X45669047Y-51897619D01*
X45716666Y-51992857D01*
X45716666Y-52088095D01*
X45669047Y-52230952D01*
X45097619Y-52802380D01*
X45716666Y-52802380D01*
G04 #@! TO.C,SW2*
X43916666Y-74554761D02*
X44059523Y-74602380D01*
X44297619Y-74602380D01*
X44392857Y-74554761D01*
X44440476Y-74507142D01*
X44488095Y-74411904D01*
X44488095Y-74316666D01*
X44440476Y-74221428D01*
X44392857Y-74173809D01*
X44297619Y-74126190D01*
X44107142Y-74078571D01*
X44011904Y-74030952D01*
X43964285Y-73983333D01*
X43916666Y-73888095D01*
X43916666Y-73792857D01*
X43964285Y-73697619D01*
X44011904Y-73650000D01*
X44107142Y-73602380D01*
X44345238Y-73602380D01*
X44488095Y-73650000D01*
X44821428Y-73602380D02*
X45059523Y-74602380D01*
X45250000Y-73888095D01*
X45440476Y-74602380D01*
X45678571Y-73602380D01*
X46011904Y-73697619D02*
X46059523Y-73650000D01*
X46154761Y-73602380D01*
X46392857Y-73602380D01*
X46488095Y-73650000D01*
X46535714Y-73697619D01*
X46583333Y-73792857D01*
X46583333Y-73888095D01*
X46535714Y-74030952D01*
X45964285Y-74602380D01*
X46583333Y-74602380D01*
G04 #@! TO.C,SW4*
X48824761Y-112293333D02*
X48872380Y-112150476D01*
X48872380Y-111912380D01*
X48824761Y-111817142D01*
X48777142Y-111769523D01*
X48681904Y-111721904D01*
X48586666Y-111721904D01*
X48491428Y-111769523D01*
X48443809Y-111817142D01*
X48396190Y-111912380D01*
X48348571Y-112102857D01*
X48300952Y-112198095D01*
X48253333Y-112245714D01*
X48158095Y-112293333D01*
X48062857Y-112293333D01*
X47967619Y-112245714D01*
X47920000Y-112198095D01*
X47872380Y-112102857D01*
X47872380Y-111864761D01*
X47920000Y-111721904D01*
X47872380Y-111388571D02*
X48872380Y-111150476D01*
X48158095Y-110960000D01*
X48872380Y-110769523D01*
X47872380Y-110531428D01*
X48205714Y-109721904D02*
X48872380Y-109721904D01*
X47824761Y-109960000D02*
X48539047Y-110198095D01*
X48539047Y-109579047D01*
G04 #@! TD*
%LPC*%
D15*
G04 #@! TO.C,hole4*
X56800000Y-139700000D03*
G04 #@! TD*
G04 #@! TO.C,hole3*
X33600000Y-139700000D03*
G04 #@! TD*
G04 #@! TO.C,hole2*
X56800000Y-49700000D03*
G04 #@! TD*
D16*
G04 #@! TO.C,D1*
X36740000Y-131800000D03*
D17*
X34200000Y-131800000D03*
G04 #@! TD*
G04 #@! TO.C,D2*
X40700000Y-131800000D03*
D16*
X43240000Y-131800000D03*
G04 #@! TD*
G04 #@! TO.C,D3*
X49740000Y-131800000D03*
D17*
X47200000Y-131800000D03*
G04 #@! TD*
G04 #@! TO.C,D4*
X53700000Y-131800000D03*
D16*
X56240000Y-131800000D03*
G04 #@! TD*
D17*
G04 #@! TO.C,D5*
X55450000Y-100050000D03*
D16*
X57990000Y-100050000D03*
G04 #@! TD*
D18*
G04 #@! TO.C,Q1*
X55370000Y-110550000D03*
X56640000Y-110550000D03*
D19*
X54100000Y-110550000D03*
G04 #@! TD*
D20*
G04 #@! TO.C,Q2*
X54400000Y-116750000D03*
D21*
X54400000Y-119290000D03*
X54400000Y-121830000D03*
G04 #@! TD*
D22*
G04 #@! TO.C,R1*
X33650000Y-83250000D03*
D23*
X33650000Y-90870000D03*
G04 #@! TD*
G04 #@! TO.C,R2*
X36850000Y-90870000D03*
D22*
X36850000Y-83250000D03*
G04 #@! TD*
D23*
G04 #@! TO.C,R3*
X40050000Y-90870000D03*
D22*
X40050000Y-83250000D03*
G04 #@! TD*
G04 #@! TO.C,R4*
X38200000Y-103820000D03*
D23*
X38200000Y-96200000D03*
G04 #@! TD*
D22*
G04 #@! TO.C,R5*
X49650000Y-118100000D03*
D23*
X49650000Y-125720000D03*
G04 #@! TD*
G04 #@! TO.C,R6*
X43250000Y-90870000D03*
D22*
X43250000Y-83250000D03*
G04 #@! TD*
G04 #@! TO.C,R7*
X46500000Y-118100000D03*
D23*
X46500000Y-125720000D03*
G04 #@! TD*
G04 #@! TO.C,R8*
X32400000Y-125670000D03*
D22*
X32400000Y-118050000D03*
G04 #@! TD*
G04 #@! TO.C,R10*
X38650000Y-118050000D03*
D23*
X38650000Y-125670000D03*
G04 #@! TD*
D24*
G04 #@! TO.C,SW1*
X57290000Y-84460000D03*
D25*
X57290000Y-89540000D03*
D24*
X49670000Y-84460000D03*
X49670000Y-89540000D03*
X49670000Y-87000000D03*
G04 #@! TD*
D26*
G04 #@! TO.C,U1*
X42950000Y-95750000D03*
D23*
X50570000Y-103370000D03*
X42950000Y-98290000D03*
X50570000Y-100830000D03*
X42950000Y-100830000D03*
X50570000Y-98290000D03*
X42950000Y-103370000D03*
X50570000Y-95750000D03*
G04 #@! TD*
D22*
G04 #@! TO.C,R9*
X35550000Y-118050000D03*
D23*
X35550000Y-125670000D03*
G04 #@! TD*
D22*
G04 #@! TO.C,R11*
X41750000Y-118050000D03*
D23*
X41750000Y-125670000D03*
G04 #@! TD*
D27*
G04 #@! TO.C,SW3*
X33150000Y-102450000D03*
D28*
X33150000Y-99910000D03*
X33150000Y-97370000D03*
G04 #@! TD*
D27*
G04 #@! TO.C,J1*
X50300000Y-68550000D03*
D28*
X47760000Y-68550000D03*
X45220000Y-68550000D03*
X42680000Y-68550000D03*
X40140000Y-68550000D03*
G04 #@! TD*
D27*
G04 #@! TO.C,J2*
X47750000Y-49750000D03*
D28*
X45210000Y-49750000D03*
X42670000Y-49750000D03*
G04 #@! TD*
G04 #@! TO.C,SW2*
X47730000Y-76700000D03*
X45190000Y-76700000D03*
D27*
X42650000Y-76700000D03*
G04 #@! TD*
D26*
G04 #@! TO.C,SW4*
X45000000Y-107150000D03*
D23*
X37380000Y-114770000D03*
X42460000Y-107150000D03*
X39920000Y-114770000D03*
X39920000Y-107150000D03*
X42460000Y-114770000D03*
X37380000Y-107150000D03*
X45000000Y-114770000D03*
G04 #@! TD*
D15*
G04 #@! TO.C,hole1*
X33600000Y-49700000D03*
G04 #@! TD*
M02*
