G04 #@! TF.GenerationSoftware,KiCad,Pcbnew,(5.0.0)*
G04 #@! TF.CreationDate,2019-08-04T18:11:21+09:00*
G04 #@! TF.ProjectId,ir_send_mod,69725F73656E645F6D6F642E6B696361,rev?*
G04 #@! TF.SameCoordinates,Original*
G04 #@! TF.FileFunction,Copper,L2,Bot,Signal*
G04 #@! TF.FilePolarity,Positive*
%FSLAX46Y46*%
G04 Gerber Fmt 4.6, Leading zero omitted, Abs format (unit mm)*
G04 Created by KiCad (PCBNEW (5.0.0)) date 08/04/19 18:11:21*
%MOMM*%
%LPD*%
G01*
G04 APERTURE LIST*
G04 #@! TA.AperFunction,ComponentPad*
%ADD10R,1.600000X1.600000*%
G04 #@! TD*
G04 #@! TA.AperFunction,ComponentPad*
%ADD11O,1.600000X1.600000*%
G04 #@! TD*
G04 #@! TA.AperFunction,ComponentPad*
%ADD12C,1.800000*%
G04 #@! TD*
G04 #@! TA.AperFunction,ComponentPad*
%ADD13R,1.800000X1.800000*%
G04 #@! TD*
G04 #@! TA.AperFunction,ComponentPad*
%ADD14R,1.700000X1.700000*%
G04 #@! TD*
G04 #@! TA.AperFunction,ComponentPad*
%ADD15O,1.700000X1.700000*%
G04 #@! TD*
G04 #@! TA.AperFunction,ComponentPad*
%ADD16O,1.500000X1.050000*%
G04 #@! TD*
G04 #@! TA.AperFunction,ComponentPad*
%ADD17R,1.500000X1.050000*%
G04 #@! TD*
G04 #@! TA.AperFunction,ComponentPad*
%ADD18R,2.000000X1.905000*%
G04 #@! TD*
G04 #@! TA.AperFunction,ComponentPad*
%ADD19O,2.000000X1.905000*%
G04 #@! TD*
G04 #@! TA.AperFunction,ComponentPad*
%ADD20C,1.600000*%
G04 #@! TD*
G04 #@! TA.AperFunction,ComponentPad*
%ADD21C,1.524000*%
G04 #@! TD*
G04 #@! TA.AperFunction,ComponentPad*
%ADD22R,1.524000X1.524000*%
G04 #@! TD*
G04 #@! TA.AperFunction,Conductor*
%ADD23C,0.250000*%
G04 #@! TD*
G04 #@! TA.AperFunction,Conductor*
%ADD24C,0.400000*%
G04 #@! TD*
G04 #@! TA.AperFunction,Conductor*
%ADD25C,0.254000*%
G04 #@! TD*
G04 APERTURE END LIST*
D10*
G04 #@! TO.P,SW2,1*
G04 #@! TO.N,Net-(D5-Pad2)*
X53800000Y-73800000D03*
D11*
G04 #@! TO.P,SW2,5*
G04 #@! TO.N,Net-(R7-Pad1)*
X46180000Y-81420000D03*
G04 #@! TO.P,SW2,2*
G04 #@! TO.N,Net-(D5-Pad2)*
X51260000Y-73800000D03*
G04 #@! TO.P,SW2,6*
G04 #@! TO.N,Net-(R8-Pad1)*
X48720000Y-81420000D03*
G04 #@! TO.P,SW2,3*
G04 #@! TO.N,Net-(D5-Pad2)*
X48720000Y-73800000D03*
G04 #@! TO.P,SW2,7*
G04 #@! TO.N,Net-(R9-Pad1)*
X51260000Y-81420000D03*
G04 #@! TO.P,SW2,4*
G04 #@! TO.N,Net-(D5-Pad2)*
X46180000Y-73800000D03*
G04 #@! TO.P,SW2,8*
G04 #@! TO.N,Net-(R10-Pad1)*
X53800000Y-81420000D03*
G04 #@! TD*
D12*
G04 #@! TO.P,D1,2*
G04 #@! TO.N,Net-(D1-Pad2)*
X45640000Y-88200000D03*
D13*
G04 #@! TO.P,D1,1*
G04 #@! TO.N,GND*
X43100000Y-88200000D03*
G04 #@! TD*
G04 #@! TO.P,D2,1*
G04 #@! TO.N,GND*
X49600000Y-88200000D03*
D12*
G04 #@! TO.P,D2,2*
G04 #@! TO.N,Net-(D2-Pad2)*
X52140000Y-88200000D03*
G04 #@! TD*
G04 #@! TO.P,D3,2*
G04 #@! TO.N,Net-(D3-Pad2)*
X58640000Y-88200000D03*
D13*
G04 #@! TO.P,D3,1*
G04 #@! TO.N,GND*
X56100000Y-88200000D03*
G04 #@! TD*
G04 #@! TO.P,D4,1*
G04 #@! TO.N,GND*
X62600000Y-88200000D03*
D12*
G04 #@! TO.P,D4,2*
G04 #@! TO.N,Net-(D4-Pad2)*
X65140000Y-88200000D03*
G04 #@! TD*
D13*
G04 #@! TO.P,D5,1*
G04 #@! TO.N,GND*
X62100000Y-77400000D03*
D12*
G04 #@! TO.P,D5,2*
G04 #@! TO.N,Net-(D5-Pad2)*
X62100000Y-74860000D03*
G04 #@! TD*
D14*
G04 #@! TO.P,J1,1*
G04 #@! TO.N,Net-(J1-Pad1)*
X40200000Y-51200000D03*
D15*
G04 #@! TO.P,J1,2*
G04 #@! TO.N,GND*
X40200000Y-53740000D03*
G04 #@! TO.P,J1,3*
G04 #@! TO.N,Net-(J1-Pad3)*
X40200000Y-56280000D03*
G04 #@! TD*
D16*
G04 #@! TO.P,Q1,2*
G04 #@! TO.N,Net-(Q1-Pad2)*
X59100000Y-57530000D03*
G04 #@! TO.P,Q1,3*
G04 #@! TO.N,Net-(Q1-Pad3)*
X59100000Y-56260000D03*
D17*
G04 #@! TO.P,Q1,1*
G04 #@! TO.N,GND*
X59100000Y-58800000D03*
G04 #@! TD*
D18*
G04 #@! TO.P,Q2,1*
G04 #@! TO.N,Net-(Q1-Pad3)*
X66100000Y-53500000D03*
D19*
G04 #@! TO.P,Q2,2*
G04 #@! TO.N,Net-(D5-Pad2)*
X66100000Y-56040000D03*
G04 #@! TO.P,Q2,3*
G04 #@! TO.N,Net-(J1-Pad1)*
X66100000Y-58580000D03*
G04 #@! TD*
D20*
G04 #@! TO.P,R1,1*
G04 #@! TO.N,Net-(R1-Pad1)*
X59200000Y-63300000D03*
D11*
G04 #@! TO.P,R1,2*
G04 #@! TO.N,GND*
X59200000Y-70920000D03*
G04 #@! TD*
G04 #@! TO.P,R2,2*
G04 #@! TO.N,GND*
X62400000Y-70920000D03*
D20*
G04 #@! TO.P,R2,1*
G04 #@! TO.N,Net-(J2-Pad5)*
X62400000Y-63300000D03*
G04 #@! TD*
D11*
G04 #@! TO.P,R3,2*
G04 #@! TO.N,GND*
X65600000Y-70920000D03*
D20*
G04 #@! TO.P,R3,1*
G04 #@! TO.N,Net-(J2-Pad4)*
X65600000Y-63300000D03*
G04 #@! TD*
G04 #@! TO.P,R4,1*
G04 #@! TO.N,Net-(Q1-Pad2)*
X39200000Y-69120000D03*
D11*
G04 #@! TO.P,R4,2*
G04 #@! TO.N,Net-(R4-Pad2)*
X39200000Y-61500000D03*
G04 #@! TD*
D20*
G04 #@! TO.P,R5,1*
G04 #@! TO.N,GND*
X42300000Y-69120000D03*
D11*
G04 #@! TO.P,R5,2*
G04 #@! TO.N,Net-(J2-Pad1)*
X42300000Y-61500000D03*
G04 #@! TD*
G04 #@! TO.P,R6,2*
G04 #@! TO.N,Net-(Q1-Pad3)*
X62720000Y-51200000D03*
D20*
G04 #@! TO.P,R6,1*
G04 #@! TO.N,Net-(J1-Pad1)*
X55100000Y-51200000D03*
G04 #@! TD*
G04 #@! TO.P,R7,1*
G04 #@! TO.N,Net-(R7-Pad1)*
X38900000Y-74300000D03*
D11*
G04 #@! TO.P,R7,2*
G04 #@! TO.N,Net-(D1-Pad2)*
X38900000Y-81920000D03*
G04 #@! TD*
G04 #@! TO.P,R8,2*
G04 #@! TO.N,Net-(D2-Pad2)*
X35700000Y-81920000D03*
D20*
G04 #@! TO.P,R8,1*
G04 #@! TO.N,Net-(R8-Pad1)*
X35700000Y-74300000D03*
G04 #@! TD*
G04 #@! TO.P,R10,1*
G04 #@! TO.N,Net-(R10-Pad1)*
X70300000Y-75500000D03*
D11*
G04 #@! TO.P,R10,2*
G04 #@! TO.N,Net-(D4-Pad2)*
X70300000Y-83120000D03*
G04 #@! TD*
D21*
G04 #@! TO.P,SW1,2*
G04 #@! TO.N,Net-(J2-Pad5)*
X52340000Y-50160000D03*
D22*
G04 #@! TO.P,SW1,1*
G04 #@! TO.N,Net-(J2-Pad4)*
X52340000Y-55240000D03*
D21*
G04 #@! TO.P,SW1,8*
G04 #@! TO.N,Net-(J2-Pad1)*
X44720000Y-50160000D03*
G04 #@! TO.P,SW1,4*
G04 #@! TO.N,Net-(R1-Pad1)*
X44720000Y-55240000D03*
G04 #@! TO.P,SW1,C*
G04 #@! TO.N,Net-(J1-Pad1)*
X44720000Y-52700000D03*
G04 #@! TD*
D10*
G04 #@! TO.P,U1,1*
G04 #@! TO.N,Net-(J1-Pad1)*
X47100000Y-61300000D03*
D11*
G04 #@! TO.P,U1,5*
G04 #@! TO.N,Net-(R1-Pad1)*
X54720000Y-68920000D03*
G04 #@! TO.P,U1,2*
G04 #@! TO.N,Net-(R4-Pad2)*
X47100000Y-63840000D03*
G04 #@! TO.P,U1,6*
G04 #@! TO.N,Net-(J2-Pad5)*
X54720000Y-66380000D03*
G04 #@! TO.P,U1,3*
G04 #@! TO.N,Net-(J1-Pad3)*
X47100000Y-66380000D03*
G04 #@! TO.P,U1,7*
G04 #@! TO.N,Net-(J2-Pad4)*
X54720000Y-63840000D03*
G04 #@! TO.P,U1,4*
G04 #@! TO.N,Net-(J2-Pad1)*
X47100000Y-68920000D03*
G04 #@! TO.P,U1,8*
G04 #@! TO.N,GND*
X54720000Y-61300000D03*
G04 #@! TD*
D20*
G04 #@! TO.P,R9,1*
G04 #@! TO.N,Net-(R9-Pad1)*
X67200000Y-83120000D03*
D11*
G04 #@! TO.P,R9,2*
G04 #@! TO.N,Net-(D3-Pad2)*
X67200000Y-75500000D03*
G04 #@! TD*
D14*
G04 #@! TO.P,J2,1*
G04 #@! TO.N,Net-(J2-Pad1)*
X73800000Y-56400000D03*
D15*
G04 #@! TO.P,J2,2*
G04 #@! TO.N,Net-(J1-Pad1)*
X73800000Y-58940000D03*
G04 #@! TO.P,J2,3*
G04 #@! TO.N,GND*
X73800000Y-61480000D03*
G04 #@! TO.P,J2,4*
G04 #@! TO.N,Net-(J2-Pad4)*
X73800000Y-64020000D03*
G04 #@! TO.P,J2,5*
G04 #@! TO.N,Net-(J2-Pad5)*
X73800000Y-66560000D03*
G04 #@! TD*
D20*
G04 #@! TO.P,R11,1*
G04 #@! TO.N,Net-(R11-Pad1)*
X69400000Y-70900000D03*
D11*
G04 #@! TO.P,R11,2*
G04 #@! TO.N,Net-(J2-Pad1)*
X69400000Y-63280000D03*
G04 #@! TD*
D14*
G04 #@! TO.P,SW3,1*
G04 #@! TO.N,Net-(SW3-Pad1)*
X33100000Y-67700000D03*
D15*
G04 #@! TO.P,SW3,2*
G04 #@! TO.N,Net-(R4-Pad2)*
X33100000Y-65160000D03*
G04 #@! TO.P,SW3,3*
G04 #@! TO.N,Net-(J1-Pad1)*
X33100000Y-62620000D03*
G04 #@! TD*
G04 #@! TO.P,SW4,3*
G04 #@! TO.N,Net-(R11-Pad1)*
X74300000Y-77980000D03*
G04 #@! TO.P,SW4,2*
G04 #@! TO.N,Net-(J1-Pad1)*
X74300000Y-75440000D03*
D14*
G04 #@! TO.P,SW4,1*
G04 #@! TO.N,Net-(SW4-Pad1)*
X74300000Y-72900000D03*
G04 #@! TD*
D23*
G04 #@! TO.N,Net-(D1-Pad2)*
X38900000Y-81920000D02*
X40025300Y-81920000D01*
X40025300Y-81920000D02*
X40025300Y-82585300D01*
X40025300Y-82585300D02*
X45640000Y-88200000D01*
D24*
G04 #@! TO.N,GND*
X56184900Y-66704500D02*
X55920300Y-66440000D01*
X55920300Y-66440000D02*
X55920300Y-61300000D01*
X59200000Y-69719700D02*
X56184900Y-66704500D01*
X56184900Y-66704500D02*
X55239400Y-67650000D01*
X55239400Y-67650000D02*
X50102400Y-67650000D01*
X50102400Y-67650000D02*
X47568200Y-70184200D01*
X47568200Y-70184200D02*
X43364200Y-70184200D01*
X43364200Y-70184200D02*
X42300000Y-69120000D01*
X59200000Y-70920000D02*
X59200000Y-69719700D01*
X59100000Y-59725300D02*
X57495000Y-59725300D01*
X57495000Y-59725300D02*
X55920300Y-61300000D01*
X54720000Y-61300000D02*
X55920300Y-61300000D01*
X59100000Y-58800000D02*
X59100000Y-59725300D01*
X73800000Y-61480000D02*
X73800000Y-62730300D01*
X73800000Y-62730300D02*
X73248800Y-62730300D01*
X73248800Y-62730300D02*
X65600000Y-70379100D01*
X65600000Y-70379100D02*
X65600000Y-70920000D01*
X62100000Y-77400000D02*
X62100000Y-80899700D01*
X62100000Y-80899700D02*
X56100000Y-86899700D01*
X56100000Y-88200000D02*
X56100000Y-86899700D01*
D23*
G04 #@! TO.N,Net-(D3-Pad2)*
X67200000Y-75500000D02*
X67200000Y-79640000D01*
X67200000Y-79640000D02*
X58640000Y-88200000D01*
G04 #@! TO.N,Net-(D5-Pad2)*
X62100000Y-73800000D02*
X62100000Y-74860000D01*
X66100000Y-56040000D02*
X67429300Y-57369300D01*
X67429300Y-57369300D02*
X67429300Y-67482300D01*
X67429300Y-67482300D02*
X62100000Y-72811600D01*
X62100000Y-72811600D02*
X62100000Y-73800000D01*
X62100000Y-73800000D02*
X54925300Y-73800000D01*
X53800000Y-73800000D02*
X54925300Y-73800000D01*
D24*
G04 #@! TO.N,Net-(J1-Pad1)*
X40200000Y-51200000D02*
X40200000Y-52450300D01*
X33100000Y-62620000D02*
X33100000Y-59003300D01*
X33100000Y-59003300D02*
X39653000Y-52450300D01*
X39653000Y-52450300D02*
X40200000Y-52450300D01*
X47100000Y-61300000D02*
X47100000Y-55080000D01*
X47100000Y-55080000D02*
X44720000Y-52700000D01*
X73800000Y-58940000D02*
X73800000Y-60190300D01*
X74300000Y-75440000D02*
X74300000Y-74189700D01*
X74300000Y-74189700D02*
X75315900Y-74189700D01*
X75315900Y-74189700D02*
X75559200Y-73946400D01*
X75559200Y-73946400D02*
X75559200Y-61431400D01*
X75559200Y-61431400D02*
X74318100Y-60190300D01*
X74318100Y-60190300D02*
X73800000Y-60190300D01*
D23*
G04 #@! TO.N,Net-(J1-Pad3)*
X40200000Y-56280000D02*
X40200000Y-57455300D01*
X47100000Y-66380000D02*
X47100000Y-65254700D01*
X47100000Y-65254700D02*
X46818600Y-65254700D01*
X46818600Y-65254700D02*
X45974700Y-64410800D01*
X45974700Y-64410800D02*
X45974700Y-63230000D01*
X45974700Y-63230000D02*
X40200000Y-57455300D01*
G04 #@! TO.N,Net-(Q1-Pad2)*
X59100000Y-57530000D02*
X60175300Y-57530000D01*
X39200000Y-69120000D02*
X42157900Y-72077900D01*
X42157900Y-72077900D02*
X59634900Y-72077900D01*
X59634900Y-72077900D02*
X60349900Y-71362900D01*
X60349900Y-71362900D02*
X60349900Y-57704600D01*
X60349900Y-57704600D02*
X60175300Y-57530000D01*
G04 #@! TO.N,Net-(Q1-Pad3)*
X59100000Y-56260000D02*
X59100000Y-55409700D01*
X62720000Y-51200000D02*
X62720000Y-52325300D01*
X62720000Y-52325300D02*
X59635600Y-55409700D01*
X59635600Y-55409700D02*
X59100000Y-55409700D01*
G04 #@! TO.N,Net-(R7-Pad1)*
X46180000Y-81420000D02*
X45054700Y-81420000D01*
X38900000Y-74300000D02*
X45054700Y-80454700D01*
X45054700Y-80454700D02*
X45054700Y-81420000D01*
G04 #@! TO.N,Net-(J2-Pad1)*
X42300000Y-61500000D02*
X42300000Y-60374700D01*
X44720000Y-50160000D02*
X44720000Y-50884200D01*
X44720000Y-50884200D02*
X40594200Y-55010000D01*
X40594200Y-55010000D02*
X39795100Y-55010000D01*
X39795100Y-55010000D02*
X39003400Y-55801700D01*
X39003400Y-55801700D02*
X39003400Y-57078100D01*
X39003400Y-57078100D02*
X42300000Y-60374700D01*
X47100000Y-68920000D02*
X47100000Y-67794700D01*
X47100000Y-67794700D02*
X46818700Y-67794700D01*
X46818700Y-67794700D02*
X42300000Y-63276000D01*
X42300000Y-63276000D02*
X42300000Y-61500000D01*
X73800000Y-56400000D02*
X73800000Y-57575300D01*
X73800000Y-57575300D02*
X73432700Y-57575300D01*
X73432700Y-57575300D02*
X69400000Y-61608000D01*
X69400000Y-61608000D02*
X69400000Y-63280000D01*
G04 #@! TO.N,Net-(J2-Pad4)*
X54720000Y-63840000D02*
X54720000Y-62714700D01*
X54720000Y-62714700D02*
X54438700Y-62714700D01*
X54438700Y-62714700D02*
X52340000Y-60616000D01*
X52340000Y-60616000D02*
X52340000Y-55240000D01*
G04 #@! TO.N,Net-(J2-Pad5)*
X54720000Y-66380000D02*
X54720000Y-65254700D01*
X54720000Y-65254700D02*
X54438700Y-65254700D01*
X54438700Y-65254700D02*
X51252600Y-62068600D01*
X51252600Y-62068600D02*
X51252600Y-51247400D01*
X51252600Y-51247400D02*
X52340000Y-50160000D01*
G04 #@! TO.N,Net-(R11-Pad1)*
X74300000Y-77980000D02*
X74300000Y-76804700D01*
X74300000Y-76804700D02*
X73932600Y-76804700D01*
X73932600Y-76804700D02*
X69400000Y-72272100D01*
X69400000Y-72272100D02*
X69400000Y-70900000D01*
G04 #@! TD*
D25*
G04 #@! TO.N,GND*
G36*
X77865001Y-93765000D02*
X29335000Y-93765000D01*
X29335000Y-89055431D01*
X31365000Y-89055431D01*
X31365000Y-89944569D01*
X31705259Y-90766026D01*
X32333974Y-91394741D01*
X33155431Y-91735000D01*
X34044569Y-91735000D01*
X34866026Y-91394741D01*
X35494741Y-90766026D01*
X35835000Y-89944569D01*
X35835000Y-89055431D01*
X35599031Y-88485750D01*
X41565000Y-88485750D01*
X41565000Y-89226310D01*
X41661673Y-89459699D01*
X41840302Y-89638327D01*
X42073691Y-89735000D01*
X42814250Y-89735000D01*
X42973000Y-89576250D01*
X42973000Y-88327000D01*
X41723750Y-88327000D01*
X41565000Y-88485750D01*
X35599031Y-88485750D01*
X35494741Y-88233974D01*
X34866026Y-87605259D01*
X34044569Y-87265000D01*
X33155431Y-87265000D01*
X32333974Y-87605259D01*
X31705259Y-88233974D01*
X31365000Y-89055431D01*
X29335000Y-89055431D01*
X29335000Y-81920000D01*
X34236887Y-81920000D01*
X34348260Y-82479909D01*
X34665423Y-82954577D01*
X35140091Y-83271740D01*
X35558667Y-83355000D01*
X35841333Y-83355000D01*
X36259909Y-83271740D01*
X36734577Y-82954577D01*
X37051740Y-82479909D01*
X37163113Y-81920000D01*
X37436887Y-81920000D01*
X37548260Y-82479909D01*
X37865423Y-82954577D01*
X38340091Y-83271740D01*
X38758667Y-83355000D01*
X39041333Y-83355000D01*
X39459909Y-83271740D01*
X39566031Y-83200832D01*
X43030198Y-86665000D01*
X42972998Y-86665000D01*
X42972998Y-86823748D01*
X42814250Y-86665000D01*
X42073691Y-86665000D01*
X41840302Y-86761673D01*
X41661673Y-86940301D01*
X41565000Y-87173690D01*
X41565000Y-87914250D01*
X41723750Y-88073000D01*
X42973000Y-88073000D01*
X42973000Y-88053000D01*
X43227000Y-88053000D01*
X43227000Y-88073000D01*
X43247000Y-88073000D01*
X43247000Y-88327000D01*
X43227000Y-88327000D01*
X43227000Y-89576250D01*
X43385750Y-89735000D01*
X44126309Y-89735000D01*
X44359698Y-89638327D01*
X44538327Y-89459699D01*
X44594139Y-89324956D01*
X44770493Y-89501310D01*
X45334670Y-89735000D01*
X45945330Y-89735000D01*
X46509507Y-89501310D01*
X46941310Y-89069507D01*
X47175000Y-88505330D01*
X47175000Y-88485750D01*
X48065000Y-88485750D01*
X48065000Y-89226310D01*
X48161673Y-89459699D01*
X48340302Y-89638327D01*
X48573691Y-89735000D01*
X49314250Y-89735000D01*
X49473000Y-89576250D01*
X49473000Y-88327000D01*
X48223750Y-88327000D01*
X48065000Y-88485750D01*
X47175000Y-88485750D01*
X47175000Y-87894670D01*
X46941310Y-87330493D01*
X46784507Y-87173690D01*
X48065000Y-87173690D01*
X48065000Y-87914250D01*
X48223750Y-88073000D01*
X49473000Y-88073000D01*
X49473000Y-86823750D01*
X49727000Y-86823750D01*
X49727000Y-88073000D01*
X49747000Y-88073000D01*
X49747000Y-88327000D01*
X49727000Y-88327000D01*
X49727000Y-89576250D01*
X49885750Y-89735000D01*
X50626309Y-89735000D01*
X50859698Y-89638327D01*
X51038327Y-89459699D01*
X51094139Y-89324956D01*
X51270493Y-89501310D01*
X51834670Y-89735000D01*
X52445330Y-89735000D01*
X53009507Y-89501310D01*
X53441310Y-89069507D01*
X53675000Y-88505330D01*
X53675000Y-88485750D01*
X54565000Y-88485750D01*
X54565000Y-89226310D01*
X54661673Y-89459699D01*
X54840302Y-89638327D01*
X55073691Y-89735000D01*
X55814250Y-89735000D01*
X55973000Y-89576250D01*
X55973000Y-88327000D01*
X54723750Y-88327000D01*
X54565000Y-88485750D01*
X53675000Y-88485750D01*
X53675000Y-87894670D01*
X53441310Y-87330493D01*
X53284507Y-87173690D01*
X54565000Y-87173690D01*
X54565000Y-87914250D01*
X54723750Y-88073000D01*
X55973000Y-88073000D01*
X55973000Y-86823750D01*
X56227000Y-86823750D01*
X56227000Y-88073000D01*
X56247000Y-88073000D01*
X56247000Y-88327000D01*
X56227000Y-88327000D01*
X56227000Y-89576250D01*
X56385750Y-89735000D01*
X57126309Y-89735000D01*
X57359698Y-89638327D01*
X57538327Y-89459699D01*
X57594139Y-89324956D01*
X57770493Y-89501310D01*
X58334670Y-89735000D01*
X58945330Y-89735000D01*
X59509507Y-89501310D01*
X59941310Y-89069507D01*
X60175000Y-88505330D01*
X60175000Y-88485750D01*
X61065000Y-88485750D01*
X61065000Y-89226310D01*
X61161673Y-89459699D01*
X61340302Y-89638327D01*
X61573691Y-89735000D01*
X62314250Y-89735000D01*
X62473000Y-89576250D01*
X62473000Y-88327000D01*
X61223750Y-88327000D01*
X61065000Y-88485750D01*
X60175000Y-88485750D01*
X60175000Y-87894670D01*
X60129640Y-87785161D01*
X60741111Y-87173690D01*
X61065000Y-87173690D01*
X61065000Y-87914250D01*
X61223750Y-88073000D01*
X62473000Y-88073000D01*
X62473000Y-86823750D01*
X62727000Y-86823750D01*
X62727000Y-88073000D01*
X62747000Y-88073000D01*
X62747000Y-88327000D01*
X62727000Y-88327000D01*
X62727000Y-89576250D01*
X62885750Y-89735000D01*
X63626309Y-89735000D01*
X63859698Y-89638327D01*
X64038327Y-89459699D01*
X64094139Y-89324956D01*
X64270493Y-89501310D01*
X64834670Y-89735000D01*
X65445330Y-89735000D01*
X66009507Y-89501310D01*
X66441310Y-89069507D01*
X66447140Y-89055431D01*
X71365000Y-89055431D01*
X71365000Y-89944569D01*
X71705259Y-90766026D01*
X72333974Y-91394741D01*
X73155431Y-91735000D01*
X74044569Y-91735000D01*
X74866026Y-91394741D01*
X75494741Y-90766026D01*
X75835000Y-89944569D01*
X75835000Y-89055431D01*
X75494741Y-88233974D01*
X74866026Y-87605259D01*
X74044569Y-87265000D01*
X73155431Y-87265000D01*
X72333974Y-87605259D01*
X71705259Y-88233974D01*
X71365000Y-89055431D01*
X66447140Y-89055431D01*
X66675000Y-88505330D01*
X66675000Y-87894670D01*
X66441310Y-87330493D01*
X66009507Y-86898690D01*
X65445330Y-86665000D01*
X64834670Y-86665000D01*
X64270493Y-86898690D01*
X64094139Y-87075044D01*
X64038327Y-86940301D01*
X63859698Y-86761673D01*
X63626309Y-86665000D01*
X62885750Y-86665000D01*
X62727000Y-86823750D01*
X62473000Y-86823750D01*
X62314250Y-86665000D01*
X61573691Y-86665000D01*
X61340302Y-86761673D01*
X61161673Y-86940301D01*
X61065000Y-87173690D01*
X60741111Y-87173690D01*
X65080240Y-82834561D01*
X65765000Y-82834561D01*
X65765000Y-83405439D01*
X65983466Y-83932862D01*
X66387138Y-84336534D01*
X66914561Y-84555000D01*
X67485439Y-84555000D01*
X68012862Y-84336534D01*
X68416534Y-83932862D01*
X68635000Y-83405439D01*
X68635000Y-83120000D01*
X68836887Y-83120000D01*
X68948260Y-83679909D01*
X69265423Y-84154577D01*
X69740091Y-84471740D01*
X70158667Y-84555000D01*
X70441333Y-84555000D01*
X70859909Y-84471740D01*
X71334577Y-84154577D01*
X71651740Y-83679909D01*
X71763113Y-83120000D01*
X71651740Y-82560091D01*
X71334577Y-82085423D01*
X70859909Y-81768260D01*
X70441333Y-81685000D01*
X70158667Y-81685000D01*
X69740091Y-81768260D01*
X69265423Y-82085423D01*
X68948260Y-82560091D01*
X68836887Y-83120000D01*
X68635000Y-83120000D01*
X68635000Y-82834561D01*
X68416534Y-82307138D01*
X68012862Y-81903466D01*
X67485439Y-81685000D01*
X66914561Y-81685000D01*
X66387138Y-81903466D01*
X65983466Y-82307138D01*
X65765000Y-82834561D01*
X65080240Y-82834561D01*
X67684473Y-80230329D01*
X67747929Y-80187929D01*
X67915904Y-79936537D01*
X67960000Y-79714852D01*
X67960000Y-79714848D01*
X67974888Y-79640001D01*
X67960000Y-79565154D01*
X67960000Y-76718043D01*
X68234577Y-76534577D01*
X68551740Y-76059909D01*
X68663113Y-75500000D01*
X68551740Y-74940091D01*
X68234577Y-74465423D01*
X67759909Y-74148260D01*
X67341333Y-74065000D01*
X67058667Y-74065000D01*
X66640091Y-74148260D01*
X66165423Y-74465423D01*
X65848260Y-74940091D01*
X65736887Y-75500000D01*
X65848260Y-76059909D01*
X66165423Y-76534577D01*
X66440000Y-76718044D01*
X66440001Y-79325197D01*
X59054839Y-86710360D01*
X58945330Y-86665000D01*
X58334670Y-86665000D01*
X57770493Y-86898690D01*
X57594139Y-87075044D01*
X57538327Y-86940301D01*
X57359698Y-86761673D01*
X57126309Y-86665000D01*
X56385750Y-86665000D01*
X56227000Y-86823750D01*
X55973000Y-86823750D01*
X55814250Y-86665000D01*
X55073691Y-86665000D01*
X54840302Y-86761673D01*
X54661673Y-86940301D01*
X54565000Y-87173690D01*
X53284507Y-87173690D01*
X53009507Y-86898690D01*
X52445330Y-86665000D01*
X51834670Y-86665000D01*
X51270493Y-86898690D01*
X51094139Y-87075044D01*
X51038327Y-86940301D01*
X50859698Y-86761673D01*
X50626309Y-86665000D01*
X49885750Y-86665000D01*
X49727000Y-86823750D01*
X49473000Y-86823750D01*
X49314250Y-86665000D01*
X48573691Y-86665000D01*
X48340302Y-86761673D01*
X48161673Y-86940301D01*
X48065000Y-87173690D01*
X46784507Y-87173690D01*
X46509507Y-86898690D01*
X45945330Y-86665000D01*
X45334670Y-86665000D01*
X45225162Y-86710360D01*
X40785300Y-82270499D01*
X40785300Y-81994852D01*
X40800189Y-81920000D01*
X40753445Y-81685000D01*
X40741204Y-81623463D01*
X40573229Y-81372071D01*
X40359988Y-81229588D01*
X40321837Y-81204096D01*
X40120786Y-81164104D01*
X39934577Y-80885423D01*
X39459909Y-80568260D01*
X39041333Y-80485000D01*
X38758667Y-80485000D01*
X38340091Y-80568260D01*
X37865423Y-80885423D01*
X37548260Y-81360091D01*
X37436887Y-81920000D01*
X37163113Y-81920000D01*
X37051740Y-81360091D01*
X36734577Y-80885423D01*
X36259909Y-80568260D01*
X35841333Y-80485000D01*
X35558667Y-80485000D01*
X35140091Y-80568260D01*
X34665423Y-80885423D01*
X34348260Y-81360091D01*
X34236887Y-81920000D01*
X29335000Y-81920000D01*
X29335000Y-74014561D01*
X34265000Y-74014561D01*
X34265000Y-74585439D01*
X34483466Y-75112862D01*
X34887138Y-75516534D01*
X35414561Y-75735000D01*
X35985439Y-75735000D01*
X36512862Y-75516534D01*
X36916534Y-75112862D01*
X37135000Y-74585439D01*
X37135000Y-74014561D01*
X37465000Y-74014561D01*
X37465000Y-74585439D01*
X37683466Y-75112862D01*
X38087138Y-75516534D01*
X38614561Y-75735000D01*
X39185439Y-75735000D01*
X39238302Y-75713103D01*
X44294700Y-80769502D01*
X44294701Y-81345144D01*
X44279811Y-81420000D01*
X44338796Y-81716537D01*
X44506771Y-81967929D01*
X44758163Y-82135904D01*
X44959214Y-82175896D01*
X45145423Y-82454577D01*
X45620091Y-82771740D01*
X46038667Y-82855000D01*
X46321333Y-82855000D01*
X46739909Y-82771740D01*
X47214577Y-82454577D01*
X47450000Y-82102242D01*
X47685423Y-82454577D01*
X48160091Y-82771740D01*
X48578667Y-82855000D01*
X48861333Y-82855000D01*
X49279909Y-82771740D01*
X49754577Y-82454577D01*
X49990000Y-82102242D01*
X50225423Y-82454577D01*
X50700091Y-82771740D01*
X51118667Y-82855000D01*
X51401333Y-82855000D01*
X51819909Y-82771740D01*
X52294577Y-82454577D01*
X52530000Y-82102242D01*
X52765423Y-82454577D01*
X53240091Y-82771740D01*
X53658667Y-82855000D01*
X53941333Y-82855000D01*
X54359909Y-82771740D01*
X54834577Y-82454577D01*
X55151740Y-81979909D01*
X55263113Y-81420000D01*
X55151740Y-80860091D01*
X54834577Y-80385423D01*
X54359909Y-80068260D01*
X53941333Y-79985000D01*
X53658667Y-79985000D01*
X53240091Y-80068260D01*
X52765423Y-80385423D01*
X52530000Y-80737758D01*
X52294577Y-80385423D01*
X51819909Y-80068260D01*
X51401333Y-79985000D01*
X51118667Y-79985000D01*
X50700091Y-80068260D01*
X50225423Y-80385423D01*
X49990000Y-80737758D01*
X49754577Y-80385423D01*
X49279909Y-80068260D01*
X48861333Y-79985000D01*
X48578667Y-79985000D01*
X48160091Y-80068260D01*
X47685423Y-80385423D01*
X47450000Y-80737758D01*
X47214577Y-80385423D01*
X46739909Y-80068260D01*
X46321333Y-79985000D01*
X46038667Y-79985000D01*
X45699922Y-80052381D01*
X45602629Y-79906771D01*
X45539173Y-79864371D01*
X43360552Y-77685750D01*
X60565000Y-77685750D01*
X60565000Y-78426309D01*
X60661673Y-78659698D01*
X60840301Y-78838327D01*
X61073690Y-78935000D01*
X61814250Y-78935000D01*
X61973000Y-78776250D01*
X61973000Y-77527000D01*
X62227000Y-77527000D01*
X62227000Y-78776250D01*
X62385750Y-78935000D01*
X63126310Y-78935000D01*
X63359699Y-78838327D01*
X63538327Y-78659698D01*
X63635000Y-78426309D01*
X63635000Y-77685750D01*
X63476250Y-77527000D01*
X62227000Y-77527000D01*
X61973000Y-77527000D01*
X60723750Y-77527000D01*
X60565000Y-77685750D01*
X43360552Y-77685750D01*
X40313103Y-74638302D01*
X40335000Y-74585439D01*
X40335000Y-74014561D01*
X40116534Y-73487138D01*
X39712862Y-73083466D01*
X39185439Y-72865000D01*
X38614561Y-72865000D01*
X38087138Y-73083466D01*
X37683466Y-73487138D01*
X37465000Y-74014561D01*
X37135000Y-74014561D01*
X36916534Y-73487138D01*
X36512862Y-73083466D01*
X35985439Y-72865000D01*
X35414561Y-72865000D01*
X34887138Y-73083466D01*
X34483466Y-73487138D01*
X34265000Y-74014561D01*
X29335000Y-74014561D01*
X29335000Y-62620000D01*
X31585908Y-62620000D01*
X31701161Y-63199418D01*
X32029375Y-63690625D01*
X32327761Y-63890000D01*
X32029375Y-64089375D01*
X31701161Y-64580582D01*
X31585908Y-65160000D01*
X31701161Y-65739418D01*
X32029375Y-66230625D01*
X32047619Y-66242816D01*
X32002235Y-66251843D01*
X31792191Y-66392191D01*
X31651843Y-66602235D01*
X31602560Y-66850000D01*
X31602560Y-68550000D01*
X31651843Y-68797765D01*
X31792191Y-69007809D01*
X32002235Y-69148157D01*
X32250000Y-69197440D01*
X33950000Y-69197440D01*
X34197765Y-69148157D01*
X34407809Y-69007809D01*
X34523570Y-68834561D01*
X37765000Y-68834561D01*
X37765000Y-69405439D01*
X37983466Y-69932862D01*
X38387138Y-70336534D01*
X38914561Y-70555000D01*
X39485439Y-70555000D01*
X39538302Y-70533103D01*
X41567573Y-72562376D01*
X41609971Y-72625829D01*
X41673424Y-72668227D01*
X41673426Y-72668229D01*
X41775973Y-72736748D01*
X41861363Y-72793804D01*
X42083048Y-72837900D01*
X42083052Y-72837900D01*
X42157899Y-72852788D01*
X42232746Y-72837900D01*
X45096995Y-72837900D01*
X44828260Y-73240091D01*
X44716887Y-73800000D01*
X44828260Y-74359909D01*
X45145423Y-74834577D01*
X45620091Y-75151740D01*
X46038667Y-75235000D01*
X46321333Y-75235000D01*
X46739909Y-75151740D01*
X47214577Y-74834577D01*
X47450000Y-74482242D01*
X47685423Y-74834577D01*
X48160091Y-75151740D01*
X48578667Y-75235000D01*
X48861333Y-75235000D01*
X49279909Y-75151740D01*
X49754577Y-74834577D01*
X49990000Y-74482242D01*
X50225423Y-74834577D01*
X50700091Y-75151740D01*
X51118667Y-75235000D01*
X51401333Y-75235000D01*
X51819909Y-75151740D01*
X52294577Y-74834577D01*
X52375215Y-74713894D01*
X52401843Y-74847765D01*
X52542191Y-75057809D01*
X52752235Y-75198157D01*
X53000000Y-75247440D01*
X54600000Y-75247440D01*
X54847765Y-75198157D01*
X55057809Y-75057809D01*
X55198157Y-74847765D01*
X55247440Y-74600000D01*
X55247440Y-74560000D01*
X60565000Y-74560000D01*
X60565000Y-75165330D01*
X60798690Y-75729507D01*
X60975044Y-75905861D01*
X60840301Y-75961673D01*
X60661673Y-76140302D01*
X60565000Y-76373691D01*
X60565000Y-77114250D01*
X60723750Y-77273000D01*
X61973000Y-77273000D01*
X61973000Y-77253000D01*
X62227000Y-77253000D01*
X62227000Y-77273000D01*
X63476250Y-77273000D01*
X63635000Y-77114250D01*
X63635000Y-76373691D01*
X63538327Y-76140302D01*
X63359699Y-75961673D01*
X63224956Y-75905861D01*
X63401310Y-75729507D01*
X63635000Y-75165330D01*
X63635000Y-74554670D01*
X63401310Y-73990493D01*
X62969507Y-73558690D01*
X62860000Y-73513331D01*
X62860000Y-73126401D01*
X64371687Y-71614714D01*
X64447611Y-71775134D01*
X64862577Y-72151041D01*
X65250961Y-72311904D01*
X65473000Y-72189915D01*
X65473000Y-71047000D01*
X65727000Y-71047000D01*
X65727000Y-72189915D01*
X65949039Y-72311904D01*
X66337423Y-72151041D01*
X66752389Y-71775134D01*
X66991914Y-71269041D01*
X66870629Y-71047000D01*
X65727000Y-71047000D01*
X65473000Y-71047000D01*
X65453000Y-71047000D01*
X65453000Y-70793000D01*
X65473000Y-70793000D01*
X65473000Y-70773000D01*
X65727000Y-70773000D01*
X65727000Y-70793000D01*
X66870629Y-70793000D01*
X66991914Y-70570959D01*
X66752389Y-70064866D01*
X66337423Y-69688959D01*
X66309153Y-69677250D01*
X67913776Y-68072627D01*
X67977229Y-68030229D01*
X68019627Y-67966776D01*
X68019629Y-67966774D01*
X68103402Y-67841398D01*
X68145204Y-67778837D01*
X68189300Y-67557152D01*
X68189300Y-67557148D01*
X68204188Y-67482301D01*
X68189300Y-67407454D01*
X68189300Y-64050990D01*
X68365423Y-64314577D01*
X68840091Y-64631740D01*
X69258667Y-64715000D01*
X69541333Y-64715000D01*
X69959909Y-64631740D01*
X70434577Y-64314577D01*
X70751740Y-63839909D01*
X70863113Y-63280000D01*
X70751740Y-62720091D01*
X70434577Y-62245423D01*
X70160000Y-62061957D01*
X70160000Y-61922801D01*
X72466138Y-59616663D01*
X72729375Y-60010625D01*
X72954465Y-60161025D01*
X72948642Y-60190300D01*
X72963273Y-60263857D01*
X72918642Y-60284817D01*
X72528355Y-60713076D01*
X72358524Y-61123110D01*
X72479845Y-61353000D01*
X73673000Y-61353000D01*
X73673000Y-61333000D01*
X73927000Y-61333000D01*
X73927000Y-61353000D01*
X73947000Y-61353000D01*
X73947000Y-61607000D01*
X73927000Y-61607000D01*
X73927000Y-61627000D01*
X73673000Y-61627000D01*
X73673000Y-61607000D01*
X72479845Y-61607000D01*
X72358524Y-61836890D01*
X72528355Y-62246924D01*
X72918642Y-62675183D01*
X73048478Y-62736157D01*
X72729375Y-62949375D01*
X72401161Y-63440582D01*
X72285908Y-64020000D01*
X72401161Y-64599418D01*
X72729375Y-65090625D01*
X73027761Y-65290000D01*
X72729375Y-65489375D01*
X72401161Y-65980582D01*
X72285908Y-66560000D01*
X72401161Y-67139418D01*
X72729375Y-67630625D01*
X73220582Y-67958839D01*
X73653744Y-68045000D01*
X73946256Y-68045000D01*
X74379418Y-67958839D01*
X74724200Y-67728463D01*
X74724200Y-71402560D01*
X73450000Y-71402560D01*
X73202235Y-71451843D01*
X72992191Y-71592191D01*
X72851843Y-71802235D01*
X72802560Y-72050000D01*
X72802560Y-73750000D01*
X72851843Y-73997765D01*
X72992191Y-74207809D01*
X73202235Y-74348157D01*
X73247619Y-74357184D01*
X73229375Y-74369375D01*
X72966098Y-74763396D01*
X70266049Y-72063347D01*
X70616534Y-71712862D01*
X70835000Y-71185439D01*
X70835000Y-70614561D01*
X70616534Y-70087138D01*
X70212862Y-69683466D01*
X69685439Y-69465000D01*
X69114561Y-69465000D01*
X68587138Y-69683466D01*
X68183466Y-70087138D01*
X67965000Y-70614561D01*
X67965000Y-71185439D01*
X68183466Y-71712862D01*
X68587138Y-72116534D01*
X68640000Y-72138430D01*
X68640000Y-72197253D01*
X68625112Y-72272100D01*
X68640000Y-72346947D01*
X68640000Y-72346951D01*
X68684096Y-72568636D01*
X68852071Y-72820029D01*
X68915530Y-72862431D01*
X70118098Y-74065000D01*
X70014561Y-74065000D01*
X69487138Y-74283466D01*
X69083466Y-74687138D01*
X68865000Y-75214561D01*
X68865000Y-75785439D01*
X69083466Y-76312862D01*
X69487138Y-76716534D01*
X70014561Y-76935000D01*
X70585439Y-76935000D01*
X71112862Y-76716534D01*
X71516534Y-76312862D01*
X71735000Y-75785439D01*
X71735000Y-75681902D01*
X73122469Y-77069372D01*
X72901161Y-77400582D01*
X72785908Y-77980000D01*
X72901161Y-78559418D01*
X73229375Y-79050625D01*
X73720582Y-79378839D01*
X74153744Y-79465000D01*
X74446256Y-79465000D01*
X74879418Y-79378839D01*
X75370625Y-79050625D01*
X75698839Y-78559418D01*
X75814092Y-77980000D01*
X75698839Y-77400582D01*
X75370625Y-76909375D01*
X75072239Y-76710000D01*
X75370625Y-76510625D01*
X75698839Y-76019418D01*
X75814092Y-75440000D01*
X75712445Y-74928983D01*
X75917901Y-74791701D01*
X75964487Y-74721980D01*
X76091480Y-74594987D01*
X76161201Y-74548401D01*
X76345752Y-74272201D01*
X76394200Y-74028637D01*
X76394200Y-74028634D01*
X76410557Y-73946401D01*
X76394200Y-73864168D01*
X76394200Y-61513632D01*
X76410557Y-61431399D01*
X76394200Y-61349166D01*
X76394200Y-61349163D01*
X76345752Y-61105599D01*
X76216752Y-60912537D01*
X76207784Y-60899115D01*
X76207783Y-60899114D01*
X76161201Y-60829399D01*
X76091485Y-60782816D01*
X75050336Y-59741669D01*
X75198839Y-59519418D01*
X75314092Y-58940000D01*
X75198839Y-58360582D01*
X74870625Y-57869375D01*
X74852381Y-57857184D01*
X74897765Y-57848157D01*
X75107809Y-57707809D01*
X75248157Y-57497765D01*
X75297440Y-57250000D01*
X75297440Y-55550000D01*
X75248157Y-55302235D01*
X75107809Y-55092191D01*
X74897765Y-54951843D01*
X74650000Y-54902560D01*
X72950000Y-54902560D01*
X72702235Y-54951843D01*
X72492191Y-55092191D01*
X72351843Y-55302235D01*
X72302560Y-55550000D01*
X72302560Y-57250000D01*
X72351843Y-57497765D01*
X72385325Y-57547873D01*
X68915530Y-61017669D01*
X68852071Y-61060071D01*
X68684096Y-61311464D01*
X68640000Y-61533149D01*
X68640000Y-61533153D01*
X68625112Y-61608000D01*
X68640000Y-61682847D01*
X68640000Y-62061956D01*
X68365423Y-62245423D01*
X68189300Y-62509010D01*
X68189300Y-57444146D01*
X68204188Y-57369299D01*
X68189300Y-57294452D01*
X68189300Y-57294448D01*
X68145204Y-57072763D01*
X67977229Y-56821371D01*
X67913773Y-56778971D01*
X67667997Y-56533195D01*
X67766100Y-56040000D01*
X67642891Y-55420589D01*
X67380912Y-55028509D01*
X67557809Y-54910309D01*
X67698157Y-54700265D01*
X67747440Y-54452500D01*
X67747440Y-52547500D01*
X67698157Y-52299735D01*
X67557809Y-52089691D01*
X67347765Y-51949343D01*
X67100000Y-51900060D01*
X65100000Y-51900060D01*
X64852235Y-51949343D01*
X64642191Y-52089691D01*
X64501843Y-52299735D01*
X64452560Y-52547500D01*
X64452560Y-54452500D01*
X64501843Y-54700265D01*
X64642191Y-54910309D01*
X64819088Y-55028509D01*
X64557109Y-55420589D01*
X64433900Y-56040000D01*
X64557109Y-56659411D01*
X64907977Y-57184523D01*
X65095767Y-57310000D01*
X64907977Y-57435477D01*
X64557109Y-57960589D01*
X64433900Y-58580000D01*
X64557109Y-59199411D01*
X64907977Y-59724523D01*
X65433089Y-60075391D01*
X65896150Y-60167500D01*
X66303850Y-60167500D01*
X66669300Y-60094807D01*
X66669300Y-62339904D01*
X66412862Y-62083466D01*
X65885439Y-61865000D01*
X65314561Y-61865000D01*
X64787138Y-62083466D01*
X64383466Y-62487138D01*
X64165000Y-63014561D01*
X64165000Y-63585439D01*
X64383466Y-64112862D01*
X64787138Y-64516534D01*
X65314561Y-64735000D01*
X65885439Y-64735000D01*
X66412862Y-64516534D01*
X66669301Y-64260095D01*
X66669301Y-67167496D01*
X63622916Y-70213882D01*
X63552389Y-70064866D01*
X63137423Y-69688959D01*
X62749039Y-69528096D01*
X62527000Y-69650085D01*
X62527000Y-70793000D01*
X62547000Y-70793000D01*
X62547000Y-71047000D01*
X62527000Y-71047000D01*
X62527000Y-71067000D01*
X62273000Y-71067000D01*
X62273000Y-71047000D01*
X62253000Y-71047000D01*
X62253000Y-70793000D01*
X62273000Y-70793000D01*
X62273000Y-69650085D01*
X62050961Y-69528096D01*
X61662577Y-69688959D01*
X61247611Y-70064866D01*
X61109900Y-70355836D01*
X61109900Y-63935258D01*
X61183466Y-64112862D01*
X61587138Y-64516534D01*
X62114561Y-64735000D01*
X62685439Y-64735000D01*
X63212862Y-64516534D01*
X63616534Y-64112862D01*
X63835000Y-63585439D01*
X63835000Y-63014561D01*
X63616534Y-62487138D01*
X63212862Y-62083466D01*
X62685439Y-61865000D01*
X62114561Y-61865000D01*
X61587138Y-62083466D01*
X61183466Y-62487138D01*
X61109900Y-62664742D01*
X61109900Y-57779448D01*
X61124788Y-57704600D01*
X61109900Y-57629752D01*
X61109900Y-57629748D01*
X61065804Y-57408063D01*
X60897829Y-57156671D01*
X60834370Y-57114269D01*
X60765631Y-57045530D01*
X60723229Y-56982071D01*
X60471837Y-56814096D01*
X60364191Y-56792684D01*
X60417695Y-56712609D01*
X60507725Y-56260000D01*
X60417695Y-55807391D01*
X60375644Y-55744457D01*
X63204476Y-52915627D01*
X63267929Y-52873229D01*
X63310327Y-52809776D01*
X63310329Y-52809774D01*
X63394102Y-52684398D01*
X63435904Y-52621837D01*
X63475896Y-52420786D01*
X63754577Y-52234577D01*
X64071740Y-51759909D01*
X64183113Y-51200000D01*
X64071740Y-50640091D01*
X63754577Y-50165423D01*
X63279909Y-49848260D01*
X62861333Y-49765000D01*
X62578667Y-49765000D01*
X62160091Y-49848260D01*
X61685423Y-50165423D01*
X61368260Y-50640091D01*
X61256887Y-51200000D01*
X61368260Y-51759909D01*
X61685423Y-52234577D01*
X61715694Y-52254803D01*
X59320799Y-54649700D01*
X59174852Y-54649700D01*
X59100000Y-54634811D01*
X59025148Y-54649700D01*
X58803463Y-54693796D01*
X58552071Y-54861771D01*
X58384096Y-55113163D01*
X58365806Y-55205114D01*
X58038687Y-55423687D01*
X57782305Y-55807391D01*
X57692275Y-56260000D01*
X57782305Y-56712609D01*
X57904174Y-56895000D01*
X57782305Y-57077391D01*
X57692275Y-57530000D01*
X57782305Y-57982609D01*
X57783224Y-57983984D01*
X57715000Y-58148691D01*
X57715000Y-58514250D01*
X57873750Y-58673000D01*
X58675290Y-58673000D01*
X58760754Y-58690000D01*
X59247000Y-58690000D01*
X59247000Y-58927000D01*
X59227000Y-58927000D01*
X59227000Y-59801250D01*
X59385750Y-59960000D01*
X59589901Y-59960000D01*
X59589901Y-61908269D01*
X59485439Y-61865000D01*
X58914561Y-61865000D01*
X58387138Y-62083466D01*
X57983466Y-62487138D01*
X57765000Y-63014561D01*
X57765000Y-63585439D01*
X57983466Y-64112862D01*
X58387138Y-64516534D01*
X58914561Y-64735000D01*
X59485439Y-64735000D01*
X59589900Y-64691731D01*
X59589900Y-69545020D01*
X59549039Y-69528096D01*
X59327000Y-69650085D01*
X59327000Y-70793000D01*
X59347000Y-70793000D01*
X59347000Y-71047000D01*
X59327000Y-71047000D01*
X59327000Y-71067000D01*
X59073000Y-71067000D01*
X59073000Y-71047000D01*
X57929371Y-71047000D01*
X57808086Y-71269041D01*
X57831210Y-71317900D01*
X42472703Y-71317900D01*
X41725762Y-70570959D01*
X57808086Y-70570959D01*
X57929371Y-70793000D01*
X59073000Y-70793000D01*
X59073000Y-69650085D01*
X58850961Y-69528096D01*
X58462577Y-69688959D01*
X58047611Y-70064866D01*
X57808086Y-70570959D01*
X41725762Y-70570959D01*
X41377205Y-70222403D01*
X41471861Y-70127747D01*
X41545995Y-70373864D01*
X42083223Y-70566965D01*
X42653454Y-70539778D01*
X43054005Y-70373864D01*
X43128139Y-70127745D01*
X42300000Y-69299605D01*
X42285858Y-69313748D01*
X42106252Y-69134142D01*
X42120395Y-69120000D01*
X42479605Y-69120000D01*
X43307745Y-69948139D01*
X43553864Y-69874005D01*
X43746965Y-69336777D01*
X43719778Y-68766546D01*
X43553864Y-68365995D01*
X43307745Y-68291861D01*
X42479605Y-69120000D01*
X42120395Y-69120000D01*
X41292255Y-68291861D01*
X41046136Y-68365995D01*
X40853035Y-68903223D01*
X40880222Y-69473454D01*
X41046136Y-69874005D01*
X41292253Y-69948139D01*
X41197597Y-70042795D01*
X40613103Y-69458302D01*
X40635000Y-69405439D01*
X40635000Y-68834561D01*
X40416534Y-68307138D01*
X40221651Y-68112255D01*
X41471861Y-68112255D01*
X42300000Y-68940395D01*
X43128139Y-68112255D01*
X43054005Y-67866136D01*
X42516777Y-67673035D01*
X41946546Y-67700222D01*
X41545995Y-67866136D01*
X41471861Y-68112255D01*
X40221651Y-68112255D01*
X40012862Y-67903466D01*
X39485439Y-67685000D01*
X38914561Y-67685000D01*
X38387138Y-67903466D01*
X37983466Y-68307138D01*
X37765000Y-68834561D01*
X34523570Y-68834561D01*
X34548157Y-68797765D01*
X34597440Y-68550000D01*
X34597440Y-66850000D01*
X34548157Y-66602235D01*
X34407809Y-66392191D01*
X34197765Y-66251843D01*
X34152381Y-66242816D01*
X34170625Y-66230625D01*
X34498839Y-65739418D01*
X34614092Y-65160000D01*
X34498839Y-64580582D01*
X34170625Y-64089375D01*
X33872239Y-63890000D01*
X34170625Y-63690625D01*
X34498839Y-63199418D01*
X34614092Y-62620000D01*
X34498839Y-62040582D01*
X34170625Y-61549375D01*
X34096731Y-61500000D01*
X37736887Y-61500000D01*
X37848260Y-62059909D01*
X38165423Y-62534577D01*
X38640091Y-62851740D01*
X39058667Y-62935000D01*
X39341333Y-62935000D01*
X39759909Y-62851740D01*
X40234577Y-62534577D01*
X40551740Y-62059909D01*
X40663113Y-61500000D01*
X40551740Y-60940091D01*
X40234577Y-60465423D01*
X39759909Y-60148260D01*
X39341333Y-60065000D01*
X39058667Y-60065000D01*
X38640091Y-60148260D01*
X38165423Y-60465423D01*
X37848260Y-60940091D01*
X37736887Y-61500000D01*
X34096731Y-61500000D01*
X33935000Y-61391935D01*
X33935000Y-59349167D01*
X38884098Y-54400071D01*
X38928355Y-54506924D01*
X39069022Y-54661277D01*
X38518930Y-55211369D01*
X38455471Y-55253771D01*
X38287496Y-55505164D01*
X38243400Y-55726849D01*
X38243400Y-55726853D01*
X38228512Y-55801700D01*
X38243400Y-55876547D01*
X38243401Y-57003249D01*
X38228512Y-57078100D01*
X38287497Y-57374637D01*
X38394910Y-57535391D01*
X38455472Y-57626029D01*
X38518928Y-57668429D01*
X41295694Y-60445197D01*
X41265423Y-60465423D01*
X40948260Y-60940091D01*
X40836887Y-61500000D01*
X40948260Y-62059909D01*
X41265423Y-62534577D01*
X41540000Y-62718044D01*
X41540000Y-63201153D01*
X41525112Y-63276000D01*
X41540000Y-63350847D01*
X41540000Y-63350851D01*
X41584096Y-63572536D01*
X41752071Y-63823929D01*
X41815530Y-63866331D01*
X45972977Y-68023779D01*
X45748260Y-68360091D01*
X45636887Y-68920000D01*
X45748260Y-69479909D01*
X46065423Y-69954577D01*
X46540091Y-70271740D01*
X46958667Y-70355000D01*
X47241333Y-70355000D01*
X47659909Y-70271740D01*
X48134577Y-69954577D01*
X48451740Y-69479909D01*
X48563113Y-68920000D01*
X48451740Y-68360091D01*
X48134577Y-67885423D01*
X47855896Y-67699214D01*
X47838614Y-67612333D01*
X48134577Y-67414577D01*
X48451740Y-66939909D01*
X48563113Y-66380000D01*
X48451740Y-65820091D01*
X48134577Y-65345423D01*
X47855896Y-65159214D01*
X47838614Y-65072333D01*
X48134577Y-64874577D01*
X48451740Y-64399909D01*
X48563113Y-63840000D01*
X48451740Y-63280091D01*
X48134577Y-62805423D01*
X48013894Y-62724785D01*
X48147765Y-62698157D01*
X48357809Y-62557809D01*
X48498157Y-62347765D01*
X48547440Y-62100000D01*
X48547440Y-60500000D01*
X48498157Y-60252235D01*
X48357809Y-60042191D01*
X48147765Y-59901843D01*
X47935000Y-59859522D01*
X47935000Y-55162232D01*
X47951357Y-55079999D01*
X47935000Y-54997766D01*
X47935000Y-54997763D01*
X47886552Y-54754199D01*
X47859333Y-54713463D01*
X47748584Y-54547715D01*
X47748583Y-54547714D01*
X47702001Y-54477999D01*
X47632285Y-54431417D01*
X46117000Y-52916132D01*
X46117000Y-52422119D01*
X45904320Y-51908663D01*
X45511337Y-51515680D01*
X45304487Y-51430000D01*
X45511337Y-51344320D01*
X45608257Y-51247400D01*
X50477712Y-51247400D01*
X50492601Y-51322252D01*
X50492600Y-61993753D01*
X50477712Y-62068600D01*
X50492600Y-62143447D01*
X50492600Y-62143451D01*
X50536696Y-62365136D01*
X50704671Y-62616529D01*
X50768130Y-62658931D01*
X53592977Y-65483779D01*
X53368260Y-65820091D01*
X53256887Y-66380000D01*
X53368260Y-66939909D01*
X53685423Y-67414577D01*
X54037758Y-67650000D01*
X53685423Y-67885423D01*
X53368260Y-68360091D01*
X53256887Y-68920000D01*
X53368260Y-69479909D01*
X53685423Y-69954577D01*
X54160091Y-70271740D01*
X54578667Y-70355000D01*
X54861333Y-70355000D01*
X55279909Y-70271740D01*
X55754577Y-69954577D01*
X56071740Y-69479909D01*
X56183113Y-68920000D01*
X56071740Y-68360091D01*
X55754577Y-67885423D01*
X55402242Y-67650000D01*
X55754577Y-67414577D01*
X56071740Y-66939909D01*
X56183113Y-66380000D01*
X56071740Y-65820091D01*
X55754577Y-65345423D01*
X55475896Y-65159214D01*
X55458614Y-65072333D01*
X55754577Y-64874577D01*
X56071740Y-64399909D01*
X56183113Y-63840000D01*
X56071740Y-63280091D01*
X55754577Y-62805423D01*
X55475896Y-62619214D01*
X55454106Y-62509670D01*
X55575134Y-62452389D01*
X55951041Y-62037423D01*
X56111904Y-61649039D01*
X55989915Y-61427000D01*
X54847000Y-61427000D01*
X54847000Y-61447000D01*
X54593000Y-61447000D01*
X54593000Y-61427000D01*
X54573000Y-61427000D01*
X54573000Y-61173000D01*
X54593000Y-61173000D01*
X54593000Y-60029371D01*
X54847000Y-60029371D01*
X54847000Y-61173000D01*
X55989915Y-61173000D01*
X56111904Y-60950961D01*
X55951041Y-60562577D01*
X55575134Y-60147611D01*
X55069041Y-59908086D01*
X54847000Y-60029371D01*
X54593000Y-60029371D01*
X54370959Y-59908086D01*
X53864866Y-60147611D01*
X53488959Y-60562577D01*
X53451593Y-60652792D01*
X53100000Y-60301199D01*
X53100000Y-59085750D01*
X57715000Y-59085750D01*
X57715000Y-59451309D01*
X57811673Y-59684698D01*
X57990301Y-59863327D01*
X58223690Y-59960000D01*
X58814250Y-59960000D01*
X58973000Y-59801250D01*
X58973000Y-58927000D01*
X57873750Y-58927000D01*
X57715000Y-59085750D01*
X53100000Y-59085750D01*
X53100000Y-56649440D01*
X53102000Y-56649440D01*
X53349765Y-56600157D01*
X53559809Y-56459809D01*
X53700157Y-56249765D01*
X53749440Y-56002000D01*
X53749440Y-54478000D01*
X53700157Y-54230235D01*
X53559809Y-54020191D01*
X53349765Y-53879843D01*
X53102000Y-53830560D01*
X52012600Y-53830560D01*
X52012600Y-51562201D01*
X52030782Y-51544020D01*
X52062119Y-51557000D01*
X52617881Y-51557000D01*
X53131337Y-51344320D01*
X53524320Y-50951337D01*
X53539553Y-50914561D01*
X53665000Y-50914561D01*
X53665000Y-51485439D01*
X53883466Y-52012862D01*
X54287138Y-52416534D01*
X54814561Y-52635000D01*
X55385439Y-52635000D01*
X55912862Y-52416534D01*
X56316534Y-52012862D01*
X56535000Y-51485439D01*
X56535000Y-50914561D01*
X56316534Y-50387138D01*
X55912862Y-49983466D01*
X55385439Y-49765000D01*
X54814561Y-49765000D01*
X54287138Y-49983466D01*
X53883466Y-50387138D01*
X53665000Y-50914561D01*
X53539553Y-50914561D01*
X53737000Y-50437881D01*
X53737000Y-49882119D01*
X53524320Y-49368663D01*
X53211088Y-49055431D01*
X71365000Y-49055431D01*
X71365000Y-49944569D01*
X71705259Y-50766026D01*
X72333974Y-51394741D01*
X73155431Y-51735000D01*
X74044569Y-51735000D01*
X74866026Y-51394741D01*
X75494741Y-50766026D01*
X75835000Y-49944569D01*
X75835000Y-49055431D01*
X75494741Y-48233974D01*
X74866026Y-47605259D01*
X74044569Y-47265000D01*
X73155431Y-47265000D01*
X72333974Y-47605259D01*
X71705259Y-48233974D01*
X71365000Y-49055431D01*
X53211088Y-49055431D01*
X53131337Y-48975680D01*
X52617881Y-48763000D01*
X52062119Y-48763000D01*
X51548663Y-48975680D01*
X51155680Y-49368663D01*
X50943000Y-49882119D01*
X50943000Y-50437881D01*
X50955980Y-50469218D01*
X50768128Y-50657071D01*
X50704672Y-50699471D01*
X50662272Y-50762927D01*
X50662271Y-50762928D01*
X50536697Y-50950863D01*
X50477712Y-51247400D01*
X45608257Y-51247400D01*
X45904320Y-50951337D01*
X46117000Y-50437881D01*
X46117000Y-49882119D01*
X45904320Y-49368663D01*
X45511337Y-48975680D01*
X44997881Y-48763000D01*
X44442119Y-48763000D01*
X43928663Y-48975680D01*
X43535680Y-49368663D01*
X43323000Y-49882119D01*
X43323000Y-50437881D01*
X43535680Y-50951337D01*
X43556870Y-50972527D01*
X41496445Y-53032953D01*
X41471645Y-52973076D01*
X41194292Y-52668739D01*
X41297765Y-52648157D01*
X41507809Y-52507809D01*
X41648157Y-52297765D01*
X41697440Y-52050000D01*
X41697440Y-50350000D01*
X41648157Y-50102235D01*
X41507809Y-49892191D01*
X41297765Y-49751843D01*
X41050000Y-49702560D01*
X39350000Y-49702560D01*
X39102235Y-49751843D01*
X38892191Y-49892191D01*
X38751843Y-50102235D01*
X38702560Y-50350000D01*
X38702560Y-52050000D01*
X38730743Y-52191688D01*
X32567718Y-58354715D01*
X32498000Y-58401299D01*
X32451416Y-58471017D01*
X32313448Y-58677500D01*
X32248643Y-59003300D01*
X32265001Y-59085538D01*
X32265000Y-61391935D01*
X32029375Y-61549375D01*
X31701161Y-62040582D01*
X31585908Y-62620000D01*
X29335000Y-62620000D01*
X29335000Y-49055431D01*
X31365000Y-49055431D01*
X31365000Y-49944569D01*
X31705259Y-50766026D01*
X32333974Y-51394741D01*
X33155431Y-51735000D01*
X34044569Y-51735000D01*
X34866026Y-51394741D01*
X35494741Y-50766026D01*
X35835000Y-49944569D01*
X35835000Y-49055431D01*
X35494741Y-48233974D01*
X34866026Y-47605259D01*
X34044569Y-47265000D01*
X33155431Y-47265000D01*
X32333974Y-47605259D01*
X31705259Y-48233974D01*
X31365000Y-49055431D01*
X29335000Y-49055431D01*
X29335000Y-45235000D01*
X77865000Y-45235000D01*
X77865001Y-93765000D01*
X77865001Y-93765000D01*
G37*
X77865001Y-93765000D02*
X29335000Y-93765000D01*
X29335000Y-89055431D01*
X31365000Y-89055431D01*
X31365000Y-89944569D01*
X31705259Y-90766026D01*
X32333974Y-91394741D01*
X33155431Y-91735000D01*
X34044569Y-91735000D01*
X34866026Y-91394741D01*
X35494741Y-90766026D01*
X35835000Y-89944569D01*
X35835000Y-89055431D01*
X35599031Y-88485750D01*
X41565000Y-88485750D01*
X41565000Y-89226310D01*
X41661673Y-89459699D01*
X41840302Y-89638327D01*
X42073691Y-89735000D01*
X42814250Y-89735000D01*
X42973000Y-89576250D01*
X42973000Y-88327000D01*
X41723750Y-88327000D01*
X41565000Y-88485750D01*
X35599031Y-88485750D01*
X35494741Y-88233974D01*
X34866026Y-87605259D01*
X34044569Y-87265000D01*
X33155431Y-87265000D01*
X32333974Y-87605259D01*
X31705259Y-88233974D01*
X31365000Y-89055431D01*
X29335000Y-89055431D01*
X29335000Y-81920000D01*
X34236887Y-81920000D01*
X34348260Y-82479909D01*
X34665423Y-82954577D01*
X35140091Y-83271740D01*
X35558667Y-83355000D01*
X35841333Y-83355000D01*
X36259909Y-83271740D01*
X36734577Y-82954577D01*
X37051740Y-82479909D01*
X37163113Y-81920000D01*
X37436887Y-81920000D01*
X37548260Y-82479909D01*
X37865423Y-82954577D01*
X38340091Y-83271740D01*
X38758667Y-83355000D01*
X39041333Y-83355000D01*
X39459909Y-83271740D01*
X39566031Y-83200832D01*
X43030198Y-86665000D01*
X42972998Y-86665000D01*
X42972998Y-86823748D01*
X42814250Y-86665000D01*
X42073691Y-86665000D01*
X41840302Y-86761673D01*
X41661673Y-86940301D01*
X41565000Y-87173690D01*
X41565000Y-87914250D01*
X41723750Y-88073000D01*
X42973000Y-88073000D01*
X42973000Y-88053000D01*
X43227000Y-88053000D01*
X43227000Y-88073000D01*
X43247000Y-88073000D01*
X43247000Y-88327000D01*
X43227000Y-88327000D01*
X43227000Y-89576250D01*
X43385750Y-89735000D01*
X44126309Y-89735000D01*
X44359698Y-89638327D01*
X44538327Y-89459699D01*
X44594139Y-89324956D01*
X44770493Y-89501310D01*
X45334670Y-89735000D01*
X45945330Y-89735000D01*
X46509507Y-89501310D01*
X46941310Y-89069507D01*
X47175000Y-88505330D01*
X47175000Y-88485750D01*
X48065000Y-88485750D01*
X48065000Y-89226310D01*
X48161673Y-89459699D01*
X48340302Y-89638327D01*
X48573691Y-89735000D01*
X49314250Y-89735000D01*
X49473000Y-89576250D01*
X49473000Y-88327000D01*
X48223750Y-88327000D01*
X48065000Y-88485750D01*
X47175000Y-88485750D01*
X47175000Y-87894670D01*
X46941310Y-87330493D01*
X46784507Y-87173690D01*
X48065000Y-87173690D01*
X48065000Y-87914250D01*
X48223750Y-88073000D01*
X49473000Y-88073000D01*
X49473000Y-86823750D01*
X49727000Y-86823750D01*
X49727000Y-88073000D01*
X49747000Y-88073000D01*
X49747000Y-88327000D01*
X49727000Y-88327000D01*
X49727000Y-89576250D01*
X49885750Y-89735000D01*
X50626309Y-89735000D01*
X50859698Y-89638327D01*
X51038327Y-89459699D01*
X51094139Y-89324956D01*
X51270493Y-89501310D01*
X51834670Y-89735000D01*
X52445330Y-89735000D01*
X53009507Y-89501310D01*
X53441310Y-89069507D01*
X53675000Y-88505330D01*
X53675000Y-88485750D01*
X54565000Y-88485750D01*
X54565000Y-89226310D01*
X54661673Y-89459699D01*
X54840302Y-89638327D01*
X55073691Y-89735000D01*
X55814250Y-89735000D01*
X55973000Y-89576250D01*
X55973000Y-88327000D01*
X54723750Y-88327000D01*
X54565000Y-88485750D01*
X53675000Y-88485750D01*
X53675000Y-87894670D01*
X53441310Y-87330493D01*
X53284507Y-87173690D01*
X54565000Y-87173690D01*
X54565000Y-87914250D01*
X54723750Y-88073000D01*
X55973000Y-88073000D01*
X55973000Y-86823750D01*
X56227000Y-86823750D01*
X56227000Y-88073000D01*
X56247000Y-88073000D01*
X56247000Y-88327000D01*
X56227000Y-88327000D01*
X56227000Y-89576250D01*
X56385750Y-89735000D01*
X57126309Y-89735000D01*
X57359698Y-89638327D01*
X57538327Y-89459699D01*
X57594139Y-89324956D01*
X57770493Y-89501310D01*
X58334670Y-89735000D01*
X58945330Y-89735000D01*
X59509507Y-89501310D01*
X59941310Y-89069507D01*
X60175000Y-88505330D01*
X60175000Y-88485750D01*
X61065000Y-88485750D01*
X61065000Y-89226310D01*
X61161673Y-89459699D01*
X61340302Y-89638327D01*
X61573691Y-89735000D01*
X62314250Y-89735000D01*
X62473000Y-89576250D01*
X62473000Y-88327000D01*
X61223750Y-88327000D01*
X61065000Y-88485750D01*
X60175000Y-88485750D01*
X60175000Y-87894670D01*
X60129640Y-87785161D01*
X60741111Y-87173690D01*
X61065000Y-87173690D01*
X61065000Y-87914250D01*
X61223750Y-88073000D01*
X62473000Y-88073000D01*
X62473000Y-86823750D01*
X62727000Y-86823750D01*
X62727000Y-88073000D01*
X62747000Y-88073000D01*
X62747000Y-88327000D01*
X62727000Y-88327000D01*
X62727000Y-89576250D01*
X62885750Y-89735000D01*
X63626309Y-89735000D01*
X63859698Y-89638327D01*
X64038327Y-89459699D01*
X64094139Y-89324956D01*
X64270493Y-89501310D01*
X64834670Y-89735000D01*
X65445330Y-89735000D01*
X66009507Y-89501310D01*
X66441310Y-89069507D01*
X66447140Y-89055431D01*
X71365000Y-89055431D01*
X71365000Y-89944569D01*
X71705259Y-90766026D01*
X72333974Y-91394741D01*
X73155431Y-91735000D01*
X74044569Y-91735000D01*
X74866026Y-91394741D01*
X75494741Y-90766026D01*
X75835000Y-89944569D01*
X75835000Y-89055431D01*
X75494741Y-88233974D01*
X74866026Y-87605259D01*
X74044569Y-87265000D01*
X73155431Y-87265000D01*
X72333974Y-87605259D01*
X71705259Y-88233974D01*
X71365000Y-89055431D01*
X66447140Y-89055431D01*
X66675000Y-88505330D01*
X66675000Y-87894670D01*
X66441310Y-87330493D01*
X66009507Y-86898690D01*
X65445330Y-86665000D01*
X64834670Y-86665000D01*
X64270493Y-86898690D01*
X64094139Y-87075044D01*
X64038327Y-86940301D01*
X63859698Y-86761673D01*
X63626309Y-86665000D01*
X62885750Y-86665000D01*
X62727000Y-86823750D01*
X62473000Y-86823750D01*
X62314250Y-86665000D01*
X61573691Y-86665000D01*
X61340302Y-86761673D01*
X61161673Y-86940301D01*
X61065000Y-87173690D01*
X60741111Y-87173690D01*
X65080240Y-82834561D01*
X65765000Y-82834561D01*
X65765000Y-83405439D01*
X65983466Y-83932862D01*
X66387138Y-84336534D01*
X66914561Y-84555000D01*
X67485439Y-84555000D01*
X68012862Y-84336534D01*
X68416534Y-83932862D01*
X68635000Y-83405439D01*
X68635000Y-83120000D01*
X68836887Y-83120000D01*
X68948260Y-83679909D01*
X69265423Y-84154577D01*
X69740091Y-84471740D01*
X70158667Y-84555000D01*
X70441333Y-84555000D01*
X70859909Y-84471740D01*
X71334577Y-84154577D01*
X71651740Y-83679909D01*
X71763113Y-83120000D01*
X71651740Y-82560091D01*
X71334577Y-82085423D01*
X70859909Y-81768260D01*
X70441333Y-81685000D01*
X70158667Y-81685000D01*
X69740091Y-81768260D01*
X69265423Y-82085423D01*
X68948260Y-82560091D01*
X68836887Y-83120000D01*
X68635000Y-83120000D01*
X68635000Y-82834561D01*
X68416534Y-82307138D01*
X68012862Y-81903466D01*
X67485439Y-81685000D01*
X66914561Y-81685000D01*
X66387138Y-81903466D01*
X65983466Y-82307138D01*
X65765000Y-82834561D01*
X65080240Y-82834561D01*
X67684473Y-80230329D01*
X67747929Y-80187929D01*
X67915904Y-79936537D01*
X67960000Y-79714852D01*
X67960000Y-79714848D01*
X67974888Y-79640001D01*
X67960000Y-79565154D01*
X67960000Y-76718043D01*
X68234577Y-76534577D01*
X68551740Y-76059909D01*
X68663113Y-75500000D01*
X68551740Y-74940091D01*
X68234577Y-74465423D01*
X67759909Y-74148260D01*
X67341333Y-74065000D01*
X67058667Y-74065000D01*
X66640091Y-74148260D01*
X66165423Y-74465423D01*
X65848260Y-74940091D01*
X65736887Y-75500000D01*
X65848260Y-76059909D01*
X66165423Y-76534577D01*
X66440000Y-76718044D01*
X66440001Y-79325197D01*
X59054839Y-86710360D01*
X58945330Y-86665000D01*
X58334670Y-86665000D01*
X57770493Y-86898690D01*
X57594139Y-87075044D01*
X57538327Y-86940301D01*
X57359698Y-86761673D01*
X57126309Y-86665000D01*
X56385750Y-86665000D01*
X56227000Y-86823750D01*
X55973000Y-86823750D01*
X55814250Y-86665000D01*
X55073691Y-86665000D01*
X54840302Y-86761673D01*
X54661673Y-86940301D01*
X54565000Y-87173690D01*
X53284507Y-87173690D01*
X53009507Y-86898690D01*
X52445330Y-86665000D01*
X51834670Y-86665000D01*
X51270493Y-86898690D01*
X51094139Y-87075044D01*
X51038327Y-86940301D01*
X50859698Y-86761673D01*
X50626309Y-86665000D01*
X49885750Y-86665000D01*
X49727000Y-86823750D01*
X49473000Y-86823750D01*
X49314250Y-86665000D01*
X48573691Y-86665000D01*
X48340302Y-86761673D01*
X48161673Y-86940301D01*
X48065000Y-87173690D01*
X46784507Y-87173690D01*
X46509507Y-86898690D01*
X45945330Y-86665000D01*
X45334670Y-86665000D01*
X45225162Y-86710360D01*
X40785300Y-82270499D01*
X40785300Y-81994852D01*
X40800189Y-81920000D01*
X40753445Y-81685000D01*
X40741204Y-81623463D01*
X40573229Y-81372071D01*
X40359988Y-81229588D01*
X40321837Y-81204096D01*
X40120786Y-81164104D01*
X39934577Y-80885423D01*
X39459909Y-80568260D01*
X39041333Y-80485000D01*
X38758667Y-80485000D01*
X38340091Y-80568260D01*
X37865423Y-80885423D01*
X37548260Y-81360091D01*
X37436887Y-81920000D01*
X37163113Y-81920000D01*
X37051740Y-81360091D01*
X36734577Y-80885423D01*
X36259909Y-80568260D01*
X35841333Y-80485000D01*
X35558667Y-80485000D01*
X35140091Y-80568260D01*
X34665423Y-80885423D01*
X34348260Y-81360091D01*
X34236887Y-81920000D01*
X29335000Y-81920000D01*
X29335000Y-74014561D01*
X34265000Y-74014561D01*
X34265000Y-74585439D01*
X34483466Y-75112862D01*
X34887138Y-75516534D01*
X35414561Y-75735000D01*
X35985439Y-75735000D01*
X36512862Y-75516534D01*
X36916534Y-75112862D01*
X37135000Y-74585439D01*
X37135000Y-74014561D01*
X37465000Y-74014561D01*
X37465000Y-74585439D01*
X37683466Y-75112862D01*
X38087138Y-75516534D01*
X38614561Y-75735000D01*
X39185439Y-75735000D01*
X39238302Y-75713103D01*
X44294700Y-80769502D01*
X44294701Y-81345144D01*
X44279811Y-81420000D01*
X44338796Y-81716537D01*
X44506771Y-81967929D01*
X44758163Y-82135904D01*
X44959214Y-82175896D01*
X45145423Y-82454577D01*
X45620091Y-82771740D01*
X46038667Y-82855000D01*
X46321333Y-82855000D01*
X46739909Y-82771740D01*
X47214577Y-82454577D01*
X47450000Y-82102242D01*
X47685423Y-82454577D01*
X48160091Y-82771740D01*
X48578667Y-82855000D01*
X48861333Y-82855000D01*
X49279909Y-82771740D01*
X49754577Y-82454577D01*
X49990000Y-82102242D01*
X50225423Y-82454577D01*
X50700091Y-82771740D01*
X51118667Y-82855000D01*
X51401333Y-82855000D01*
X51819909Y-82771740D01*
X52294577Y-82454577D01*
X52530000Y-82102242D01*
X52765423Y-82454577D01*
X53240091Y-82771740D01*
X53658667Y-82855000D01*
X53941333Y-82855000D01*
X54359909Y-82771740D01*
X54834577Y-82454577D01*
X55151740Y-81979909D01*
X55263113Y-81420000D01*
X55151740Y-80860091D01*
X54834577Y-80385423D01*
X54359909Y-80068260D01*
X53941333Y-79985000D01*
X53658667Y-79985000D01*
X53240091Y-80068260D01*
X52765423Y-80385423D01*
X52530000Y-80737758D01*
X52294577Y-80385423D01*
X51819909Y-80068260D01*
X51401333Y-79985000D01*
X51118667Y-79985000D01*
X50700091Y-80068260D01*
X50225423Y-80385423D01*
X49990000Y-80737758D01*
X49754577Y-80385423D01*
X49279909Y-80068260D01*
X48861333Y-79985000D01*
X48578667Y-79985000D01*
X48160091Y-80068260D01*
X47685423Y-80385423D01*
X47450000Y-80737758D01*
X47214577Y-80385423D01*
X46739909Y-80068260D01*
X46321333Y-79985000D01*
X46038667Y-79985000D01*
X45699922Y-80052381D01*
X45602629Y-79906771D01*
X45539173Y-79864371D01*
X43360552Y-77685750D01*
X60565000Y-77685750D01*
X60565000Y-78426309D01*
X60661673Y-78659698D01*
X60840301Y-78838327D01*
X61073690Y-78935000D01*
X61814250Y-78935000D01*
X61973000Y-78776250D01*
X61973000Y-77527000D01*
X62227000Y-77527000D01*
X62227000Y-78776250D01*
X62385750Y-78935000D01*
X63126310Y-78935000D01*
X63359699Y-78838327D01*
X63538327Y-78659698D01*
X63635000Y-78426309D01*
X63635000Y-77685750D01*
X63476250Y-77527000D01*
X62227000Y-77527000D01*
X61973000Y-77527000D01*
X60723750Y-77527000D01*
X60565000Y-77685750D01*
X43360552Y-77685750D01*
X40313103Y-74638302D01*
X40335000Y-74585439D01*
X40335000Y-74014561D01*
X40116534Y-73487138D01*
X39712862Y-73083466D01*
X39185439Y-72865000D01*
X38614561Y-72865000D01*
X38087138Y-73083466D01*
X37683466Y-73487138D01*
X37465000Y-74014561D01*
X37135000Y-74014561D01*
X36916534Y-73487138D01*
X36512862Y-73083466D01*
X35985439Y-72865000D01*
X35414561Y-72865000D01*
X34887138Y-73083466D01*
X34483466Y-73487138D01*
X34265000Y-74014561D01*
X29335000Y-74014561D01*
X29335000Y-62620000D01*
X31585908Y-62620000D01*
X31701161Y-63199418D01*
X32029375Y-63690625D01*
X32327761Y-63890000D01*
X32029375Y-64089375D01*
X31701161Y-64580582D01*
X31585908Y-65160000D01*
X31701161Y-65739418D01*
X32029375Y-66230625D01*
X32047619Y-66242816D01*
X32002235Y-66251843D01*
X31792191Y-66392191D01*
X31651843Y-66602235D01*
X31602560Y-66850000D01*
X31602560Y-68550000D01*
X31651843Y-68797765D01*
X31792191Y-69007809D01*
X32002235Y-69148157D01*
X32250000Y-69197440D01*
X33950000Y-69197440D01*
X34197765Y-69148157D01*
X34407809Y-69007809D01*
X34523570Y-68834561D01*
X37765000Y-68834561D01*
X37765000Y-69405439D01*
X37983466Y-69932862D01*
X38387138Y-70336534D01*
X38914561Y-70555000D01*
X39485439Y-70555000D01*
X39538302Y-70533103D01*
X41567573Y-72562376D01*
X41609971Y-72625829D01*
X41673424Y-72668227D01*
X41673426Y-72668229D01*
X41775973Y-72736748D01*
X41861363Y-72793804D01*
X42083048Y-72837900D01*
X42083052Y-72837900D01*
X42157899Y-72852788D01*
X42232746Y-72837900D01*
X45096995Y-72837900D01*
X44828260Y-73240091D01*
X44716887Y-73800000D01*
X44828260Y-74359909D01*
X45145423Y-74834577D01*
X45620091Y-75151740D01*
X46038667Y-75235000D01*
X46321333Y-75235000D01*
X46739909Y-75151740D01*
X47214577Y-74834577D01*
X47450000Y-74482242D01*
X47685423Y-74834577D01*
X48160091Y-75151740D01*
X48578667Y-75235000D01*
X48861333Y-75235000D01*
X49279909Y-75151740D01*
X49754577Y-74834577D01*
X49990000Y-74482242D01*
X50225423Y-74834577D01*
X50700091Y-75151740D01*
X51118667Y-75235000D01*
X51401333Y-75235000D01*
X51819909Y-75151740D01*
X52294577Y-74834577D01*
X52375215Y-74713894D01*
X52401843Y-74847765D01*
X52542191Y-75057809D01*
X52752235Y-75198157D01*
X53000000Y-75247440D01*
X54600000Y-75247440D01*
X54847765Y-75198157D01*
X55057809Y-75057809D01*
X55198157Y-74847765D01*
X55247440Y-74600000D01*
X55247440Y-74560000D01*
X60565000Y-74560000D01*
X60565000Y-75165330D01*
X60798690Y-75729507D01*
X60975044Y-75905861D01*
X60840301Y-75961673D01*
X60661673Y-76140302D01*
X60565000Y-76373691D01*
X60565000Y-77114250D01*
X60723750Y-77273000D01*
X61973000Y-77273000D01*
X61973000Y-77253000D01*
X62227000Y-77253000D01*
X62227000Y-77273000D01*
X63476250Y-77273000D01*
X63635000Y-77114250D01*
X63635000Y-76373691D01*
X63538327Y-76140302D01*
X63359699Y-75961673D01*
X63224956Y-75905861D01*
X63401310Y-75729507D01*
X63635000Y-75165330D01*
X63635000Y-74554670D01*
X63401310Y-73990493D01*
X62969507Y-73558690D01*
X62860000Y-73513331D01*
X62860000Y-73126401D01*
X64371687Y-71614714D01*
X64447611Y-71775134D01*
X64862577Y-72151041D01*
X65250961Y-72311904D01*
X65473000Y-72189915D01*
X65473000Y-71047000D01*
X65727000Y-71047000D01*
X65727000Y-72189915D01*
X65949039Y-72311904D01*
X66337423Y-72151041D01*
X66752389Y-71775134D01*
X66991914Y-71269041D01*
X66870629Y-71047000D01*
X65727000Y-71047000D01*
X65473000Y-71047000D01*
X65453000Y-71047000D01*
X65453000Y-70793000D01*
X65473000Y-70793000D01*
X65473000Y-70773000D01*
X65727000Y-70773000D01*
X65727000Y-70793000D01*
X66870629Y-70793000D01*
X66991914Y-70570959D01*
X66752389Y-70064866D01*
X66337423Y-69688959D01*
X66309153Y-69677250D01*
X67913776Y-68072627D01*
X67977229Y-68030229D01*
X68019627Y-67966776D01*
X68019629Y-67966774D01*
X68103402Y-67841398D01*
X68145204Y-67778837D01*
X68189300Y-67557152D01*
X68189300Y-67557148D01*
X68204188Y-67482301D01*
X68189300Y-67407454D01*
X68189300Y-64050990D01*
X68365423Y-64314577D01*
X68840091Y-64631740D01*
X69258667Y-64715000D01*
X69541333Y-64715000D01*
X69959909Y-64631740D01*
X70434577Y-64314577D01*
X70751740Y-63839909D01*
X70863113Y-63280000D01*
X70751740Y-62720091D01*
X70434577Y-62245423D01*
X70160000Y-62061957D01*
X70160000Y-61922801D01*
X72466138Y-59616663D01*
X72729375Y-60010625D01*
X72954465Y-60161025D01*
X72948642Y-60190300D01*
X72963273Y-60263857D01*
X72918642Y-60284817D01*
X72528355Y-60713076D01*
X72358524Y-61123110D01*
X72479845Y-61353000D01*
X73673000Y-61353000D01*
X73673000Y-61333000D01*
X73927000Y-61333000D01*
X73927000Y-61353000D01*
X73947000Y-61353000D01*
X73947000Y-61607000D01*
X73927000Y-61607000D01*
X73927000Y-61627000D01*
X73673000Y-61627000D01*
X73673000Y-61607000D01*
X72479845Y-61607000D01*
X72358524Y-61836890D01*
X72528355Y-62246924D01*
X72918642Y-62675183D01*
X73048478Y-62736157D01*
X72729375Y-62949375D01*
X72401161Y-63440582D01*
X72285908Y-64020000D01*
X72401161Y-64599418D01*
X72729375Y-65090625D01*
X73027761Y-65290000D01*
X72729375Y-65489375D01*
X72401161Y-65980582D01*
X72285908Y-66560000D01*
X72401161Y-67139418D01*
X72729375Y-67630625D01*
X73220582Y-67958839D01*
X73653744Y-68045000D01*
X73946256Y-68045000D01*
X74379418Y-67958839D01*
X74724200Y-67728463D01*
X74724200Y-71402560D01*
X73450000Y-71402560D01*
X73202235Y-71451843D01*
X72992191Y-71592191D01*
X72851843Y-71802235D01*
X72802560Y-72050000D01*
X72802560Y-73750000D01*
X72851843Y-73997765D01*
X72992191Y-74207809D01*
X73202235Y-74348157D01*
X73247619Y-74357184D01*
X73229375Y-74369375D01*
X72966098Y-74763396D01*
X70266049Y-72063347D01*
X70616534Y-71712862D01*
X70835000Y-71185439D01*
X70835000Y-70614561D01*
X70616534Y-70087138D01*
X70212862Y-69683466D01*
X69685439Y-69465000D01*
X69114561Y-69465000D01*
X68587138Y-69683466D01*
X68183466Y-70087138D01*
X67965000Y-70614561D01*
X67965000Y-71185439D01*
X68183466Y-71712862D01*
X68587138Y-72116534D01*
X68640000Y-72138430D01*
X68640000Y-72197253D01*
X68625112Y-72272100D01*
X68640000Y-72346947D01*
X68640000Y-72346951D01*
X68684096Y-72568636D01*
X68852071Y-72820029D01*
X68915530Y-72862431D01*
X70118098Y-74065000D01*
X70014561Y-74065000D01*
X69487138Y-74283466D01*
X69083466Y-74687138D01*
X68865000Y-75214561D01*
X68865000Y-75785439D01*
X69083466Y-76312862D01*
X69487138Y-76716534D01*
X70014561Y-76935000D01*
X70585439Y-76935000D01*
X71112862Y-76716534D01*
X71516534Y-76312862D01*
X71735000Y-75785439D01*
X71735000Y-75681902D01*
X73122469Y-77069372D01*
X72901161Y-77400582D01*
X72785908Y-77980000D01*
X72901161Y-78559418D01*
X73229375Y-79050625D01*
X73720582Y-79378839D01*
X74153744Y-79465000D01*
X74446256Y-79465000D01*
X74879418Y-79378839D01*
X75370625Y-79050625D01*
X75698839Y-78559418D01*
X75814092Y-77980000D01*
X75698839Y-77400582D01*
X75370625Y-76909375D01*
X75072239Y-76710000D01*
X75370625Y-76510625D01*
X75698839Y-76019418D01*
X75814092Y-75440000D01*
X75712445Y-74928983D01*
X75917901Y-74791701D01*
X75964487Y-74721980D01*
X76091480Y-74594987D01*
X76161201Y-74548401D01*
X76345752Y-74272201D01*
X76394200Y-74028637D01*
X76394200Y-74028634D01*
X76410557Y-73946401D01*
X76394200Y-73864168D01*
X76394200Y-61513632D01*
X76410557Y-61431399D01*
X76394200Y-61349166D01*
X76394200Y-61349163D01*
X76345752Y-61105599D01*
X76216752Y-60912537D01*
X76207784Y-60899115D01*
X76207783Y-60899114D01*
X76161201Y-60829399D01*
X76091485Y-60782816D01*
X75050336Y-59741669D01*
X75198839Y-59519418D01*
X75314092Y-58940000D01*
X75198839Y-58360582D01*
X74870625Y-57869375D01*
X74852381Y-57857184D01*
X74897765Y-57848157D01*
X75107809Y-57707809D01*
X75248157Y-57497765D01*
X75297440Y-57250000D01*
X75297440Y-55550000D01*
X75248157Y-55302235D01*
X75107809Y-55092191D01*
X74897765Y-54951843D01*
X74650000Y-54902560D01*
X72950000Y-54902560D01*
X72702235Y-54951843D01*
X72492191Y-55092191D01*
X72351843Y-55302235D01*
X72302560Y-55550000D01*
X72302560Y-57250000D01*
X72351843Y-57497765D01*
X72385325Y-57547873D01*
X68915530Y-61017669D01*
X68852071Y-61060071D01*
X68684096Y-61311464D01*
X68640000Y-61533149D01*
X68640000Y-61533153D01*
X68625112Y-61608000D01*
X68640000Y-61682847D01*
X68640000Y-62061956D01*
X68365423Y-62245423D01*
X68189300Y-62509010D01*
X68189300Y-57444146D01*
X68204188Y-57369299D01*
X68189300Y-57294452D01*
X68189300Y-57294448D01*
X68145204Y-57072763D01*
X67977229Y-56821371D01*
X67913773Y-56778971D01*
X67667997Y-56533195D01*
X67766100Y-56040000D01*
X67642891Y-55420589D01*
X67380912Y-55028509D01*
X67557809Y-54910309D01*
X67698157Y-54700265D01*
X67747440Y-54452500D01*
X67747440Y-52547500D01*
X67698157Y-52299735D01*
X67557809Y-52089691D01*
X67347765Y-51949343D01*
X67100000Y-51900060D01*
X65100000Y-51900060D01*
X64852235Y-51949343D01*
X64642191Y-52089691D01*
X64501843Y-52299735D01*
X64452560Y-52547500D01*
X64452560Y-54452500D01*
X64501843Y-54700265D01*
X64642191Y-54910309D01*
X64819088Y-55028509D01*
X64557109Y-55420589D01*
X64433900Y-56040000D01*
X64557109Y-56659411D01*
X64907977Y-57184523D01*
X65095767Y-57310000D01*
X64907977Y-57435477D01*
X64557109Y-57960589D01*
X64433900Y-58580000D01*
X64557109Y-59199411D01*
X64907977Y-59724523D01*
X65433089Y-60075391D01*
X65896150Y-60167500D01*
X66303850Y-60167500D01*
X66669300Y-60094807D01*
X66669300Y-62339904D01*
X66412862Y-62083466D01*
X65885439Y-61865000D01*
X65314561Y-61865000D01*
X64787138Y-62083466D01*
X64383466Y-62487138D01*
X64165000Y-63014561D01*
X64165000Y-63585439D01*
X64383466Y-64112862D01*
X64787138Y-64516534D01*
X65314561Y-64735000D01*
X65885439Y-64735000D01*
X66412862Y-64516534D01*
X66669301Y-64260095D01*
X66669301Y-67167496D01*
X63622916Y-70213882D01*
X63552389Y-70064866D01*
X63137423Y-69688959D01*
X62749039Y-69528096D01*
X62527000Y-69650085D01*
X62527000Y-70793000D01*
X62547000Y-70793000D01*
X62547000Y-71047000D01*
X62527000Y-71047000D01*
X62527000Y-71067000D01*
X62273000Y-71067000D01*
X62273000Y-71047000D01*
X62253000Y-71047000D01*
X62253000Y-70793000D01*
X62273000Y-70793000D01*
X62273000Y-69650085D01*
X62050961Y-69528096D01*
X61662577Y-69688959D01*
X61247611Y-70064866D01*
X61109900Y-70355836D01*
X61109900Y-63935258D01*
X61183466Y-64112862D01*
X61587138Y-64516534D01*
X62114561Y-64735000D01*
X62685439Y-64735000D01*
X63212862Y-64516534D01*
X63616534Y-64112862D01*
X63835000Y-63585439D01*
X63835000Y-63014561D01*
X63616534Y-62487138D01*
X63212862Y-62083466D01*
X62685439Y-61865000D01*
X62114561Y-61865000D01*
X61587138Y-62083466D01*
X61183466Y-62487138D01*
X61109900Y-62664742D01*
X61109900Y-57779448D01*
X61124788Y-57704600D01*
X61109900Y-57629752D01*
X61109900Y-57629748D01*
X61065804Y-57408063D01*
X60897829Y-57156671D01*
X60834370Y-57114269D01*
X60765631Y-57045530D01*
X60723229Y-56982071D01*
X60471837Y-56814096D01*
X60364191Y-56792684D01*
X60417695Y-56712609D01*
X60507725Y-56260000D01*
X60417695Y-55807391D01*
X60375644Y-55744457D01*
X63204476Y-52915627D01*
X63267929Y-52873229D01*
X63310327Y-52809776D01*
X63310329Y-52809774D01*
X63394102Y-52684398D01*
X63435904Y-52621837D01*
X63475896Y-52420786D01*
X63754577Y-52234577D01*
X64071740Y-51759909D01*
X64183113Y-51200000D01*
X64071740Y-50640091D01*
X63754577Y-50165423D01*
X63279909Y-49848260D01*
X62861333Y-49765000D01*
X62578667Y-49765000D01*
X62160091Y-49848260D01*
X61685423Y-50165423D01*
X61368260Y-50640091D01*
X61256887Y-51200000D01*
X61368260Y-51759909D01*
X61685423Y-52234577D01*
X61715694Y-52254803D01*
X59320799Y-54649700D01*
X59174852Y-54649700D01*
X59100000Y-54634811D01*
X59025148Y-54649700D01*
X58803463Y-54693796D01*
X58552071Y-54861771D01*
X58384096Y-55113163D01*
X58365806Y-55205114D01*
X58038687Y-55423687D01*
X57782305Y-55807391D01*
X57692275Y-56260000D01*
X57782305Y-56712609D01*
X57904174Y-56895000D01*
X57782305Y-57077391D01*
X57692275Y-57530000D01*
X57782305Y-57982609D01*
X57783224Y-57983984D01*
X57715000Y-58148691D01*
X57715000Y-58514250D01*
X57873750Y-58673000D01*
X58675290Y-58673000D01*
X58760754Y-58690000D01*
X59247000Y-58690000D01*
X59247000Y-58927000D01*
X59227000Y-58927000D01*
X59227000Y-59801250D01*
X59385750Y-59960000D01*
X59589901Y-59960000D01*
X59589901Y-61908269D01*
X59485439Y-61865000D01*
X58914561Y-61865000D01*
X58387138Y-62083466D01*
X57983466Y-62487138D01*
X57765000Y-63014561D01*
X57765000Y-63585439D01*
X57983466Y-64112862D01*
X58387138Y-64516534D01*
X58914561Y-64735000D01*
X59485439Y-64735000D01*
X59589900Y-64691731D01*
X59589900Y-69545020D01*
X59549039Y-69528096D01*
X59327000Y-69650085D01*
X59327000Y-70793000D01*
X59347000Y-70793000D01*
X59347000Y-71047000D01*
X59327000Y-71047000D01*
X59327000Y-71067000D01*
X59073000Y-71067000D01*
X59073000Y-71047000D01*
X57929371Y-71047000D01*
X57808086Y-71269041D01*
X57831210Y-71317900D01*
X42472703Y-71317900D01*
X41725762Y-70570959D01*
X57808086Y-70570959D01*
X57929371Y-70793000D01*
X59073000Y-70793000D01*
X59073000Y-69650085D01*
X58850961Y-69528096D01*
X58462577Y-69688959D01*
X58047611Y-70064866D01*
X57808086Y-70570959D01*
X41725762Y-70570959D01*
X41377205Y-70222403D01*
X41471861Y-70127747D01*
X41545995Y-70373864D01*
X42083223Y-70566965D01*
X42653454Y-70539778D01*
X43054005Y-70373864D01*
X43128139Y-70127745D01*
X42300000Y-69299605D01*
X42285858Y-69313748D01*
X42106252Y-69134142D01*
X42120395Y-69120000D01*
X42479605Y-69120000D01*
X43307745Y-69948139D01*
X43553864Y-69874005D01*
X43746965Y-69336777D01*
X43719778Y-68766546D01*
X43553864Y-68365995D01*
X43307745Y-68291861D01*
X42479605Y-69120000D01*
X42120395Y-69120000D01*
X41292255Y-68291861D01*
X41046136Y-68365995D01*
X40853035Y-68903223D01*
X40880222Y-69473454D01*
X41046136Y-69874005D01*
X41292253Y-69948139D01*
X41197597Y-70042795D01*
X40613103Y-69458302D01*
X40635000Y-69405439D01*
X40635000Y-68834561D01*
X40416534Y-68307138D01*
X40221651Y-68112255D01*
X41471861Y-68112255D01*
X42300000Y-68940395D01*
X43128139Y-68112255D01*
X43054005Y-67866136D01*
X42516777Y-67673035D01*
X41946546Y-67700222D01*
X41545995Y-67866136D01*
X41471861Y-68112255D01*
X40221651Y-68112255D01*
X40012862Y-67903466D01*
X39485439Y-67685000D01*
X38914561Y-67685000D01*
X38387138Y-67903466D01*
X37983466Y-68307138D01*
X37765000Y-68834561D01*
X34523570Y-68834561D01*
X34548157Y-68797765D01*
X34597440Y-68550000D01*
X34597440Y-66850000D01*
X34548157Y-66602235D01*
X34407809Y-66392191D01*
X34197765Y-66251843D01*
X34152381Y-66242816D01*
X34170625Y-66230625D01*
X34498839Y-65739418D01*
X34614092Y-65160000D01*
X34498839Y-64580582D01*
X34170625Y-64089375D01*
X33872239Y-63890000D01*
X34170625Y-63690625D01*
X34498839Y-63199418D01*
X34614092Y-62620000D01*
X34498839Y-62040582D01*
X34170625Y-61549375D01*
X34096731Y-61500000D01*
X37736887Y-61500000D01*
X37848260Y-62059909D01*
X38165423Y-62534577D01*
X38640091Y-62851740D01*
X39058667Y-62935000D01*
X39341333Y-62935000D01*
X39759909Y-62851740D01*
X40234577Y-62534577D01*
X40551740Y-62059909D01*
X40663113Y-61500000D01*
X40551740Y-60940091D01*
X40234577Y-60465423D01*
X39759909Y-60148260D01*
X39341333Y-60065000D01*
X39058667Y-60065000D01*
X38640091Y-60148260D01*
X38165423Y-60465423D01*
X37848260Y-60940091D01*
X37736887Y-61500000D01*
X34096731Y-61500000D01*
X33935000Y-61391935D01*
X33935000Y-59349167D01*
X38884098Y-54400071D01*
X38928355Y-54506924D01*
X39069022Y-54661277D01*
X38518930Y-55211369D01*
X38455471Y-55253771D01*
X38287496Y-55505164D01*
X38243400Y-55726849D01*
X38243400Y-55726853D01*
X38228512Y-55801700D01*
X38243400Y-55876547D01*
X38243401Y-57003249D01*
X38228512Y-57078100D01*
X38287497Y-57374637D01*
X38394910Y-57535391D01*
X38455472Y-57626029D01*
X38518928Y-57668429D01*
X41295694Y-60445197D01*
X41265423Y-60465423D01*
X40948260Y-60940091D01*
X40836887Y-61500000D01*
X40948260Y-62059909D01*
X41265423Y-62534577D01*
X41540000Y-62718044D01*
X41540000Y-63201153D01*
X41525112Y-63276000D01*
X41540000Y-63350847D01*
X41540000Y-63350851D01*
X41584096Y-63572536D01*
X41752071Y-63823929D01*
X41815530Y-63866331D01*
X45972977Y-68023779D01*
X45748260Y-68360091D01*
X45636887Y-68920000D01*
X45748260Y-69479909D01*
X46065423Y-69954577D01*
X46540091Y-70271740D01*
X46958667Y-70355000D01*
X47241333Y-70355000D01*
X47659909Y-70271740D01*
X48134577Y-69954577D01*
X48451740Y-69479909D01*
X48563113Y-68920000D01*
X48451740Y-68360091D01*
X48134577Y-67885423D01*
X47855896Y-67699214D01*
X47838614Y-67612333D01*
X48134577Y-67414577D01*
X48451740Y-66939909D01*
X48563113Y-66380000D01*
X48451740Y-65820091D01*
X48134577Y-65345423D01*
X47855896Y-65159214D01*
X47838614Y-65072333D01*
X48134577Y-64874577D01*
X48451740Y-64399909D01*
X48563113Y-63840000D01*
X48451740Y-63280091D01*
X48134577Y-62805423D01*
X48013894Y-62724785D01*
X48147765Y-62698157D01*
X48357809Y-62557809D01*
X48498157Y-62347765D01*
X48547440Y-62100000D01*
X48547440Y-60500000D01*
X48498157Y-60252235D01*
X48357809Y-60042191D01*
X48147765Y-59901843D01*
X47935000Y-59859522D01*
X47935000Y-55162232D01*
X47951357Y-55079999D01*
X47935000Y-54997766D01*
X47935000Y-54997763D01*
X47886552Y-54754199D01*
X47859333Y-54713463D01*
X47748584Y-54547715D01*
X47748583Y-54547714D01*
X47702001Y-54477999D01*
X47632285Y-54431417D01*
X46117000Y-52916132D01*
X46117000Y-52422119D01*
X45904320Y-51908663D01*
X45511337Y-51515680D01*
X45304487Y-51430000D01*
X45511337Y-51344320D01*
X45608257Y-51247400D01*
X50477712Y-51247400D01*
X50492601Y-51322252D01*
X50492600Y-61993753D01*
X50477712Y-62068600D01*
X50492600Y-62143447D01*
X50492600Y-62143451D01*
X50536696Y-62365136D01*
X50704671Y-62616529D01*
X50768130Y-62658931D01*
X53592977Y-65483779D01*
X53368260Y-65820091D01*
X53256887Y-66380000D01*
X53368260Y-66939909D01*
X53685423Y-67414577D01*
X54037758Y-67650000D01*
X53685423Y-67885423D01*
X53368260Y-68360091D01*
X53256887Y-68920000D01*
X53368260Y-69479909D01*
X53685423Y-69954577D01*
X54160091Y-70271740D01*
X54578667Y-70355000D01*
X54861333Y-70355000D01*
X55279909Y-70271740D01*
X55754577Y-69954577D01*
X56071740Y-69479909D01*
X56183113Y-68920000D01*
X56071740Y-68360091D01*
X55754577Y-67885423D01*
X55402242Y-67650000D01*
X55754577Y-67414577D01*
X56071740Y-66939909D01*
X56183113Y-66380000D01*
X56071740Y-65820091D01*
X55754577Y-65345423D01*
X55475896Y-65159214D01*
X55458614Y-65072333D01*
X55754577Y-64874577D01*
X56071740Y-64399909D01*
X56183113Y-63840000D01*
X56071740Y-63280091D01*
X55754577Y-62805423D01*
X55475896Y-62619214D01*
X55454106Y-62509670D01*
X55575134Y-62452389D01*
X55951041Y-62037423D01*
X56111904Y-61649039D01*
X55989915Y-61427000D01*
X54847000Y-61427000D01*
X54847000Y-61447000D01*
X54593000Y-61447000D01*
X54593000Y-61427000D01*
X54573000Y-61427000D01*
X54573000Y-61173000D01*
X54593000Y-61173000D01*
X54593000Y-60029371D01*
X54847000Y-60029371D01*
X54847000Y-61173000D01*
X55989915Y-61173000D01*
X56111904Y-60950961D01*
X55951041Y-60562577D01*
X55575134Y-60147611D01*
X55069041Y-59908086D01*
X54847000Y-60029371D01*
X54593000Y-60029371D01*
X54370959Y-59908086D01*
X53864866Y-60147611D01*
X53488959Y-60562577D01*
X53451593Y-60652792D01*
X53100000Y-60301199D01*
X53100000Y-59085750D01*
X57715000Y-59085750D01*
X57715000Y-59451309D01*
X57811673Y-59684698D01*
X57990301Y-59863327D01*
X58223690Y-59960000D01*
X58814250Y-59960000D01*
X58973000Y-59801250D01*
X58973000Y-58927000D01*
X57873750Y-58927000D01*
X57715000Y-59085750D01*
X53100000Y-59085750D01*
X53100000Y-56649440D01*
X53102000Y-56649440D01*
X53349765Y-56600157D01*
X53559809Y-56459809D01*
X53700157Y-56249765D01*
X53749440Y-56002000D01*
X53749440Y-54478000D01*
X53700157Y-54230235D01*
X53559809Y-54020191D01*
X53349765Y-53879843D01*
X53102000Y-53830560D01*
X52012600Y-53830560D01*
X52012600Y-51562201D01*
X52030782Y-51544020D01*
X52062119Y-51557000D01*
X52617881Y-51557000D01*
X53131337Y-51344320D01*
X53524320Y-50951337D01*
X53539553Y-50914561D01*
X53665000Y-50914561D01*
X53665000Y-51485439D01*
X53883466Y-52012862D01*
X54287138Y-52416534D01*
X54814561Y-52635000D01*
X55385439Y-52635000D01*
X55912862Y-52416534D01*
X56316534Y-52012862D01*
X56535000Y-51485439D01*
X56535000Y-50914561D01*
X56316534Y-50387138D01*
X55912862Y-49983466D01*
X55385439Y-49765000D01*
X54814561Y-49765000D01*
X54287138Y-49983466D01*
X53883466Y-50387138D01*
X53665000Y-50914561D01*
X53539553Y-50914561D01*
X53737000Y-50437881D01*
X53737000Y-49882119D01*
X53524320Y-49368663D01*
X53211088Y-49055431D01*
X71365000Y-49055431D01*
X71365000Y-49944569D01*
X71705259Y-50766026D01*
X72333974Y-51394741D01*
X73155431Y-51735000D01*
X74044569Y-51735000D01*
X74866026Y-51394741D01*
X75494741Y-50766026D01*
X75835000Y-49944569D01*
X75835000Y-49055431D01*
X75494741Y-48233974D01*
X74866026Y-47605259D01*
X74044569Y-47265000D01*
X73155431Y-47265000D01*
X72333974Y-47605259D01*
X71705259Y-48233974D01*
X71365000Y-49055431D01*
X53211088Y-49055431D01*
X53131337Y-48975680D01*
X52617881Y-48763000D01*
X52062119Y-48763000D01*
X51548663Y-48975680D01*
X51155680Y-49368663D01*
X50943000Y-49882119D01*
X50943000Y-50437881D01*
X50955980Y-50469218D01*
X50768128Y-50657071D01*
X50704672Y-50699471D01*
X50662272Y-50762927D01*
X50662271Y-50762928D01*
X50536697Y-50950863D01*
X50477712Y-51247400D01*
X45608257Y-51247400D01*
X45904320Y-50951337D01*
X46117000Y-50437881D01*
X46117000Y-49882119D01*
X45904320Y-49368663D01*
X45511337Y-48975680D01*
X44997881Y-48763000D01*
X44442119Y-48763000D01*
X43928663Y-48975680D01*
X43535680Y-49368663D01*
X43323000Y-49882119D01*
X43323000Y-50437881D01*
X43535680Y-50951337D01*
X43556870Y-50972527D01*
X41496445Y-53032953D01*
X41471645Y-52973076D01*
X41194292Y-52668739D01*
X41297765Y-52648157D01*
X41507809Y-52507809D01*
X41648157Y-52297765D01*
X41697440Y-52050000D01*
X41697440Y-50350000D01*
X41648157Y-50102235D01*
X41507809Y-49892191D01*
X41297765Y-49751843D01*
X41050000Y-49702560D01*
X39350000Y-49702560D01*
X39102235Y-49751843D01*
X38892191Y-49892191D01*
X38751843Y-50102235D01*
X38702560Y-50350000D01*
X38702560Y-52050000D01*
X38730743Y-52191688D01*
X32567718Y-58354715D01*
X32498000Y-58401299D01*
X32451416Y-58471017D01*
X32313448Y-58677500D01*
X32248643Y-59003300D01*
X32265001Y-59085538D01*
X32265000Y-61391935D01*
X32029375Y-61549375D01*
X31701161Y-62040582D01*
X31585908Y-62620000D01*
X29335000Y-62620000D01*
X29335000Y-49055431D01*
X31365000Y-49055431D01*
X31365000Y-49944569D01*
X31705259Y-50766026D01*
X32333974Y-51394741D01*
X33155431Y-51735000D01*
X34044569Y-51735000D01*
X34866026Y-51394741D01*
X35494741Y-50766026D01*
X35835000Y-49944569D01*
X35835000Y-49055431D01*
X35494741Y-48233974D01*
X34866026Y-47605259D01*
X34044569Y-47265000D01*
X33155431Y-47265000D01*
X32333974Y-47605259D01*
X31705259Y-48233974D01*
X31365000Y-49055431D01*
X29335000Y-49055431D01*
X29335000Y-45235000D01*
X77865000Y-45235000D01*
X77865001Y-93765000D01*
G36*
X40327000Y-53613000D02*
X40347000Y-53613000D01*
X40347000Y-53867000D01*
X40327000Y-53867000D01*
X40327000Y-53887000D01*
X40073000Y-53887000D01*
X40073000Y-53867000D01*
X40053000Y-53867000D01*
X40053000Y-53613000D01*
X40073000Y-53613000D01*
X40073000Y-53593000D01*
X40327000Y-53593000D01*
X40327000Y-53613000D01*
X40327000Y-53613000D01*
G37*
X40327000Y-53613000D02*
X40347000Y-53613000D01*
X40347000Y-53867000D01*
X40327000Y-53867000D01*
X40327000Y-53887000D01*
X40073000Y-53887000D01*
X40073000Y-53867000D01*
X40053000Y-53867000D01*
X40053000Y-53613000D01*
X40073000Y-53613000D01*
X40073000Y-53593000D01*
X40327000Y-53593000D01*
X40327000Y-53613000D01*
G04 #@! TD*
M02*
