G04 #@! TF.GenerationSoftware,KiCad,Pcbnew,(5.0.0)*
G04 #@! TF.CreationDate,2019-08-04T18:11:21+09:00*
G04 #@! TF.ProjectId,ir_send_mod,69725F73656E645F6D6F642E6B696361,rev?*
G04 #@! TF.SameCoordinates,Original*
G04 #@! TF.FileFunction,Soldermask,Top*
G04 #@! TF.FilePolarity,Negative*
%FSLAX46Y46*%
G04 Gerber Fmt 4.6, Leading zero omitted, Abs format (unit mm)*
G04 Created by KiCad (PCBNEW (5.0.0)) date 08/04/19 18:11:21*
%MOMM*%
%LPD*%
G01*
G04 APERTURE LIST*
%ADD10C,3.600000*%
%ADD11R,2.000000X2.000000*%
%ADD12O,2.000000X2.000000*%
%ADD13C,2.200000*%
%ADD14R,2.200000X2.200000*%
%ADD15R,2.100000X2.100000*%
%ADD16O,2.100000X2.100000*%
%ADD17O,1.900000X1.450000*%
%ADD18R,1.900000X1.450000*%
%ADD19R,2.400000X2.305000*%
%ADD20O,2.400000X2.305000*%
%ADD21C,2.000000*%
%ADD22C,1.924000*%
%ADD23R,1.924000X1.924000*%
G04 APERTURE END LIST*
D10*
G04 #@! TO.C,hole2*
X73600000Y-49500000D03*
G04 #@! TD*
G04 #@! TO.C,hole1*
X33600000Y-49500000D03*
G04 #@! TD*
G04 #@! TO.C,hole4*
X73600000Y-89500000D03*
G04 #@! TD*
G04 #@! TO.C,hole3*
X33600000Y-89500000D03*
G04 #@! TD*
D11*
G04 #@! TO.C,SW2*
X53800000Y-73800000D03*
D12*
X46180000Y-81420000D03*
X51260000Y-73800000D03*
X48720000Y-81420000D03*
X48720000Y-73800000D03*
X51260000Y-81420000D03*
X46180000Y-73800000D03*
X53800000Y-81420000D03*
G04 #@! TD*
D13*
G04 #@! TO.C,D1*
X45640000Y-88200000D03*
D14*
X43100000Y-88200000D03*
G04 #@! TD*
G04 #@! TO.C,D2*
X49600000Y-88200000D03*
D13*
X52140000Y-88200000D03*
G04 #@! TD*
G04 #@! TO.C,D3*
X58640000Y-88200000D03*
D14*
X56100000Y-88200000D03*
G04 #@! TD*
G04 #@! TO.C,D4*
X62600000Y-88200000D03*
D13*
X65140000Y-88200000D03*
G04 #@! TD*
D14*
G04 #@! TO.C,D5*
X62100000Y-77400000D03*
D13*
X62100000Y-74860000D03*
G04 #@! TD*
D15*
G04 #@! TO.C,J1*
X40200000Y-51200000D03*
D16*
X40200000Y-53740000D03*
X40200000Y-56280000D03*
G04 #@! TD*
D17*
G04 #@! TO.C,Q1*
X59100000Y-57530000D03*
X59100000Y-56260000D03*
D18*
X59100000Y-58800000D03*
G04 #@! TD*
D19*
G04 #@! TO.C,Q2*
X66100000Y-53500000D03*
D20*
X66100000Y-56040000D03*
X66100000Y-58580000D03*
G04 #@! TD*
D21*
G04 #@! TO.C,R1*
X59200000Y-63300000D03*
D12*
X59200000Y-70920000D03*
G04 #@! TD*
G04 #@! TO.C,R2*
X62400000Y-70920000D03*
D21*
X62400000Y-63300000D03*
G04 #@! TD*
D12*
G04 #@! TO.C,R3*
X65600000Y-70920000D03*
D21*
X65600000Y-63300000D03*
G04 #@! TD*
G04 #@! TO.C,R4*
X39200000Y-69120000D03*
D12*
X39200000Y-61500000D03*
G04 #@! TD*
D21*
G04 #@! TO.C,R5*
X42300000Y-69120000D03*
D12*
X42300000Y-61500000D03*
G04 #@! TD*
G04 #@! TO.C,R6*
X62720000Y-51200000D03*
D21*
X55100000Y-51200000D03*
G04 #@! TD*
G04 #@! TO.C,R7*
X38900000Y-74300000D03*
D12*
X38900000Y-81920000D03*
G04 #@! TD*
G04 #@! TO.C,R8*
X35700000Y-81920000D03*
D21*
X35700000Y-74300000D03*
G04 #@! TD*
G04 #@! TO.C,R10*
X70300000Y-75500000D03*
D12*
X70300000Y-83120000D03*
G04 #@! TD*
D22*
G04 #@! TO.C,SW1*
X52340000Y-50160000D03*
D23*
X52340000Y-55240000D03*
D22*
X44720000Y-50160000D03*
X44720000Y-55240000D03*
X44720000Y-52700000D03*
G04 #@! TD*
D11*
G04 #@! TO.C,U1*
X47100000Y-61300000D03*
D12*
X54720000Y-68920000D03*
X47100000Y-63840000D03*
X54720000Y-66380000D03*
X47100000Y-66380000D03*
X54720000Y-63840000D03*
X47100000Y-68920000D03*
X54720000Y-61300000D03*
G04 #@! TD*
D21*
G04 #@! TO.C,R9*
X67200000Y-83120000D03*
D12*
X67200000Y-75500000D03*
G04 #@! TD*
D15*
G04 #@! TO.C,J2*
X73800000Y-56400000D03*
D16*
X73800000Y-58940000D03*
X73800000Y-61480000D03*
X73800000Y-64020000D03*
X73800000Y-66560000D03*
G04 #@! TD*
D21*
G04 #@! TO.C,R11*
X69400000Y-70900000D03*
D12*
X69400000Y-63280000D03*
G04 #@! TD*
D15*
G04 #@! TO.C,SW3*
X33100000Y-67700000D03*
D16*
X33100000Y-65160000D03*
X33100000Y-62620000D03*
G04 #@! TD*
G04 #@! TO.C,SW4*
X74300000Y-77980000D03*
X74300000Y-75440000D03*
D15*
X74300000Y-72900000D03*
G04 #@! TD*
M02*
