G04 #@! TF.GenerationSoftware,KiCad,Pcbnew,(5.0.0)*
G04 #@! TF.CreationDate,2019-08-04T18:11:21+09:00*
G04 #@! TF.ProjectId,ir_send_mod,69725F73656E645F6D6F642E6B696361,rev?*
G04 #@! TF.SameCoordinates,Original*
G04 #@! TF.FileFunction,Legend,Bot*
G04 #@! TF.FilePolarity,Positive*
%FSLAX46Y46*%
G04 Gerber Fmt 4.6, Leading zero omitted, Abs format (unit mm)*
G04 Created by KiCad (PCBNEW (5.0.0)) date 08/04/19 18:11:21*
%MOMM*%
%LPD*%
G01*
G04 APERTURE LIST*
%ADD10C,0.300000*%
%ADD11C,3.600000*%
%ADD12R,2.000000X2.000000*%
%ADD13O,2.000000X2.000000*%
%ADD14C,2.200000*%
%ADD15R,2.200000X2.200000*%
%ADD16R,2.100000X2.100000*%
%ADD17O,2.100000X2.100000*%
%ADD18O,1.900000X1.450000*%
%ADD19R,1.900000X1.450000*%
%ADD20R,2.400000X2.305000*%
%ADD21O,2.400000X2.305000*%
%ADD22C,2.000000*%
%ADD23C,1.924000*%
%ADD24R,1.924000X1.924000*%
G04 APERTURE END LIST*
D10*
X64421428Y-92878571D02*
X64421428Y-91878571D01*
X64421428Y-91378571D02*
X64492857Y-91450000D01*
X64421428Y-91521428D01*
X64350000Y-91450000D01*
X64421428Y-91378571D01*
X64421428Y-91521428D01*
X63707142Y-92878571D02*
X63707142Y-91878571D01*
X63707142Y-92164285D02*
X63635714Y-92021428D01*
X63564285Y-91950000D01*
X63421428Y-91878571D01*
X63278571Y-91878571D01*
X63135714Y-93021428D02*
X61992857Y-93021428D01*
X61707142Y-92807142D02*
X61564285Y-92878571D01*
X61278571Y-92878571D01*
X61135714Y-92807142D01*
X61064285Y-92664285D01*
X61064285Y-92592857D01*
X61135714Y-92450000D01*
X61278571Y-92378571D01*
X61492857Y-92378571D01*
X61635714Y-92307142D01*
X61707142Y-92164285D01*
X61707142Y-92092857D01*
X61635714Y-91950000D01*
X61492857Y-91878571D01*
X61278571Y-91878571D01*
X61135714Y-91950000D01*
X59850000Y-92807142D02*
X59992857Y-92878571D01*
X60278571Y-92878571D01*
X60421428Y-92807142D01*
X60492857Y-92664285D01*
X60492857Y-92092857D01*
X60421428Y-91950000D01*
X60278571Y-91878571D01*
X59992857Y-91878571D01*
X59850000Y-91950000D01*
X59778571Y-92092857D01*
X59778571Y-92235714D01*
X60492857Y-92378571D01*
X59135714Y-91878571D02*
X59135714Y-92878571D01*
X59135714Y-92021428D02*
X59064285Y-91950000D01*
X58921428Y-91878571D01*
X58707142Y-91878571D01*
X58564285Y-91950000D01*
X58492857Y-92092857D01*
X58492857Y-92878571D01*
X57135714Y-92878571D02*
X57135714Y-91378571D01*
X57135714Y-92807142D02*
X57278571Y-92878571D01*
X57564285Y-92878571D01*
X57707142Y-92807142D01*
X57778571Y-92735714D01*
X57850000Y-92592857D01*
X57850000Y-92164285D01*
X57778571Y-92021428D01*
X57707142Y-91950000D01*
X57564285Y-91878571D01*
X57278571Y-91878571D01*
X57135714Y-91950000D01*
X56778571Y-93021428D02*
X55635714Y-93021428D01*
X55278571Y-92878571D02*
X55278571Y-91378571D01*
X55278571Y-91950000D02*
X55135714Y-91878571D01*
X54850000Y-91878571D01*
X54707142Y-91950000D01*
X54635714Y-92021428D01*
X54564285Y-92164285D01*
X54564285Y-92592857D01*
X54635714Y-92735714D01*
X54707142Y-92807142D01*
X54850000Y-92878571D01*
X55135714Y-92878571D01*
X55278571Y-92807142D01*
X53707142Y-92878571D02*
X53850000Y-92807142D01*
X53921428Y-92735714D01*
X53992857Y-92592857D01*
X53992857Y-92164285D01*
X53921428Y-92021428D01*
X53850000Y-91950000D01*
X53707142Y-91878571D01*
X53492857Y-91878571D01*
X53350000Y-91950000D01*
X53278571Y-92021428D01*
X53207142Y-92164285D01*
X53207142Y-92592857D01*
X53278571Y-92735714D01*
X53350000Y-92807142D01*
X53492857Y-92878571D01*
X53707142Y-92878571D01*
X51921428Y-92878571D02*
X51921428Y-92092857D01*
X51992857Y-91950000D01*
X52135714Y-91878571D01*
X52421428Y-91878571D01*
X52564285Y-91950000D01*
X51921428Y-92807142D02*
X52064285Y-92878571D01*
X52421428Y-92878571D01*
X52564285Y-92807142D01*
X52635714Y-92664285D01*
X52635714Y-92521428D01*
X52564285Y-92378571D01*
X52421428Y-92307142D01*
X52064285Y-92307142D01*
X51921428Y-92235714D01*
X51207142Y-92878571D02*
X51207142Y-91878571D01*
X51207142Y-92164285D02*
X51135714Y-92021428D01*
X51064285Y-91950000D01*
X50921428Y-91878571D01*
X50778571Y-91878571D01*
X49635714Y-92878571D02*
X49635714Y-91378571D01*
X49635714Y-92807142D02*
X49778571Y-92878571D01*
X50064285Y-92878571D01*
X50207142Y-92807142D01*
X50278571Y-92735714D01*
X50350000Y-92592857D01*
X50350000Y-92164285D01*
X50278571Y-92021428D01*
X50207142Y-91950000D01*
X50064285Y-91878571D01*
X49778571Y-91878571D01*
X49635714Y-91950000D01*
X47921428Y-91878571D02*
X47564285Y-92878571D01*
X47207142Y-91878571D01*
X45850000Y-92878571D02*
X46707142Y-92878571D01*
X46278571Y-92878571D02*
X46278571Y-91378571D01*
X46421428Y-91592857D01*
X46564285Y-91735714D01*
X46707142Y-91807142D01*
X45207142Y-92735714D02*
X45135714Y-92807142D01*
X45207142Y-92878571D01*
X45278571Y-92807142D01*
X45207142Y-92735714D01*
X45207142Y-92878571D01*
X43707142Y-92878571D02*
X44564285Y-92878571D01*
X44135714Y-92878571D02*
X44135714Y-91378571D01*
X44278571Y-91592857D01*
X44421428Y-91735714D01*
X44564285Y-91807142D01*
%LPC*%
D11*
G04 #@! TO.C,hole2*
X73600000Y-49500000D03*
G04 #@! TD*
G04 #@! TO.C,hole1*
X33600000Y-49500000D03*
G04 #@! TD*
G04 #@! TO.C,hole4*
X73600000Y-89500000D03*
G04 #@! TD*
G04 #@! TO.C,hole3*
X33600000Y-89500000D03*
G04 #@! TD*
D12*
G04 #@! TO.C,SW2*
X53800000Y-73800000D03*
D13*
X46180000Y-81420000D03*
X51260000Y-73800000D03*
X48720000Y-81420000D03*
X48720000Y-73800000D03*
X51260000Y-81420000D03*
X46180000Y-73800000D03*
X53800000Y-81420000D03*
G04 #@! TD*
D14*
G04 #@! TO.C,D1*
X45640000Y-88200000D03*
D15*
X43100000Y-88200000D03*
G04 #@! TD*
G04 #@! TO.C,D2*
X49600000Y-88200000D03*
D14*
X52140000Y-88200000D03*
G04 #@! TD*
G04 #@! TO.C,D3*
X58640000Y-88200000D03*
D15*
X56100000Y-88200000D03*
G04 #@! TD*
G04 #@! TO.C,D4*
X62600000Y-88200000D03*
D14*
X65140000Y-88200000D03*
G04 #@! TD*
D15*
G04 #@! TO.C,D5*
X62100000Y-77400000D03*
D14*
X62100000Y-74860000D03*
G04 #@! TD*
D16*
G04 #@! TO.C,J1*
X40200000Y-51200000D03*
D17*
X40200000Y-53740000D03*
X40200000Y-56280000D03*
G04 #@! TD*
D18*
G04 #@! TO.C,Q1*
X59100000Y-57530000D03*
X59100000Y-56260000D03*
D19*
X59100000Y-58800000D03*
G04 #@! TD*
D20*
G04 #@! TO.C,Q2*
X66100000Y-53500000D03*
D21*
X66100000Y-56040000D03*
X66100000Y-58580000D03*
G04 #@! TD*
D22*
G04 #@! TO.C,R1*
X59200000Y-63300000D03*
D13*
X59200000Y-70920000D03*
G04 #@! TD*
G04 #@! TO.C,R2*
X62400000Y-70920000D03*
D22*
X62400000Y-63300000D03*
G04 #@! TD*
D13*
G04 #@! TO.C,R3*
X65600000Y-70920000D03*
D22*
X65600000Y-63300000D03*
G04 #@! TD*
G04 #@! TO.C,R4*
X39200000Y-69120000D03*
D13*
X39200000Y-61500000D03*
G04 #@! TD*
D22*
G04 #@! TO.C,R5*
X42300000Y-69120000D03*
D13*
X42300000Y-61500000D03*
G04 #@! TD*
G04 #@! TO.C,R6*
X62720000Y-51200000D03*
D22*
X55100000Y-51200000D03*
G04 #@! TD*
G04 #@! TO.C,R7*
X38900000Y-74300000D03*
D13*
X38900000Y-81920000D03*
G04 #@! TD*
G04 #@! TO.C,R8*
X35700000Y-81920000D03*
D22*
X35700000Y-74300000D03*
G04 #@! TD*
G04 #@! TO.C,R10*
X70300000Y-75500000D03*
D13*
X70300000Y-83120000D03*
G04 #@! TD*
D23*
G04 #@! TO.C,SW1*
X52340000Y-50160000D03*
D24*
X52340000Y-55240000D03*
D23*
X44720000Y-50160000D03*
X44720000Y-55240000D03*
X44720000Y-52700000D03*
G04 #@! TD*
D12*
G04 #@! TO.C,U1*
X47100000Y-61300000D03*
D13*
X54720000Y-68920000D03*
X47100000Y-63840000D03*
X54720000Y-66380000D03*
X47100000Y-66380000D03*
X54720000Y-63840000D03*
X47100000Y-68920000D03*
X54720000Y-61300000D03*
G04 #@! TD*
D22*
G04 #@! TO.C,R9*
X67200000Y-83120000D03*
D13*
X67200000Y-75500000D03*
G04 #@! TD*
D16*
G04 #@! TO.C,J2*
X73800000Y-56400000D03*
D17*
X73800000Y-58940000D03*
X73800000Y-61480000D03*
X73800000Y-64020000D03*
X73800000Y-66560000D03*
G04 #@! TD*
D22*
G04 #@! TO.C,R11*
X69400000Y-70900000D03*
D13*
X69400000Y-63280000D03*
G04 #@! TD*
D16*
G04 #@! TO.C,SW3*
X33100000Y-67700000D03*
D17*
X33100000Y-65160000D03*
X33100000Y-62620000D03*
G04 #@! TD*
G04 #@! TO.C,SW4*
X74300000Y-77980000D03*
X74300000Y-75440000D03*
D16*
X74300000Y-72900000D03*
G04 #@! TD*
M02*
