M48
;DRILL file {KiCad (5.0.0)} date 09/04/19 21:05:28
;FORMAT={-:-/ absolute / metric / decimal}
FMAT,2
METRIC,TZ
T1C0.400
T2C0.750
T3C0.800
T4C0.900
T5C1.000
T6C1.100
T7C3.200
%
G90
G05
M71
T1
X47.578Y-91.987
T2
X54.1Y-110.55
X55.37Y-110.55
X56.64Y-110.55
T3
X41.75Y-118.05
X41.75Y-125.67
X49.65Y-118.1
X49.65Y-125.72
X42.95Y-95.75
X42.95Y-98.29
X42.95Y-100.83
X42.95Y-103.37
X50.57Y-95.75
X50.57Y-98.29
X50.57Y-100.83
X50.57Y-103.37
X38.65Y-118.05
X38.65Y-125.67
X36.85Y-83.25
X36.85Y-90.87
X40.05Y-83.25
X40.05Y-90.87
X35.55Y-118.05
X35.55Y-125.67
X49.67Y-84.46
X49.67Y-87.
X49.67Y-89.54
X57.29Y-84.46
X57.29Y-89.54
X38.2Y-96.2
X38.2Y-103.82
X32.4Y-118.05
X32.4Y-125.67
X46.5Y-118.1
X46.5Y-125.72
X37.38Y-107.15
X37.38Y-114.77
X39.92Y-107.15
X39.92Y-114.77
X42.46Y-107.15
X42.46Y-114.77
X45.Y-107.15
X45.Y-114.77
X43.25Y-83.25
X43.25Y-90.87
X33.65Y-83.25
X33.65Y-90.87
T4
X55.45Y-100.05
X57.99Y-100.05
X53.7Y-131.8
X56.24Y-131.8
X47.2Y-131.8
X49.74Y-131.8
X40.7Y-131.8
X43.24Y-131.8
X34.2Y-131.8
X36.74Y-131.8
T5
X42.67Y-49.75
X45.21Y-49.75
X47.75Y-49.75
X33.15Y-97.37
X33.15Y-99.91
X33.15Y-102.45
X42.65Y-76.7
X45.19Y-76.7
X47.73Y-76.7
X40.14Y-68.55
X42.68Y-68.55
X45.22Y-68.55
X47.76Y-68.55
X50.3Y-68.55
T6
X54.4Y-116.75
X54.4Y-119.29
X54.4Y-121.83
T7
X33.6Y-139.7
X56.8Y-139.7
X56.8Y-49.7
X33.6Y-49.7
T0
M30
