M48
;DRILL file {KiCad (5.0.0)} date 08/04/19 18:11:24
;FORMAT={-:-/ absolute / metric / decimal}
FMAT,2
METRIC,TZ
T1C0.750
T2C0.800
T3C0.900
T4C1.000
T5C1.100
T6C3.200
%
G90
G05
M71
T1
X59.1Y-56.26
X59.1Y-57.53
X59.1Y-58.8
T2
X47.1Y-61.3
X47.1Y-63.84
X47.1Y-66.38
X47.1Y-68.92
X54.72Y-61.3
X54.72Y-63.84
X54.72Y-66.38
X54.72Y-68.92
X59.2Y-63.3
X59.2Y-70.92
X35.7Y-74.3
X35.7Y-81.92
X65.6Y-63.3
X65.6Y-70.92
X62.4Y-63.3
X62.4Y-70.92
X38.9Y-74.3
X38.9Y-81.92
X69.4Y-63.28
X69.4Y-70.9
X55.1Y-51.2
X62.72Y-51.2
X67.2Y-75.5
X67.2Y-83.12
X46.18Y-73.8
X46.18Y-81.42
X48.72Y-73.8
X48.72Y-81.42
X51.26Y-73.8
X51.26Y-81.42
X53.8Y-73.8
X53.8Y-81.42
X42.3Y-61.5
X42.3Y-69.12
X44.72Y-50.16
X44.72Y-52.7
X44.72Y-55.24
X52.34Y-50.16
X52.34Y-55.24
X39.2Y-61.5
X39.2Y-69.12
X70.3Y-75.5
X70.3Y-83.12
T3
X56.1Y-88.2
X58.64Y-88.2
X49.6Y-88.2
X52.14Y-88.2
X43.1Y-88.2
X45.64Y-88.2
X62.1Y-74.86
X62.1Y-77.4
X62.6Y-88.2
X65.14Y-88.2
T4
X73.8Y-56.4
X73.8Y-58.94
X73.8Y-61.48
X73.8Y-64.02
X73.8Y-66.56
X40.2Y-51.2
X40.2Y-53.74
X40.2Y-56.28
X74.3Y-72.9
X74.3Y-75.44
X74.3Y-77.98
X33.1Y-62.62
X33.1Y-65.16
X33.1Y-67.7
T5
X66.1Y-53.5
X66.1Y-56.04
X66.1Y-58.58
T6
X73.6Y-49.5
X33.6Y-89.5
X73.6Y-89.5
X33.6Y-49.5
T0
M30
